%TF.GenerationSoftware,KiCad,Pcbnew,10.0.6*%
%TF.CreationDate,2026-10-02T04:25:34-04:00*%
%TF.ProjectId,Vamora75,56616d6f-7261-4373-952e-6b696361645f,1.1*%
%TF.SameCoordinates,Original*%
%TF.FileFunction,Soldermask,Bot*%
%TF.FilePolarity,Negative*%
%FSLAX46Y46*%
G04 Gerber Fmt 4.6, Leading zero omitted, Abs format (unit mm)*
G04 Created by KiCad (PCBNEW 10.0.6) date 2026-10-02 04:25:34*
%MOMM*%
%LPD*%
G01*
G04 APERTURE LIST*
G04 Aperture macros list*
%AMRoundRect*
0 Rectangle with rounded corners*
0 $1 Rounding radius*
0 $2 $3 $4 $5 $6 $7 $8 $9 X,Y pos of 4 corners*
0 Add a 4 corners polygon primitive as box body*
4,1,4,$2,$3,$4,$5,$6,$7,$8,$9,$2,$3,0*
0 Add four circle primitives for the rounded corners*
1,1,$1+$1,$2,$3*
1,1,$1+$1,$4,$5*
1,1,$1+$1,$6,$7*
1,1,$1+$1,$8,$9*
0 Add four rect primitives between the rounded corners*
20,1,$1+$1,$2,$3,$4,$5,0*
20,1,$1+$1,$4,$5,$6,$7,0*
20,1,$1+$1,$6,$7,$8,$9,0*
20,1,$1+$1,$8,$9,$2,$3,0*%
G04 Aperture macros list end*
%ADD10C,1.750000*%
%ADD11C,3.050000*%
%ADD12C,4.000000*%
%ADD13RoundRect,0.250000X-1.025000X-1.000000X1.025000X-1.000000X1.025000X1.000000X-1.025000X1.000000X0*%
%ADD14C,3.048000*%
%ADD15C,3.987800*%
%ADD16RoundRect,0.225000X0.375000X-0.225000X0.375000X0.225000X-0.375000X0.225000X-0.375000X-0.225000X0*%
%ADD17RoundRect,0.062500X0.387500X0.062500X-0.387500X0.062500X-0.387500X-0.062500X0.387500X-0.062500X0*%
%ADD18R,0.200000X1.600000*%
%ADD19RoundRect,0.140000X0.140000X0.170000X-0.140000X0.170000X-0.140000X-0.170000X0.140000X-0.170000X0*%
%ADD20R,1.000000X0.750000*%
%ADD21C,2.000000*%
%ADD22RoundRect,0.150000X0.587500X0.150000X-0.587500X0.150000X-0.587500X-0.150000X0.587500X-0.150000X0*%
%ADD23RoundRect,0.135000X-0.185000X0.135000X-0.185000X-0.135000X0.185000X-0.135000X0.185000X0.135000X0*%
%ADD24C,1.000000*%
%ADD25RoundRect,0.140000X-0.140000X-0.170000X0.140000X-0.170000X0.140000X0.170000X-0.140000X0.170000X0*%
%ADD26RoundRect,0.140000X-0.170000X0.140000X-0.170000X-0.140000X0.170000X-0.140000X0.170000X0.140000X0*%
%ADD27RoundRect,0.225000X-0.250000X0.225000X-0.250000X-0.225000X0.250000X-0.225000X0.250000X0.225000X0*%
%ADD28RoundRect,0.140000X0.170000X-0.140000X0.170000X0.140000X-0.170000X0.140000X-0.170000X-0.140000X0*%
%ADD29RoundRect,0.050000X0.387500X0.050000X-0.387500X0.050000X-0.387500X-0.050000X0.387500X-0.050000X0*%
%ADD30RoundRect,0.050000X0.050000X0.387500X-0.050000X0.387500X-0.050000X-0.387500X0.050000X-0.387500X0*%
%ADD31R,3.200000X3.200000*%
%ADD32RoundRect,0.150000X-0.150000X0.512500X-0.150000X-0.512500X0.150000X-0.512500X0.150000X0.512500X0*%
%ADD33RoundRect,0.135000X0.185000X-0.135000X0.185000X0.135000X-0.185000X0.135000X-0.185000X-0.135000X0*%
%ADD34RoundRect,0.225000X0.250000X-0.225000X0.250000X0.225000X-0.250000X0.225000X-0.250000X-0.225000X0*%
%ADD35RoundRect,0.243750X-0.456250X0.243750X-0.456250X-0.243750X0.456250X-0.243750X0.456250X0.243750X0*%
%ADD36RoundRect,0.250000X0.450000X0.350000X-0.450000X0.350000X-0.450000X-0.350000X0.450000X-0.350000X0*%
%ADD37RoundRect,0.135000X-0.135000X-0.185000X0.135000X-0.185000X0.135000X0.185000X-0.135000X0.185000X0*%
%ADD38C,0.650000*%
%ADD39R,0.600000X1.450000*%
%ADD40R,0.300000X1.450000*%
%ADD41O,1.000000X1.600000*%
%ADD42O,1.000000X2.100000*%
%ADD43RoundRect,0.135000X0.135000X0.185000X-0.135000X0.185000X-0.135000X-0.185000X0.135000X-0.185000X0*%
G04 APERTURE END LIST*
D10*
%TO.C,SW48*%
X118882500Y-159200000D03*
D11*
X120152500Y-156660000D03*
D12*
X123962500Y-159200000D03*
D11*
X126502500Y-154120000D03*
D10*
X129042500Y-159200000D03*
D13*
X116877500Y-156660000D03*
X129804500Y-154120000D03*
%TD*%
D10*
%TO.C,SW56*%
X271282500Y-159200000D03*
D11*
X272552500Y-156660000D03*
D12*
X276362500Y-159200000D03*
D11*
X278902500Y-154120000D03*
D10*
X281442500Y-159200000D03*
D13*
X269277500Y-156660000D03*
X282204500Y-154120000D03*
%TD*%
D10*
%TO.C,SW38*%
X209370000Y-140150000D03*
D11*
X210640000Y-137610000D03*
D12*
X214450000Y-140150000D03*
D11*
X216990000Y-135070000D03*
D10*
X219530000Y-140150000D03*
D13*
X207365000Y-137610000D03*
X220292000Y-135070000D03*
%TD*%
D10*
%TO.C,SW25*%
X237945000Y-121100000D03*
D11*
X239215000Y-118560000D03*
D12*
X243025000Y-121100000D03*
D11*
X245565000Y-116020000D03*
D10*
X248105000Y-121100000D03*
D13*
X235940000Y-118560000D03*
X248867000Y-116020000D03*
%TD*%
D10*
%TO.C,SW2*%
X85545000Y-92525000D03*
D11*
X86815000Y-89985000D03*
D12*
X90625000Y-92525000D03*
D11*
X93165000Y-87445000D03*
D10*
X95705000Y-92525000D03*
D13*
X83540000Y-89985000D03*
X96467000Y-87445000D03*
%TD*%
D10*
%TO.C,SW11*%
X266520000Y-92525000D03*
D11*
X267790000Y-89985000D03*
D12*
X271600000Y-92525000D03*
D11*
X274140000Y-87445000D03*
D10*
X276680000Y-92525000D03*
D13*
X264515000Y-89985000D03*
X277442000Y-87445000D03*
%TD*%
D10*
%TO.C,SW34*%
X133170000Y-140150000D03*
D11*
X134440000Y-137610000D03*
D12*
X138250000Y-140150000D03*
D11*
X140790000Y-135070000D03*
D10*
X143330000Y-140150000D03*
D13*
X131165000Y-137610000D03*
X144092000Y-135070000D03*
%TD*%
D10*
%TO.C,SW8*%
X204607500Y-92525000D03*
D11*
X205877500Y-89985000D03*
D12*
X209687500Y-92525000D03*
D11*
X212227500Y-87445000D03*
D10*
X214767500Y-92525000D03*
D13*
X202602500Y-89985000D03*
X215529500Y-87445000D03*
%TD*%
D10*
%TO.C,SW30*%
X52207500Y-140150000D03*
D11*
X53477500Y-137610000D03*
D12*
X57287500Y-140150000D03*
D11*
X59827500Y-135070000D03*
D10*
X62367500Y-140150000D03*
D13*
X50202500Y-137610000D03*
X63129500Y-135070000D03*
%TD*%
D10*
%TO.C,SW26*%
X256995000Y-121100000D03*
D11*
X258265000Y-118560000D03*
D12*
X262075000Y-121100000D03*
D11*
X264615000Y-116020000D03*
D10*
X267155000Y-121100000D03*
D13*
X254990000Y-118560000D03*
X267917000Y-116020000D03*
%TD*%
D14*
%TO.C,ST2*%
X295380750Y-152215000D03*
D15*
X295380750Y-167425000D03*
D14*
X319256750Y-152215000D03*
D15*
X319256750Y-167425000D03*
%TD*%
D10*
%TO.C,SW4*%
X123645000Y-92525000D03*
D11*
X124915000Y-89985000D03*
D12*
X128725000Y-92525000D03*
D11*
X131265000Y-87445000D03*
D10*
X133805000Y-92525000D03*
D13*
X121640000Y-89985000D03*
X134567000Y-87445000D03*
%TD*%
D10*
%TO.C,SW76*%
X168888750Y-197300000D03*
D11*
X170158750Y-194760000D03*
D12*
X173968750Y-197300000D03*
D11*
X176508750Y-192220000D03*
D10*
X179048750Y-197300000D03*
D13*
X166883750Y-194760000D03*
X179810750Y-192220000D03*
%TD*%
D10*
%TO.C,SW60*%
X90307500Y-178250000D03*
D11*
X91577500Y-175710000D03*
D12*
X95387500Y-178250000D03*
D11*
X97927500Y-173170000D03*
D10*
X100467500Y-178250000D03*
D13*
X88302500Y-175710000D03*
X101229500Y-173170000D03*
%TD*%
D10*
%TO.C,SW58*%
X357007500Y-159200000D03*
D11*
X358277500Y-156660000D03*
D12*
X362087500Y-159200000D03*
D11*
X364627500Y-154120000D03*
D10*
X367167500Y-159200000D03*
D13*
X355002500Y-156660000D03*
X367929500Y-154120000D03*
%TD*%
D10*
%TO.C,SW22*%
X180795000Y-121100000D03*
D11*
X182065000Y-118560000D03*
D12*
X185875000Y-121100000D03*
D11*
X188415000Y-116020000D03*
D10*
X190955000Y-121100000D03*
D13*
X178790000Y-118560000D03*
X191717000Y-116020000D03*
%TD*%
D10*
%TO.C,SW44*%
X357007500Y-140150000D03*
D11*
X358277500Y-137610000D03*
D12*
X362087500Y-140150000D03*
D11*
X364627500Y-135070000D03*
D10*
X367167500Y-140150000D03*
D13*
X355002500Y-137610000D03*
X367929500Y-135070000D03*
%TD*%
D10*
%TO.C,SW80*%
X314145000Y-202062500D03*
D11*
X315415000Y-199522500D03*
D12*
X319225000Y-202062500D03*
D11*
X321765000Y-196982500D03*
D10*
X324305000Y-202062500D03*
D13*
X312140000Y-199522500D03*
X325067000Y-196982500D03*
%TD*%
D10*
%TO.C,SW9*%
X223657500Y-92525000D03*
D11*
X224927500Y-89985000D03*
D12*
X228737500Y-92525000D03*
D11*
X231277500Y-87445000D03*
D10*
X233817500Y-92525000D03*
D13*
X221652500Y-89985000D03*
X234579500Y-87445000D03*
%TD*%
D10*
%TO.C,SW15*%
X47445000Y-121100000D03*
D11*
X48715000Y-118560000D03*
D12*
X52525000Y-121100000D03*
D11*
X55065000Y-116020000D03*
D10*
X57605000Y-121100000D03*
D13*
X45440000Y-118560000D03*
X58367000Y-116020000D03*
%TD*%
D10*
%TO.C,SW39*%
X228420000Y-140150000D03*
D11*
X229690000Y-137610000D03*
D12*
X233500000Y-140150000D03*
D11*
X236040000Y-135070000D03*
D10*
X238580000Y-140150000D03*
D13*
X226415000Y-137610000D03*
X239342000Y-135070000D03*
%TD*%
D10*
%TO.C,SW41*%
X266520000Y-140150000D03*
D11*
X267790000Y-137610000D03*
D12*
X271600000Y-140150000D03*
D11*
X274140000Y-135070000D03*
D10*
X276680000Y-140150000D03*
D13*
X264515000Y-137610000D03*
X277442000Y-135070000D03*
%TD*%
D10*
%TO.C,SW57*%
X302238750Y-159200000D03*
D11*
X303508750Y-156660000D03*
D12*
X307318750Y-159200000D03*
D11*
X309858750Y-154120000D03*
D10*
X312398750Y-159200000D03*
D13*
X300233750Y-156660000D03*
X313160750Y-154120000D03*
%TD*%
D10*
%TO.C,SW16*%
X66495000Y-121100000D03*
D11*
X67765000Y-118560000D03*
D12*
X71575000Y-121100000D03*
D11*
X74115000Y-116020000D03*
D10*
X76655000Y-121100000D03*
D13*
X64490000Y-118560000D03*
X77417000Y-116020000D03*
%TD*%
D10*
%TO.C,SW62*%
X128407500Y-178250000D03*
D11*
X129677500Y-175710000D03*
D12*
X133487500Y-178250000D03*
D11*
X136027500Y-173170000D03*
D10*
X138567500Y-178250000D03*
D13*
X126402500Y-175710000D03*
X139329500Y-173170000D03*
%TD*%
D10*
%TO.C,SW70*%
X287951250Y-178250000D03*
D11*
X289221250Y-175710000D03*
D12*
X293031250Y-178250000D03*
D11*
X295571250Y-173170000D03*
D10*
X298111250Y-178250000D03*
D13*
X285946250Y-175710000D03*
X298873250Y-173170000D03*
%TD*%
D10*
%TO.C,SW54*%
X233182500Y-159200000D03*
D11*
X234452500Y-156660000D03*
D12*
X238262500Y-159200000D03*
D11*
X240802500Y-154120000D03*
D10*
X243342500Y-159200000D03*
D13*
X231177500Y-156660000D03*
X244104500Y-154120000D03*
%TD*%
D10*
%TO.C,SW42*%
X285570000Y-140150000D03*
D11*
X286840000Y-137610000D03*
D12*
X290650000Y-140150000D03*
D11*
X293190000Y-135070000D03*
D10*
X295730000Y-140150000D03*
D13*
X283565000Y-137610000D03*
X296492000Y-135070000D03*
%TD*%
D10*
%TO.C,SW72*%
X357007500Y-178250000D03*
D11*
X358277500Y-175710000D03*
D12*
X362087500Y-178250000D03*
D11*
X364627500Y-173170000D03*
D10*
X367167500Y-178250000D03*
D13*
X355002500Y-175710000D03*
X367929500Y-173170000D03*
%TD*%
D10*
%TO.C,SW10*%
X247470000Y-92525000D03*
D11*
X248740000Y-89985000D03*
D12*
X252550000Y-92525000D03*
D11*
X255090000Y-87445000D03*
D10*
X257630000Y-92525000D03*
D13*
X245465000Y-89985000D03*
X258392000Y-87445000D03*
%TD*%
D14*
%TO.C,ST4*%
X123968750Y-190315000D03*
D15*
X123968750Y-205525000D03*
D14*
X223968750Y-190315000D03*
D15*
X223968750Y-205525000D03*
%TD*%
D10*
%TO.C,SW51*%
X176032500Y-159200000D03*
D11*
X177302500Y-156660000D03*
D12*
X181112500Y-159200000D03*
D11*
X183652500Y-154120000D03*
D10*
X186192500Y-159200000D03*
D13*
X174027500Y-156660000D03*
X186954500Y-154120000D03*
%TD*%
D10*
%TO.C,SW82*%
X352245000Y-202062500D03*
D11*
X353515000Y-199522500D03*
D12*
X357325000Y-202062500D03*
D11*
X359865000Y-196982500D03*
D10*
X362405000Y-202062500D03*
D13*
X350240000Y-199522500D03*
X363167000Y-196982500D03*
%TD*%
D10*
%TO.C,SW46*%
X80782500Y-159200000D03*
D11*
X82052500Y-156660000D03*
D12*
X85862500Y-159200000D03*
D11*
X88402500Y-154120000D03*
D10*
X90942500Y-159200000D03*
D13*
X78777500Y-156660000D03*
X91704500Y-154120000D03*
%TD*%
D10*
%TO.C,SW69*%
X261757499Y-178250000D03*
D11*
X263027499Y-175710000D03*
D12*
X266837499Y-178250000D03*
D11*
X269377499Y-173170000D03*
D10*
X271917499Y-178250000D03*
D13*
X259752499Y-175710000D03*
X272679499Y-173170000D03*
%TD*%
D10*
%TO.C,SW37*%
X190320000Y-140150000D03*
D11*
X191590000Y-137610000D03*
D12*
X195400000Y-140150000D03*
D11*
X197940000Y-135070000D03*
D10*
X200480000Y-140150000D03*
D13*
X188315000Y-137610000D03*
X201242000Y-135070000D03*
%TD*%
D10*
%TO.C,SW75*%
X97451250Y-197300000D03*
D11*
X98721250Y-194760000D03*
D12*
X102531250Y-197300000D03*
D11*
X105071250Y-192220000D03*
D10*
X107611250Y-197300000D03*
D13*
X95446250Y-194760000D03*
X108373250Y-192220000D03*
%TD*%
D10*
%TO.C,SW40*%
X247470000Y-140150000D03*
D11*
X248740000Y-137610000D03*
D12*
X252550000Y-140150000D03*
D11*
X255090000Y-135070000D03*
D10*
X257630000Y-140150000D03*
D13*
X245465000Y-137610000D03*
X258392000Y-135070000D03*
%TD*%
D10*
%TO.C,SW79*%
X276045000Y-197300000D03*
D11*
X277315000Y-194760000D03*
D12*
X281125000Y-197300000D03*
D11*
X283665000Y-192220000D03*
D10*
X286205000Y-197300000D03*
D13*
X274040000Y-194760000D03*
X286967000Y-192220000D03*
%TD*%
D10*
%TO.C,SW18*%
X104595000Y-121100000D03*
D11*
X105865000Y-118560000D03*
D12*
X109675000Y-121100000D03*
D11*
X112215000Y-116020000D03*
D10*
X114755000Y-121100000D03*
D13*
X102590000Y-118560000D03*
X115517000Y-116020000D03*
%TD*%
D10*
%TO.C,SW59*%
X59351250Y-178250000D03*
D11*
X60621250Y-175710000D03*
D12*
X64431250Y-178250000D03*
D11*
X66971250Y-173170000D03*
D10*
X69511250Y-178250000D03*
D13*
X57346250Y-175710000D03*
X70273250Y-173170000D03*
%TD*%
D10*
%TO.C,SW81*%
X333195000Y-202062500D03*
D11*
X334465000Y-199522500D03*
D12*
X338275000Y-202062500D03*
D11*
X340815000Y-196982500D03*
D10*
X343355000Y-202062500D03*
D13*
X331190000Y-199522500D03*
X344117000Y-196982500D03*
%TD*%
D10*
%TO.C,SW14*%
X357007500Y-92525000D03*
D11*
X358277500Y-89985000D03*
D12*
X362087500Y-92525000D03*
D11*
X364627500Y-87445000D03*
D10*
X367167500Y-92525000D03*
D13*
X355002500Y-89985000D03*
X367929500Y-87445000D03*
%TD*%
D10*
%TO.C,SW64*%
X166507500Y-178250000D03*
D11*
X167777500Y-175710000D03*
D12*
X171587500Y-178250000D03*
D11*
X174127500Y-173170000D03*
D10*
X176667500Y-178250000D03*
D13*
X164502500Y-175710000D03*
X177429500Y-173170000D03*
%TD*%
D10*
%TO.C,SW45*%
X54588750Y-159200000D03*
D11*
X55858750Y-156660000D03*
D12*
X59668750Y-159200000D03*
D11*
X62208750Y-154120000D03*
D10*
X64748750Y-159200000D03*
D13*
X52583750Y-156660000D03*
X65510750Y-154120000D03*
%TD*%
D10*
%TO.C,SW31*%
X76020000Y-140150000D03*
D11*
X77290000Y-137610000D03*
D12*
X81100000Y-140150000D03*
D11*
X83640000Y-135070000D03*
D10*
X86180000Y-140150000D03*
D13*
X74015000Y-137610000D03*
X86942000Y-135070000D03*
%TD*%
D10*
%TO.C,SW68*%
X242707500Y-178250000D03*
D11*
X243977500Y-175710000D03*
D12*
X247787500Y-178250000D03*
D11*
X250327500Y-173170000D03*
D10*
X252867500Y-178250000D03*
D13*
X240702500Y-175710000D03*
X253629500Y-173170000D03*
%TD*%
D14*
%TO.C,ST1*%
X297762000Y-114115000D03*
D15*
X297762000Y-129325000D03*
D14*
X321638000Y-114115000D03*
D15*
X321638000Y-129325000D03*
%TD*%
D10*
%TO.C,SW24*%
X218895000Y-121100000D03*
D11*
X220165000Y-118560000D03*
D12*
X223975000Y-121100000D03*
D11*
X226515000Y-116020000D03*
D10*
X229055000Y-121100000D03*
D13*
X216890000Y-118560000D03*
X229817000Y-116020000D03*
%TD*%
D10*
%TO.C,SW17*%
X85545000Y-121100000D03*
D11*
X86815000Y-118560000D03*
D12*
X90625000Y-121100000D03*
D11*
X93165000Y-116020000D03*
D10*
X95705000Y-121100000D03*
D13*
X83540000Y-118560000D03*
X96467000Y-116020000D03*
%TD*%
D10*
%TO.C,SW1*%
X47445000Y-92525000D03*
D11*
X48715000Y-89985000D03*
D12*
X52525000Y-92525000D03*
D11*
X55065000Y-87445000D03*
D10*
X57605000Y-92525000D03*
D13*
X45440000Y-89985000D03*
X58367000Y-87445000D03*
%TD*%
D10*
%TO.C,SW55*%
X252232500Y-159200000D03*
D11*
X253502500Y-156660000D03*
D12*
X257312500Y-159200000D03*
D11*
X259852500Y-154120000D03*
D10*
X262392500Y-159200000D03*
D13*
X250227500Y-156660000D03*
X263154500Y-154120000D03*
%TD*%
D10*
%TO.C,SW23*%
X199845000Y-121100000D03*
D11*
X201115000Y-118560000D03*
D12*
X204925000Y-121100000D03*
D11*
X207465000Y-116020000D03*
D10*
X210005000Y-121100000D03*
D13*
X197840000Y-118560000D03*
X210767000Y-116020000D03*
%TD*%
D10*
%TO.C,SW13*%
X304620000Y-92525000D03*
D11*
X305890000Y-89985000D03*
D12*
X309700000Y-92525000D03*
D11*
X312240000Y-87445000D03*
D10*
X314780000Y-92525000D03*
D13*
X302615000Y-89985000D03*
X315542000Y-87445000D03*
%TD*%
D10*
%TO.C,SW5*%
X142695000Y-92525000D03*
D11*
X143965000Y-89985000D03*
D12*
X147775000Y-92525000D03*
D11*
X150315000Y-87445000D03*
D10*
X152855000Y-92525000D03*
D13*
X140690000Y-89985000D03*
X153617000Y-87445000D03*
%TD*%
D10*
%TO.C,SW35*%
X152220000Y-140150000D03*
D11*
X153490000Y-137610000D03*
D12*
X157300000Y-140150000D03*
D11*
X159840000Y-135070000D03*
D10*
X162380000Y-140150000D03*
D13*
X150215000Y-137610000D03*
X163142000Y-135070000D03*
%TD*%
D10*
%TO.C,SW27*%
X276045000Y-121100000D03*
D11*
X277315000Y-118560000D03*
D12*
X281125000Y-121100000D03*
D11*
X283665000Y-116020000D03*
D10*
X286205000Y-121100000D03*
D13*
X274040000Y-118560000D03*
X286967000Y-116020000D03*
%TD*%
D10*
%TO.C,SW74*%
X73638750Y-197300000D03*
D11*
X74908750Y-194760000D03*
D12*
X78718750Y-197300000D03*
D11*
X81258750Y-192220000D03*
D10*
X83798750Y-197300000D03*
D13*
X71633750Y-194760000D03*
X84560750Y-192220000D03*
%TD*%
D10*
%TO.C,SW19*%
X123645000Y-121100000D03*
D11*
X124915000Y-118560000D03*
D12*
X128725000Y-121100000D03*
D11*
X131265000Y-116020000D03*
D10*
X133805000Y-121100000D03*
D13*
X121640000Y-118560000D03*
X134567000Y-116020000D03*
%TD*%
D10*
%TO.C,SW67*%
X223657500Y-178250000D03*
D11*
X224927500Y-175710000D03*
D12*
X228737500Y-178250000D03*
D11*
X231277500Y-173170000D03*
D10*
X233817500Y-178250000D03*
D13*
X221652500Y-175710000D03*
X234579500Y-173170000D03*
%TD*%
D10*
%TO.C,SW53*%
X214132500Y-159200000D03*
D11*
X215402500Y-156660000D03*
D12*
X219212500Y-159200000D03*
D11*
X221752500Y-154120000D03*
D10*
X224292500Y-159200000D03*
D13*
X212127500Y-156660000D03*
X225054500Y-154120000D03*
%TD*%
D10*
%TO.C,SW36*%
X171270000Y-140150000D03*
D11*
X172540000Y-137610000D03*
D12*
X176350000Y-140150000D03*
D11*
X178890000Y-135070000D03*
D10*
X181430000Y-140150000D03*
D13*
X169265000Y-137610000D03*
X182192000Y-135070000D03*
%TD*%
D10*
%TO.C,SW32*%
X95070000Y-140150000D03*
D11*
X96340000Y-137610000D03*
D12*
X100150000Y-140150000D03*
D11*
X102690000Y-135070000D03*
D10*
X105230000Y-140150000D03*
D13*
X93065000Y-137610000D03*
X105992000Y-135070000D03*
%TD*%
D10*
%TO.C,SW49*%
X137932500Y-159200000D03*
D11*
X139202500Y-156660000D03*
D12*
X143012500Y-159200000D03*
D11*
X145552500Y-154120000D03*
D10*
X148092500Y-159200000D03*
D13*
X135927500Y-156660000D03*
X148854500Y-154120000D03*
%TD*%
D10*
%TO.C,SW65*%
X185557500Y-178250000D03*
D11*
X186827500Y-175710000D03*
D12*
X190637500Y-178250000D03*
D11*
X193177500Y-173170000D03*
D10*
X195717500Y-178250000D03*
D13*
X183552500Y-175710000D03*
X196479500Y-173170000D03*
%TD*%
D10*
%TO.C,SW33*%
X114120000Y-140150000D03*
D11*
X115390000Y-137610000D03*
D12*
X119200000Y-140150000D03*
D11*
X121740000Y-135070000D03*
D10*
X124280000Y-140150000D03*
D13*
X112115000Y-137610000D03*
X125042000Y-135070000D03*
%TD*%
D10*
%TO.C,SW28*%
X304620000Y-121100000D03*
D11*
X305890000Y-118560000D03*
D12*
X309700000Y-121100000D03*
D11*
X312240000Y-116020000D03*
D10*
X314780000Y-121100000D03*
D13*
X302615000Y-118560000D03*
X315542000Y-116020000D03*
%TD*%
D10*
%TO.C,SW6*%
X166507500Y-92525000D03*
D11*
X167777500Y-89985000D03*
D12*
X171587500Y-92525000D03*
D11*
X174127500Y-87445000D03*
D10*
X176667500Y-92525000D03*
D13*
X164502500Y-89985000D03*
X177429500Y-87445000D03*
%TD*%
D10*
%TO.C,SW29*%
X357007500Y-121100000D03*
D11*
X358277500Y-118560000D03*
D12*
X362087500Y-121100000D03*
D11*
X364627500Y-116020000D03*
D10*
X367167500Y-121100000D03*
D13*
X355002500Y-118560000D03*
X367929500Y-116020000D03*
%TD*%
D10*
%TO.C,SW50*%
X156982500Y-159200000D03*
D11*
X158252500Y-156660000D03*
D12*
X162062500Y-159200000D03*
D11*
X164602500Y-154120000D03*
D10*
X167142500Y-159200000D03*
D13*
X154977500Y-156660000D03*
X167904500Y-154120000D03*
%TD*%
D10*
%TO.C,SW73*%
X49826250Y-197300000D03*
D11*
X51096250Y-194760000D03*
D12*
X54906250Y-197300000D03*
D11*
X57446250Y-192220000D03*
D10*
X59986250Y-197300000D03*
D13*
X47821250Y-194760000D03*
X60748250Y-192220000D03*
%TD*%
D10*
%TO.C,SW71*%
X333195000Y-183012500D03*
D11*
X334465000Y-180472500D03*
D12*
X338275000Y-183012500D03*
D11*
X340815000Y-177932500D03*
D10*
X343355000Y-183012500D03*
D13*
X331190000Y-180472500D03*
X344117000Y-177932500D03*
%TD*%
D10*
%TO.C,SW61*%
X109357500Y-178250000D03*
D11*
X110627500Y-175710000D03*
D12*
X114437500Y-178250000D03*
D11*
X116977500Y-173170000D03*
D10*
X119517500Y-178250000D03*
D13*
X107352500Y-175710000D03*
X120279500Y-173170000D03*
%TD*%
D10*
%TO.C,SW21*%
X161745000Y-121100000D03*
D11*
X163015000Y-118560000D03*
D12*
X166825000Y-121100000D03*
D11*
X169365000Y-116020000D03*
D10*
X171905000Y-121100000D03*
D13*
X159740000Y-118560000D03*
X172667000Y-116020000D03*
%TD*%
D10*
%TO.C,SW7*%
X185557500Y-92525000D03*
D11*
X186827500Y-89985000D03*
D12*
X190637500Y-92525000D03*
D11*
X193177500Y-87445000D03*
D10*
X195717500Y-92525000D03*
D13*
X183552500Y-89985000D03*
X196479500Y-87445000D03*
%TD*%
D14*
%TO.C,ST3*%
X52493250Y-171265000D03*
D15*
X52493250Y-186475000D03*
D14*
X76369250Y-171265000D03*
D15*
X76369250Y-186475000D03*
%TD*%
D10*
%TO.C,SW3*%
X104595000Y-92525000D03*
D11*
X105865000Y-89985000D03*
D12*
X109675000Y-92525000D03*
D11*
X112215000Y-87445000D03*
D10*
X114755000Y-92525000D03*
D13*
X102590000Y-89985000D03*
X115517000Y-87445000D03*
%TD*%
D10*
%TO.C,SW20*%
X142695000Y-121100000D03*
D11*
X143965000Y-118560000D03*
D12*
X147775000Y-121100000D03*
D11*
X150315000Y-116020000D03*
D10*
X152855000Y-121100000D03*
D13*
X140690000Y-118560000D03*
X153617000Y-116020000D03*
%TD*%
D10*
%TO.C,SW12*%
X285570000Y-92525000D03*
D11*
X286840000Y-89985000D03*
D12*
X290650000Y-92525000D03*
D11*
X293190000Y-87445000D03*
D10*
X295730000Y-92525000D03*
D13*
X283565000Y-89985000D03*
X296492000Y-87445000D03*
%TD*%
D10*
%TO.C,SW63*%
X147457500Y-178250000D03*
D11*
X148727500Y-175710000D03*
D12*
X152537500Y-178250000D03*
D11*
X155077500Y-173170000D03*
D10*
X157617500Y-178250000D03*
D13*
X145452500Y-175710000D03*
X158379500Y-173170000D03*
%TD*%
D10*
%TO.C,SW77*%
X237945000Y-197300000D03*
D11*
X239215000Y-194760000D03*
D12*
X243025000Y-197300000D03*
D11*
X245565000Y-192220000D03*
D10*
X248105000Y-197300000D03*
D13*
X235940000Y-194760000D03*
X248867000Y-192220000D03*
%TD*%
D10*
%TO.C,SW43*%
X309382500Y-140150000D03*
D11*
X310652500Y-137610000D03*
D12*
X314462500Y-140150000D03*
D11*
X317002500Y-135070000D03*
D10*
X319542500Y-140150000D03*
D13*
X307377500Y-137610000D03*
X320304500Y-135070000D03*
%TD*%
D10*
%TO.C,SW52*%
X195082500Y-159200000D03*
D11*
X196352500Y-156660000D03*
D12*
X200162500Y-159200000D03*
D11*
X202702500Y-154120000D03*
D10*
X205242500Y-159200000D03*
D13*
X193077500Y-156660000D03*
X206004500Y-154120000D03*
%TD*%
D10*
%TO.C,SW78*%
X256995000Y-197300000D03*
D11*
X258265000Y-194760000D03*
D12*
X262075000Y-197300000D03*
D11*
X264615000Y-192220000D03*
D10*
X267155000Y-197300000D03*
D13*
X254990000Y-194760000D03*
X267917000Y-192220000D03*
%TD*%
D10*
%TO.C,SW66*%
X204607500Y-178250000D03*
D11*
X205877500Y-175710000D03*
D12*
X209687500Y-178250000D03*
D11*
X212227500Y-173170000D03*
D10*
X214767500Y-178250000D03*
D13*
X202602500Y-175710000D03*
X215529500Y-173170000D03*
%TD*%
D10*
%TO.C,SW47*%
X99832500Y-159200000D03*
D11*
X101102500Y-156660000D03*
D12*
X104912500Y-159200000D03*
D11*
X107452500Y-154120000D03*
D10*
X109992500Y-159200000D03*
D13*
X97827500Y-156660000D03*
X110754500Y-154120000D03*
%TD*%
D16*
%TO.C,D20*%
X156675000Y-121850000D03*
X156675000Y-118550000D03*
%TD*%
%TO.C,D56*%
X285262500Y-159950000D03*
X285262500Y-156650000D03*
%TD*%
%TO.C,D50*%
X170962500Y-159950000D03*
X170962500Y-156650000D03*
%TD*%
%TO.C,D22*%
X194775000Y-121850000D03*
X194775000Y-118550000D03*
%TD*%
%TO.C,D34*%
X147150000Y-140900000D03*
X147150000Y-137600000D03*
%TD*%
%TO.C,D35*%
X166200000Y-140900000D03*
X166200000Y-137600000D03*
%TD*%
%TO.C,D17*%
X99525000Y-121850000D03*
X99525000Y-118550000D03*
%TD*%
D17*
%TO.C,U4*%
X343025000Y-97950000D03*
X343025000Y-98450000D03*
X343025000Y-98950000D03*
X343025000Y-99450000D03*
X340175000Y-99450000D03*
X340175000Y-98950000D03*
X340175000Y-98450000D03*
X340175000Y-97950000D03*
D18*
X341600000Y-98700000D03*
%TD*%
D16*
%TO.C,D5*%
X156675000Y-93275000D03*
X156675000Y-89975000D03*
%TD*%
%TO.C,D13*%
X318599999Y-93275000D03*
X318599999Y-89975000D03*
%TD*%
%TO.C,D1*%
X61425000Y-93275000D03*
X61425000Y-89975000D03*
%TD*%
%TO.C,D47*%
X113812500Y-159950000D03*
X113812500Y-156650000D03*
%TD*%
%TO.C,D54*%
X247162500Y-159950000D03*
X247162500Y-156650000D03*
%TD*%
%TO.C,D68*%
X256687500Y-179000000D03*
X256687500Y-175700000D03*
%TD*%
%TO.C,D70*%
X301931250Y-179000000D03*
X301931250Y-175700000D03*
%TD*%
%TO.C,D31*%
X90000000Y-140900000D03*
X90000000Y-137600000D03*
%TD*%
%TO.C,D78*%
X270975000Y-198050000D03*
X270975000Y-194750000D03*
%TD*%
%TO.C,D9*%
X237637500Y-93275000D03*
X237637500Y-89975000D03*
%TD*%
%TO.C,D71*%
X347175000Y-183762500D03*
X347175000Y-180462500D03*
%TD*%
%TO.C,D49*%
X151912500Y-159950000D03*
X151912500Y-156650000D03*
%TD*%
D19*
%TO.C,C15*%
X339780000Y-96600000D03*
X338820000Y-96600000D03*
%TD*%
D20*
%TO.C,SW90*%
X344300000Y-93475000D03*
X350300000Y-93475000D03*
X344300000Y-89725000D03*
X350300000Y-89725000D03*
%TD*%
D16*
%TO.C,D37*%
X204300000Y-140900000D03*
X204300000Y-137600000D03*
%TD*%
D21*
%TO.C,FID3*%
X42700000Y-211887500D03*
%TD*%
D16*
%TO.C,D75*%
X111431250Y-198050000D03*
X111431250Y-194750000D03*
%TD*%
%TO.C,D28*%
X318599999Y-121850000D03*
X318599999Y-118550000D03*
%TD*%
D22*
%TO.C,U3*%
X328837500Y-96950000D03*
X328837500Y-98850000D03*
X326962500Y-97900000D03*
%TD*%
D16*
%TO.C,D41*%
X280500000Y-140900000D03*
X280500000Y-137600000D03*
%TD*%
%TO.C,D51*%
X190012500Y-159950000D03*
X190012500Y-156650000D03*
%TD*%
D23*
%TO.C,R8*%
X337400000Y-111290000D03*
X337400000Y-112310000D03*
%TD*%
D16*
%TO.C,D29*%
X370987500Y-121850000D03*
X370987500Y-118550000D03*
%TD*%
%TO.C,D15*%
X61425000Y-121850000D03*
X61425000Y-118550000D03*
%TD*%
D19*
%TO.C,C6*%
X330380000Y-110600000D03*
X329420000Y-110600000D03*
%TD*%
D24*
%TO.C,TP4*%
X328000000Y-91600000D03*
%TD*%
D21*
%TO.C,FID1*%
X42700000Y-82700000D03*
%TD*%
D25*
%TO.C,C16*%
X341320000Y-115650000D03*
X342280000Y-115650000D03*
%TD*%
D16*
%TO.C,D77*%
X251925000Y-198050000D03*
X251925000Y-194750000D03*
%TD*%
D24*
%TO.C,TP2*%
X339000000Y-120800000D03*
%TD*%
D16*
%TO.C,D64*%
X180487500Y-179000000D03*
X180487500Y-175700000D03*
%TD*%
D19*
%TO.C,C17*%
X335780000Y-113900000D03*
X334820000Y-113900000D03*
%TD*%
D26*
%TO.C,C11*%
X335350000Y-111120000D03*
X335350000Y-112080000D03*
%TD*%
D27*
%TO.C,C1*%
X325100000Y-97125000D03*
X325100000Y-98675000D03*
%TD*%
D16*
%TO.C,D30*%
X66187500Y-140900000D03*
X66187500Y-137600000D03*
%TD*%
%TO.C,D79*%
X290025000Y-198050000D03*
X290025000Y-194750000D03*
%TD*%
D28*
%TO.C,C9*%
X336350000Y-100880000D03*
X336350000Y-99920000D03*
%TD*%
D16*
%TO.C,D21*%
X175725000Y-121850000D03*
X175725000Y-118550000D03*
%TD*%
D29*
%TO.C,U1*%
X339937500Y-103000000D03*
X339937500Y-103400000D03*
X339937500Y-103800000D03*
X339937500Y-104200000D03*
X339937500Y-104600000D03*
X339937500Y-105000000D03*
X339937500Y-105400000D03*
X339937500Y-105800000D03*
X339937500Y-106200000D03*
X339937500Y-106600000D03*
X339937500Y-107000000D03*
X339937500Y-107400000D03*
X339937500Y-107800000D03*
X339937500Y-108200000D03*
D30*
X339100000Y-109037500D03*
X338700000Y-109037500D03*
X338300000Y-109037500D03*
X337900000Y-109037500D03*
X337500000Y-109037500D03*
X337100000Y-109037500D03*
X336700000Y-109037500D03*
X336300000Y-109037500D03*
X335900000Y-109037500D03*
X335500000Y-109037500D03*
X335100000Y-109037500D03*
X334700000Y-109037500D03*
X334300000Y-109037500D03*
X333900000Y-109037500D03*
D29*
X333062500Y-108200000D03*
X333062500Y-107800000D03*
X333062500Y-107400000D03*
X333062500Y-107000000D03*
X333062500Y-106600000D03*
X333062500Y-106200000D03*
X333062500Y-105800000D03*
X333062500Y-105400000D03*
X333062500Y-105000000D03*
X333062500Y-104600000D03*
X333062500Y-104200000D03*
X333062500Y-103800000D03*
X333062500Y-103400000D03*
X333062500Y-103000000D03*
D30*
X333900000Y-102162500D03*
X334300000Y-102162500D03*
X334700000Y-102162500D03*
X335100000Y-102162500D03*
X335500000Y-102162500D03*
X335900000Y-102162500D03*
X336300000Y-102162500D03*
X336700000Y-102162500D03*
X337100000Y-102162500D03*
X337500000Y-102162500D03*
X337900000Y-102162500D03*
X338300000Y-102162500D03*
X338700000Y-102162500D03*
X339100000Y-102162500D03*
D31*
X336500000Y-105600000D03*
%TD*%
D20*
%TO.C,SW91*%
X331800000Y-117925000D03*
X325800000Y-117925000D03*
X331800000Y-121675000D03*
X325800000Y-121675000D03*
%TD*%
D16*
%TO.C,D69*%
X275737500Y-179000000D03*
X275737500Y-175700000D03*
%TD*%
%TO.C,D63*%
X161437500Y-179000000D03*
X161437500Y-175700000D03*
%TD*%
%TO.C,D14*%
X370987500Y-93275000D03*
X370987500Y-89975000D03*
%TD*%
D25*
%TO.C,C3*%
X341220000Y-102300000D03*
X342180000Y-102300000D03*
%TD*%
D16*
%TO.C,D60*%
X104287500Y-179000000D03*
X104287500Y-175700000D03*
%TD*%
%TO.C,D38*%
X223350000Y-140900000D03*
X223350000Y-137600000D03*
%TD*%
D32*
%TO.C,U2*%
X335550000Y-91562500D03*
X336500000Y-91562500D03*
X337450000Y-91562500D03*
X337450000Y-93837500D03*
X336500000Y-93837500D03*
X335550000Y-93837500D03*
%TD*%
D16*
%TO.C,D23*%
X213825000Y-121850000D03*
X213825000Y-118550000D03*
%TD*%
D28*
%TO.C,C7*%
X330300000Y-101080000D03*
X330300000Y-100120000D03*
%TD*%
D16*
%TO.C,D57*%
X316218750Y-159950000D03*
X316218750Y-156650000D03*
%TD*%
%TO.C,D48*%
X132862500Y-159950000D03*
X132862500Y-156650000D03*
%TD*%
D23*
%TO.C,R2*%
X339900000Y-91290000D03*
X339900000Y-92310000D03*
%TD*%
D16*
%TO.C,D61*%
X123337500Y-179000000D03*
X123337500Y-175700000D03*
%TD*%
D23*
%TO.C,R7*%
X333600000Y-112890000D03*
X333600000Y-113910000D03*
%TD*%
D24*
%TO.C,TP3*%
X341000000Y-120800000D03*
%TD*%
D16*
%TO.C,D24*%
X232875000Y-121850000D03*
X232875000Y-118550000D03*
%TD*%
%TO.C,D33*%
X128100000Y-140900000D03*
X128100000Y-137600000D03*
%TD*%
D19*
%TO.C,C12*%
X344080000Y-111400000D03*
X343120000Y-111400000D03*
%TD*%
D16*
%TO.C,D44*%
X370987500Y-140900000D03*
X370987500Y-137600000D03*
%TD*%
%TO.C,D11*%
X280500000Y-93275000D03*
X280500000Y-89975000D03*
%TD*%
%TO.C,D72*%
X370987500Y-179000000D03*
X370987500Y-175700000D03*
%TD*%
%TO.C,D7*%
X199537500Y-93275000D03*
X199537500Y-89975000D03*
%TD*%
%TO.C,D58*%
X370987500Y-159950000D03*
X370987500Y-156650000D03*
%TD*%
D28*
%TO.C,C10*%
X332500000Y-101080000D03*
X332500000Y-100120000D03*
%TD*%
D16*
%TO.C,D43*%
X323362500Y-140900000D03*
X323362500Y-137600000D03*
%TD*%
%TO.C,D52*%
X209062500Y-159950000D03*
X209062500Y-156650000D03*
%TD*%
%TO.C,D40*%
X261450000Y-140900000D03*
X261450000Y-137600000D03*
%TD*%
%TO.C,D6*%
X180487500Y-93275000D03*
X180487500Y-89975000D03*
%TD*%
%TO.C,D74*%
X87618750Y-198050000D03*
X87618750Y-194750000D03*
%TD*%
%TO.C,D25*%
X251925000Y-121850000D03*
X251925000Y-118550000D03*
%TD*%
%TO.C,D59*%
X73331250Y-179000000D03*
X73331250Y-175700000D03*
%TD*%
%TO.C,D66*%
X218587500Y-179000000D03*
X218587500Y-175700000D03*
%TD*%
D33*
%TO.C,R4*%
X335400000Y-97810000D03*
X335400000Y-96790000D03*
%TD*%
D16*
%TO.C,D67*%
X237637500Y-179000000D03*
X237637500Y-175700000D03*
%TD*%
%TO.C,D45*%
X68568750Y-159950000D03*
X68568750Y-156650000D03*
%TD*%
%TO.C,D81*%
X347175000Y-202812500D03*
X347175000Y-199512500D03*
%TD*%
%TO.C,D82*%
X366224999Y-202812500D03*
X366224999Y-199512500D03*
%TD*%
%TO.C,D2*%
X99525000Y-93275000D03*
X99525000Y-89975000D03*
%TD*%
%TO.C,D32*%
X109050000Y-140900000D03*
X109050000Y-137600000D03*
%TD*%
%TO.C,D4*%
X137625000Y-93275000D03*
X137625000Y-89975000D03*
%TD*%
%TO.C,D42*%
X299550000Y-140900000D03*
X299550000Y-137600000D03*
%TD*%
%TO.C,D65*%
X199537500Y-179000000D03*
X199537500Y-175700000D03*
%TD*%
%TO.C,D39*%
X242400000Y-140900000D03*
X242400000Y-137600000D03*
%TD*%
%TO.C,D80*%
X328125000Y-202812500D03*
X328125000Y-199512500D03*
%TD*%
%TO.C,D46*%
X94762500Y-159950000D03*
X94762500Y-156650000D03*
%TD*%
D23*
%TO.C,R1*%
X333200000Y-91090000D03*
X333200000Y-92110000D03*
%TD*%
D16*
%TO.C,D76*%
X182868750Y-198050000D03*
X182868750Y-194750000D03*
%TD*%
%TO.C,D19*%
X137625000Y-121850000D03*
X137625000Y-118550000D03*
%TD*%
D33*
%TO.C,R3*%
X336600000Y-97810000D03*
X336600000Y-96790000D03*
%TD*%
D19*
%TO.C,C4*%
X344280000Y-102300000D03*
X343320000Y-102300000D03*
%TD*%
D16*
%TO.C,D3*%
X118575000Y-93275000D03*
X118575000Y-89975000D03*
%TD*%
D34*
%TO.C,C2*%
X330700000Y-98675000D03*
X330700000Y-97125000D03*
%TD*%
D16*
%TO.C,D62*%
X142387500Y-179000000D03*
X142387500Y-175700000D03*
%TD*%
%TO.C,D8*%
X218587500Y-93275000D03*
X218587500Y-89975000D03*
%TD*%
D28*
%TO.C,C13*%
X331400000Y-101080000D03*
X331400000Y-100120000D03*
%TD*%
D35*
%TO.C,F1*%
X330600000Y-90662500D03*
X330600000Y-92537500D03*
%TD*%
D36*
%TO.C,Y1*%
X339700000Y-115650000D03*
X337500000Y-115650000D03*
X337500000Y-113950000D03*
X339700000Y-113950000D03*
%TD*%
D16*
%TO.C,D36*%
X185250000Y-140900000D03*
X185250000Y-137600000D03*
%TD*%
D37*
%TO.C,R6*%
X345890000Y-98900000D03*
X346910000Y-98900000D03*
%TD*%
D16*
%TO.C,D53*%
X228112500Y-159950000D03*
X228112500Y-156650000D03*
%TD*%
D24*
%TO.C,TP1*%
X333900000Y-115900000D03*
%TD*%
D16*
%TO.C,D55*%
X266212499Y-159950000D03*
X266212499Y-156650000D03*
%TD*%
D21*
%TO.C,FID2*%
X371912500Y-82700000D03*
%TD*%
D16*
%TO.C,D73*%
X63806250Y-198050000D03*
X63806250Y-194750000D03*
%TD*%
%TO.C,D18*%
X118575000Y-121850000D03*
X118575000Y-118550000D03*
%TD*%
D38*
%TO.C,J1*%
X333610000Y-86250000D03*
X339390000Y-86250000D03*
D39*
X333250000Y-87695000D03*
X334050000Y-87695000D03*
D40*
X335250000Y-87695000D03*
X336250000Y-87695000D03*
X336750000Y-87695000D03*
X337750000Y-87695000D03*
D39*
X338950000Y-87695000D03*
X339750000Y-87695000D03*
X339750000Y-87695000D03*
X338950000Y-87695000D03*
D40*
X338250000Y-87695000D03*
X337250000Y-87695000D03*
X335750000Y-87695000D03*
X334750000Y-87695000D03*
D39*
X334050000Y-87695000D03*
X333250000Y-87695000D03*
D41*
X332180000Y-82600000D03*
D42*
X332180000Y-86780000D03*
D41*
X340820000Y-82600000D03*
D42*
X340820000Y-86780000D03*
%TD*%
D16*
%TO.C,D16*%
X80475000Y-121850000D03*
X80475000Y-118550000D03*
%TD*%
%TO.C,D27*%
X290025000Y-121850000D03*
X290025000Y-118550000D03*
%TD*%
D43*
%TO.C,R5*%
X346910000Y-97600000D03*
X345890000Y-97600000D03*
%TD*%
D16*
%TO.C,D12*%
X299550000Y-93275000D03*
X299550000Y-89975000D03*
%TD*%
D28*
%TO.C,C14*%
X334350000Y-100880000D03*
X334350000Y-99920000D03*
%TD*%
D16*
%TO.C,D10*%
X261450000Y-93275000D03*
X261450000Y-89975000D03*
%TD*%
D26*
%TO.C,C5*%
X336300000Y-110970000D03*
X336300000Y-111930000D03*
%TD*%
D16*
%TO.C,D26*%
X270975000Y-121850000D03*
X270975000Y-118550000D03*
%TD*%
M02*
