%TF.GenerationSoftware,KiCad,Pcbnew,10.0.6*%
%TF.CreationDate,2026-10-02T04:25:35-04:00*%
%TF.ProjectId,Vamora75,56616d6f-7261-4373-952e-6b696361645f,1.1*%
%TF.SameCoordinates,Original*%
%TF.FileFunction,Drillmap*%
%TF.FilePolarity,Positive*%
%FSLAX45Y45*%
G04 Gerber Fmt 4.5, Leading zero omitted, Abs format (unit mm)*
G04 Created by KiCad (PCBNEW 10.0.6) date 2026-10-02 04:25:35*
%MOMM*%
%LPD*%
G01*
G04 APERTURE LIST*
%ADD10C,0.100000*%
%ADD11C,0.200000*%
%ADD12C,0.175000*%
%ADD13C,0.304800*%
%ADD14C,0.305000*%
%ADD15C,0.398780*%
%ADD16C,0.400000*%
G04 APERTURE END LIST*
D10*
X4000000Y-8100000D02*
G75*
G02*
X4100000Y-8000000I100000J0D01*
G01*
X4000000Y-21358750D02*
X4000000Y-8100000D01*
X4100000Y-8000000D02*
X37361250Y-8000000D01*
X4100000Y-21458750D02*
G75*
G02*
X4000000Y-21358750I0J100000D01*
G01*
X37361250Y-8000000D02*
G75*
G02*
X37461250Y-8100000I0J-100000D01*
G01*
X37361250Y-21458750D02*
X4100000Y-21458750D01*
X37461250Y-8100000D02*
X37461250Y-21358750D01*
X37461250Y-21358750D02*
G75*
G02*
X37361250Y-21458750I-100000J0D01*
G01*
D11*
D10*
X33328500Y-8592500D02*
X33393500Y-8657500D01*
X33393500Y-8592500D02*
X33328500Y-8657500D01*
X33906500Y-8592500D02*
X33971500Y-8657500D01*
X33971500Y-8592500D02*
X33906500Y-8657500D01*
D12*
X4832000Y-9252500D02*
G75*
G02*
X4657000Y-9252500I-87500J0D01*
G01*
X4657000Y-9252500D02*
G75*
G02*
X4832000Y-9252500I87500J0D01*
G01*
X4832000Y-12110000D02*
G75*
G02*
X4657000Y-12110000I-87500J0D01*
G01*
X4657000Y-12110000D02*
G75*
G02*
X4832000Y-12110000I87500J0D01*
G01*
X5070125Y-19730000D02*
G75*
G02*
X4895125Y-19730000I-87500J0D01*
G01*
X4895125Y-19730000D02*
G75*
G02*
X5070125Y-19730000I87500J0D01*
G01*
X5308250Y-14015000D02*
G75*
G02*
X5133250Y-14015000I-87500J0D01*
G01*
X5133250Y-14015000D02*
G75*
G02*
X5308250Y-14015000I87500J0D01*
G01*
X5546375Y-15920000D02*
G75*
G02*
X5371375Y-15920000I-87500J0D01*
G01*
X5371375Y-15920000D02*
G75*
G02*
X5546375Y-15920000I87500J0D01*
G01*
X5848000Y-9252500D02*
G75*
G02*
X5673000Y-9252500I-87500J0D01*
G01*
X5673000Y-9252500D02*
G75*
G02*
X5848000Y-9252500I87500J0D01*
G01*
X5848000Y-12110000D02*
G75*
G02*
X5673000Y-12110000I-87500J0D01*
G01*
X5673000Y-12110000D02*
G75*
G02*
X5848000Y-12110000I87500J0D01*
G01*
X6022625Y-17825000D02*
G75*
G02*
X5847625Y-17825000I-87500J0D01*
G01*
X5847625Y-17825000D02*
G75*
G02*
X6022625Y-17825000I87500J0D01*
G01*
X6086125Y-19730000D02*
G75*
G02*
X5911125Y-19730000I-87500J0D01*
G01*
X5911125Y-19730000D02*
G75*
G02*
X6086125Y-19730000I87500J0D01*
G01*
X6324250Y-14015000D02*
G75*
G02*
X6149250Y-14015000I-87500J0D01*
G01*
X6149250Y-14015000D02*
G75*
G02*
X6324250Y-14015000I87500J0D01*
G01*
X6562375Y-15920000D02*
G75*
G02*
X6387375Y-15920000I-87500J0D01*
G01*
X6387375Y-15920000D02*
G75*
G02*
X6562375Y-15920000I87500J0D01*
G01*
X6737000Y-12110000D02*
G75*
G02*
X6562000Y-12110000I-87500J0D01*
G01*
X6562000Y-12110000D02*
G75*
G02*
X6737000Y-12110000I87500J0D01*
G01*
X7038625Y-17825000D02*
G75*
G02*
X6863625Y-17825000I-87500J0D01*
G01*
X6863625Y-17825000D02*
G75*
G02*
X7038625Y-17825000I87500J0D01*
G01*
X7451375Y-19730000D02*
G75*
G02*
X7276375Y-19730000I-87500J0D01*
G01*
X7276375Y-19730000D02*
G75*
G02*
X7451375Y-19730000I87500J0D01*
G01*
X7689500Y-14015000D02*
G75*
G02*
X7514500Y-14015000I-87500J0D01*
G01*
X7514500Y-14015000D02*
G75*
G02*
X7689500Y-14015000I87500J0D01*
G01*
X7753000Y-12110000D02*
G75*
G02*
X7578000Y-12110000I-87500J0D01*
G01*
X7578000Y-12110000D02*
G75*
G02*
X7753000Y-12110000I87500J0D01*
G01*
X8165750Y-15920000D02*
G75*
G02*
X7990750Y-15920000I-87500J0D01*
G01*
X7990750Y-15920000D02*
G75*
G02*
X8165750Y-15920000I87500J0D01*
G01*
X8467375Y-19730000D02*
G75*
G02*
X8292375Y-19730000I-87500J0D01*
G01*
X8292375Y-19730000D02*
G75*
G02*
X8467375Y-19730000I87500J0D01*
G01*
X8642000Y-9252500D02*
G75*
G02*
X8467000Y-9252500I-87500J0D01*
G01*
X8467000Y-9252500D02*
G75*
G02*
X8642000Y-9252500I87500J0D01*
G01*
X8642000Y-12110000D02*
G75*
G02*
X8467000Y-12110000I-87500J0D01*
G01*
X8467000Y-12110000D02*
G75*
G02*
X8642000Y-12110000I87500J0D01*
G01*
X8705500Y-14015000D02*
G75*
G02*
X8530500Y-14015000I-87500J0D01*
G01*
X8530500Y-14015000D02*
G75*
G02*
X8705500Y-14015000I87500J0D01*
G01*
X9118250Y-17825000D02*
G75*
G02*
X8943250Y-17825000I-87500J0D01*
G01*
X8943250Y-17825000D02*
G75*
G02*
X9118250Y-17825000I87500J0D01*
G01*
X9181750Y-15920000D02*
G75*
G02*
X9006750Y-15920000I-87500J0D01*
G01*
X9006750Y-15920000D02*
G75*
G02*
X9181750Y-15920000I87500J0D01*
G01*
X9594500Y-14015000D02*
G75*
G02*
X9419500Y-14015000I-87500J0D01*
G01*
X9419500Y-14015000D02*
G75*
G02*
X9594500Y-14015000I87500J0D01*
G01*
X9658000Y-9252500D02*
G75*
G02*
X9483000Y-9252500I-87500J0D01*
G01*
X9483000Y-9252500D02*
G75*
G02*
X9658000Y-9252500I87500J0D01*
G01*
X9658000Y-12110000D02*
G75*
G02*
X9483000Y-12110000I-87500J0D01*
G01*
X9483000Y-12110000D02*
G75*
G02*
X9658000Y-12110000I87500J0D01*
G01*
X9832625Y-19730000D02*
G75*
G02*
X9657625Y-19730000I-87500J0D01*
G01*
X9657625Y-19730000D02*
G75*
G02*
X9832625Y-19730000I87500J0D01*
G01*
X10070750Y-15920000D02*
G75*
G02*
X9895750Y-15920000I-87500J0D01*
G01*
X9895750Y-15920000D02*
G75*
G02*
X10070750Y-15920000I87500J0D01*
G01*
X10134250Y-17825000D02*
G75*
G02*
X9959250Y-17825000I-87500J0D01*
G01*
X9959250Y-17825000D02*
G75*
G02*
X10134250Y-17825000I87500J0D01*
G01*
X10547000Y-9252500D02*
G75*
G02*
X10372000Y-9252500I-87500J0D01*
G01*
X10372000Y-9252500D02*
G75*
G02*
X10547000Y-9252500I87500J0D01*
G01*
X10547000Y-12110000D02*
G75*
G02*
X10372000Y-12110000I-87500J0D01*
G01*
X10372000Y-12110000D02*
G75*
G02*
X10547000Y-12110000I87500J0D01*
G01*
X10610500Y-14015000D02*
G75*
G02*
X10435500Y-14015000I-87500J0D01*
G01*
X10435500Y-14015000D02*
G75*
G02*
X10610500Y-14015000I87500J0D01*
G01*
X10848625Y-19730000D02*
G75*
G02*
X10673625Y-19730000I-87500J0D01*
G01*
X10673625Y-19730000D02*
G75*
G02*
X10848625Y-19730000I87500J0D01*
G01*
X11023250Y-17825000D02*
G75*
G02*
X10848250Y-17825000I-87500J0D01*
G01*
X10848250Y-17825000D02*
G75*
G02*
X11023250Y-17825000I87500J0D01*
G01*
X11086750Y-15920000D02*
G75*
G02*
X10911750Y-15920000I-87500J0D01*
G01*
X10911750Y-15920000D02*
G75*
G02*
X11086750Y-15920000I87500J0D01*
G01*
X11499500Y-14015000D02*
G75*
G02*
X11324500Y-14015000I-87500J0D01*
G01*
X11324500Y-14015000D02*
G75*
G02*
X11499500Y-14015000I87500J0D01*
G01*
X11563000Y-9252500D02*
G75*
G02*
X11388000Y-9252500I-87500J0D01*
G01*
X11388000Y-9252500D02*
G75*
G02*
X11563000Y-9252500I87500J0D01*
G01*
X11563000Y-12110000D02*
G75*
G02*
X11388000Y-12110000I-87500J0D01*
G01*
X11388000Y-12110000D02*
G75*
G02*
X11563000Y-12110000I87500J0D01*
G01*
X11975750Y-15920000D02*
G75*
G02*
X11800750Y-15920000I-87500J0D01*
G01*
X11800750Y-15920000D02*
G75*
G02*
X11975750Y-15920000I87500J0D01*
G01*
X12039250Y-17825000D02*
G75*
G02*
X11864250Y-17825000I-87500J0D01*
G01*
X11864250Y-17825000D02*
G75*
G02*
X12039250Y-17825000I87500J0D01*
G01*
X12452000Y-9252500D02*
G75*
G02*
X12277000Y-9252500I-87500J0D01*
G01*
X12277000Y-9252500D02*
G75*
G02*
X12452000Y-9252500I87500J0D01*
G01*
X12452000Y-12110000D02*
G75*
G02*
X12277000Y-12110000I-87500J0D01*
G01*
X12277000Y-12110000D02*
G75*
G02*
X12452000Y-12110000I87500J0D01*
G01*
X12515500Y-14015000D02*
G75*
G02*
X12340500Y-14015000I-87500J0D01*
G01*
X12340500Y-14015000D02*
G75*
G02*
X12515500Y-14015000I87500J0D01*
G01*
X12928250Y-17825000D02*
G75*
G02*
X12753250Y-17825000I-87500J0D01*
G01*
X12753250Y-17825000D02*
G75*
G02*
X12928250Y-17825000I87500J0D01*
G01*
X12991750Y-15920000D02*
G75*
G02*
X12816750Y-15920000I-87500J0D01*
G01*
X12816750Y-15920000D02*
G75*
G02*
X12991750Y-15920000I87500J0D01*
G01*
X13404500Y-14015000D02*
G75*
G02*
X13229500Y-14015000I-87500J0D01*
G01*
X13229500Y-14015000D02*
G75*
G02*
X13404500Y-14015000I87500J0D01*
G01*
X13468000Y-9252500D02*
G75*
G02*
X13293000Y-9252500I-87500J0D01*
G01*
X13293000Y-9252500D02*
G75*
G02*
X13468000Y-9252500I87500J0D01*
G01*
X13468000Y-12110000D02*
G75*
G02*
X13293000Y-12110000I-87500J0D01*
G01*
X13293000Y-12110000D02*
G75*
G02*
X13468000Y-12110000I87500J0D01*
G01*
X13880750Y-15920000D02*
G75*
G02*
X13705750Y-15920000I-87500J0D01*
G01*
X13705750Y-15920000D02*
G75*
G02*
X13880750Y-15920000I87500J0D01*
G01*
X13944250Y-17825000D02*
G75*
G02*
X13769250Y-17825000I-87500J0D01*
G01*
X13769250Y-17825000D02*
G75*
G02*
X13944250Y-17825000I87500J0D01*
G01*
X14357000Y-9252500D02*
G75*
G02*
X14182000Y-9252500I-87500J0D01*
G01*
X14182000Y-9252500D02*
G75*
G02*
X14357000Y-9252500I87500J0D01*
G01*
X14357000Y-12110000D02*
G75*
G02*
X14182000Y-12110000I-87500J0D01*
G01*
X14182000Y-12110000D02*
G75*
G02*
X14357000Y-12110000I87500J0D01*
G01*
X14420500Y-14015000D02*
G75*
G02*
X14245500Y-14015000I-87500J0D01*
G01*
X14245500Y-14015000D02*
G75*
G02*
X14420500Y-14015000I87500J0D01*
G01*
X14833250Y-17825000D02*
G75*
G02*
X14658250Y-17825000I-87500J0D01*
G01*
X14658250Y-17825000D02*
G75*
G02*
X14833250Y-17825000I87500J0D01*
G01*
X14896750Y-15920000D02*
G75*
G02*
X14721750Y-15920000I-87500J0D01*
G01*
X14721750Y-15920000D02*
G75*
G02*
X14896750Y-15920000I87500J0D01*
G01*
X15309500Y-14015000D02*
G75*
G02*
X15134500Y-14015000I-87500J0D01*
G01*
X15134500Y-14015000D02*
G75*
G02*
X15309500Y-14015000I87500J0D01*
G01*
X15373000Y-9252500D02*
G75*
G02*
X15198000Y-9252500I-87500J0D01*
G01*
X15198000Y-9252500D02*
G75*
G02*
X15373000Y-9252500I87500J0D01*
G01*
X15373000Y-12110000D02*
G75*
G02*
X15198000Y-12110000I-87500J0D01*
G01*
X15198000Y-12110000D02*
G75*
G02*
X15373000Y-12110000I87500J0D01*
G01*
X15785750Y-15920000D02*
G75*
G02*
X15610750Y-15920000I-87500J0D01*
G01*
X15610750Y-15920000D02*
G75*
G02*
X15785750Y-15920000I87500J0D01*
G01*
X15849250Y-17825000D02*
G75*
G02*
X15674250Y-17825000I-87500J0D01*
G01*
X15674250Y-17825000D02*
G75*
G02*
X15849250Y-17825000I87500J0D01*
G01*
X16262000Y-12110000D02*
G75*
G02*
X16087000Y-12110000I-87500J0D01*
G01*
X16087000Y-12110000D02*
G75*
G02*
X16262000Y-12110000I87500J0D01*
G01*
X16325500Y-14015000D02*
G75*
G02*
X16150500Y-14015000I-87500J0D01*
G01*
X16150500Y-14015000D02*
G75*
G02*
X16325500Y-14015000I87500J0D01*
G01*
X16738250Y-9252500D02*
G75*
G02*
X16563250Y-9252500I-87500J0D01*
G01*
X16563250Y-9252500D02*
G75*
G02*
X16738250Y-9252500I87500J0D01*
G01*
X16738250Y-17825000D02*
G75*
G02*
X16563250Y-17825000I-87500J0D01*
G01*
X16563250Y-17825000D02*
G75*
G02*
X16738250Y-17825000I87500J0D01*
G01*
X16801750Y-15920000D02*
G75*
G02*
X16626750Y-15920000I-87500J0D01*
G01*
X16626750Y-15920000D02*
G75*
G02*
X16801750Y-15920000I87500J0D01*
G01*
X16976375Y-19730000D02*
G75*
G02*
X16801375Y-19730000I-87500J0D01*
G01*
X16801375Y-19730000D02*
G75*
G02*
X16976375Y-19730000I87500J0D01*
G01*
X17214500Y-14015000D02*
G75*
G02*
X17039500Y-14015000I-87500J0D01*
G01*
X17039500Y-14015000D02*
G75*
G02*
X17214500Y-14015000I87500J0D01*
G01*
X17278000Y-12110000D02*
G75*
G02*
X17103000Y-12110000I-87500J0D01*
G01*
X17103000Y-12110000D02*
G75*
G02*
X17278000Y-12110000I87500J0D01*
G01*
X17690750Y-15920000D02*
G75*
G02*
X17515750Y-15920000I-87500J0D01*
G01*
X17515750Y-15920000D02*
G75*
G02*
X17690750Y-15920000I87500J0D01*
G01*
X17754250Y-9252500D02*
G75*
G02*
X17579250Y-9252500I-87500J0D01*
G01*
X17579250Y-9252500D02*
G75*
G02*
X17754250Y-9252500I87500J0D01*
G01*
X17754250Y-17825000D02*
G75*
G02*
X17579250Y-17825000I-87500J0D01*
G01*
X17579250Y-17825000D02*
G75*
G02*
X17754250Y-17825000I87500J0D01*
G01*
X17992375Y-19730000D02*
G75*
G02*
X17817375Y-19730000I-87500J0D01*
G01*
X17817375Y-19730000D02*
G75*
G02*
X17992375Y-19730000I87500J0D01*
G01*
X18167000Y-12110000D02*
G75*
G02*
X17992000Y-12110000I-87500J0D01*
G01*
X17992000Y-12110000D02*
G75*
G02*
X18167000Y-12110000I87500J0D01*
G01*
X18230500Y-14015000D02*
G75*
G02*
X18055500Y-14015000I-87500J0D01*
G01*
X18055500Y-14015000D02*
G75*
G02*
X18230500Y-14015000I87500J0D01*
G01*
X18643250Y-9252500D02*
G75*
G02*
X18468250Y-9252500I-87500J0D01*
G01*
X18468250Y-9252500D02*
G75*
G02*
X18643250Y-9252500I87500J0D01*
G01*
X18643250Y-17825000D02*
G75*
G02*
X18468250Y-17825000I-87500J0D01*
G01*
X18468250Y-17825000D02*
G75*
G02*
X18643250Y-17825000I87500J0D01*
G01*
X18706750Y-15920000D02*
G75*
G02*
X18531750Y-15920000I-87500J0D01*
G01*
X18531750Y-15920000D02*
G75*
G02*
X18706750Y-15920000I87500J0D01*
G01*
X19119500Y-14015000D02*
G75*
G02*
X18944500Y-14015000I-87500J0D01*
G01*
X18944500Y-14015000D02*
G75*
G02*
X19119500Y-14015000I87500J0D01*
G01*
X19183000Y-12110000D02*
G75*
G02*
X19008000Y-12110000I-87500J0D01*
G01*
X19008000Y-12110000D02*
G75*
G02*
X19183000Y-12110000I87500J0D01*
G01*
X19595750Y-15920000D02*
G75*
G02*
X19420750Y-15920000I-87500J0D01*
G01*
X19420750Y-15920000D02*
G75*
G02*
X19595750Y-15920000I87500J0D01*
G01*
X19659250Y-9252500D02*
G75*
G02*
X19484250Y-9252500I-87500J0D01*
G01*
X19484250Y-9252500D02*
G75*
G02*
X19659250Y-9252500I87500J0D01*
G01*
X19659250Y-17825000D02*
G75*
G02*
X19484250Y-17825000I-87500J0D01*
G01*
X19484250Y-17825000D02*
G75*
G02*
X19659250Y-17825000I87500J0D01*
G01*
X20072000Y-12110000D02*
G75*
G02*
X19897000Y-12110000I-87500J0D01*
G01*
X19897000Y-12110000D02*
G75*
G02*
X20072000Y-12110000I87500J0D01*
G01*
X20135500Y-14015000D02*
G75*
G02*
X19960500Y-14015000I-87500J0D01*
G01*
X19960500Y-14015000D02*
G75*
G02*
X20135500Y-14015000I87500J0D01*
G01*
X20548250Y-9252500D02*
G75*
G02*
X20373250Y-9252500I-87500J0D01*
G01*
X20373250Y-9252500D02*
G75*
G02*
X20548250Y-9252500I87500J0D01*
G01*
X20548250Y-17825000D02*
G75*
G02*
X20373250Y-17825000I-87500J0D01*
G01*
X20373250Y-17825000D02*
G75*
G02*
X20548250Y-17825000I87500J0D01*
G01*
X20611750Y-15920000D02*
G75*
G02*
X20436750Y-15920000I-87500J0D01*
G01*
X20436750Y-15920000D02*
G75*
G02*
X20611750Y-15920000I87500J0D01*
G01*
X21024500Y-14015000D02*
G75*
G02*
X20849500Y-14015000I-87500J0D01*
G01*
X20849500Y-14015000D02*
G75*
G02*
X21024500Y-14015000I87500J0D01*
G01*
X21088000Y-12110000D02*
G75*
G02*
X20913000Y-12110000I-87500J0D01*
G01*
X20913000Y-12110000D02*
G75*
G02*
X21088000Y-12110000I87500J0D01*
G01*
X21500750Y-15920000D02*
G75*
G02*
X21325750Y-15920000I-87500J0D01*
G01*
X21325750Y-15920000D02*
G75*
G02*
X21500750Y-15920000I87500J0D01*
G01*
X21564250Y-9252500D02*
G75*
G02*
X21389250Y-9252500I-87500J0D01*
G01*
X21389250Y-9252500D02*
G75*
G02*
X21564250Y-9252500I87500J0D01*
G01*
X21564250Y-17825000D02*
G75*
G02*
X21389250Y-17825000I-87500J0D01*
G01*
X21389250Y-17825000D02*
G75*
G02*
X21564250Y-17825000I87500J0D01*
G01*
X21977000Y-12110000D02*
G75*
G02*
X21802000Y-12110000I-87500J0D01*
G01*
X21802000Y-12110000D02*
G75*
G02*
X21977000Y-12110000I87500J0D01*
G01*
X22040500Y-14015000D02*
G75*
G02*
X21865500Y-14015000I-87500J0D01*
G01*
X21865500Y-14015000D02*
G75*
G02*
X22040500Y-14015000I87500J0D01*
G01*
X22453250Y-9252500D02*
G75*
G02*
X22278250Y-9252500I-87500J0D01*
G01*
X22278250Y-9252500D02*
G75*
G02*
X22453250Y-9252500I87500J0D01*
G01*
X22453250Y-17825000D02*
G75*
G02*
X22278250Y-17825000I-87500J0D01*
G01*
X22278250Y-17825000D02*
G75*
G02*
X22453250Y-17825000I87500J0D01*
G01*
X22516750Y-15920000D02*
G75*
G02*
X22341750Y-15920000I-87500J0D01*
G01*
X22341750Y-15920000D02*
G75*
G02*
X22516750Y-15920000I87500J0D01*
G01*
X22929500Y-14015000D02*
G75*
G02*
X22754500Y-14015000I-87500J0D01*
G01*
X22754500Y-14015000D02*
G75*
G02*
X22929500Y-14015000I87500J0D01*
G01*
X22993000Y-12110000D02*
G75*
G02*
X22818000Y-12110000I-87500J0D01*
G01*
X22818000Y-12110000D02*
G75*
G02*
X22993000Y-12110000I87500J0D01*
G01*
X23405750Y-15920000D02*
G75*
G02*
X23230750Y-15920000I-87500J0D01*
G01*
X23230750Y-15920000D02*
G75*
G02*
X23405750Y-15920000I87500J0D01*
G01*
X23469250Y-9252500D02*
G75*
G02*
X23294250Y-9252500I-87500J0D01*
G01*
X23294250Y-9252500D02*
G75*
G02*
X23469250Y-9252500I87500J0D01*
G01*
X23469250Y-17825000D02*
G75*
G02*
X23294250Y-17825000I-87500J0D01*
G01*
X23294250Y-17825000D02*
G75*
G02*
X23469250Y-17825000I87500J0D01*
G01*
X23882000Y-12110000D02*
G75*
G02*
X23707000Y-12110000I-87500J0D01*
G01*
X23707000Y-12110000D02*
G75*
G02*
X23882000Y-12110000I87500J0D01*
G01*
X23882000Y-19730000D02*
G75*
G02*
X23707000Y-19730000I-87500J0D01*
G01*
X23707000Y-19730000D02*
G75*
G02*
X23882000Y-19730000I87500J0D01*
G01*
X23945500Y-14015000D02*
G75*
G02*
X23770500Y-14015000I-87500J0D01*
G01*
X23770500Y-14015000D02*
G75*
G02*
X23945500Y-14015000I87500J0D01*
G01*
X24358250Y-17825000D02*
G75*
G02*
X24183250Y-17825000I-87500J0D01*
G01*
X24183250Y-17825000D02*
G75*
G02*
X24358250Y-17825000I87500J0D01*
G01*
X24421750Y-15920000D02*
G75*
G02*
X24246750Y-15920000I-87500J0D01*
G01*
X24246750Y-15920000D02*
G75*
G02*
X24421750Y-15920000I87500J0D01*
G01*
X24834500Y-9252500D02*
G75*
G02*
X24659500Y-9252500I-87500J0D01*
G01*
X24659500Y-9252500D02*
G75*
G02*
X24834500Y-9252500I87500J0D01*
G01*
X24834500Y-14015000D02*
G75*
G02*
X24659500Y-14015000I-87500J0D01*
G01*
X24659500Y-14015000D02*
G75*
G02*
X24834500Y-14015000I87500J0D01*
G01*
X24898000Y-12110000D02*
G75*
G02*
X24723000Y-12110000I-87500J0D01*
G01*
X24723000Y-12110000D02*
G75*
G02*
X24898000Y-12110000I87500J0D01*
G01*
X24898000Y-19730000D02*
G75*
G02*
X24723000Y-19730000I-87500J0D01*
G01*
X24723000Y-19730000D02*
G75*
G02*
X24898000Y-19730000I87500J0D01*
G01*
X25310750Y-15920000D02*
G75*
G02*
X25135750Y-15920000I-87500J0D01*
G01*
X25135750Y-15920000D02*
G75*
G02*
X25310750Y-15920000I87500J0D01*
G01*
X25374250Y-17825000D02*
G75*
G02*
X25199250Y-17825000I-87500J0D01*
G01*
X25199250Y-17825000D02*
G75*
G02*
X25374250Y-17825000I87500J0D01*
G01*
X25787000Y-12110000D02*
G75*
G02*
X25612000Y-12110000I-87500J0D01*
G01*
X25612000Y-12110000D02*
G75*
G02*
X25787000Y-12110000I87500J0D01*
G01*
X25787000Y-19730000D02*
G75*
G02*
X25612000Y-19730000I-87500J0D01*
G01*
X25612000Y-19730000D02*
G75*
G02*
X25787000Y-19730000I87500J0D01*
G01*
X25850500Y-9252500D02*
G75*
G02*
X25675500Y-9252500I-87500J0D01*
G01*
X25675500Y-9252500D02*
G75*
G02*
X25850500Y-9252500I87500J0D01*
G01*
X25850500Y-14015000D02*
G75*
G02*
X25675500Y-14015000I-87500J0D01*
G01*
X25675500Y-14015000D02*
G75*
G02*
X25850500Y-14015000I87500J0D01*
G01*
X26263250Y-17825000D02*
G75*
G02*
X26088250Y-17825000I-87500J0D01*
G01*
X26088250Y-17825000D02*
G75*
G02*
X26263250Y-17825000I87500J0D01*
G01*
X26326750Y-15920000D02*
G75*
G02*
X26151750Y-15920000I-87500J0D01*
G01*
X26151750Y-15920000D02*
G75*
G02*
X26326750Y-15920000I87500J0D01*
G01*
X26739500Y-9252500D02*
G75*
G02*
X26564500Y-9252500I-87500J0D01*
G01*
X26564500Y-9252500D02*
G75*
G02*
X26739500Y-9252500I87500J0D01*
G01*
X26739500Y-14015000D02*
G75*
G02*
X26564500Y-14015000I-87500J0D01*
G01*
X26564500Y-14015000D02*
G75*
G02*
X26739500Y-14015000I87500J0D01*
G01*
X26803000Y-12110000D02*
G75*
G02*
X26628000Y-12110000I-87500J0D01*
G01*
X26628000Y-12110000D02*
G75*
G02*
X26803000Y-12110000I87500J0D01*
G01*
X26803000Y-19730000D02*
G75*
G02*
X26628000Y-19730000I-87500J0D01*
G01*
X26628000Y-19730000D02*
G75*
G02*
X26803000Y-19730000I87500J0D01*
G01*
X27215750Y-15920000D02*
G75*
G02*
X27040750Y-15920000I-87500J0D01*
G01*
X27040750Y-15920000D02*
G75*
G02*
X27215750Y-15920000I87500J0D01*
G01*
X27279250Y-17825000D02*
G75*
G02*
X27104250Y-17825000I-87500J0D01*
G01*
X27104250Y-17825000D02*
G75*
G02*
X27279250Y-17825000I87500J0D01*
G01*
X27692000Y-12110000D02*
G75*
G02*
X27517000Y-12110000I-87500J0D01*
G01*
X27517000Y-12110000D02*
G75*
G02*
X27692000Y-12110000I87500J0D01*
G01*
X27692000Y-19730000D02*
G75*
G02*
X27517000Y-19730000I-87500J0D01*
G01*
X27517000Y-19730000D02*
G75*
G02*
X27692000Y-19730000I87500J0D01*
G01*
X27755500Y-9252500D02*
G75*
G02*
X27580500Y-9252500I-87500J0D01*
G01*
X27580500Y-9252500D02*
G75*
G02*
X27755500Y-9252500I87500J0D01*
G01*
X27755500Y-14015000D02*
G75*
G02*
X27580500Y-14015000I-87500J0D01*
G01*
X27580500Y-14015000D02*
G75*
G02*
X27755500Y-14015000I87500J0D01*
G01*
X28231750Y-15920000D02*
G75*
G02*
X28056750Y-15920000I-87500J0D01*
G01*
X28056750Y-15920000D02*
G75*
G02*
X28231750Y-15920000I87500J0D01*
G01*
X28644500Y-9252500D02*
G75*
G02*
X28469500Y-9252500I-87500J0D01*
G01*
X28469500Y-9252500D02*
G75*
G02*
X28644500Y-9252500I87500J0D01*
G01*
X28644500Y-14015000D02*
G75*
G02*
X28469500Y-14015000I-87500J0D01*
G01*
X28469500Y-14015000D02*
G75*
G02*
X28644500Y-14015000I87500J0D01*
G01*
X28708000Y-12110000D02*
G75*
G02*
X28533000Y-12110000I-87500J0D01*
G01*
X28533000Y-12110000D02*
G75*
G02*
X28708000Y-12110000I87500J0D01*
G01*
X28708000Y-19730000D02*
G75*
G02*
X28533000Y-19730000I-87500J0D01*
G01*
X28533000Y-19730000D02*
G75*
G02*
X28708000Y-19730000I87500J0D01*
G01*
X28882625Y-17825000D02*
G75*
G02*
X28707625Y-17825000I-87500J0D01*
G01*
X28707625Y-17825000D02*
G75*
G02*
X28882625Y-17825000I87500J0D01*
G01*
X29660500Y-9252500D02*
G75*
G02*
X29485500Y-9252500I-87500J0D01*
G01*
X29485500Y-9252500D02*
G75*
G02*
X29660500Y-9252500I87500J0D01*
G01*
X29660500Y-14015000D02*
G75*
G02*
X29485500Y-14015000I-87500J0D01*
G01*
X29485500Y-14015000D02*
G75*
G02*
X29660500Y-14015000I87500J0D01*
G01*
X29898625Y-17825000D02*
G75*
G02*
X29723625Y-17825000I-87500J0D01*
G01*
X29723625Y-17825000D02*
G75*
G02*
X29898625Y-17825000I87500J0D01*
G01*
X30311375Y-15920000D02*
G75*
G02*
X30136375Y-15920000I-87500J0D01*
G01*
X30136375Y-15920000D02*
G75*
G02*
X30311375Y-15920000I87500J0D01*
G01*
X30549500Y-9252500D02*
G75*
G02*
X30374500Y-9252500I-87500J0D01*
G01*
X30374500Y-9252500D02*
G75*
G02*
X30549500Y-9252500I87500J0D01*
G01*
X30549500Y-12110000D02*
G75*
G02*
X30374500Y-12110000I-87500J0D01*
G01*
X30374500Y-12110000D02*
G75*
G02*
X30549500Y-12110000I87500J0D01*
G01*
X31025750Y-14015000D02*
G75*
G02*
X30850750Y-14015000I-87500J0D01*
G01*
X30850750Y-14015000D02*
G75*
G02*
X31025750Y-14015000I87500J0D01*
G01*
X31327375Y-15920000D02*
G75*
G02*
X31152375Y-15920000I-87500J0D01*
G01*
X31152375Y-15920000D02*
G75*
G02*
X31327375Y-15920000I87500J0D01*
G01*
X31502000Y-20206250D02*
G75*
G02*
X31327000Y-20206250I-87500J0D01*
G01*
X31327000Y-20206250D02*
G75*
G02*
X31502000Y-20206250I87500J0D01*
G01*
X31565500Y-9252500D02*
G75*
G02*
X31390500Y-9252500I-87500J0D01*
G01*
X31390500Y-9252500D02*
G75*
G02*
X31565500Y-9252500I87500J0D01*
G01*
X31565500Y-12110000D02*
G75*
G02*
X31390500Y-12110000I-87500J0D01*
G01*
X31390500Y-12110000D02*
G75*
G02*
X31565500Y-12110000I87500J0D01*
G01*
X32041750Y-14015000D02*
G75*
G02*
X31866750Y-14015000I-87500J0D01*
G01*
X31866750Y-14015000D02*
G75*
G02*
X32041750Y-14015000I87500J0D01*
G01*
X32518000Y-20206250D02*
G75*
G02*
X32343000Y-20206250I-87500J0D01*
G01*
X32343000Y-20206250D02*
G75*
G02*
X32518000Y-20206250I87500J0D01*
G01*
X33407000Y-18301250D02*
G75*
G02*
X33232000Y-18301250I-87500J0D01*
G01*
X33232000Y-18301250D02*
G75*
G02*
X33407000Y-18301250I87500J0D01*
G01*
X33407000Y-20206250D02*
G75*
G02*
X33232000Y-20206250I-87500J0D01*
G01*
X33232000Y-20206250D02*
G75*
G02*
X33407000Y-20206250I87500J0D01*
G01*
X34423000Y-18301250D02*
G75*
G02*
X34248000Y-18301250I-87500J0D01*
G01*
X34248000Y-18301250D02*
G75*
G02*
X34423000Y-18301250I87500J0D01*
G01*
X34423000Y-20206250D02*
G75*
G02*
X34248000Y-20206250I-87500J0D01*
G01*
X34248000Y-20206250D02*
G75*
G02*
X34423000Y-20206250I87500J0D01*
G01*
X35312000Y-20206250D02*
G75*
G02*
X35137000Y-20206250I-87500J0D01*
G01*
X35137000Y-20206250D02*
G75*
G02*
X35312000Y-20206250I87500J0D01*
G01*
X35788250Y-9252500D02*
G75*
G02*
X35613250Y-9252500I-87500J0D01*
G01*
X35613250Y-9252500D02*
G75*
G02*
X35788250Y-9252500I87500J0D01*
G01*
X35788250Y-12110000D02*
G75*
G02*
X35613250Y-12110000I-87500J0D01*
G01*
X35613250Y-12110000D02*
G75*
G02*
X35788250Y-12110000I87500J0D01*
G01*
X35788250Y-14015000D02*
G75*
G02*
X35613250Y-14015000I-87500J0D01*
G01*
X35613250Y-14015000D02*
G75*
G02*
X35788250Y-14015000I87500J0D01*
G01*
X35788250Y-15920000D02*
G75*
G02*
X35613250Y-15920000I-87500J0D01*
G01*
X35613250Y-15920000D02*
G75*
G02*
X35788250Y-15920000I87500J0D01*
G01*
X35788250Y-17825000D02*
G75*
G02*
X35613250Y-17825000I-87500J0D01*
G01*
X35613250Y-17825000D02*
G75*
G02*
X35788250Y-17825000I87500J0D01*
G01*
X36328000Y-20206250D02*
G75*
G02*
X36153000Y-20206250I-87500J0D01*
G01*
X36153000Y-20206250D02*
G75*
G02*
X36328000Y-20206250I87500J0D01*
G01*
X36804250Y-9252500D02*
G75*
G02*
X36629250Y-9252500I-87500J0D01*
G01*
X36629250Y-9252500D02*
G75*
G02*
X36804250Y-9252500I87500J0D01*
G01*
X36804250Y-12110000D02*
G75*
G02*
X36629250Y-12110000I-87500J0D01*
G01*
X36629250Y-12110000D02*
G75*
G02*
X36804250Y-12110000I87500J0D01*
G01*
X36804250Y-14015000D02*
G75*
G02*
X36629250Y-14015000I-87500J0D01*
G01*
X36629250Y-14015000D02*
G75*
G02*
X36804250Y-14015000I87500J0D01*
G01*
X36804250Y-15920000D02*
G75*
G02*
X36629250Y-15920000I-87500J0D01*
G01*
X36629250Y-15920000D02*
G75*
G02*
X36804250Y-15920000I87500J0D01*
G01*
X36804250Y-17825000D02*
G75*
G02*
X36629250Y-17825000I-87500J0D01*
G01*
X36629250Y-17825000D02*
G75*
G02*
X36804250Y-17825000I87500J0D01*
G01*
D13*
X5249325Y-16974100D02*
X5249325Y-17278900D01*
X5096925Y-17126500D02*
X5401725Y-17126500D01*
X7636925Y-16974100D02*
X7636925Y-17278900D01*
X7484525Y-17126500D02*
X7789325Y-17126500D01*
X12396875Y-18879100D02*
X12396875Y-19183900D01*
X12244475Y-19031500D02*
X12549275Y-19031500D01*
X22396875Y-18879100D02*
X22396875Y-19183900D01*
X22244475Y-19031500D02*
X22549275Y-19031500D01*
X29538075Y-15069100D02*
X29538075Y-15373900D01*
X29385675Y-15221500D02*
X29690475Y-15221500D01*
X29776200Y-11259100D02*
X29776200Y-11563900D01*
X29623800Y-11411500D02*
X29928600Y-11411500D01*
X31925675Y-15069100D02*
X31925675Y-15373900D01*
X31773275Y-15221500D02*
X32078075Y-15221500D01*
X32163800Y-11259100D02*
X32163800Y-11563900D01*
X32011400Y-11411500D02*
X32316200Y-11411500D01*
D14*
X4979335Y-9106335D02*
X4979335Y-8890665D01*
X4763665Y-8890665D01*
X4763665Y-9106335D01*
X4979335Y-9106335D01*
X4979335Y-11963835D02*
X4979335Y-11748165D01*
X4763665Y-11748165D01*
X4763665Y-11963835D01*
X4979335Y-11963835D01*
X5217460Y-19583835D02*
X5217460Y-19368165D01*
X5001790Y-19368165D01*
X5001790Y-19583835D01*
X5217460Y-19583835D01*
X5455585Y-13868835D02*
X5455585Y-13653165D01*
X5239915Y-13653165D01*
X5239915Y-13868835D01*
X5455585Y-13868835D01*
X5614335Y-8852335D02*
X5614335Y-8636665D01*
X5398665Y-8636665D01*
X5398665Y-8852335D01*
X5614335Y-8852335D01*
X5614335Y-11709835D02*
X5614335Y-11494165D01*
X5398665Y-11494165D01*
X5398665Y-11709835D01*
X5614335Y-11709835D01*
X5693710Y-15773835D02*
X5693710Y-15558165D01*
X5478040Y-15558165D01*
X5478040Y-15773835D01*
X5693710Y-15773835D01*
X5852460Y-19329835D02*
X5852460Y-19114165D01*
X5636790Y-19114165D01*
X5636790Y-19329835D01*
X5852460Y-19329835D01*
X6090585Y-13614835D02*
X6090585Y-13399165D01*
X5874915Y-13399165D01*
X5874915Y-13614835D01*
X6090585Y-13614835D01*
X6169960Y-17678835D02*
X6169960Y-17463165D01*
X5954290Y-17463165D01*
X5954290Y-17678835D01*
X6169960Y-17678835D01*
X6328710Y-15519835D02*
X6328710Y-15304165D01*
X6113040Y-15304165D01*
X6113040Y-15519835D01*
X6328710Y-15519835D01*
X6804960Y-17424835D02*
X6804960Y-17209165D01*
X6589290Y-17209165D01*
X6589290Y-17424835D01*
X6804960Y-17424835D01*
X6884335Y-11963835D02*
X6884335Y-11748165D01*
X6668665Y-11748165D01*
X6668665Y-11963835D01*
X6884335Y-11963835D01*
X7519335Y-11709835D02*
X7519335Y-11494165D01*
X7303665Y-11494165D01*
X7303665Y-11709835D01*
X7519335Y-11709835D01*
X7598710Y-19583835D02*
X7598710Y-19368165D01*
X7383040Y-19368165D01*
X7383040Y-19583835D01*
X7598710Y-19583835D01*
X7836835Y-13868835D02*
X7836835Y-13653165D01*
X7621165Y-13653165D01*
X7621165Y-13868835D01*
X7836835Y-13868835D01*
X8233710Y-19329835D02*
X8233710Y-19114165D01*
X8018040Y-19114165D01*
X8018040Y-19329835D01*
X8233710Y-19329835D01*
X8313085Y-15773835D02*
X8313085Y-15558165D01*
X8097415Y-15558165D01*
X8097415Y-15773835D01*
X8313085Y-15773835D01*
X8471835Y-13614835D02*
X8471835Y-13399165D01*
X8256165Y-13399165D01*
X8256165Y-13614835D01*
X8471835Y-13614835D01*
X8789335Y-9106335D02*
X8789335Y-8890665D01*
X8573665Y-8890665D01*
X8573665Y-9106335D01*
X8789335Y-9106335D01*
X8789335Y-11963835D02*
X8789335Y-11748165D01*
X8573665Y-11748165D01*
X8573665Y-11963835D01*
X8789335Y-11963835D01*
X8948085Y-15519835D02*
X8948085Y-15304165D01*
X8732415Y-15304165D01*
X8732415Y-15519835D01*
X8948085Y-15519835D01*
X9265585Y-17678835D02*
X9265585Y-17463165D01*
X9049915Y-17463165D01*
X9049915Y-17678835D01*
X9265585Y-17678835D01*
X9424335Y-8852335D02*
X9424335Y-8636665D01*
X9208665Y-8636665D01*
X9208665Y-8852335D01*
X9424335Y-8852335D01*
X9424335Y-11709835D02*
X9424335Y-11494165D01*
X9208665Y-11494165D01*
X9208665Y-11709835D01*
X9424335Y-11709835D01*
X9741835Y-13868835D02*
X9741835Y-13653165D01*
X9526165Y-13653165D01*
X9526165Y-13868835D01*
X9741835Y-13868835D01*
X9900585Y-17424835D02*
X9900585Y-17209165D01*
X9684915Y-17209165D01*
X9684915Y-17424835D01*
X9900585Y-17424835D01*
X9979960Y-19583835D02*
X9979960Y-19368165D01*
X9764290Y-19368165D01*
X9764290Y-19583835D01*
X9979960Y-19583835D01*
X10218085Y-15773835D02*
X10218085Y-15558165D01*
X10002415Y-15558165D01*
X10002415Y-15773835D01*
X10218085Y-15773835D01*
X10376835Y-13614835D02*
X10376835Y-13399165D01*
X10161165Y-13399165D01*
X10161165Y-13614835D01*
X10376835Y-13614835D01*
X10614960Y-19329835D02*
X10614960Y-19114165D01*
X10399290Y-19114165D01*
X10399290Y-19329835D01*
X10614960Y-19329835D01*
X10694335Y-9106335D02*
X10694335Y-8890665D01*
X10478665Y-8890665D01*
X10478665Y-9106335D01*
X10694335Y-9106335D01*
X10694335Y-11963835D02*
X10694335Y-11748165D01*
X10478665Y-11748165D01*
X10478665Y-11963835D01*
X10694335Y-11963835D01*
X10853085Y-15519835D02*
X10853085Y-15304165D01*
X10637415Y-15304165D01*
X10637415Y-15519835D01*
X10853085Y-15519835D01*
X11170585Y-17678835D02*
X11170585Y-17463165D01*
X10954915Y-17463165D01*
X10954915Y-17678835D01*
X11170585Y-17678835D01*
X11329335Y-8852335D02*
X11329335Y-8636665D01*
X11113665Y-8636665D01*
X11113665Y-8852335D01*
X11329335Y-8852335D01*
X11329335Y-11709835D02*
X11329335Y-11494165D01*
X11113665Y-11494165D01*
X11113665Y-11709835D01*
X11329335Y-11709835D01*
X11646835Y-13868835D02*
X11646835Y-13653165D01*
X11431165Y-13653165D01*
X11431165Y-13868835D01*
X11646835Y-13868835D01*
X11805585Y-17424835D02*
X11805585Y-17209165D01*
X11589915Y-17209165D01*
X11589915Y-17424835D01*
X11805585Y-17424835D01*
X12123085Y-15773835D02*
X12123085Y-15558165D01*
X11907415Y-15558165D01*
X11907415Y-15773835D01*
X12123085Y-15773835D01*
X12281835Y-13614835D02*
X12281835Y-13399165D01*
X12066165Y-13399165D01*
X12066165Y-13614835D01*
X12281835Y-13614835D01*
X12599335Y-9106335D02*
X12599335Y-8890665D01*
X12383665Y-8890665D01*
X12383665Y-9106335D01*
X12599335Y-9106335D01*
X12599335Y-11963835D02*
X12599335Y-11748165D01*
X12383665Y-11748165D01*
X12383665Y-11963835D01*
X12599335Y-11963835D01*
X12758085Y-15519835D02*
X12758085Y-15304165D01*
X12542415Y-15304165D01*
X12542415Y-15519835D01*
X12758085Y-15519835D01*
X13075585Y-17678835D02*
X13075585Y-17463165D01*
X12859915Y-17463165D01*
X12859915Y-17678835D01*
X13075585Y-17678835D01*
X13234335Y-8852335D02*
X13234335Y-8636665D01*
X13018665Y-8636665D01*
X13018665Y-8852335D01*
X13234335Y-8852335D01*
X13234335Y-11709835D02*
X13234335Y-11494165D01*
X13018665Y-11494165D01*
X13018665Y-11709835D01*
X13234335Y-11709835D01*
X13551835Y-13868835D02*
X13551835Y-13653165D01*
X13336165Y-13653165D01*
X13336165Y-13868835D01*
X13551835Y-13868835D01*
X13710585Y-17424835D02*
X13710585Y-17209165D01*
X13494915Y-17209165D01*
X13494915Y-17424835D01*
X13710585Y-17424835D01*
X14028085Y-15773835D02*
X14028085Y-15558165D01*
X13812415Y-15558165D01*
X13812415Y-15773835D01*
X14028085Y-15773835D01*
X14186835Y-13614835D02*
X14186835Y-13399165D01*
X13971165Y-13399165D01*
X13971165Y-13614835D01*
X14186835Y-13614835D01*
X14504335Y-9106335D02*
X14504335Y-8890665D01*
X14288665Y-8890665D01*
X14288665Y-9106335D01*
X14504335Y-9106335D01*
X14504335Y-11963835D02*
X14504335Y-11748165D01*
X14288665Y-11748165D01*
X14288665Y-11963835D01*
X14504335Y-11963835D01*
X14663085Y-15519835D02*
X14663085Y-15304165D01*
X14447415Y-15304165D01*
X14447415Y-15519835D01*
X14663085Y-15519835D01*
X14980585Y-17678835D02*
X14980585Y-17463165D01*
X14764915Y-17463165D01*
X14764915Y-17678835D01*
X14980585Y-17678835D01*
X15139335Y-8852335D02*
X15139335Y-8636665D01*
X14923665Y-8636665D01*
X14923665Y-8852335D01*
X15139335Y-8852335D01*
X15139335Y-11709835D02*
X15139335Y-11494165D01*
X14923665Y-11494165D01*
X14923665Y-11709835D01*
X15139335Y-11709835D01*
X15456835Y-13868835D02*
X15456835Y-13653165D01*
X15241165Y-13653165D01*
X15241165Y-13868835D01*
X15456835Y-13868835D01*
X15615585Y-17424835D02*
X15615585Y-17209165D01*
X15399915Y-17209165D01*
X15399915Y-17424835D01*
X15615585Y-17424835D01*
X15933085Y-15773835D02*
X15933085Y-15558165D01*
X15717415Y-15558165D01*
X15717415Y-15773835D01*
X15933085Y-15773835D01*
X16091835Y-13614835D02*
X16091835Y-13399165D01*
X15876165Y-13399165D01*
X15876165Y-13614835D01*
X16091835Y-13614835D01*
X16409335Y-11963835D02*
X16409335Y-11748165D01*
X16193665Y-11748165D01*
X16193665Y-11963835D01*
X16409335Y-11963835D01*
X16568085Y-15519835D02*
X16568085Y-15304165D01*
X16352415Y-15304165D01*
X16352415Y-15519835D01*
X16568085Y-15519835D01*
X16885585Y-9106335D02*
X16885585Y-8890665D01*
X16669915Y-8890665D01*
X16669915Y-9106335D01*
X16885585Y-9106335D01*
X16885585Y-17678835D02*
X16885585Y-17463165D01*
X16669915Y-17463165D01*
X16669915Y-17678835D01*
X16885585Y-17678835D01*
X17044335Y-11709835D02*
X17044335Y-11494165D01*
X16828665Y-11494165D01*
X16828665Y-11709835D01*
X17044335Y-11709835D01*
X17123710Y-19583835D02*
X17123710Y-19368165D01*
X16908040Y-19368165D01*
X16908040Y-19583835D01*
X17123710Y-19583835D01*
X17361835Y-13868835D02*
X17361835Y-13653165D01*
X17146165Y-13653165D01*
X17146165Y-13868835D01*
X17361835Y-13868835D01*
X17520585Y-8852335D02*
X17520585Y-8636665D01*
X17304915Y-8636665D01*
X17304915Y-8852335D01*
X17520585Y-8852335D01*
X17520585Y-17424835D02*
X17520585Y-17209165D01*
X17304915Y-17209165D01*
X17304915Y-17424835D01*
X17520585Y-17424835D01*
X17758710Y-19329835D02*
X17758710Y-19114165D01*
X17543040Y-19114165D01*
X17543040Y-19329835D01*
X17758710Y-19329835D01*
X17838085Y-15773835D02*
X17838085Y-15558165D01*
X17622415Y-15558165D01*
X17622415Y-15773835D01*
X17838085Y-15773835D01*
X17996835Y-13614835D02*
X17996835Y-13399165D01*
X17781165Y-13399165D01*
X17781165Y-13614835D01*
X17996835Y-13614835D01*
X18314335Y-11963835D02*
X18314335Y-11748165D01*
X18098665Y-11748165D01*
X18098665Y-11963835D01*
X18314335Y-11963835D01*
X18473085Y-15519835D02*
X18473085Y-15304165D01*
X18257415Y-15304165D01*
X18257415Y-15519835D01*
X18473085Y-15519835D01*
X18790585Y-9106335D02*
X18790585Y-8890665D01*
X18574915Y-8890665D01*
X18574915Y-9106335D01*
X18790585Y-9106335D01*
X18790585Y-17678835D02*
X18790585Y-17463165D01*
X18574915Y-17463165D01*
X18574915Y-17678835D01*
X18790585Y-17678835D01*
X18949335Y-11709835D02*
X18949335Y-11494165D01*
X18733665Y-11494165D01*
X18733665Y-11709835D01*
X18949335Y-11709835D01*
X19266835Y-13868835D02*
X19266835Y-13653165D01*
X19051165Y-13653165D01*
X19051165Y-13868835D01*
X19266835Y-13868835D01*
X19425585Y-8852335D02*
X19425585Y-8636665D01*
X19209915Y-8636665D01*
X19209915Y-8852335D01*
X19425585Y-8852335D01*
X19425585Y-17424835D02*
X19425585Y-17209165D01*
X19209915Y-17209165D01*
X19209915Y-17424835D01*
X19425585Y-17424835D01*
X19743085Y-15773835D02*
X19743085Y-15558165D01*
X19527415Y-15558165D01*
X19527415Y-15773835D01*
X19743085Y-15773835D01*
X19901835Y-13614835D02*
X19901835Y-13399165D01*
X19686165Y-13399165D01*
X19686165Y-13614835D01*
X19901835Y-13614835D01*
X20219335Y-11963835D02*
X20219335Y-11748165D01*
X20003665Y-11748165D01*
X20003665Y-11963835D01*
X20219335Y-11963835D01*
X20378085Y-15519835D02*
X20378085Y-15304165D01*
X20162415Y-15304165D01*
X20162415Y-15519835D01*
X20378085Y-15519835D01*
X20695585Y-9106335D02*
X20695585Y-8890665D01*
X20479915Y-8890665D01*
X20479915Y-9106335D01*
X20695585Y-9106335D01*
X20695585Y-17678835D02*
X20695585Y-17463165D01*
X20479915Y-17463165D01*
X20479915Y-17678835D01*
X20695585Y-17678835D01*
X20854335Y-11709835D02*
X20854335Y-11494165D01*
X20638665Y-11494165D01*
X20638665Y-11709835D01*
X20854335Y-11709835D01*
X21171835Y-13868835D02*
X21171835Y-13653165D01*
X20956165Y-13653165D01*
X20956165Y-13868835D01*
X21171835Y-13868835D01*
X21330585Y-8852335D02*
X21330585Y-8636665D01*
X21114915Y-8636665D01*
X21114915Y-8852335D01*
X21330585Y-8852335D01*
X21330585Y-17424835D02*
X21330585Y-17209165D01*
X21114915Y-17209165D01*
X21114915Y-17424835D01*
X21330585Y-17424835D01*
X21648085Y-15773835D02*
X21648085Y-15558165D01*
X21432415Y-15558165D01*
X21432415Y-15773835D01*
X21648085Y-15773835D01*
X21806835Y-13614835D02*
X21806835Y-13399165D01*
X21591165Y-13399165D01*
X21591165Y-13614835D01*
X21806835Y-13614835D01*
X22124335Y-11963835D02*
X22124335Y-11748165D01*
X21908665Y-11748165D01*
X21908665Y-11963835D01*
X22124335Y-11963835D01*
X22283085Y-15519835D02*
X22283085Y-15304165D01*
X22067415Y-15304165D01*
X22067415Y-15519835D01*
X22283085Y-15519835D01*
X22600585Y-9106335D02*
X22600585Y-8890665D01*
X22384915Y-8890665D01*
X22384915Y-9106335D01*
X22600585Y-9106335D01*
X22600585Y-17678835D02*
X22600585Y-17463165D01*
X22384915Y-17463165D01*
X22384915Y-17678835D01*
X22600585Y-17678835D01*
X22759335Y-11709835D02*
X22759335Y-11494165D01*
X22543665Y-11494165D01*
X22543665Y-11709835D01*
X22759335Y-11709835D01*
X23076835Y-13868835D02*
X23076835Y-13653165D01*
X22861165Y-13653165D01*
X22861165Y-13868835D01*
X23076835Y-13868835D01*
X23235585Y-8852335D02*
X23235585Y-8636665D01*
X23019915Y-8636665D01*
X23019915Y-8852335D01*
X23235585Y-8852335D01*
X23235585Y-17424835D02*
X23235585Y-17209165D01*
X23019915Y-17209165D01*
X23019915Y-17424835D01*
X23235585Y-17424835D01*
X23553085Y-15773835D02*
X23553085Y-15558165D01*
X23337415Y-15558165D01*
X23337415Y-15773835D01*
X23553085Y-15773835D01*
X23711835Y-13614835D02*
X23711835Y-13399165D01*
X23496165Y-13399165D01*
X23496165Y-13614835D01*
X23711835Y-13614835D01*
X24029335Y-11963835D02*
X24029335Y-11748165D01*
X23813665Y-11748165D01*
X23813665Y-11963835D01*
X24029335Y-11963835D01*
X24029335Y-19583835D02*
X24029335Y-19368165D01*
X23813665Y-19368165D01*
X23813665Y-19583835D01*
X24029335Y-19583835D01*
X24188085Y-15519835D02*
X24188085Y-15304165D01*
X23972415Y-15304165D01*
X23972415Y-15519835D01*
X24188085Y-15519835D01*
X24505585Y-17678835D02*
X24505585Y-17463165D01*
X24289915Y-17463165D01*
X24289915Y-17678835D01*
X24505585Y-17678835D01*
X24664335Y-11709835D02*
X24664335Y-11494165D01*
X24448665Y-11494165D01*
X24448665Y-11709835D01*
X24664335Y-11709835D01*
X24664335Y-19329835D02*
X24664335Y-19114165D01*
X24448665Y-19114165D01*
X24448665Y-19329835D01*
X24664335Y-19329835D01*
X24981835Y-9106335D02*
X24981835Y-8890665D01*
X24766165Y-8890665D01*
X24766165Y-9106335D01*
X24981835Y-9106335D01*
X24981835Y-13868835D02*
X24981835Y-13653165D01*
X24766165Y-13653165D01*
X24766165Y-13868835D01*
X24981835Y-13868835D01*
X25140585Y-17424835D02*
X25140585Y-17209165D01*
X24924915Y-17209165D01*
X24924915Y-17424835D01*
X25140585Y-17424835D01*
X25458085Y-15773835D02*
X25458085Y-15558165D01*
X25242415Y-15558165D01*
X25242415Y-15773835D01*
X25458085Y-15773835D01*
X25616835Y-8852335D02*
X25616835Y-8636665D01*
X25401165Y-8636665D01*
X25401165Y-8852335D01*
X25616835Y-8852335D01*
X25616835Y-13614835D02*
X25616835Y-13399165D01*
X25401165Y-13399165D01*
X25401165Y-13614835D01*
X25616835Y-13614835D01*
X25934335Y-11963835D02*
X25934335Y-11748165D01*
X25718665Y-11748165D01*
X25718665Y-11963835D01*
X25934335Y-11963835D01*
X25934335Y-19583835D02*
X25934335Y-19368165D01*
X25718665Y-19368165D01*
X25718665Y-19583835D01*
X25934335Y-19583835D01*
X26093085Y-15519835D02*
X26093085Y-15304165D01*
X25877415Y-15304165D01*
X25877415Y-15519835D01*
X26093085Y-15519835D01*
X26410585Y-17678835D02*
X26410585Y-17463165D01*
X26194915Y-17463165D01*
X26194915Y-17678835D01*
X26410585Y-17678835D01*
X26569335Y-11709835D02*
X26569335Y-11494165D01*
X26353665Y-11494165D01*
X26353665Y-11709835D01*
X26569335Y-11709835D01*
X26569335Y-19329835D02*
X26569335Y-19114165D01*
X26353665Y-19114165D01*
X26353665Y-19329835D01*
X26569335Y-19329835D01*
X26886835Y-9106335D02*
X26886835Y-8890665D01*
X26671165Y-8890665D01*
X26671165Y-9106335D01*
X26886835Y-9106335D01*
X26886835Y-13868835D02*
X26886835Y-13653165D01*
X26671165Y-13653165D01*
X26671165Y-13868835D01*
X26886835Y-13868835D01*
X27045585Y-17424835D02*
X27045585Y-17209165D01*
X26829915Y-17209165D01*
X26829915Y-17424835D01*
X27045585Y-17424835D01*
X27363085Y-15773835D02*
X27363085Y-15558165D01*
X27147415Y-15558165D01*
X27147415Y-15773835D01*
X27363085Y-15773835D01*
X27521835Y-8852335D02*
X27521835Y-8636665D01*
X27306165Y-8636665D01*
X27306165Y-8852335D01*
X27521835Y-8852335D01*
X27521835Y-13614835D02*
X27521835Y-13399165D01*
X27306165Y-13399165D01*
X27306165Y-13614835D01*
X27521835Y-13614835D01*
X27839335Y-11963835D02*
X27839335Y-11748165D01*
X27623665Y-11748165D01*
X27623665Y-11963835D01*
X27839335Y-11963835D01*
X27839335Y-19583835D02*
X27839335Y-19368165D01*
X27623665Y-19368165D01*
X27623665Y-19583835D01*
X27839335Y-19583835D01*
X27998085Y-15519835D02*
X27998085Y-15304165D01*
X27782415Y-15304165D01*
X27782415Y-15519835D01*
X27998085Y-15519835D01*
X28474335Y-11709835D02*
X28474335Y-11494165D01*
X28258665Y-11494165D01*
X28258665Y-11709835D01*
X28474335Y-11709835D01*
X28474335Y-19329835D02*
X28474335Y-19114165D01*
X28258665Y-19114165D01*
X28258665Y-19329835D01*
X28474335Y-19329835D01*
X28791835Y-9106335D02*
X28791835Y-8890665D01*
X28576165Y-8890665D01*
X28576165Y-9106335D01*
X28791835Y-9106335D01*
X28791835Y-13868835D02*
X28791835Y-13653165D01*
X28576165Y-13653165D01*
X28576165Y-13868835D01*
X28791835Y-13868835D01*
X29029960Y-17678835D02*
X29029960Y-17463165D01*
X28814290Y-17463165D01*
X28814290Y-17678835D01*
X29029960Y-17678835D01*
X29426835Y-8852335D02*
X29426835Y-8636665D01*
X29211165Y-8636665D01*
X29211165Y-8852335D01*
X29426835Y-8852335D01*
X29426835Y-13614835D02*
X29426835Y-13399165D01*
X29211165Y-13399165D01*
X29211165Y-13614835D01*
X29426835Y-13614835D01*
X29664960Y-17424835D02*
X29664960Y-17209165D01*
X29449290Y-17209165D01*
X29449290Y-17424835D01*
X29664960Y-17424835D01*
X30458710Y-15773835D02*
X30458710Y-15558165D01*
X30243040Y-15558165D01*
X30243040Y-15773835D01*
X30458710Y-15773835D01*
X30696835Y-9106335D02*
X30696835Y-8890665D01*
X30481165Y-8890665D01*
X30481165Y-9106335D01*
X30696835Y-9106335D01*
X30696835Y-11963835D02*
X30696835Y-11748165D01*
X30481165Y-11748165D01*
X30481165Y-11963835D01*
X30696835Y-11963835D01*
X31093710Y-15519835D02*
X31093710Y-15304165D01*
X30878040Y-15304165D01*
X30878040Y-15519835D01*
X31093710Y-15519835D01*
X31173085Y-13868835D02*
X31173085Y-13653165D01*
X30957415Y-13653165D01*
X30957415Y-13868835D01*
X31173085Y-13868835D01*
X31331835Y-8852335D02*
X31331835Y-8636665D01*
X31116165Y-8636665D01*
X31116165Y-8852335D01*
X31331835Y-8852335D01*
X31331835Y-11709835D02*
X31331835Y-11494165D01*
X31116165Y-11494165D01*
X31116165Y-11709835D01*
X31331835Y-11709835D01*
X31649335Y-20060085D02*
X31649335Y-19844415D01*
X31433665Y-19844415D01*
X31433665Y-20060085D01*
X31649335Y-20060085D01*
X31808085Y-13614835D02*
X31808085Y-13399165D01*
X31592415Y-13399165D01*
X31592415Y-13614835D01*
X31808085Y-13614835D01*
X32284335Y-19806085D02*
X32284335Y-19590415D01*
X32068665Y-19590415D01*
X32068665Y-19806085D01*
X32284335Y-19806085D01*
X33554335Y-18155085D02*
X33554335Y-17939415D01*
X33338665Y-17939415D01*
X33338665Y-18155085D01*
X33554335Y-18155085D01*
X33554335Y-20060085D02*
X33554335Y-19844415D01*
X33338665Y-19844415D01*
X33338665Y-20060085D01*
X33554335Y-20060085D01*
X34189335Y-17901085D02*
X34189335Y-17685415D01*
X33973665Y-17685415D01*
X33973665Y-17901085D01*
X34189335Y-17901085D01*
X34189335Y-19806085D02*
X34189335Y-19590415D01*
X33973665Y-19590415D01*
X33973665Y-19806085D01*
X34189335Y-19806085D01*
X35459335Y-20060085D02*
X35459335Y-19844415D01*
X35243665Y-19844415D01*
X35243665Y-20060085D01*
X35459335Y-20060085D01*
X35935585Y-9106335D02*
X35935585Y-8890665D01*
X35719915Y-8890665D01*
X35719915Y-9106335D01*
X35935585Y-9106335D01*
X35935585Y-11963835D02*
X35935585Y-11748165D01*
X35719915Y-11748165D01*
X35719915Y-11963835D01*
X35935585Y-11963835D01*
X35935585Y-13868835D02*
X35935585Y-13653165D01*
X35719915Y-13653165D01*
X35719915Y-13868835D01*
X35935585Y-13868835D01*
X35935585Y-15773835D02*
X35935585Y-15558165D01*
X35719915Y-15558165D01*
X35719915Y-15773835D01*
X35935585Y-15773835D01*
X35935585Y-17678835D02*
X35935585Y-17463165D01*
X35719915Y-17463165D01*
X35719915Y-17678835D01*
X35935585Y-17678835D01*
X36094335Y-19806085D02*
X36094335Y-19590415D01*
X35878665Y-19590415D01*
X35878665Y-19806085D01*
X36094335Y-19806085D01*
X36570585Y-8852335D02*
X36570585Y-8636665D01*
X36354915Y-8636665D01*
X36354915Y-8852335D01*
X36570585Y-8852335D01*
X36570585Y-11709835D02*
X36570585Y-11494165D01*
X36354915Y-11494165D01*
X36354915Y-11709835D01*
X36570585Y-11709835D01*
X36570585Y-13614835D02*
X36570585Y-13399165D01*
X36354915Y-13399165D01*
X36354915Y-13614835D01*
X36570585Y-13614835D01*
X36570585Y-15519835D02*
X36570585Y-15304165D01*
X36354915Y-15304165D01*
X36354915Y-15519835D01*
X36570585Y-15519835D01*
X36570585Y-17424835D02*
X36570585Y-17209165D01*
X36354915Y-17209165D01*
X36354915Y-17424835D01*
X36570585Y-17424835D01*
D15*
X5249325Y-18846890D02*
X5448715Y-18647500D01*
X5249325Y-18448110D01*
X5049935Y-18647500D01*
X5249325Y-18846890D01*
X7636925Y-18846890D02*
X7836315Y-18647500D01*
X7636925Y-18448110D01*
X7437535Y-18647500D01*
X7636925Y-18846890D01*
X12396875Y-20751890D02*
X12596265Y-20552500D01*
X12396875Y-20353110D01*
X12197485Y-20552500D01*
X12396875Y-20751890D01*
X22396875Y-20751890D02*
X22596265Y-20552500D01*
X22396875Y-20353110D01*
X22197485Y-20552500D01*
X22396875Y-20751890D01*
X29538075Y-16941890D02*
X29737465Y-16742500D01*
X29538075Y-16543110D01*
X29338685Y-16742500D01*
X29538075Y-16941890D01*
X29776200Y-13131890D02*
X29975590Y-12932500D01*
X29776200Y-12733110D01*
X29576810Y-12932500D01*
X29776200Y-13131890D01*
X31925675Y-16941890D02*
X32125065Y-16742500D01*
X31925675Y-16543110D01*
X31726285Y-16742500D01*
X31925675Y-16941890D01*
X32163800Y-13131890D02*
X32363190Y-12932500D01*
X32163800Y-12733110D01*
X31964410Y-12932500D01*
X32163800Y-13131890D01*
D16*
X5052500Y-9052500D02*
X5452500Y-9452500D01*
X5452500Y-9052500D02*
X5052500Y-9452500D01*
X5452500Y-9252500D02*
G75*
G02*
X5052500Y-9252500I-200000J0D01*
G01*
X5052500Y-9252500D02*
G75*
G02*
X5452500Y-9252500I200000J0D01*
G01*
X5052500Y-11910000D02*
X5452500Y-12310000D01*
X5452500Y-11910000D02*
X5052500Y-12310000D01*
X5452500Y-12110000D02*
G75*
G02*
X5052500Y-12110000I-200000J0D01*
G01*
X5052500Y-12110000D02*
G75*
G02*
X5452500Y-12110000I200000J0D01*
G01*
X5290625Y-19530000D02*
X5690625Y-19930000D01*
X5690625Y-19530000D02*
X5290625Y-19930000D01*
X5690625Y-19730000D02*
G75*
G02*
X5290625Y-19730000I-200000J0D01*
G01*
X5290625Y-19730000D02*
G75*
G02*
X5690625Y-19730000I200000J0D01*
G01*
X5528750Y-13815000D02*
X5928750Y-14215000D01*
X5928750Y-13815000D02*
X5528750Y-14215000D01*
X5928750Y-14015000D02*
G75*
G02*
X5528750Y-14015000I-200000J0D01*
G01*
X5528750Y-14015000D02*
G75*
G02*
X5928750Y-14015000I200000J0D01*
G01*
X5766875Y-15720000D02*
X6166875Y-16120000D01*
X6166875Y-15720000D02*
X5766875Y-16120000D01*
X6166875Y-15920000D02*
G75*
G02*
X5766875Y-15920000I-200000J0D01*
G01*
X5766875Y-15920000D02*
G75*
G02*
X6166875Y-15920000I200000J0D01*
G01*
X6243125Y-17625000D02*
X6643125Y-18025000D01*
X6643125Y-17625000D02*
X6243125Y-18025000D01*
X6643125Y-17825000D02*
G75*
G02*
X6243125Y-17825000I-200000J0D01*
G01*
X6243125Y-17825000D02*
G75*
G02*
X6643125Y-17825000I200000J0D01*
G01*
X6957500Y-11910000D02*
X7357500Y-12310000D01*
X7357500Y-11910000D02*
X6957500Y-12310000D01*
X7357500Y-12110000D02*
G75*
G02*
X6957500Y-12110000I-200000J0D01*
G01*
X6957500Y-12110000D02*
G75*
G02*
X7357500Y-12110000I200000J0D01*
G01*
X7671875Y-19530000D02*
X8071875Y-19930000D01*
X8071875Y-19530000D02*
X7671875Y-19930000D01*
X8071875Y-19730000D02*
G75*
G02*
X7671875Y-19730000I-200000J0D01*
G01*
X7671875Y-19730000D02*
G75*
G02*
X8071875Y-19730000I200000J0D01*
G01*
X7910000Y-13815000D02*
X8310000Y-14215000D01*
X8310000Y-13815000D02*
X7910000Y-14215000D01*
X8310000Y-14015000D02*
G75*
G02*
X7910000Y-14015000I-200000J0D01*
G01*
X7910000Y-14015000D02*
G75*
G02*
X8310000Y-14015000I200000J0D01*
G01*
X8386250Y-15720000D02*
X8786250Y-16120000D01*
X8786250Y-15720000D02*
X8386250Y-16120000D01*
X8786250Y-15920000D02*
G75*
G02*
X8386250Y-15920000I-200000J0D01*
G01*
X8386250Y-15920000D02*
G75*
G02*
X8786250Y-15920000I200000J0D01*
G01*
X8862500Y-9052500D02*
X9262500Y-9452500D01*
X9262500Y-9052500D02*
X8862500Y-9452500D01*
X9262500Y-9252500D02*
G75*
G02*
X8862500Y-9252500I-200000J0D01*
G01*
X8862500Y-9252500D02*
G75*
G02*
X9262500Y-9252500I200000J0D01*
G01*
X8862500Y-11910000D02*
X9262500Y-12310000D01*
X9262500Y-11910000D02*
X8862500Y-12310000D01*
X9262500Y-12110000D02*
G75*
G02*
X8862500Y-12110000I-200000J0D01*
G01*
X8862500Y-12110000D02*
G75*
G02*
X9262500Y-12110000I200000J0D01*
G01*
X9338750Y-17625000D02*
X9738750Y-18025000D01*
X9738750Y-17625000D02*
X9338750Y-18025000D01*
X9738750Y-17825000D02*
G75*
G02*
X9338750Y-17825000I-200000J0D01*
G01*
X9338750Y-17825000D02*
G75*
G02*
X9738750Y-17825000I200000J0D01*
G01*
X9815000Y-13815000D02*
X10215000Y-14215000D01*
X10215000Y-13815000D02*
X9815000Y-14215000D01*
X10215000Y-14015000D02*
G75*
G02*
X9815000Y-14015000I-200000J0D01*
G01*
X9815000Y-14015000D02*
G75*
G02*
X10215000Y-14015000I200000J0D01*
G01*
X10053125Y-19530000D02*
X10453125Y-19930000D01*
X10453125Y-19530000D02*
X10053125Y-19930000D01*
X10453125Y-19730000D02*
G75*
G02*
X10053125Y-19730000I-200000J0D01*
G01*
X10053125Y-19730000D02*
G75*
G02*
X10453125Y-19730000I200000J0D01*
G01*
X10291250Y-15720000D02*
X10691250Y-16120000D01*
X10691250Y-15720000D02*
X10291250Y-16120000D01*
X10691250Y-15920000D02*
G75*
G02*
X10291250Y-15920000I-200000J0D01*
G01*
X10291250Y-15920000D02*
G75*
G02*
X10691250Y-15920000I200000J0D01*
G01*
X10767500Y-9052500D02*
X11167500Y-9452500D01*
X11167500Y-9052500D02*
X10767500Y-9452500D01*
X11167500Y-9252500D02*
G75*
G02*
X10767500Y-9252500I-200000J0D01*
G01*
X10767500Y-9252500D02*
G75*
G02*
X11167500Y-9252500I200000J0D01*
G01*
X10767500Y-11910000D02*
X11167500Y-12310000D01*
X11167500Y-11910000D02*
X10767500Y-12310000D01*
X11167500Y-12110000D02*
G75*
G02*
X10767500Y-12110000I-200000J0D01*
G01*
X10767500Y-12110000D02*
G75*
G02*
X11167500Y-12110000I200000J0D01*
G01*
X11243750Y-17625000D02*
X11643750Y-18025000D01*
X11643750Y-17625000D02*
X11243750Y-18025000D01*
X11643750Y-17825000D02*
G75*
G02*
X11243750Y-17825000I-200000J0D01*
G01*
X11243750Y-17825000D02*
G75*
G02*
X11643750Y-17825000I200000J0D01*
G01*
X11720000Y-13815000D02*
X12120000Y-14215000D01*
X12120000Y-13815000D02*
X11720000Y-14215000D01*
X12120000Y-14015000D02*
G75*
G02*
X11720000Y-14015000I-200000J0D01*
G01*
X11720000Y-14015000D02*
G75*
G02*
X12120000Y-14015000I200000J0D01*
G01*
X12196250Y-15720000D02*
X12596250Y-16120000D01*
X12596250Y-15720000D02*
X12196250Y-16120000D01*
X12596250Y-15920000D02*
G75*
G02*
X12196250Y-15920000I-200000J0D01*
G01*
X12196250Y-15920000D02*
G75*
G02*
X12596250Y-15920000I200000J0D01*
G01*
X12672500Y-9052500D02*
X13072500Y-9452500D01*
X13072500Y-9052500D02*
X12672500Y-9452500D01*
X13072500Y-9252500D02*
G75*
G02*
X12672500Y-9252500I-200000J0D01*
G01*
X12672500Y-9252500D02*
G75*
G02*
X13072500Y-9252500I200000J0D01*
G01*
X12672500Y-11910000D02*
X13072500Y-12310000D01*
X13072500Y-11910000D02*
X12672500Y-12310000D01*
X13072500Y-12110000D02*
G75*
G02*
X12672500Y-12110000I-200000J0D01*
G01*
X12672500Y-12110000D02*
G75*
G02*
X13072500Y-12110000I200000J0D01*
G01*
X13148750Y-17625000D02*
X13548750Y-18025000D01*
X13548750Y-17625000D02*
X13148750Y-18025000D01*
X13548750Y-17825000D02*
G75*
G02*
X13148750Y-17825000I-200000J0D01*
G01*
X13148750Y-17825000D02*
G75*
G02*
X13548750Y-17825000I200000J0D01*
G01*
X13625000Y-13815000D02*
X14025000Y-14215000D01*
X14025000Y-13815000D02*
X13625000Y-14215000D01*
X14025000Y-14015000D02*
G75*
G02*
X13625000Y-14015000I-200000J0D01*
G01*
X13625000Y-14015000D02*
G75*
G02*
X14025000Y-14015000I200000J0D01*
G01*
X14101250Y-15720000D02*
X14501250Y-16120000D01*
X14501250Y-15720000D02*
X14101250Y-16120000D01*
X14501250Y-15920000D02*
G75*
G02*
X14101250Y-15920000I-200000J0D01*
G01*
X14101250Y-15920000D02*
G75*
G02*
X14501250Y-15920000I200000J0D01*
G01*
X14577500Y-9052500D02*
X14977500Y-9452500D01*
X14977500Y-9052500D02*
X14577500Y-9452500D01*
X14977500Y-9252500D02*
G75*
G02*
X14577500Y-9252500I-200000J0D01*
G01*
X14577500Y-9252500D02*
G75*
G02*
X14977500Y-9252500I200000J0D01*
G01*
X14577500Y-11910000D02*
X14977500Y-12310000D01*
X14977500Y-11910000D02*
X14577500Y-12310000D01*
X14977500Y-12110000D02*
G75*
G02*
X14577500Y-12110000I-200000J0D01*
G01*
X14577500Y-12110000D02*
G75*
G02*
X14977500Y-12110000I200000J0D01*
G01*
X15053750Y-17625000D02*
X15453750Y-18025000D01*
X15453750Y-17625000D02*
X15053750Y-18025000D01*
X15453750Y-17825000D02*
G75*
G02*
X15053750Y-17825000I-200000J0D01*
G01*
X15053750Y-17825000D02*
G75*
G02*
X15453750Y-17825000I200000J0D01*
G01*
X15530000Y-13815000D02*
X15930000Y-14215000D01*
X15930000Y-13815000D02*
X15530000Y-14215000D01*
X15930000Y-14015000D02*
G75*
G02*
X15530000Y-14015000I-200000J0D01*
G01*
X15530000Y-14015000D02*
G75*
G02*
X15930000Y-14015000I200000J0D01*
G01*
X16006250Y-15720000D02*
X16406250Y-16120000D01*
X16406250Y-15720000D02*
X16006250Y-16120000D01*
X16406250Y-15920000D02*
G75*
G02*
X16006250Y-15920000I-200000J0D01*
G01*
X16006250Y-15920000D02*
G75*
G02*
X16406250Y-15920000I200000J0D01*
G01*
X16482500Y-11910000D02*
X16882500Y-12310000D01*
X16882500Y-11910000D02*
X16482500Y-12310000D01*
X16882500Y-12110000D02*
G75*
G02*
X16482500Y-12110000I-200000J0D01*
G01*
X16482500Y-12110000D02*
G75*
G02*
X16882500Y-12110000I200000J0D01*
G01*
X16958750Y-9052500D02*
X17358750Y-9452500D01*
X17358750Y-9052500D02*
X16958750Y-9452500D01*
X17358750Y-9252500D02*
G75*
G02*
X16958750Y-9252500I-200000J0D01*
G01*
X16958750Y-9252500D02*
G75*
G02*
X17358750Y-9252500I200000J0D01*
G01*
X16958750Y-17625000D02*
X17358750Y-18025000D01*
X17358750Y-17625000D02*
X16958750Y-18025000D01*
X17358750Y-17825000D02*
G75*
G02*
X16958750Y-17825000I-200000J0D01*
G01*
X16958750Y-17825000D02*
G75*
G02*
X17358750Y-17825000I200000J0D01*
G01*
X17196875Y-19530000D02*
X17596875Y-19930000D01*
X17596875Y-19530000D02*
X17196875Y-19930000D01*
X17596875Y-19730000D02*
G75*
G02*
X17196875Y-19730000I-200000J0D01*
G01*
X17196875Y-19730000D02*
G75*
G02*
X17596875Y-19730000I200000J0D01*
G01*
X17435000Y-13815000D02*
X17835000Y-14215000D01*
X17835000Y-13815000D02*
X17435000Y-14215000D01*
X17835000Y-14015000D02*
G75*
G02*
X17435000Y-14015000I-200000J0D01*
G01*
X17435000Y-14015000D02*
G75*
G02*
X17835000Y-14015000I200000J0D01*
G01*
X17911250Y-15720000D02*
X18311250Y-16120000D01*
X18311250Y-15720000D02*
X17911250Y-16120000D01*
X18311250Y-15920000D02*
G75*
G02*
X17911250Y-15920000I-200000J0D01*
G01*
X17911250Y-15920000D02*
G75*
G02*
X18311250Y-15920000I200000J0D01*
G01*
X18387500Y-11910000D02*
X18787500Y-12310000D01*
X18787500Y-11910000D02*
X18387500Y-12310000D01*
X18787500Y-12110000D02*
G75*
G02*
X18387500Y-12110000I-200000J0D01*
G01*
X18387500Y-12110000D02*
G75*
G02*
X18787500Y-12110000I200000J0D01*
G01*
X18863750Y-9052500D02*
X19263750Y-9452500D01*
X19263750Y-9052500D02*
X18863750Y-9452500D01*
X19263750Y-9252500D02*
G75*
G02*
X18863750Y-9252500I-200000J0D01*
G01*
X18863750Y-9252500D02*
G75*
G02*
X19263750Y-9252500I200000J0D01*
G01*
X18863750Y-17625000D02*
X19263750Y-18025000D01*
X19263750Y-17625000D02*
X18863750Y-18025000D01*
X19263750Y-17825000D02*
G75*
G02*
X18863750Y-17825000I-200000J0D01*
G01*
X18863750Y-17825000D02*
G75*
G02*
X19263750Y-17825000I200000J0D01*
G01*
X19340000Y-13815000D02*
X19740000Y-14215000D01*
X19740000Y-13815000D02*
X19340000Y-14215000D01*
X19740000Y-14015000D02*
G75*
G02*
X19340000Y-14015000I-200000J0D01*
G01*
X19340000Y-14015000D02*
G75*
G02*
X19740000Y-14015000I200000J0D01*
G01*
X19816250Y-15720000D02*
X20216250Y-16120000D01*
X20216250Y-15720000D02*
X19816250Y-16120000D01*
X20216250Y-15920000D02*
G75*
G02*
X19816250Y-15920000I-200000J0D01*
G01*
X19816250Y-15920000D02*
G75*
G02*
X20216250Y-15920000I200000J0D01*
G01*
X20292500Y-11910000D02*
X20692500Y-12310000D01*
X20692500Y-11910000D02*
X20292500Y-12310000D01*
X20692500Y-12110000D02*
G75*
G02*
X20292500Y-12110000I-200000J0D01*
G01*
X20292500Y-12110000D02*
G75*
G02*
X20692500Y-12110000I200000J0D01*
G01*
X20768750Y-9052500D02*
X21168750Y-9452500D01*
X21168750Y-9052500D02*
X20768750Y-9452500D01*
X21168750Y-9252500D02*
G75*
G02*
X20768750Y-9252500I-200000J0D01*
G01*
X20768750Y-9252500D02*
G75*
G02*
X21168750Y-9252500I200000J0D01*
G01*
X20768750Y-17625000D02*
X21168750Y-18025000D01*
X21168750Y-17625000D02*
X20768750Y-18025000D01*
X21168750Y-17825000D02*
G75*
G02*
X20768750Y-17825000I-200000J0D01*
G01*
X20768750Y-17825000D02*
G75*
G02*
X21168750Y-17825000I200000J0D01*
G01*
X21245000Y-13815000D02*
X21645000Y-14215000D01*
X21645000Y-13815000D02*
X21245000Y-14215000D01*
X21645000Y-14015000D02*
G75*
G02*
X21245000Y-14015000I-200000J0D01*
G01*
X21245000Y-14015000D02*
G75*
G02*
X21645000Y-14015000I200000J0D01*
G01*
X21721250Y-15720000D02*
X22121250Y-16120000D01*
X22121250Y-15720000D02*
X21721250Y-16120000D01*
X22121250Y-15920000D02*
G75*
G02*
X21721250Y-15920000I-200000J0D01*
G01*
X21721250Y-15920000D02*
G75*
G02*
X22121250Y-15920000I200000J0D01*
G01*
X22197500Y-11910000D02*
X22597500Y-12310000D01*
X22597500Y-11910000D02*
X22197500Y-12310000D01*
X22597500Y-12110000D02*
G75*
G02*
X22197500Y-12110000I-200000J0D01*
G01*
X22197500Y-12110000D02*
G75*
G02*
X22597500Y-12110000I200000J0D01*
G01*
X22673750Y-9052500D02*
X23073750Y-9452500D01*
X23073750Y-9052500D02*
X22673750Y-9452500D01*
X23073750Y-9252500D02*
G75*
G02*
X22673750Y-9252500I-200000J0D01*
G01*
X22673750Y-9252500D02*
G75*
G02*
X23073750Y-9252500I200000J0D01*
G01*
X22673750Y-17625000D02*
X23073750Y-18025000D01*
X23073750Y-17625000D02*
X22673750Y-18025000D01*
X23073750Y-17825000D02*
G75*
G02*
X22673750Y-17825000I-200000J0D01*
G01*
X22673750Y-17825000D02*
G75*
G02*
X23073750Y-17825000I200000J0D01*
G01*
X23150000Y-13815000D02*
X23550000Y-14215000D01*
X23550000Y-13815000D02*
X23150000Y-14215000D01*
X23550000Y-14015000D02*
G75*
G02*
X23150000Y-14015000I-200000J0D01*
G01*
X23150000Y-14015000D02*
G75*
G02*
X23550000Y-14015000I200000J0D01*
G01*
X23626250Y-15720000D02*
X24026250Y-16120000D01*
X24026250Y-15720000D02*
X23626250Y-16120000D01*
X24026250Y-15920000D02*
G75*
G02*
X23626250Y-15920000I-200000J0D01*
G01*
X23626250Y-15920000D02*
G75*
G02*
X24026250Y-15920000I200000J0D01*
G01*
X24102500Y-11910000D02*
X24502500Y-12310000D01*
X24502500Y-11910000D02*
X24102500Y-12310000D01*
X24502500Y-12110000D02*
G75*
G02*
X24102500Y-12110000I-200000J0D01*
G01*
X24102500Y-12110000D02*
G75*
G02*
X24502500Y-12110000I200000J0D01*
G01*
X24102500Y-19530000D02*
X24502500Y-19930000D01*
X24502500Y-19530000D02*
X24102500Y-19930000D01*
X24502500Y-19730000D02*
G75*
G02*
X24102500Y-19730000I-200000J0D01*
G01*
X24102500Y-19730000D02*
G75*
G02*
X24502500Y-19730000I200000J0D01*
G01*
X24578750Y-17625000D02*
X24978750Y-18025000D01*
X24978750Y-17625000D02*
X24578750Y-18025000D01*
X24978750Y-17825000D02*
G75*
G02*
X24578750Y-17825000I-200000J0D01*
G01*
X24578750Y-17825000D02*
G75*
G02*
X24978750Y-17825000I200000J0D01*
G01*
X25055000Y-9052500D02*
X25455000Y-9452500D01*
X25455000Y-9052500D02*
X25055000Y-9452500D01*
X25455000Y-9252500D02*
G75*
G02*
X25055000Y-9252500I-200000J0D01*
G01*
X25055000Y-9252500D02*
G75*
G02*
X25455000Y-9252500I200000J0D01*
G01*
X25055000Y-13815000D02*
X25455000Y-14215000D01*
X25455000Y-13815000D02*
X25055000Y-14215000D01*
X25455000Y-14015000D02*
G75*
G02*
X25055000Y-14015000I-200000J0D01*
G01*
X25055000Y-14015000D02*
G75*
G02*
X25455000Y-14015000I200000J0D01*
G01*
X25531250Y-15720000D02*
X25931250Y-16120000D01*
X25931250Y-15720000D02*
X25531250Y-16120000D01*
X25931250Y-15920000D02*
G75*
G02*
X25531250Y-15920000I-200000J0D01*
G01*
X25531250Y-15920000D02*
G75*
G02*
X25931250Y-15920000I200000J0D01*
G01*
X26007500Y-11910000D02*
X26407500Y-12310000D01*
X26407500Y-11910000D02*
X26007500Y-12310000D01*
X26407500Y-12110000D02*
G75*
G02*
X26007500Y-12110000I-200000J0D01*
G01*
X26007500Y-12110000D02*
G75*
G02*
X26407500Y-12110000I200000J0D01*
G01*
X26007500Y-19530000D02*
X26407500Y-19930000D01*
X26407500Y-19530000D02*
X26007500Y-19930000D01*
X26407500Y-19730000D02*
G75*
G02*
X26007500Y-19730000I-200000J0D01*
G01*
X26007500Y-19730000D02*
G75*
G02*
X26407500Y-19730000I200000J0D01*
G01*
X26483750Y-17625000D02*
X26883750Y-18025000D01*
X26883750Y-17625000D02*
X26483750Y-18025000D01*
X26883750Y-17825000D02*
G75*
G02*
X26483750Y-17825000I-200000J0D01*
G01*
X26483750Y-17825000D02*
G75*
G02*
X26883750Y-17825000I200000J0D01*
G01*
X26960000Y-9052500D02*
X27360000Y-9452500D01*
X27360000Y-9052500D02*
X26960000Y-9452500D01*
X27360000Y-9252500D02*
G75*
G02*
X26960000Y-9252500I-200000J0D01*
G01*
X26960000Y-9252500D02*
G75*
G02*
X27360000Y-9252500I200000J0D01*
G01*
X26960000Y-13815000D02*
X27360000Y-14215000D01*
X27360000Y-13815000D02*
X26960000Y-14215000D01*
X27360000Y-14015000D02*
G75*
G02*
X26960000Y-14015000I-200000J0D01*
G01*
X26960000Y-14015000D02*
G75*
G02*
X27360000Y-14015000I200000J0D01*
G01*
X27436250Y-15720000D02*
X27836250Y-16120000D01*
X27836250Y-15720000D02*
X27436250Y-16120000D01*
X27836250Y-15920000D02*
G75*
G02*
X27436250Y-15920000I-200000J0D01*
G01*
X27436250Y-15920000D02*
G75*
G02*
X27836250Y-15920000I200000J0D01*
G01*
X27912500Y-11910000D02*
X28312500Y-12310000D01*
X28312500Y-11910000D02*
X27912500Y-12310000D01*
X28312500Y-12110000D02*
G75*
G02*
X27912500Y-12110000I-200000J0D01*
G01*
X27912500Y-12110000D02*
G75*
G02*
X28312500Y-12110000I200000J0D01*
G01*
X27912500Y-19530000D02*
X28312500Y-19930000D01*
X28312500Y-19530000D02*
X27912500Y-19930000D01*
X28312500Y-19730000D02*
G75*
G02*
X27912500Y-19730000I-200000J0D01*
G01*
X27912500Y-19730000D02*
G75*
G02*
X28312500Y-19730000I200000J0D01*
G01*
X28865000Y-9052500D02*
X29265000Y-9452500D01*
X29265000Y-9052500D02*
X28865000Y-9452500D01*
X29265000Y-9252500D02*
G75*
G02*
X28865000Y-9252500I-200000J0D01*
G01*
X28865000Y-9252500D02*
G75*
G02*
X29265000Y-9252500I200000J0D01*
G01*
X28865000Y-13815000D02*
X29265000Y-14215000D01*
X29265000Y-13815000D02*
X28865000Y-14215000D01*
X29265000Y-14015000D02*
G75*
G02*
X28865000Y-14015000I-200000J0D01*
G01*
X28865000Y-14015000D02*
G75*
G02*
X29265000Y-14015000I200000J0D01*
G01*
X29103125Y-17625000D02*
X29503125Y-18025000D01*
X29503125Y-17625000D02*
X29103125Y-18025000D01*
X29503125Y-17825000D02*
G75*
G02*
X29103125Y-17825000I-200000J0D01*
G01*
X29103125Y-17825000D02*
G75*
G02*
X29503125Y-17825000I200000J0D01*
G01*
X30531875Y-15720000D02*
X30931875Y-16120000D01*
X30931875Y-15720000D02*
X30531875Y-16120000D01*
X30931875Y-15920000D02*
G75*
G02*
X30531875Y-15920000I-200000J0D01*
G01*
X30531875Y-15920000D02*
G75*
G02*
X30931875Y-15920000I200000J0D01*
G01*
X30770000Y-9052500D02*
X31170000Y-9452500D01*
X31170000Y-9052500D02*
X30770000Y-9452500D01*
X31170000Y-9252500D02*
G75*
G02*
X30770000Y-9252500I-200000J0D01*
G01*
X30770000Y-9252500D02*
G75*
G02*
X31170000Y-9252500I200000J0D01*
G01*
X30770000Y-11910000D02*
X31170000Y-12310000D01*
X31170000Y-11910000D02*
X30770000Y-12310000D01*
X31170000Y-12110000D02*
G75*
G02*
X30770000Y-12110000I-200000J0D01*
G01*
X30770000Y-12110000D02*
G75*
G02*
X31170000Y-12110000I200000J0D01*
G01*
X31246250Y-13815000D02*
X31646250Y-14215000D01*
X31646250Y-13815000D02*
X31246250Y-14215000D01*
X31646250Y-14015000D02*
G75*
G02*
X31246250Y-14015000I-200000J0D01*
G01*
X31246250Y-14015000D02*
G75*
G02*
X31646250Y-14015000I200000J0D01*
G01*
X31722500Y-20006250D02*
X32122500Y-20406250D01*
X32122500Y-20006250D02*
X31722500Y-20406250D01*
X32122500Y-20206250D02*
G75*
G02*
X31722500Y-20206250I-200000J0D01*
G01*
X31722500Y-20206250D02*
G75*
G02*
X32122500Y-20206250I200000J0D01*
G01*
X33627500Y-18101250D02*
X34027500Y-18501250D01*
X34027500Y-18101250D02*
X33627500Y-18501250D01*
X34027500Y-18301250D02*
G75*
G02*
X33627500Y-18301250I-200000J0D01*
G01*
X33627500Y-18301250D02*
G75*
G02*
X34027500Y-18301250I200000J0D01*
G01*
X33627500Y-20006250D02*
X34027500Y-20406250D01*
X34027500Y-20006250D02*
X33627500Y-20406250D01*
X34027500Y-20206250D02*
G75*
G02*
X33627500Y-20206250I-200000J0D01*
G01*
X33627500Y-20206250D02*
G75*
G02*
X34027500Y-20206250I200000J0D01*
G01*
X35532500Y-20006250D02*
X35932500Y-20406250D01*
X35932500Y-20006250D02*
X35532500Y-20406250D01*
X35932500Y-20206250D02*
G75*
G02*
X35532500Y-20206250I-200000J0D01*
G01*
X35532500Y-20206250D02*
G75*
G02*
X35932500Y-20206250I200000J0D01*
G01*
X36008750Y-9052500D02*
X36408750Y-9452500D01*
X36408750Y-9052500D02*
X36008750Y-9452500D01*
X36408750Y-9252500D02*
G75*
G02*
X36008750Y-9252500I-200000J0D01*
G01*
X36008750Y-9252500D02*
G75*
G02*
X36408750Y-9252500I200000J0D01*
G01*
X36008750Y-11910000D02*
X36408750Y-12310000D01*
X36408750Y-11910000D02*
X36008750Y-12310000D01*
X36408750Y-12110000D02*
G75*
G02*
X36008750Y-12110000I-200000J0D01*
G01*
X36008750Y-12110000D02*
G75*
G02*
X36408750Y-12110000I200000J0D01*
G01*
X36008750Y-13815000D02*
X36408750Y-14215000D01*
X36408750Y-13815000D02*
X36008750Y-14215000D01*
X36408750Y-14015000D02*
G75*
G02*
X36008750Y-14015000I-200000J0D01*
G01*
X36008750Y-14015000D02*
G75*
G02*
X36408750Y-14015000I200000J0D01*
G01*
X36008750Y-15720000D02*
X36408750Y-16120000D01*
X36408750Y-15720000D02*
X36008750Y-16120000D01*
X36408750Y-15920000D02*
G75*
G02*
X36008750Y-15920000I-200000J0D01*
G01*
X36008750Y-15920000D02*
G75*
G02*
X36408750Y-15920000I200000J0D01*
G01*
X36008750Y-17625000D02*
X36408750Y-18025000D01*
X36408750Y-17625000D02*
X36008750Y-18025000D01*
X36408750Y-17825000D02*
G75*
G02*
X36008750Y-17825000I-200000J0D01*
G01*
X36008750Y-17825000D02*
G75*
G02*
X36408750Y-17825000I200000J0D01*
G01*
D11*
X4255777Y-21775234D02*
X4255777Y-21575234D01*
X4255777Y-21575234D02*
X4303396Y-21575234D01*
X4303396Y-21575234D02*
X4331967Y-21584758D01*
X4331967Y-21584758D02*
X4351015Y-21603805D01*
X4351015Y-21603805D02*
X4360539Y-21622853D01*
X4360539Y-21622853D02*
X4370063Y-21660948D01*
X4370063Y-21660948D02*
X4370063Y-21689520D01*
X4370063Y-21689520D02*
X4360539Y-21727615D01*
X4360539Y-21727615D02*
X4351015Y-21746662D01*
X4351015Y-21746662D02*
X4331967Y-21765710D01*
X4331967Y-21765710D02*
X4303396Y-21775234D01*
X4303396Y-21775234D02*
X4255777Y-21775234D01*
X4455777Y-21775234D02*
X4455777Y-21641900D01*
X4455777Y-21679996D02*
X4465301Y-21660948D01*
X4465301Y-21660948D02*
X4474824Y-21651424D01*
X4474824Y-21651424D02*
X4493872Y-21641900D01*
X4493872Y-21641900D02*
X4512920Y-21641900D01*
X4579586Y-21775234D02*
X4579586Y-21641900D01*
X4579586Y-21575234D02*
X4570063Y-21584758D01*
X4570063Y-21584758D02*
X4579586Y-21594281D01*
X4579586Y-21594281D02*
X4589110Y-21584758D01*
X4589110Y-21584758D02*
X4579586Y-21575234D01*
X4579586Y-21575234D02*
X4579586Y-21594281D01*
X4703396Y-21775234D02*
X4684348Y-21765710D01*
X4684348Y-21765710D02*
X4674824Y-21746662D01*
X4674824Y-21746662D02*
X4674824Y-21575234D01*
X4808158Y-21775234D02*
X4789110Y-21765710D01*
X4789110Y-21765710D02*
X4779586Y-21746662D01*
X4779586Y-21746662D02*
X4779586Y-21575234D01*
X5036729Y-21775234D02*
X5036729Y-21575234D01*
X5036729Y-21575234D02*
X5103396Y-21718091D01*
X5103396Y-21718091D02*
X5170063Y-21575234D01*
X5170063Y-21575234D02*
X5170063Y-21775234D01*
X5351015Y-21775234D02*
X5351015Y-21670472D01*
X5351015Y-21670472D02*
X5341491Y-21651424D01*
X5341491Y-21651424D02*
X5322444Y-21641900D01*
X5322444Y-21641900D02*
X5284348Y-21641900D01*
X5284348Y-21641900D02*
X5265301Y-21651424D01*
X5351015Y-21765710D02*
X5331967Y-21775234D01*
X5331967Y-21775234D02*
X5284348Y-21775234D01*
X5284348Y-21775234D02*
X5265301Y-21765710D01*
X5265301Y-21765710D02*
X5255777Y-21746662D01*
X5255777Y-21746662D02*
X5255777Y-21727615D01*
X5255777Y-21727615D02*
X5265301Y-21708567D01*
X5265301Y-21708567D02*
X5284348Y-21699043D01*
X5284348Y-21699043D02*
X5331967Y-21699043D01*
X5331967Y-21699043D02*
X5351015Y-21689520D01*
X5446253Y-21641900D02*
X5446253Y-21841900D01*
X5446253Y-21651424D02*
X5465301Y-21641900D01*
X5465301Y-21641900D02*
X5503396Y-21641900D01*
X5503396Y-21641900D02*
X5522444Y-21651424D01*
X5522444Y-21651424D02*
X5531967Y-21660948D01*
X5531967Y-21660948D02*
X5541491Y-21679996D01*
X5541491Y-21679996D02*
X5541491Y-21737139D01*
X5541491Y-21737139D02*
X5531967Y-21756186D01*
X5531967Y-21756186D02*
X5522444Y-21765710D01*
X5522444Y-21765710D02*
X5503396Y-21775234D01*
X5503396Y-21775234D02*
X5465301Y-21775234D01*
X5465301Y-21775234D02*
X5446253Y-21765710D01*
X5627205Y-21756186D02*
X5636729Y-21765710D01*
X5636729Y-21765710D02*
X5627205Y-21775234D01*
X5627205Y-21775234D02*
X5617682Y-21765710D01*
X5617682Y-21765710D02*
X5627205Y-21756186D01*
X5627205Y-21756186D02*
X5627205Y-21775234D01*
X5627205Y-21651424D02*
X5636729Y-21660948D01*
X5636729Y-21660948D02*
X5627205Y-21670472D01*
X5627205Y-21670472D02*
X5617682Y-21660948D01*
X5617682Y-21660948D02*
X5627205Y-21651424D01*
X5627205Y-21651424D02*
X5627205Y-21670472D01*
D10*
X3930000Y-22071250D02*
X3995000Y-22136250D01*
X3995000Y-22071250D02*
X3930000Y-22136250D01*
D11*
X4293872Y-21995234D02*
X4312920Y-21995234D01*
X4312920Y-21995234D02*
X4331967Y-22004758D01*
X4331967Y-22004758D02*
X4341491Y-22014281D01*
X4341491Y-22014281D02*
X4351015Y-22033329D01*
X4351015Y-22033329D02*
X4360539Y-22071424D01*
X4360539Y-22071424D02*
X4360539Y-22119043D01*
X4360539Y-22119043D02*
X4351015Y-22157139D01*
X4351015Y-22157139D02*
X4341491Y-22176186D01*
X4341491Y-22176186D02*
X4331967Y-22185710D01*
X4331967Y-22185710D02*
X4312920Y-22195234D01*
X4312920Y-22195234D02*
X4293872Y-22195234D01*
X4293872Y-22195234D02*
X4274824Y-22185710D01*
X4274824Y-22185710D02*
X4265301Y-22176186D01*
X4265301Y-22176186D02*
X4255777Y-22157139D01*
X4255777Y-22157139D02*
X4246253Y-22119043D01*
X4246253Y-22119043D02*
X4246253Y-22071424D01*
X4246253Y-22071424D02*
X4255777Y-22033329D01*
X4255777Y-22033329D02*
X4265301Y-22014281D01*
X4265301Y-22014281D02*
X4274824Y-22004758D01*
X4274824Y-22004758D02*
X4293872Y-21995234D01*
X4446253Y-22176186D02*
X4455777Y-22185710D01*
X4455777Y-22185710D02*
X4446253Y-22195234D01*
X4446253Y-22195234D02*
X4436729Y-22185710D01*
X4436729Y-22185710D02*
X4446253Y-22176186D01*
X4446253Y-22176186D02*
X4446253Y-22195234D01*
X4627205Y-21995234D02*
X4589110Y-21995234D01*
X4589110Y-21995234D02*
X4570063Y-22004758D01*
X4570063Y-22004758D02*
X4560539Y-22014281D01*
X4560539Y-22014281D02*
X4541491Y-22042853D01*
X4541491Y-22042853D02*
X4531967Y-22080948D01*
X4531967Y-22080948D02*
X4531967Y-22157139D01*
X4531967Y-22157139D02*
X4541491Y-22176186D01*
X4541491Y-22176186D02*
X4551015Y-22185710D01*
X4551015Y-22185710D02*
X4570063Y-22195234D01*
X4570063Y-22195234D02*
X4608158Y-22195234D01*
X4608158Y-22195234D02*
X4627205Y-22185710D01*
X4627205Y-22185710D02*
X4636729Y-22176186D01*
X4636729Y-22176186D02*
X4646253Y-22157139D01*
X4646253Y-22157139D02*
X4646253Y-22109520D01*
X4646253Y-22109520D02*
X4636729Y-22090472D01*
X4636729Y-22090472D02*
X4627205Y-22080948D01*
X4627205Y-22080948D02*
X4608158Y-22071424D01*
X4608158Y-22071424D02*
X4570063Y-22071424D01*
X4570063Y-22071424D02*
X4551015Y-22080948D01*
X4551015Y-22080948D02*
X4541491Y-22090472D01*
X4541491Y-22090472D02*
X4531967Y-22109520D01*
X4827205Y-21995234D02*
X4731967Y-21995234D01*
X4731967Y-21995234D02*
X4722444Y-22090472D01*
X4722444Y-22090472D02*
X4731967Y-22080948D01*
X4731967Y-22080948D02*
X4751015Y-22071424D01*
X4751015Y-22071424D02*
X4798634Y-22071424D01*
X4798634Y-22071424D02*
X4817682Y-22080948D01*
X4817682Y-22080948D02*
X4827205Y-22090472D01*
X4827205Y-22090472D02*
X4836729Y-22109520D01*
X4836729Y-22109520D02*
X4836729Y-22157139D01*
X4836729Y-22157139D02*
X4827205Y-22176186D01*
X4827205Y-22176186D02*
X4817682Y-22185710D01*
X4817682Y-22185710D02*
X4798634Y-22195234D01*
X4798634Y-22195234D02*
X4751015Y-22195234D01*
X4751015Y-22195234D02*
X4731967Y-22185710D01*
X4731967Y-22185710D02*
X4722444Y-22176186D01*
X4960539Y-21995234D02*
X4979586Y-21995234D01*
X4979586Y-21995234D02*
X4998634Y-22004758D01*
X4998634Y-22004758D02*
X5008158Y-22014281D01*
X5008158Y-22014281D02*
X5017682Y-22033329D01*
X5017682Y-22033329D02*
X5027205Y-22071424D01*
X5027205Y-22071424D02*
X5027205Y-22119043D01*
X5027205Y-22119043D02*
X5017682Y-22157139D01*
X5017682Y-22157139D02*
X5008158Y-22176186D01*
X5008158Y-22176186D02*
X4998634Y-22185710D01*
X4998634Y-22185710D02*
X4979586Y-22195234D01*
X4979586Y-22195234D02*
X4960539Y-22195234D01*
X4960539Y-22195234D02*
X4941491Y-22185710D01*
X4941491Y-22185710D02*
X4931967Y-22176186D01*
X4931967Y-22176186D02*
X4922444Y-22157139D01*
X4922444Y-22157139D02*
X4912920Y-22119043D01*
X4912920Y-22119043D02*
X4912920Y-22071424D01*
X4912920Y-22071424D02*
X4922444Y-22033329D01*
X4922444Y-22033329D02*
X4931967Y-22014281D01*
X4931967Y-22014281D02*
X4941491Y-22004758D01*
X4941491Y-22004758D02*
X4960539Y-21995234D01*
X5112920Y-22195234D02*
X5112920Y-22061900D01*
X5112920Y-22080948D02*
X5122444Y-22071424D01*
X5122444Y-22071424D02*
X5141491Y-22061900D01*
X5141491Y-22061900D02*
X5170063Y-22061900D01*
X5170063Y-22061900D02*
X5189110Y-22071424D01*
X5189110Y-22071424D02*
X5198634Y-22090472D01*
X5198634Y-22090472D02*
X5198634Y-22195234D01*
X5198634Y-22090472D02*
X5208158Y-22071424D01*
X5208158Y-22071424D02*
X5227205Y-22061900D01*
X5227205Y-22061900D02*
X5255777Y-22061900D01*
X5255777Y-22061900D02*
X5274825Y-22071424D01*
X5274825Y-22071424D02*
X5284348Y-22090472D01*
X5284348Y-22090472D02*
X5284348Y-22195234D01*
X5379586Y-22195234D02*
X5379586Y-22061900D01*
X5379586Y-22080948D02*
X5389110Y-22071424D01*
X5389110Y-22071424D02*
X5408158Y-22061900D01*
X5408158Y-22061900D02*
X5436729Y-22061900D01*
X5436729Y-22061900D02*
X5455777Y-22071424D01*
X5455777Y-22071424D02*
X5465301Y-22090472D01*
X5465301Y-22090472D02*
X5465301Y-22195234D01*
X5465301Y-22090472D02*
X5474825Y-22071424D01*
X5474825Y-22071424D02*
X5493872Y-22061900D01*
X5493872Y-22061900D02*
X5522444Y-22061900D01*
X5522444Y-22061900D02*
X5541491Y-22071424D01*
X5541491Y-22071424D02*
X5551015Y-22090472D01*
X5551015Y-22090472D02*
X5551015Y-22195234D01*
X5941491Y-21985710D02*
X5770063Y-22242853D01*
X6198634Y-21995234D02*
X6217682Y-21995234D01*
X6217682Y-21995234D02*
X6236729Y-22004758D01*
X6236729Y-22004758D02*
X6246253Y-22014281D01*
X6246253Y-22014281D02*
X6255777Y-22033329D01*
X6255777Y-22033329D02*
X6265301Y-22071424D01*
X6265301Y-22071424D02*
X6265301Y-22119043D01*
X6265301Y-22119043D02*
X6255777Y-22157139D01*
X6255777Y-22157139D02*
X6246253Y-22176186D01*
X6246253Y-22176186D02*
X6236729Y-22185710D01*
X6236729Y-22185710D02*
X6217682Y-22195234D01*
X6217682Y-22195234D02*
X6198634Y-22195234D01*
X6198634Y-22195234D02*
X6179586Y-22185710D01*
X6179586Y-22185710D02*
X6170063Y-22176186D01*
X6170063Y-22176186D02*
X6160539Y-22157139D01*
X6160539Y-22157139D02*
X6151015Y-22119043D01*
X6151015Y-22119043D02*
X6151015Y-22071424D01*
X6151015Y-22071424D02*
X6160539Y-22033329D01*
X6160539Y-22033329D02*
X6170063Y-22014281D01*
X6170063Y-22014281D02*
X6179586Y-22004758D01*
X6179586Y-22004758D02*
X6198634Y-21995234D01*
X6351015Y-22176186D02*
X6360539Y-22185710D01*
X6360539Y-22185710D02*
X6351015Y-22195234D01*
X6351015Y-22195234D02*
X6341491Y-22185710D01*
X6341491Y-22185710D02*
X6351015Y-22176186D01*
X6351015Y-22176186D02*
X6351015Y-22195234D01*
X6484348Y-21995234D02*
X6503396Y-21995234D01*
X6503396Y-21995234D02*
X6522444Y-22004758D01*
X6522444Y-22004758D02*
X6531967Y-22014281D01*
X6531967Y-22014281D02*
X6541491Y-22033329D01*
X6541491Y-22033329D02*
X6551015Y-22071424D01*
X6551015Y-22071424D02*
X6551015Y-22119043D01*
X6551015Y-22119043D02*
X6541491Y-22157139D01*
X6541491Y-22157139D02*
X6531967Y-22176186D01*
X6531967Y-22176186D02*
X6522444Y-22185710D01*
X6522444Y-22185710D02*
X6503396Y-22195234D01*
X6503396Y-22195234D02*
X6484348Y-22195234D01*
X6484348Y-22195234D02*
X6465301Y-22185710D01*
X6465301Y-22185710D02*
X6455777Y-22176186D01*
X6455777Y-22176186D02*
X6446253Y-22157139D01*
X6446253Y-22157139D02*
X6436729Y-22119043D01*
X6436729Y-22119043D02*
X6436729Y-22071424D01*
X6436729Y-22071424D02*
X6446253Y-22033329D01*
X6446253Y-22033329D02*
X6455777Y-22014281D01*
X6455777Y-22014281D02*
X6465301Y-22004758D01*
X6465301Y-22004758D02*
X6484348Y-21995234D01*
X6627206Y-22014281D02*
X6636729Y-22004758D01*
X6636729Y-22004758D02*
X6655777Y-21995234D01*
X6655777Y-21995234D02*
X6703396Y-21995234D01*
X6703396Y-21995234D02*
X6722444Y-22004758D01*
X6722444Y-22004758D02*
X6731967Y-22014281D01*
X6731967Y-22014281D02*
X6741491Y-22033329D01*
X6741491Y-22033329D02*
X6741491Y-22052377D01*
X6741491Y-22052377D02*
X6731967Y-22080948D01*
X6731967Y-22080948D02*
X6617682Y-22195234D01*
X6617682Y-22195234D02*
X6741491Y-22195234D01*
X6922444Y-21995234D02*
X6827206Y-21995234D01*
X6827206Y-21995234D02*
X6817682Y-22090472D01*
X6817682Y-22090472D02*
X6827206Y-22080948D01*
X6827206Y-22080948D02*
X6846253Y-22071424D01*
X6846253Y-22071424D02*
X6893872Y-22071424D01*
X6893872Y-22071424D02*
X6912920Y-22080948D01*
X6912920Y-22080948D02*
X6922444Y-22090472D01*
X6922444Y-22090472D02*
X6931967Y-22109520D01*
X6931967Y-22109520D02*
X6931967Y-22157139D01*
X6931967Y-22157139D02*
X6922444Y-22176186D01*
X6922444Y-22176186D02*
X6912920Y-22185710D01*
X6912920Y-22185710D02*
X6893872Y-22195234D01*
X6893872Y-22195234D02*
X6846253Y-22195234D01*
X6846253Y-22195234D02*
X6827206Y-22185710D01*
X6827206Y-22185710D02*
X6817682Y-22176186D01*
X7103396Y-21995234D02*
X7065301Y-21995234D01*
X7065301Y-21995234D02*
X7046253Y-22004758D01*
X7046253Y-22004758D02*
X7036729Y-22014281D01*
X7036729Y-22014281D02*
X7017682Y-22042853D01*
X7017682Y-22042853D02*
X7008158Y-22080948D01*
X7008158Y-22080948D02*
X7008158Y-22157139D01*
X7008158Y-22157139D02*
X7017682Y-22176186D01*
X7017682Y-22176186D02*
X7027206Y-22185710D01*
X7027206Y-22185710D02*
X7046253Y-22195234D01*
X7046253Y-22195234D02*
X7084348Y-22195234D01*
X7084348Y-22195234D02*
X7103396Y-22185710D01*
X7103396Y-22185710D02*
X7112920Y-22176186D01*
X7112920Y-22176186D02*
X7122444Y-22157139D01*
X7122444Y-22157139D02*
X7122444Y-22109520D01*
X7122444Y-22109520D02*
X7112920Y-22090472D01*
X7112920Y-22090472D02*
X7103396Y-22080948D01*
X7103396Y-22080948D02*
X7084348Y-22071424D01*
X7084348Y-22071424D02*
X7046253Y-22071424D01*
X7046253Y-22071424D02*
X7027206Y-22080948D01*
X7027206Y-22080948D02*
X7017682Y-22090472D01*
X7017682Y-22090472D02*
X7008158Y-22109520D01*
X7198634Y-21995234D02*
X7198634Y-22033329D01*
X7274825Y-21995234D02*
X7274825Y-22033329D01*
X7570063Y-22271424D02*
X7560539Y-22261900D01*
X7560539Y-22261900D02*
X7541491Y-22233329D01*
X7541491Y-22233329D02*
X7531968Y-22214281D01*
X7531968Y-22214281D02*
X7522444Y-22185710D01*
X7522444Y-22185710D02*
X7512920Y-22138091D01*
X7512920Y-22138091D02*
X7512920Y-22099996D01*
X7512920Y-22099996D02*
X7522444Y-22052377D01*
X7522444Y-22052377D02*
X7531968Y-22023805D01*
X7531968Y-22023805D02*
X7541491Y-22004758D01*
X7541491Y-22004758D02*
X7560539Y-21976186D01*
X7560539Y-21976186D02*
X7570063Y-21966662D01*
X7636729Y-22014281D02*
X7646253Y-22004758D01*
X7646253Y-22004758D02*
X7665301Y-21995234D01*
X7665301Y-21995234D02*
X7712920Y-21995234D01*
X7712920Y-21995234D02*
X7731968Y-22004758D01*
X7731968Y-22004758D02*
X7741491Y-22014281D01*
X7741491Y-22014281D02*
X7751015Y-22033329D01*
X7751015Y-22033329D02*
X7751015Y-22052377D01*
X7751015Y-22052377D02*
X7741491Y-22080948D01*
X7741491Y-22080948D02*
X7627206Y-22195234D01*
X7627206Y-22195234D02*
X7751015Y-22195234D01*
X7989110Y-22195234D02*
X7989110Y-21995234D01*
X8074825Y-22195234D02*
X8074825Y-22090472D01*
X8074825Y-22090472D02*
X8065301Y-22071424D01*
X8065301Y-22071424D02*
X8046253Y-22061900D01*
X8046253Y-22061900D02*
X8017682Y-22061900D01*
X8017682Y-22061900D02*
X7998634Y-22071424D01*
X7998634Y-22071424D02*
X7989110Y-22080948D01*
X8198634Y-22195234D02*
X8179587Y-22185710D01*
X8179587Y-22185710D02*
X8170063Y-22176186D01*
X8170063Y-22176186D02*
X8160539Y-22157139D01*
X8160539Y-22157139D02*
X8160539Y-22099996D01*
X8160539Y-22099996D02*
X8170063Y-22080948D01*
X8170063Y-22080948D02*
X8179587Y-22071424D01*
X8179587Y-22071424D02*
X8198634Y-22061900D01*
X8198634Y-22061900D02*
X8227206Y-22061900D01*
X8227206Y-22061900D02*
X8246253Y-22071424D01*
X8246253Y-22071424D02*
X8255777Y-22080948D01*
X8255777Y-22080948D02*
X8265301Y-22099996D01*
X8265301Y-22099996D02*
X8265301Y-22157139D01*
X8265301Y-22157139D02*
X8255777Y-22176186D01*
X8255777Y-22176186D02*
X8246253Y-22185710D01*
X8246253Y-22185710D02*
X8227206Y-22195234D01*
X8227206Y-22195234D02*
X8198634Y-22195234D01*
X8379587Y-22195234D02*
X8360539Y-22185710D01*
X8360539Y-22185710D02*
X8351015Y-22166662D01*
X8351015Y-22166662D02*
X8351015Y-21995234D01*
X8531968Y-22185710D02*
X8512920Y-22195234D01*
X8512920Y-22195234D02*
X8474825Y-22195234D01*
X8474825Y-22195234D02*
X8455777Y-22185710D01*
X8455777Y-22185710D02*
X8446253Y-22166662D01*
X8446253Y-22166662D02*
X8446253Y-22090472D01*
X8446253Y-22090472D02*
X8455777Y-22071424D01*
X8455777Y-22071424D02*
X8474825Y-22061900D01*
X8474825Y-22061900D02*
X8512920Y-22061900D01*
X8512920Y-22061900D02*
X8531968Y-22071424D01*
X8531968Y-22071424D02*
X8541492Y-22090472D01*
X8541492Y-22090472D02*
X8541492Y-22109520D01*
X8541492Y-22109520D02*
X8446253Y-22128567D01*
X8617682Y-22185710D02*
X8636730Y-22195234D01*
X8636730Y-22195234D02*
X8674825Y-22195234D01*
X8674825Y-22195234D02*
X8693873Y-22185710D01*
X8693873Y-22185710D02*
X8703396Y-22166662D01*
X8703396Y-22166662D02*
X8703396Y-22157139D01*
X8703396Y-22157139D02*
X8693873Y-22138091D01*
X8693873Y-22138091D02*
X8674825Y-22128567D01*
X8674825Y-22128567D02*
X8646253Y-22128567D01*
X8646253Y-22128567D02*
X8627206Y-22119043D01*
X8627206Y-22119043D02*
X8617682Y-22099996D01*
X8617682Y-22099996D02*
X8617682Y-22090472D01*
X8617682Y-22090472D02*
X8627206Y-22071424D01*
X8627206Y-22071424D02*
X8646253Y-22061900D01*
X8646253Y-22061900D02*
X8674825Y-22061900D01*
X8674825Y-22061900D02*
X8693873Y-22071424D01*
X8770063Y-22271424D02*
X8779587Y-22261900D01*
X8779587Y-22261900D02*
X8798634Y-22233329D01*
X8798634Y-22233329D02*
X8808158Y-22214281D01*
X8808158Y-22214281D02*
X8817682Y-22185710D01*
X8817682Y-22185710D02*
X8827206Y-22138091D01*
X8827206Y-22138091D02*
X8827206Y-22099996D01*
X8827206Y-22099996D02*
X8817682Y-22052377D01*
X8817682Y-22052377D02*
X8808158Y-22023805D01*
X8808158Y-22023805D02*
X8798634Y-22004758D01*
X8798634Y-22004758D02*
X8779587Y-21976186D01*
X8779587Y-21976186D02*
X8770063Y-21966662D01*
X9131968Y-22271424D02*
X9122444Y-22261900D01*
X9122444Y-22261900D02*
X9103396Y-22233329D01*
X9103396Y-22233329D02*
X9093873Y-22214281D01*
X9093873Y-22214281D02*
X9084349Y-22185710D01*
X9084349Y-22185710D02*
X9074825Y-22138091D01*
X9074825Y-22138091D02*
X9074825Y-22099996D01*
X9074825Y-22099996D02*
X9084349Y-22052377D01*
X9084349Y-22052377D02*
X9093873Y-22023805D01*
X9093873Y-22023805D02*
X9103396Y-22004758D01*
X9103396Y-22004758D02*
X9122444Y-21976186D01*
X9122444Y-21976186D02*
X9131968Y-21966662D01*
X9208158Y-22061900D02*
X9208158Y-22195234D01*
X9208158Y-22080948D02*
X9217682Y-22071424D01*
X9217682Y-22071424D02*
X9236730Y-22061900D01*
X9236730Y-22061900D02*
X9265301Y-22061900D01*
X9265301Y-22061900D02*
X9284349Y-22071424D01*
X9284349Y-22071424D02*
X9293873Y-22090472D01*
X9293873Y-22090472D02*
X9293873Y-22195234D01*
X9417682Y-22195234D02*
X9398634Y-22185710D01*
X9398634Y-22185710D02*
X9389111Y-22176186D01*
X9389111Y-22176186D02*
X9379587Y-22157139D01*
X9379587Y-22157139D02*
X9379587Y-22099996D01*
X9379587Y-22099996D02*
X9389111Y-22080948D01*
X9389111Y-22080948D02*
X9398634Y-22071424D01*
X9398634Y-22071424D02*
X9417682Y-22061900D01*
X9417682Y-22061900D02*
X9446254Y-22061900D01*
X9446254Y-22061900D02*
X9465301Y-22071424D01*
X9465301Y-22071424D02*
X9474825Y-22080948D01*
X9474825Y-22080948D02*
X9484349Y-22099996D01*
X9484349Y-22099996D02*
X9484349Y-22157139D01*
X9484349Y-22157139D02*
X9474825Y-22176186D01*
X9474825Y-22176186D02*
X9465301Y-22185710D01*
X9465301Y-22185710D02*
X9446254Y-22195234D01*
X9446254Y-22195234D02*
X9417682Y-22195234D01*
X9541492Y-22061900D02*
X9617682Y-22061900D01*
X9570063Y-21995234D02*
X9570063Y-22166662D01*
X9570063Y-22166662D02*
X9579587Y-22185710D01*
X9579587Y-22185710D02*
X9598634Y-22195234D01*
X9598634Y-22195234D02*
X9617682Y-22195234D01*
X9836730Y-22061900D02*
X9836730Y-22261900D01*
X9836730Y-22071424D02*
X9855777Y-22061900D01*
X9855777Y-22061900D02*
X9893873Y-22061900D01*
X9893873Y-22061900D02*
X9912920Y-22071424D01*
X9912920Y-22071424D02*
X9922444Y-22080948D01*
X9922444Y-22080948D02*
X9931968Y-22099996D01*
X9931968Y-22099996D02*
X9931968Y-22157139D01*
X9931968Y-22157139D02*
X9922444Y-22176186D01*
X9922444Y-22176186D02*
X9912920Y-22185710D01*
X9912920Y-22185710D02*
X9893873Y-22195234D01*
X9893873Y-22195234D02*
X9855777Y-22195234D01*
X9855777Y-22195234D02*
X9836730Y-22185710D01*
X10046254Y-22195234D02*
X10027206Y-22185710D01*
X10027206Y-22185710D02*
X10017682Y-22166662D01*
X10017682Y-22166662D02*
X10017682Y-21995234D01*
X10208158Y-22195234D02*
X10208158Y-22090472D01*
X10208158Y-22090472D02*
X10198635Y-22071424D01*
X10198635Y-22071424D02*
X10179587Y-22061900D01*
X10179587Y-22061900D02*
X10141492Y-22061900D01*
X10141492Y-22061900D02*
X10122444Y-22071424D01*
X10208158Y-22185710D02*
X10189111Y-22195234D01*
X10189111Y-22195234D02*
X10141492Y-22195234D01*
X10141492Y-22195234D02*
X10122444Y-22185710D01*
X10122444Y-22185710D02*
X10112920Y-22166662D01*
X10112920Y-22166662D02*
X10112920Y-22147615D01*
X10112920Y-22147615D02*
X10122444Y-22128567D01*
X10122444Y-22128567D02*
X10141492Y-22119043D01*
X10141492Y-22119043D02*
X10189111Y-22119043D01*
X10189111Y-22119043D02*
X10208158Y-22109520D01*
X10274825Y-22061900D02*
X10351015Y-22061900D01*
X10303396Y-21995234D02*
X10303396Y-22166662D01*
X10303396Y-22166662D02*
X10312920Y-22185710D01*
X10312920Y-22185710D02*
X10331968Y-22195234D01*
X10331968Y-22195234D02*
X10351015Y-22195234D01*
X10493873Y-22185710D02*
X10474825Y-22195234D01*
X10474825Y-22195234D02*
X10436730Y-22195234D01*
X10436730Y-22195234D02*
X10417682Y-22185710D01*
X10417682Y-22185710D02*
X10408158Y-22166662D01*
X10408158Y-22166662D02*
X10408158Y-22090472D01*
X10408158Y-22090472D02*
X10417682Y-22071424D01*
X10417682Y-22071424D02*
X10436730Y-22061900D01*
X10436730Y-22061900D02*
X10474825Y-22061900D01*
X10474825Y-22061900D02*
X10493873Y-22071424D01*
X10493873Y-22071424D02*
X10503396Y-22090472D01*
X10503396Y-22090472D02*
X10503396Y-22109520D01*
X10503396Y-22109520D02*
X10408158Y-22128567D01*
X10674825Y-22195234D02*
X10674825Y-21995234D01*
X10674825Y-22185710D02*
X10655777Y-22195234D01*
X10655777Y-22195234D02*
X10617682Y-22195234D01*
X10617682Y-22195234D02*
X10598635Y-22185710D01*
X10598635Y-22185710D02*
X10589111Y-22176186D01*
X10589111Y-22176186D02*
X10579587Y-22157139D01*
X10579587Y-22157139D02*
X10579587Y-22099996D01*
X10579587Y-22099996D02*
X10589111Y-22080948D01*
X10589111Y-22080948D02*
X10598635Y-22071424D01*
X10598635Y-22071424D02*
X10617682Y-22061900D01*
X10617682Y-22061900D02*
X10655777Y-22061900D01*
X10655777Y-22061900D02*
X10674825Y-22071424D01*
X10751016Y-22271424D02*
X10760539Y-22261900D01*
X10760539Y-22261900D02*
X10779587Y-22233329D01*
X10779587Y-22233329D02*
X10789111Y-22214281D01*
X10789111Y-22214281D02*
X10798635Y-22185710D01*
X10798635Y-22185710D02*
X10808158Y-22138091D01*
X10808158Y-22138091D02*
X10808158Y-22099996D01*
X10808158Y-22099996D02*
X10798635Y-22052377D01*
X10798635Y-22052377D02*
X10789111Y-22023805D01*
X10789111Y-22023805D02*
X10779587Y-22004758D01*
X10779587Y-22004758D02*
X10760539Y-21976186D01*
X10760539Y-21976186D02*
X10751016Y-21966662D01*
D12*
X3995000Y-22367750D02*
G75*
G02*
X3820000Y-22367750I-87500J0D01*
G01*
X3820000Y-22367750D02*
G75*
G02*
X3995000Y-22367750I87500J0D01*
G01*
D11*
X4360539Y-22459234D02*
X4246253Y-22459234D01*
X4303396Y-22459234D02*
X4303396Y-22259234D01*
X4303396Y-22259234D02*
X4284348Y-22287805D01*
X4284348Y-22287805D02*
X4265301Y-22306853D01*
X4265301Y-22306853D02*
X4246253Y-22316377D01*
X4446253Y-22440186D02*
X4455777Y-22449710D01*
X4455777Y-22449710D02*
X4446253Y-22459234D01*
X4446253Y-22459234D02*
X4436729Y-22449710D01*
X4436729Y-22449710D02*
X4446253Y-22440186D01*
X4446253Y-22440186D02*
X4446253Y-22459234D01*
X4522444Y-22259234D02*
X4655777Y-22259234D01*
X4655777Y-22259234D02*
X4570063Y-22459234D01*
X4827205Y-22259234D02*
X4731967Y-22259234D01*
X4731967Y-22259234D02*
X4722444Y-22354472D01*
X4722444Y-22354472D02*
X4731967Y-22344948D01*
X4731967Y-22344948D02*
X4751015Y-22335424D01*
X4751015Y-22335424D02*
X4798634Y-22335424D01*
X4798634Y-22335424D02*
X4817682Y-22344948D01*
X4817682Y-22344948D02*
X4827205Y-22354472D01*
X4827205Y-22354472D02*
X4836729Y-22373519D01*
X4836729Y-22373519D02*
X4836729Y-22421138D01*
X4836729Y-22421138D02*
X4827205Y-22440186D01*
X4827205Y-22440186D02*
X4817682Y-22449710D01*
X4817682Y-22449710D02*
X4798634Y-22459234D01*
X4798634Y-22459234D02*
X4751015Y-22459234D01*
X4751015Y-22459234D02*
X4731967Y-22449710D01*
X4731967Y-22449710D02*
X4722444Y-22440186D01*
X4960539Y-22259234D02*
X4979586Y-22259234D01*
X4979586Y-22259234D02*
X4998634Y-22268758D01*
X4998634Y-22268758D02*
X5008158Y-22278281D01*
X5008158Y-22278281D02*
X5017682Y-22297329D01*
X5017682Y-22297329D02*
X5027205Y-22335424D01*
X5027205Y-22335424D02*
X5027205Y-22383043D01*
X5027205Y-22383043D02*
X5017682Y-22421138D01*
X5017682Y-22421138D02*
X5008158Y-22440186D01*
X5008158Y-22440186D02*
X4998634Y-22449710D01*
X4998634Y-22449710D02*
X4979586Y-22459234D01*
X4979586Y-22459234D02*
X4960539Y-22459234D01*
X4960539Y-22459234D02*
X4941491Y-22449710D01*
X4941491Y-22449710D02*
X4931967Y-22440186D01*
X4931967Y-22440186D02*
X4922444Y-22421138D01*
X4922444Y-22421138D02*
X4912920Y-22383043D01*
X4912920Y-22383043D02*
X4912920Y-22335424D01*
X4912920Y-22335424D02*
X4922444Y-22297329D01*
X4922444Y-22297329D02*
X4931967Y-22278281D01*
X4931967Y-22278281D02*
X4941491Y-22268758D01*
X4941491Y-22268758D02*
X4960539Y-22259234D01*
X5112920Y-22459234D02*
X5112920Y-22325900D01*
X5112920Y-22344948D02*
X5122444Y-22335424D01*
X5122444Y-22335424D02*
X5141491Y-22325900D01*
X5141491Y-22325900D02*
X5170063Y-22325900D01*
X5170063Y-22325900D02*
X5189110Y-22335424D01*
X5189110Y-22335424D02*
X5198634Y-22354472D01*
X5198634Y-22354472D02*
X5198634Y-22459234D01*
X5198634Y-22354472D02*
X5208158Y-22335424D01*
X5208158Y-22335424D02*
X5227205Y-22325900D01*
X5227205Y-22325900D02*
X5255777Y-22325900D01*
X5255777Y-22325900D02*
X5274825Y-22335424D01*
X5274825Y-22335424D02*
X5284348Y-22354472D01*
X5284348Y-22354472D02*
X5284348Y-22459234D01*
X5379586Y-22459234D02*
X5379586Y-22325900D01*
X5379586Y-22344948D02*
X5389110Y-22335424D01*
X5389110Y-22335424D02*
X5408158Y-22325900D01*
X5408158Y-22325900D02*
X5436729Y-22325900D01*
X5436729Y-22325900D02*
X5455777Y-22335424D01*
X5455777Y-22335424D02*
X5465301Y-22354472D01*
X5465301Y-22354472D02*
X5465301Y-22459234D01*
X5465301Y-22354472D02*
X5474825Y-22335424D01*
X5474825Y-22335424D02*
X5493872Y-22325900D01*
X5493872Y-22325900D02*
X5522444Y-22325900D01*
X5522444Y-22325900D02*
X5541491Y-22335424D01*
X5541491Y-22335424D02*
X5551015Y-22354472D01*
X5551015Y-22354472D02*
X5551015Y-22459234D01*
X5941491Y-22249710D02*
X5770063Y-22506853D01*
X6198634Y-22259234D02*
X6217682Y-22259234D01*
X6217682Y-22259234D02*
X6236729Y-22268758D01*
X6236729Y-22268758D02*
X6246253Y-22278281D01*
X6246253Y-22278281D02*
X6255777Y-22297329D01*
X6255777Y-22297329D02*
X6265301Y-22335424D01*
X6265301Y-22335424D02*
X6265301Y-22383043D01*
X6265301Y-22383043D02*
X6255777Y-22421138D01*
X6255777Y-22421138D02*
X6246253Y-22440186D01*
X6246253Y-22440186D02*
X6236729Y-22449710D01*
X6236729Y-22449710D02*
X6217682Y-22459234D01*
X6217682Y-22459234D02*
X6198634Y-22459234D01*
X6198634Y-22459234D02*
X6179586Y-22449710D01*
X6179586Y-22449710D02*
X6170063Y-22440186D01*
X6170063Y-22440186D02*
X6160539Y-22421138D01*
X6160539Y-22421138D02*
X6151015Y-22383043D01*
X6151015Y-22383043D02*
X6151015Y-22335424D01*
X6151015Y-22335424D02*
X6160539Y-22297329D01*
X6160539Y-22297329D02*
X6170063Y-22278281D01*
X6170063Y-22278281D02*
X6179586Y-22268758D01*
X6179586Y-22268758D02*
X6198634Y-22259234D01*
X6351015Y-22440186D02*
X6360539Y-22449710D01*
X6360539Y-22449710D02*
X6351015Y-22459234D01*
X6351015Y-22459234D02*
X6341491Y-22449710D01*
X6341491Y-22449710D02*
X6351015Y-22440186D01*
X6351015Y-22440186D02*
X6351015Y-22459234D01*
X6484348Y-22259234D02*
X6503396Y-22259234D01*
X6503396Y-22259234D02*
X6522444Y-22268758D01*
X6522444Y-22268758D02*
X6531967Y-22278281D01*
X6531967Y-22278281D02*
X6541491Y-22297329D01*
X6541491Y-22297329D02*
X6551015Y-22335424D01*
X6551015Y-22335424D02*
X6551015Y-22383043D01*
X6551015Y-22383043D02*
X6541491Y-22421138D01*
X6541491Y-22421138D02*
X6531967Y-22440186D01*
X6531967Y-22440186D02*
X6522444Y-22449710D01*
X6522444Y-22449710D02*
X6503396Y-22459234D01*
X6503396Y-22459234D02*
X6484348Y-22459234D01*
X6484348Y-22459234D02*
X6465301Y-22449710D01*
X6465301Y-22449710D02*
X6455777Y-22440186D01*
X6455777Y-22440186D02*
X6446253Y-22421138D01*
X6446253Y-22421138D02*
X6436729Y-22383043D01*
X6436729Y-22383043D02*
X6436729Y-22335424D01*
X6436729Y-22335424D02*
X6446253Y-22297329D01*
X6446253Y-22297329D02*
X6455777Y-22278281D01*
X6455777Y-22278281D02*
X6465301Y-22268758D01*
X6465301Y-22268758D02*
X6484348Y-22259234D01*
X6722444Y-22259234D02*
X6684348Y-22259234D01*
X6684348Y-22259234D02*
X6665301Y-22268758D01*
X6665301Y-22268758D02*
X6655777Y-22278281D01*
X6655777Y-22278281D02*
X6636729Y-22306853D01*
X6636729Y-22306853D02*
X6627206Y-22344948D01*
X6627206Y-22344948D02*
X6627206Y-22421138D01*
X6627206Y-22421138D02*
X6636729Y-22440186D01*
X6636729Y-22440186D02*
X6646253Y-22449710D01*
X6646253Y-22449710D02*
X6665301Y-22459234D01*
X6665301Y-22459234D02*
X6703396Y-22459234D01*
X6703396Y-22459234D02*
X6722444Y-22449710D01*
X6722444Y-22449710D02*
X6731967Y-22440186D01*
X6731967Y-22440186D02*
X6741491Y-22421138D01*
X6741491Y-22421138D02*
X6741491Y-22373519D01*
X6741491Y-22373519D02*
X6731967Y-22354472D01*
X6731967Y-22354472D02*
X6722444Y-22344948D01*
X6722444Y-22344948D02*
X6703396Y-22335424D01*
X6703396Y-22335424D02*
X6665301Y-22335424D01*
X6665301Y-22335424D02*
X6646253Y-22344948D01*
X6646253Y-22344948D02*
X6636729Y-22354472D01*
X6636729Y-22354472D02*
X6627206Y-22373519D01*
X6855777Y-22344948D02*
X6836729Y-22335424D01*
X6836729Y-22335424D02*
X6827206Y-22325900D01*
X6827206Y-22325900D02*
X6817682Y-22306853D01*
X6817682Y-22306853D02*
X6817682Y-22297329D01*
X6817682Y-22297329D02*
X6827206Y-22278281D01*
X6827206Y-22278281D02*
X6836729Y-22268758D01*
X6836729Y-22268758D02*
X6855777Y-22259234D01*
X6855777Y-22259234D02*
X6893872Y-22259234D01*
X6893872Y-22259234D02*
X6912920Y-22268758D01*
X6912920Y-22268758D02*
X6922444Y-22278281D01*
X6922444Y-22278281D02*
X6931967Y-22297329D01*
X6931967Y-22297329D02*
X6931967Y-22306853D01*
X6931967Y-22306853D02*
X6922444Y-22325900D01*
X6922444Y-22325900D02*
X6912920Y-22335424D01*
X6912920Y-22335424D02*
X6893872Y-22344948D01*
X6893872Y-22344948D02*
X6855777Y-22344948D01*
X6855777Y-22344948D02*
X6836729Y-22354472D01*
X6836729Y-22354472D02*
X6827206Y-22363996D01*
X6827206Y-22363996D02*
X6817682Y-22383043D01*
X6817682Y-22383043D02*
X6817682Y-22421138D01*
X6817682Y-22421138D02*
X6827206Y-22440186D01*
X6827206Y-22440186D02*
X6836729Y-22449710D01*
X6836729Y-22449710D02*
X6855777Y-22459234D01*
X6855777Y-22459234D02*
X6893872Y-22459234D01*
X6893872Y-22459234D02*
X6912920Y-22449710D01*
X6912920Y-22449710D02*
X6922444Y-22440186D01*
X6922444Y-22440186D02*
X6931967Y-22421138D01*
X6931967Y-22421138D02*
X6931967Y-22383043D01*
X6931967Y-22383043D02*
X6922444Y-22363996D01*
X6922444Y-22363996D02*
X6912920Y-22354472D01*
X6912920Y-22354472D02*
X6893872Y-22344948D01*
X7027206Y-22459234D02*
X7065301Y-22459234D01*
X7065301Y-22459234D02*
X7084348Y-22449710D01*
X7084348Y-22449710D02*
X7093872Y-22440186D01*
X7093872Y-22440186D02*
X7112920Y-22411615D01*
X7112920Y-22411615D02*
X7122444Y-22373519D01*
X7122444Y-22373519D02*
X7122444Y-22297329D01*
X7122444Y-22297329D02*
X7112920Y-22278281D01*
X7112920Y-22278281D02*
X7103396Y-22268758D01*
X7103396Y-22268758D02*
X7084348Y-22259234D01*
X7084348Y-22259234D02*
X7046253Y-22259234D01*
X7046253Y-22259234D02*
X7027206Y-22268758D01*
X7027206Y-22268758D02*
X7017682Y-22278281D01*
X7017682Y-22278281D02*
X7008158Y-22297329D01*
X7008158Y-22297329D02*
X7008158Y-22344948D01*
X7008158Y-22344948D02*
X7017682Y-22363996D01*
X7017682Y-22363996D02*
X7027206Y-22373519D01*
X7027206Y-22373519D02*
X7046253Y-22383043D01*
X7046253Y-22383043D02*
X7084348Y-22383043D01*
X7084348Y-22383043D02*
X7103396Y-22373519D01*
X7103396Y-22373519D02*
X7112920Y-22363996D01*
X7112920Y-22363996D02*
X7122444Y-22344948D01*
X7198634Y-22259234D02*
X7198634Y-22297329D01*
X7274825Y-22259234D02*
X7274825Y-22297329D01*
X7570063Y-22535424D02*
X7560539Y-22525900D01*
X7560539Y-22525900D02*
X7541491Y-22497329D01*
X7541491Y-22497329D02*
X7531968Y-22478281D01*
X7531968Y-22478281D02*
X7522444Y-22449710D01*
X7522444Y-22449710D02*
X7512920Y-22402091D01*
X7512920Y-22402091D02*
X7512920Y-22363996D01*
X7512920Y-22363996D02*
X7522444Y-22316377D01*
X7522444Y-22316377D02*
X7531968Y-22287805D01*
X7531968Y-22287805D02*
X7541491Y-22268758D01*
X7541491Y-22268758D02*
X7560539Y-22240186D01*
X7560539Y-22240186D02*
X7570063Y-22230662D01*
X7751015Y-22459234D02*
X7636729Y-22459234D01*
X7693872Y-22459234D02*
X7693872Y-22259234D01*
X7693872Y-22259234D02*
X7674825Y-22287805D01*
X7674825Y-22287805D02*
X7655777Y-22306853D01*
X7655777Y-22306853D02*
X7636729Y-22316377D01*
X7922444Y-22259234D02*
X7884348Y-22259234D01*
X7884348Y-22259234D02*
X7865301Y-22268758D01*
X7865301Y-22268758D02*
X7855777Y-22278281D01*
X7855777Y-22278281D02*
X7836729Y-22306853D01*
X7836729Y-22306853D02*
X7827206Y-22344948D01*
X7827206Y-22344948D02*
X7827206Y-22421138D01*
X7827206Y-22421138D02*
X7836729Y-22440186D01*
X7836729Y-22440186D02*
X7846253Y-22449710D01*
X7846253Y-22449710D02*
X7865301Y-22459234D01*
X7865301Y-22459234D02*
X7903396Y-22459234D01*
X7903396Y-22459234D02*
X7922444Y-22449710D01*
X7922444Y-22449710D02*
X7931968Y-22440186D01*
X7931968Y-22440186D02*
X7941491Y-22421138D01*
X7941491Y-22421138D02*
X7941491Y-22373519D01*
X7941491Y-22373519D02*
X7931968Y-22354472D01*
X7931968Y-22354472D02*
X7922444Y-22344948D01*
X7922444Y-22344948D02*
X7903396Y-22335424D01*
X7903396Y-22335424D02*
X7865301Y-22335424D01*
X7865301Y-22335424D02*
X7846253Y-22344948D01*
X7846253Y-22344948D02*
X7836729Y-22354472D01*
X7836729Y-22354472D02*
X7827206Y-22373519D01*
X8112920Y-22325900D02*
X8112920Y-22459234D01*
X8065301Y-22249710D02*
X8017682Y-22392567D01*
X8017682Y-22392567D02*
X8141491Y-22392567D01*
X8370063Y-22459234D02*
X8370063Y-22259234D01*
X8455777Y-22459234D02*
X8455777Y-22354472D01*
X8455777Y-22354472D02*
X8446253Y-22335424D01*
X8446253Y-22335424D02*
X8427206Y-22325900D01*
X8427206Y-22325900D02*
X8398634Y-22325900D01*
X8398634Y-22325900D02*
X8379587Y-22335424D01*
X8379587Y-22335424D02*
X8370063Y-22344948D01*
X8579587Y-22459234D02*
X8560539Y-22449710D01*
X8560539Y-22449710D02*
X8551015Y-22440186D01*
X8551015Y-22440186D02*
X8541492Y-22421138D01*
X8541492Y-22421138D02*
X8541492Y-22363996D01*
X8541492Y-22363996D02*
X8551015Y-22344948D01*
X8551015Y-22344948D02*
X8560539Y-22335424D01*
X8560539Y-22335424D02*
X8579587Y-22325900D01*
X8579587Y-22325900D02*
X8608158Y-22325900D01*
X8608158Y-22325900D02*
X8627206Y-22335424D01*
X8627206Y-22335424D02*
X8636730Y-22344948D01*
X8636730Y-22344948D02*
X8646253Y-22363996D01*
X8646253Y-22363996D02*
X8646253Y-22421138D01*
X8646253Y-22421138D02*
X8636730Y-22440186D01*
X8636730Y-22440186D02*
X8627206Y-22449710D01*
X8627206Y-22449710D02*
X8608158Y-22459234D01*
X8608158Y-22459234D02*
X8579587Y-22459234D01*
X8760539Y-22459234D02*
X8741492Y-22449710D01*
X8741492Y-22449710D02*
X8731968Y-22430662D01*
X8731968Y-22430662D02*
X8731968Y-22259234D01*
X8912920Y-22449710D02*
X8893873Y-22459234D01*
X8893873Y-22459234D02*
X8855777Y-22459234D01*
X8855777Y-22459234D02*
X8836730Y-22449710D01*
X8836730Y-22449710D02*
X8827206Y-22430662D01*
X8827206Y-22430662D02*
X8827206Y-22354472D01*
X8827206Y-22354472D02*
X8836730Y-22335424D01*
X8836730Y-22335424D02*
X8855777Y-22325900D01*
X8855777Y-22325900D02*
X8893873Y-22325900D01*
X8893873Y-22325900D02*
X8912920Y-22335424D01*
X8912920Y-22335424D02*
X8922444Y-22354472D01*
X8922444Y-22354472D02*
X8922444Y-22373519D01*
X8922444Y-22373519D02*
X8827206Y-22392567D01*
X8998634Y-22449710D02*
X9017682Y-22459234D01*
X9017682Y-22459234D02*
X9055777Y-22459234D01*
X9055777Y-22459234D02*
X9074825Y-22449710D01*
X9074825Y-22449710D02*
X9084349Y-22430662D01*
X9084349Y-22430662D02*
X9084349Y-22421138D01*
X9084349Y-22421138D02*
X9074825Y-22402091D01*
X9074825Y-22402091D02*
X9055777Y-22392567D01*
X9055777Y-22392567D02*
X9027206Y-22392567D01*
X9027206Y-22392567D02*
X9008158Y-22383043D01*
X9008158Y-22383043D02*
X8998634Y-22363996D01*
X8998634Y-22363996D02*
X8998634Y-22354472D01*
X8998634Y-22354472D02*
X9008158Y-22335424D01*
X9008158Y-22335424D02*
X9027206Y-22325900D01*
X9027206Y-22325900D02*
X9055777Y-22325900D01*
X9055777Y-22325900D02*
X9074825Y-22335424D01*
X9151015Y-22535424D02*
X9160539Y-22525900D01*
X9160539Y-22525900D02*
X9179587Y-22497329D01*
X9179587Y-22497329D02*
X9189111Y-22478281D01*
X9189111Y-22478281D02*
X9198634Y-22449710D01*
X9198634Y-22449710D02*
X9208158Y-22402091D01*
X9208158Y-22402091D02*
X9208158Y-22363996D01*
X9208158Y-22363996D02*
X9198634Y-22316377D01*
X9198634Y-22316377D02*
X9189111Y-22287805D01*
X9189111Y-22287805D02*
X9179587Y-22268758D01*
X9179587Y-22268758D02*
X9160539Y-22240186D01*
X9160539Y-22240186D02*
X9151015Y-22230662D01*
X9512920Y-22535424D02*
X9503396Y-22525900D01*
X9503396Y-22525900D02*
X9484349Y-22497329D01*
X9484349Y-22497329D02*
X9474825Y-22478281D01*
X9474825Y-22478281D02*
X9465301Y-22449710D01*
X9465301Y-22449710D02*
X9455777Y-22402091D01*
X9455777Y-22402091D02*
X9455777Y-22363996D01*
X9455777Y-22363996D02*
X9465301Y-22316377D01*
X9465301Y-22316377D02*
X9474825Y-22287805D01*
X9474825Y-22287805D02*
X9484349Y-22268758D01*
X9484349Y-22268758D02*
X9503396Y-22240186D01*
X9503396Y-22240186D02*
X9512920Y-22230662D01*
X9589111Y-22325900D02*
X9589111Y-22459234D01*
X9589111Y-22344948D02*
X9598634Y-22335424D01*
X9598634Y-22335424D02*
X9617682Y-22325900D01*
X9617682Y-22325900D02*
X9646254Y-22325900D01*
X9646254Y-22325900D02*
X9665301Y-22335424D01*
X9665301Y-22335424D02*
X9674825Y-22354472D01*
X9674825Y-22354472D02*
X9674825Y-22459234D01*
X9798634Y-22459234D02*
X9779587Y-22449710D01*
X9779587Y-22449710D02*
X9770063Y-22440186D01*
X9770063Y-22440186D02*
X9760539Y-22421138D01*
X9760539Y-22421138D02*
X9760539Y-22363996D01*
X9760539Y-22363996D02*
X9770063Y-22344948D01*
X9770063Y-22344948D02*
X9779587Y-22335424D01*
X9779587Y-22335424D02*
X9798634Y-22325900D01*
X9798634Y-22325900D02*
X9827206Y-22325900D01*
X9827206Y-22325900D02*
X9846254Y-22335424D01*
X9846254Y-22335424D02*
X9855777Y-22344948D01*
X9855777Y-22344948D02*
X9865301Y-22363996D01*
X9865301Y-22363996D02*
X9865301Y-22421138D01*
X9865301Y-22421138D02*
X9855777Y-22440186D01*
X9855777Y-22440186D02*
X9846254Y-22449710D01*
X9846254Y-22449710D02*
X9827206Y-22459234D01*
X9827206Y-22459234D02*
X9798634Y-22459234D01*
X9922444Y-22325900D02*
X9998634Y-22325900D01*
X9951015Y-22259234D02*
X9951015Y-22430662D01*
X9951015Y-22430662D02*
X9960539Y-22449710D01*
X9960539Y-22449710D02*
X9979587Y-22459234D01*
X9979587Y-22459234D02*
X9998634Y-22459234D01*
X10217682Y-22325900D02*
X10217682Y-22525900D01*
X10217682Y-22335424D02*
X10236730Y-22325900D01*
X10236730Y-22325900D02*
X10274825Y-22325900D01*
X10274825Y-22325900D02*
X10293873Y-22335424D01*
X10293873Y-22335424D02*
X10303396Y-22344948D01*
X10303396Y-22344948D02*
X10312920Y-22363996D01*
X10312920Y-22363996D02*
X10312920Y-22421138D01*
X10312920Y-22421138D02*
X10303396Y-22440186D01*
X10303396Y-22440186D02*
X10293873Y-22449710D01*
X10293873Y-22449710D02*
X10274825Y-22459234D01*
X10274825Y-22459234D02*
X10236730Y-22459234D01*
X10236730Y-22459234D02*
X10217682Y-22449710D01*
X10427206Y-22459234D02*
X10408158Y-22449710D01*
X10408158Y-22449710D02*
X10398635Y-22430662D01*
X10398635Y-22430662D02*
X10398635Y-22259234D01*
X10589111Y-22459234D02*
X10589111Y-22354472D01*
X10589111Y-22354472D02*
X10579587Y-22335424D01*
X10579587Y-22335424D02*
X10560539Y-22325900D01*
X10560539Y-22325900D02*
X10522444Y-22325900D01*
X10522444Y-22325900D02*
X10503396Y-22335424D01*
X10589111Y-22449710D02*
X10570063Y-22459234D01*
X10570063Y-22459234D02*
X10522444Y-22459234D01*
X10522444Y-22459234D02*
X10503396Y-22449710D01*
X10503396Y-22449710D02*
X10493873Y-22430662D01*
X10493873Y-22430662D02*
X10493873Y-22411615D01*
X10493873Y-22411615D02*
X10503396Y-22392567D01*
X10503396Y-22392567D02*
X10522444Y-22383043D01*
X10522444Y-22383043D02*
X10570063Y-22383043D01*
X10570063Y-22383043D02*
X10589111Y-22373519D01*
X10655777Y-22325900D02*
X10731968Y-22325900D01*
X10684349Y-22259234D02*
X10684349Y-22430662D01*
X10684349Y-22430662D02*
X10693873Y-22449710D01*
X10693873Y-22449710D02*
X10712920Y-22459234D01*
X10712920Y-22459234D02*
X10731968Y-22459234D01*
X10874825Y-22449710D02*
X10855777Y-22459234D01*
X10855777Y-22459234D02*
X10817682Y-22459234D01*
X10817682Y-22459234D02*
X10798635Y-22449710D01*
X10798635Y-22449710D02*
X10789111Y-22430662D01*
X10789111Y-22430662D02*
X10789111Y-22354472D01*
X10789111Y-22354472D02*
X10798635Y-22335424D01*
X10798635Y-22335424D02*
X10817682Y-22325900D01*
X10817682Y-22325900D02*
X10855777Y-22325900D01*
X10855777Y-22325900D02*
X10874825Y-22335424D01*
X10874825Y-22335424D02*
X10884349Y-22354472D01*
X10884349Y-22354472D02*
X10884349Y-22373519D01*
X10884349Y-22373519D02*
X10789111Y-22392567D01*
X11055777Y-22459234D02*
X11055777Y-22259234D01*
X11055777Y-22449710D02*
X11036730Y-22459234D01*
X11036730Y-22459234D02*
X10998635Y-22459234D01*
X10998635Y-22459234D02*
X10979587Y-22449710D01*
X10979587Y-22449710D02*
X10970063Y-22440186D01*
X10970063Y-22440186D02*
X10960539Y-22421138D01*
X10960539Y-22421138D02*
X10960539Y-22363996D01*
X10960539Y-22363996D02*
X10970063Y-22344948D01*
X10970063Y-22344948D02*
X10979587Y-22335424D01*
X10979587Y-22335424D02*
X10998635Y-22325900D01*
X10998635Y-22325900D02*
X11036730Y-22325900D01*
X11036730Y-22325900D02*
X11055777Y-22335424D01*
X11131968Y-22535424D02*
X11141492Y-22525900D01*
X11141492Y-22525900D02*
X11160539Y-22497329D01*
X11160539Y-22497329D02*
X11170063Y-22478281D01*
X11170063Y-22478281D02*
X11179587Y-22449710D01*
X11179587Y-22449710D02*
X11189111Y-22402091D01*
X11189111Y-22402091D02*
X11189111Y-22363996D01*
X11189111Y-22363996D02*
X11179587Y-22316377D01*
X11179587Y-22316377D02*
X11170063Y-22287805D01*
X11170063Y-22287805D02*
X11160539Y-22268758D01*
X11160539Y-22268758D02*
X11141492Y-22240186D01*
X11141492Y-22240186D02*
X11131968Y-22230662D01*
X3895000Y-22562750D02*
X3895000Y-22762750D01*
X3795000Y-22662750D02*
X3995000Y-22662750D01*
X4236729Y-22554234D02*
X4360539Y-22554234D01*
X4360539Y-22554234D02*
X4293872Y-22630424D01*
X4293872Y-22630424D02*
X4322444Y-22630424D01*
X4322444Y-22630424D02*
X4341491Y-22639948D01*
X4341491Y-22639948D02*
X4351015Y-22649472D01*
X4351015Y-22649472D02*
X4360539Y-22668519D01*
X4360539Y-22668519D02*
X4360539Y-22716138D01*
X4360539Y-22716138D02*
X4351015Y-22735186D01*
X4351015Y-22735186D02*
X4341491Y-22744710D01*
X4341491Y-22744710D02*
X4322444Y-22754234D01*
X4322444Y-22754234D02*
X4265301Y-22754234D01*
X4265301Y-22754234D02*
X4246253Y-22744710D01*
X4246253Y-22744710D02*
X4236729Y-22735186D01*
X4446253Y-22735186D02*
X4455777Y-22744710D01*
X4455777Y-22744710D02*
X4446253Y-22754234D01*
X4446253Y-22754234D02*
X4436729Y-22744710D01*
X4436729Y-22744710D02*
X4446253Y-22735186D01*
X4446253Y-22735186D02*
X4446253Y-22754234D01*
X4579586Y-22554234D02*
X4598634Y-22554234D01*
X4598634Y-22554234D02*
X4617682Y-22563758D01*
X4617682Y-22563758D02*
X4627205Y-22573281D01*
X4627205Y-22573281D02*
X4636729Y-22592329D01*
X4636729Y-22592329D02*
X4646253Y-22630424D01*
X4646253Y-22630424D02*
X4646253Y-22678043D01*
X4646253Y-22678043D02*
X4636729Y-22716138D01*
X4636729Y-22716138D02*
X4627205Y-22735186D01*
X4627205Y-22735186D02*
X4617682Y-22744710D01*
X4617682Y-22744710D02*
X4598634Y-22754234D01*
X4598634Y-22754234D02*
X4579586Y-22754234D01*
X4579586Y-22754234D02*
X4560539Y-22744710D01*
X4560539Y-22744710D02*
X4551015Y-22735186D01*
X4551015Y-22735186D02*
X4541491Y-22716138D01*
X4541491Y-22716138D02*
X4531967Y-22678043D01*
X4531967Y-22678043D02*
X4531967Y-22630424D01*
X4531967Y-22630424D02*
X4541491Y-22592329D01*
X4541491Y-22592329D02*
X4551015Y-22573281D01*
X4551015Y-22573281D02*
X4560539Y-22563758D01*
X4560539Y-22563758D02*
X4579586Y-22554234D01*
X4817682Y-22620900D02*
X4817682Y-22754234D01*
X4770063Y-22544710D02*
X4722444Y-22687567D01*
X4722444Y-22687567D02*
X4846253Y-22687567D01*
X4951015Y-22639948D02*
X4931967Y-22630424D01*
X4931967Y-22630424D02*
X4922444Y-22620900D01*
X4922444Y-22620900D02*
X4912920Y-22601853D01*
X4912920Y-22601853D02*
X4912920Y-22592329D01*
X4912920Y-22592329D02*
X4922444Y-22573281D01*
X4922444Y-22573281D02*
X4931967Y-22563758D01*
X4931967Y-22563758D02*
X4951015Y-22554234D01*
X4951015Y-22554234D02*
X4989110Y-22554234D01*
X4989110Y-22554234D02*
X5008158Y-22563758D01*
X5008158Y-22563758D02*
X5017682Y-22573281D01*
X5017682Y-22573281D02*
X5027205Y-22592329D01*
X5027205Y-22592329D02*
X5027205Y-22601853D01*
X5027205Y-22601853D02*
X5017682Y-22620900D01*
X5017682Y-22620900D02*
X5008158Y-22630424D01*
X5008158Y-22630424D02*
X4989110Y-22639948D01*
X4989110Y-22639948D02*
X4951015Y-22639948D01*
X4951015Y-22639948D02*
X4931967Y-22649472D01*
X4931967Y-22649472D02*
X4922444Y-22658996D01*
X4922444Y-22658996D02*
X4912920Y-22678043D01*
X4912920Y-22678043D02*
X4912920Y-22716138D01*
X4912920Y-22716138D02*
X4922444Y-22735186D01*
X4922444Y-22735186D02*
X4931967Y-22744710D01*
X4931967Y-22744710D02*
X4951015Y-22754234D01*
X4951015Y-22754234D02*
X4989110Y-22754234D01*
X4989110Y-22754234D02*
X5008158Y-22744710D01*
X5008158Y-22744710D02*
X5017682Y-22735186D01*
X5017682Y-22735186D02*
X5027205Y-22716138D01*
X5027205Y-22716138D02*
X5027205Y-22678043D01*
X5027205Y-22678043D02*
X5017682Y-22658996D01*
X5017682Y-22658996D02*
X5008158Y-22649472D01*
X5008158Y-22649472D02*
X4989110Y-22639948D01*
X5112920Y-22754234D02*
X5112920Y-22620900D01*
X5112920Y-22639948D02*
X5122444Y-22630424D01*
X5122444Y-22630424D02*
X5141491Y-22620900D01*
X5141491Y-22620900D02*
X5170063Y-22620900D01*
X5170063Y-22620900D02*
X5189110Y-22630424D01*
X5189110Y-22630424D02*
X5198634Y-22649472D01*
X5198634Y-22649472D02*
X5198634Y-22754234D01*
X5198634Y-22649472D02*
X5208158Y-22630424D01*
X5208158Y-22630424D02*
X5227205Y-22620900D01*
X5227205Y-22620900D02*
X5255777Y-22620900D01*
X5255777Y-22620900D02*
X5274825Y-22630424D01*
X5274825Y-22630424D02*
X5284348Y-22649472D01*
X5284348Y-22649472D02*
X5284348Y-22754234D01*
X5379586Y-22754234D02*
X5379586Y-22620900D01*
X5379586Y-22639948D02*
X5389110Y-22630424D01*
X5389110Y-22630424D02*
X5408158Y-22620900D01*
X5408158Y-22620900D02*
X5436729Y-22620900D01*
X5436729Y-22620900D02*
X5455777Y-22630424D01*
X5455777Y-22630424D02*
X5465301Y-22649472D01*
X5465301Y-22649472D02*
X5465301Y-22754234D01*
X5465301Y-22649472D02*
X5474825Y-22630424D01*
X5474825Y-22630424D02*
X5493872Y-22620900D01*
X5493872Y-22620900D02*
X5522444Y-22620900D01*
X5522444Y-22620900D02*
X5541491Y-22630424D01*
X5541491Y-22630424D02*
X5551015Y-22649472D01*
X5551015Y-22649472D02*
X5551015Y-22754234D01*
X5941491Y-22544710D02*
X5770063Y-22801853D01*
X6198634Y-22554234D02*
X6217682Y-22554234D01*
X6217682Y-22554234D02*
X6236729Y-22563758D01*
X6236729Y-22563758D02*
X6246253Y-22573281D01*
X6246253Y-22573281D02*
X6255777Y-22592329D01*
X6255777Y-22592329D02*
X6265301Y-22630424D01*
X6265301Y-22630424D02*
X6265301Y-22678043D01*
X6265301Y-22678043D02*
X6255777Y-22716138D01*
X6255777Y-22716138D02*
X6246253Y-22735186D01*
X6246253Y-22735186D02*
X6236729Y-22744710D01*
X6236729Y-22744710D02*
X6217682Y-22754234D01*
X6217682Y-22754234D02*
X6198634Y-22754234D01*
X6198634Y-22754234D02*
X6179586Y-22744710D01*
X6179586Y-22744710D02*
X6170063Y-22735186D01*
X6170063Y-22735186D02*
X6160539Y-22716138D01*
X6160539Y-22716138D02*
X6151015Y-22678043D01*
X6151015Y-22678043D02*
X6151015Y-22630424D01*
X6151015Y-22630424D02*
X6160539Y-22592329D01*
X6160539Y-22592329D02*
X6170063Y-22573281D01*
X6170063Y-22573281D02*
X6179586Y-22563758D01*
X6179586Y-22563758D02*
X6198634Y-22554234D01*
X6351015Y-22735186D02*
X6360539Y-22744710D01*
X6360539Y-22744710D02*
X6351015Y-22754234D01*
X6351015Y-22754234D02*
X6341491Y-22744710D01*
X6341491Y-22744710D02*
X6351015Y-22735186D01*
X6351015Y-22735186D02*
X6351015Y-22754234D01*
X6551015Y-22754234D02*
X6436729Y-22754234D01*
X6493872Y-22754234D02*
X6493872Y-22554234D01*
X6493872Y-22554234D02*
X6474825Y-22582805D01*
X6474825Y-22582805D02*
X6455777Y-22601853D01*
X6455777Y-22601853D02*
X6436729Y-22611377D01*
X6627206Y-22573281D02*
X6636729Y-22563758D01*
X6636729Y-22563758D02*
X6655777Y-22554234D01*
X6655777Y-22554234D02*
X6703396Y-22554234D01*
X6703396Y-22554234D02*
X6722444Y-22563758D01*
X6722444Y-22563758D02*
X6731967Y-22573281D01*
X6731967Y-22573281D02*
X6741491Y-22592329D01*
X6741491Y-22592329D02*
X6741491Y-22611377D01*
X6741491Y-22611377D02*
X6731967Y-22639948D01*
X6731967Y-22639948D02*
X6617682Y-22754234D01*
X6617682Y-22754234D02*
X6741491Y-22754234D01*
X6865301Y-22554234D02*
X6884348Y-22554234D01*
X6884348Y-22554234D02*
X6903396Y-22563758D01*
X6903396Y-22563758D02*
X6912920Y-22573281D01*
X6912920Y-22573281D02*
X6922444Y-22592329D01*
X6922444Y-22592329D02*
X6931967Y-22630424D01*
X6931967Y-22630424D02*
X6931967Y-22678043D01*
X6931967Y-22678043D02*
X6922444Y-22716138D01*
X6922444Y-22716138D02*
X6912920Y-22735186D01*
X6912920Y-22735186D02*
X6903396Y-22744710D01*
X6903396Y-22744710D02*
X6884348Y-22754234D01*
X6884348Y-22754234D02*
X6865301Y-22754234D01*
X6865301Y-22754234D02*
X6846253Y-22744710D01*
X6846253Y-22744710D02*
X6836729Y-22735186D01*
X6836729Y-22735186D02*
X6827206Y-22716138D01*
X6827206Y-22716138D02*
X6817682Y-22678043D01*
X6817682Y-22678043D02*
X6817682Y-22630424D01*
X6817682Y-22630424D02*
X6827206Y-22592329D01*
X6827206Y-22592329D02*
X6836729Y-22573281D01*
X6836729Y-22573281D02*
X6846253Y-22563758D01*
X6846253Y-22563758D02*
X6865301Y-22554234D01*
X7055777Y-22554234D02*
X7074825Y-22554234D01*
X7074825Y-22554234D02*
X7093872Y-22563758D01*
X7093872Y-22563758D02*
X7103396Y-22573281D01*
X7103396Y-22573281D02*
X7112920Y-22592329D01*
X7112920Y-22592329D02*
X7122444Y-22630424D01*
X7122444Y-22630424D02*
X7122444Y-22678043D01*
X7122444Y-22678043D02*
X7112920Y-22716138D01*
X7112920Y-22716138D02*
X7103396Y-22735186D01*
X7103396Y-22735186D02*
X7093872Y-22744710D01*
X7093872Y-22744710D02*
X7074825Y-22754234D01*
X7074825Y-22754234D02*
X7055777Y-22754234D01*
X7055777Y-22754234D02*
X7036729Y-22744710D01*
X7036729Y-22744710D02*
X7027206Y-22735186D01*
X7027206Y-22735186D02*
X7017682Y-22716138D01*
X7017682Y-22716138D02*
X7008158Y-22678043D01*
X7008158Y-22678043D02*
X7008158Y-22630424D01*
X7008158Y-22630424D02*
X7017682Y-22592329D01*
X7017682Y-22592329D02*
X7027206Y-22573281D01*
X7027206Y-22573281D02*
X7036729Y-22563758D01*
X7036729Y-22563758D02*
X7055777Y-22554234D01*
X7198634Y-22554234D02*
X7198634Y-22592329D01*
X7274825Y-22554234D02*
X7274825Y-22592329D01*
X7570063Y-22830424D02*
X7560539Y-22820900D01*
X7560539Y-22820900D02*
X7541491Y-22792329D01*
X7541491Y-22792329D02*
X7531968Y-22773281D01*
X7531968Y-22773281D02*
X7522444Y-22744710D01*
X7522444Y-22744710D02*
X7512920Y-22697091D01*
X7512920Y-22697091D02*
X7512920Y-22658996D01*
X7512920Y-22658996D02*
X7522444Y-22611377D01*
X7522444Y-22611377D02*
X7531968Y-22582805D01*
X7531968Y-22582805D02*
X7541491Y-22563758D01*
X7541491Y-22563758D02*
X7560539Y-22535186D01*
X7560539Y-22535186D02*
X7570063Y-22525662D01*
X7674825Y-22639948D02*
X7655777Y-22630424D01*
X7655777Y-22630424D02*
X7646253Y-22620900D01*
X7646253Y-22620900D02*
X7636729Y-22601853D01*
X7636729Y-22601853D02*
X7636729Y-22592329D01*
X7636729Y-22592329D02*
X7646253Y-22573281D01*
X7646253Y-22573281D02*
X7655777Y-22563758D01*
X7655777Y-22563758D02*
X7674825Y-22554234D01*
X7674825Y-22554234D02*
X7712920Y-22554234D01*
X7712920Y-22554234D02*
X7731968Y-22563758D01*
X7731968Y-22563758D02*
X7741491Y-22573281D01*
X7741491Y-22573281D02*
X7751015Y-22592329D01*
X7751015Y-22592329D02*
X7751015Y-22601853D01*
X7751015Y-22601853D02*
X7741491Y-22620900D01*
X7741491Y-22620900D02*
X7731968Y-22630424D01*
X7731968Y-22630424D02*
X7712920Y-22639948D01*
X7712920Y-22639948D02*
X7674825Y-22639948D01*
X7674825Y-22639948D02*
X7655777Y-22649472D01*
X7655777Y-22649472D02*
X7646253Y-22658996D01*
X7646253Y-22658996D02*
X7636729Y-22678043D01*
X7636729Y-22678043D02*
X7636729Y-22716138D01*
X7636729Y-22716138D02*
X7646253Y-22735186D01*
X7646253Y-22735186D02*
X7655777Y-22744710D01*
X7655777Y-22744710D02*
X7674825Y-22754234D01*
X7674825Y-22754234D02*
X7712920Y-22754234D01*
X7712920Y-22754234D02*
X7731968Y-22744710D01*
X7731968Y-22744710D02*
X7741491Y-22735186D01*
X7741491Y-22735186D02*
X7751015Y-22716138D01*
X7751015Y-22716138D02*
X7751015Y-22678043D01*
X7751015Y-22678043D02*
X7741491Y-22658996D01*
X7741491Y-22658996D02*
X7731968Y-22649472D01*
X7731968Y-22649472D02*
X7712920Y-22639948D01*
X7989110Y-22754234D02*
X7989110Y-22554234D01*
X8074825Y-22754234D02*
X8074825Y-22649472D01*
X8074825Y-22649472D02*
X8065301Y-22630424D01*
X8065301Y-22630424D02*
X8046253Y-22620900D01*
X8046253Y-22620900D02*
X8017682Y-22620900D01*
X8017682Y-22620900D02*
X7998634Y-22630424D01*
X7998634Y-22630424D02*
X7989110Y-22639948D01*
X8198634Y-22754234D02*
X8179587Y-22744710D01*
X8179587Y-22744710D02*
X8170063Y-22735186D01*
X8170063Y-22735186D02*
X8160539Y-22716138D01*
X8160539Y-22716138D02*
X8160539Y-22658996D01*
X8160539Y-22658996D02*
X8170063Y-22639948D01*
X8170063Y-22639948D02*
X8179587Y-22630424D01*
X8179587Y-22630424D02*
X8198634Y-22620900D01*
X8198634Y-22620900D02*
X8227206Y-22620900D01*
X8227206Y-22620900D02*
X8246253Y-22630424D01*
X8246253Y-22630424D02*
X8255777Y-22639948D01*
X8255777Y-22639948D02*
X8265301Y-22658996D01*
X8265301Y-22658996D02*
X8265301Y-22716138D01*
X8265301Y-22716138D02*
X8255777Y-22735186D01*
X8255777Y-22735186D02*
X8246253Y-22744710D01*
X8246253Y-22744710D02*
X8227206Y-22754234D01*
X8227206Y-22754234D02*
X8198634Y-22754234D01*
X8379587Y-22754234D02*
X8360539Y-22744710D01*
X8360539Y-22744710D02*
X8351015Y-22725662D01*
X8351015Y-22725662D02*
X8351015Y-22554234D01*
X8531968Y-22744710D02*
X8512920Y-22754234D01*
X8512920Y-22754234D02*
X8474825Y-22754234D01*
X8474825Y-22754234D02*
X8455777Y-22744710D01*
X8455777Y-22744710D02*
X8446253Y-22725662D01*
X8446253Y-22725662D02*
X8446253Y-22649472D01*
X8446253Y-22649472D02*
X8455777Y-22630424D01*
X8455777Y-22630424D02*
X8474825Y-22620900D01*
X8474825Y-22620900D02*
X8512920Y-22620900D01*
X8512920Y-22620900D02*
X8531968Y-22630424D01*
X8531968Y-22630424D02*
X8541492Y-22649472D01*
X8541492Y-22649472D02*
X8541492Y-22668519D01*
X8541492Y-22668519D02*
X8446253Y-22687567D01*
X8617682Y-22744710D02*
X8636730Y-22754234D01*
X8636730Y-22754234D02*
X8674825Y-22754234D01*
X8674825Y-22754234D02*
X8693873Y-22744710D01*
X8693873Y-22744710D02*
X8703396Y-22725662D01*
X8703396Y-22725662D02*
X8703396Y-22716138D01*
X8703396Y-22716138D02*
X8693873Y-22697091D01*
X8693873Y-22697091D02*
X8674825Y-22687567D01*
X8674825Y-22687567D02*
X8646253Y-22687567D01*
X8646253Y-22687567D02*
X8627206Y-22678043D01*
X8627206Y-22678043D02*
X8617682Y-22658996D01*
X8617682Y-22658996D02*
X8617682Y-22649472D01*
X8617682Y-22649472D02*
X8627206Y-22630424D01*
X8627206Y-22630424D02*
X8646253Y-22620900D01*
X8646253Y-22620900D02*
X8674825Y-22620900D01*
X8674825Y-22620900D02*
X8693873Y-22630424D01*
X8770063Y-22830424D02*
X8779587Y-22820900D01*
X8779587Y-22820900D02*
X8798634Y-22792329D01*
X8798634Y-22792329D02*
X8808158Y-22773281D01*
X8808158Y-22773281D02*
X8817682Y-22744710D01*
X8817682Y-22744710D02*
X8827206Y-22697091D01*
X8827206Y-22697091D02*
X8827206Y-22658996D01*
X8827206Y-22658996D02*
X8817682Y-22611377D01*
X8817682Y-22611377D02*
X8808158Y-22582805D01*
X8808158Y-22582805D02*
X8798634Y-22563758D01*
X8798634Y-22563758D02*
X8779587Y-22535186D01*
X8779587Y-22535186D02*
X8770063Y-22525662D01*
X9131968Y-22830424D02*
X9122444Y-22820900D01*
X9122444Y-22820900D02*
X9103396Y-22792329D01*
X9103396Y-22792329D02*
X9093873Y-22773281D01*
X9093873Y-22773281D02*
X9084349Y-22744710D01*
X9084349Y-22744710D02*
X9074825Y-22697091D01*
X9074825Y-22697091D02*
X9074825Y-22658996D01*
X9074825Y-22658996D02*
X9084349Y-22611377D01*
X9084349Y-22611377D02*
X9093873Y-22582805D01*
X9093873Y-22582805D02*
X9103396Y-22563758D01*
X9103396Y-22563758D02*
X9122444Y-22535186D01*
X9122444Y-22535186D02*
X9131968Y-22525662D01*
X9208158Y-22620900D02*
X9208158Y-22754234D01*
X9208158Y-22639948D02*
X9217682Y-22630424D01*
X9217682Y-22630424D02*
X9236730Y-22620900D01*
X9236730Y-22620900D02*
X9265301Y-22620900D01*
X9265301Y-22620900D02*
X9284349Y-22630424D01*
X9284349Y-22630424D02*
X9293873Y-22649472D01*
X9293873Y-22649472D02*
X9293873Y-22754234D01*
X9417682Y-22754234D02*
X9398634Y-22744710D01*
X9398634Y-22744710D02*
X9389111Y-22735186D01*
X9389111Y-22735186D02*
X9379587Y-22716138D01*
X9379587Y-22716138D02*
X9379587Y-22658996D01*
X9379587Y-22658996D02*
X9389111Y-22639948D01*
X9389111Y-22639948D02*
X9398634Y-22630424D01*
X9398634Y-22630424D02*
X9417682Y-22620900D01*
X9417682Y-22620900D02*
X9446254Y-22620900D01*
X9446254Y-22620900D02*
X9465301Y-22630424D01*
X9465301Y-22630424D02*
X9474825Y-22639948D01*
X9474825Y-22639948D02*
X9484349Y-22658996D01*
X9484349Y-22658996D02*
X9484349Y-22716138D01*
X9484349Y-22716138D02*
X9474825Y-22735186D01*
X9474825Y-22735186D02*
X9465301Y-22744710D01*
X9465301Y-22744710D02*
X9446254Y-22754234D01*
X9446254Y-22754234D02*
X9417682Y-22754234D01*
X9541492Y-22620900D02*
X9617682Y-22620900D01*
X9570063Y-22554234D02*
X9570063Y-22725662D01*
X9570063Y-22725662D02*
X9579587Y-22744710D01*
X9579587Y-22744710D02*
X9598634Y-22754234D01*
X9598634Y-22754234D02*
X9617682Y-22754234D01*
X9836730Y-22620900D02*
X9836730Y-22820900D01*
X9836730Y-22630424D02*
X9855777Y-22620900D01*
X9855777Y-22620900D02*
X9893873Y-22620900D01*
X9893873Y-22620900D02*
X9912920Y-22630424D01*
X9912920Y-22630424D02*
X9922444Y-22639948D01*
X9922444Y-22639948D02*
X9931968Y-22658996D01*
X9931968Y-22658996D02*
X9931968Y-22716138D01*
X9931968Y-22716138D02*
X9922444Y-22735186D01*
X9922444Y-22735186D02*
X9912920Y-22744710D01*
X9912920Y-22744710D02*
X9893873Y-22754234D01*
X9893873Y-22754234D02*
X9855777Y-22754234D01*
X9855777Y-22754234D02*
X9836730Y-22744710D01*
X10046254Y-22754234D02*
X10027206Y-22744710D01*
X10027206Y-22744710D02*
X10017682Y-22725662D01*
X10017682Y-22725662D02*
X10017682Y-22554234D01*
X10208158Y-22754234D02*
X10208158Y-22649472D01*
X10208158Y-22649472D02*
X10198635Y-22630424D01*
X10198635Y-22630424D02*
X10179587Y-22620900D01*
X10179587Y-22620900D02*
X10141492Y-22620900D01*
X10141492Y-22620900D02*
X10122444Y-22630424D01*
X10208158Y-22744710D02*
X10189111Y-22754234D01*
X10189111Y-22754234D02*
X10141492Y-22754234D01*
X10141492Y-22754234D02*
X10122444Y-22744710D01*
X10122444Y-22744710D02*
X10112920Y-22725662D01*
X10112920Y-22725662D02*
X10112920Y-22706615D01*
X10112920Y-22706615D02*
X10122444Y-22687567D01*
X10122444Y-22687567D02*
X10141492Y-22678043D01*
X10141492Y-22678043D02*
X10189111Y-22678043D01*
X10189111Y-22678043D02*
X10208158Y-22668519D01*
X10274825Y-22620900D02*
X10351015Y-22620900D01*
X10303396Y-22554234D02*
X10303396Y-22725662D01*
X10303396Y-22725662D02*
X10312920Y-22744710D01*
X10312920Y-22744710D02*
X10331968Y-22754234D01*
X10331968Y-22754234D02*
X10351015Y-22754234D01*
X10493873Y-22744710D02*
X10474825Y-22754234D01*
X10474825Y-22754234D02*
X10436730Y-22754234D01*
X10436730Y-22754234D02*
X10417682Y-22744710D01*
X10417682Y-22744710D02*
X10408158Y-22725662D01*
X10408158Y-22725662D02*
X10408158Y-22649472D01*
X10408158Y-22649472D02*
X10417682Y-22630424D01*
X10417682Y-22630424D02*
X10436730Y-22620900D01*
X10436730Y-22620900D02*
X10474825Y-22620900D01*
X10474825Y-22620900D02*
X10493873Y-22630424D01*
X10493873Y-22630424D02*
X10503396Y-22649472D01*
X10503396Y-22649472D02*
X10503396Y-22668519D01*
X10503396Y-22668519D02*
X10408158Y-22687567D01*
X10674825Y-22754234D02*
X10674825Y-22554234D01*
X10674825Y-22744710D02*
X10655777Y-22754234D01*
X10655777Y-22754234D02*
X10617682Y-22754234D01*
X10617682Y-22754234D02*
X10598635Y-22744710D01*
X10598635Y-22744710D02*
X10589111Y-22735186D01*
X10589111Y-22735186D02*
X10579587Y-22716138D01*
X10579587Y-22716138D02*
X10579587Y-22658996D01*
X10579587Y-22658996D02*
X10589111Y-22639948D01*
X10589111Y-22639948D02*
X10598635Y-22630424D01*
X10598635Y-22630424D02*
X10617682Y-22620900D01*
X10617682Y-22620900D02*
X10655777Y-22620900D01*
X10655777Y-22620900D02*
X10674825Y-22630424D01*
X10751016Y-22830424D02*
X10760539Y-22820900D01*
X10760539Y-22820900D02*
X10779587Y-22792329D01*
X10779587Y-22792329D02*
X10789111Y-22773281D01*
X10789111Y-22773281D02*
X10798635Y-22744710D01*
X10798635Y-22744710D02*
X10808158Y-22697091D01*
X10808158Y-22697091D02*
X10808158Y-22658996D01*
X10808158Y-22658996D02*
X10798635Y-22611377D01*
X10798635Y-22611377D02*
X10789111Y-22582805D01*
X10789111Y-22582805D02*
X10779587Y-22563758D01*
X10779587Y-22563758D02*
X10760539Y-22535186D01*
X10760539Y-22535186D02*
X10751016Y-22525662D01*
X3965711Y-23053461D02*
X3965711Y-22912039D01*
X3824289Y-22912039D01*
X3824289Y-23053461D01*
X3965711Y-23053461D01*
X4236729Y-22874234D02*
X4360539Y-22874234D01*
X4360539Y-22874234D02*
X4293872Y-22950424D01*
X4293872Y-22950424D02*
X4322444Y-22950424D01*
X4322444Y-22950424D02*
X4341491Y-22959948D01*
X4341491Y-22959948D02*
X4351015Y-22969472D01*
X4351015Y-22969472D02*
X4360539Y-22988519D01*
X4360539Y-22988519D02*
X4360539Y-23036138D01*
X4360539Y-23036138D02*
X4351015Y-23055186D01*
X4351015Y-23055186D02*
X4341491Y-23064710D01*
X4341491Y-23064710D02*
X4322444Y-23074234D01*
X4322444Y-23074234D02*
X4265301Y-23074234D01*
X4265301Y-23074234D02*
X4246253Y-23064710D01*
X4246253Y-23064710D02*
X4236729Y-23055186D01*
X4446253Y-23055186D02*
X4455777Y-23064710D01*
X4455777Y-23064710D02*
X4446253Y-23074234D01*
X4446253Y-23074234D02*
X4436729Y-23064710D01*
X4436729Y-23064710D02*
X4446253Y-23055186D01*
X4446253Y-23055186D02*
X4446253Y-23074234D01*
X4579586Y-22874234D02*
X4598634Y-22874234D01*
X4598634Y-22874234D02*
X4617682Y-22883758D01*
X4617682Y-22883758D02*
X4627205Y-22893281D01*
X4627205Y-22893281D02*
X4636729Y-22912329D01*
X4636729Y-22912329D02*
X4646253Y-22950424D01*
X4646253Y-22950424D02*
X4646253Y-22998043D01*
X4646253Y-22998043D02*
X4636729Y-23036138D01*
X4636729Y-23036138D02*
X4627205Y-23055186D01*
X4627205Y-23055186D02*
X4617682Y-23064710D01*
X4617682Y-23064710D02*
X4598634Y-23074234D01*
X4598634Y-23074234D02*
X4579586Y-23074234D01*
X4579586Y-23074234D02*
X4560539Y-23064710D01*
X4560539Y-23064710D02*
X4551015Y-23055186D01*
X4551015Y-23055186D02*
X4541491Y-23036138D01*
X4541491Y-23036138D02*
X4531967Y-22998043D01*
X4531967Y-22998043D02*
X4531967Y-22950424D01*
X4531967Y-22950424D02*
X4541491Y-22912329D01*
X4541491Y-22912329D02*
X4551015Y-22893281D01*
X4551015Y-22893281D02*
X4560539Y-22883758D01*
X4560539Y-22883758D02*
X4579586Y-22874234D01*
X4827205Y-22874234D02*
X4731967Y-22874234D01*
X4731967Y-22874234D02*
X4722444Y-22969472D01*
X4722444Y-22969472D02*
X4731967Y-22959948D01*
X4731967Y-22959948D02*
X4751015Y-22950424D01*
X4751015Y-22950424D02*
X4798634Y-22950424D01*
X4798634Y-22950424D02*
X4817682Y-22959948D01*
X4817682Y-22959948D02*
X4827205Y-22969472D01*
X4827205Y-22969472D02*
X4836729Y-22988519D01*
X4836729Y-22988519D02*
X4836729Y-23036138D01*
X4836729Y-23036138D02*
X4827205Y-23055186D01*
X4827205Y-23055186D02*
X4817682Y-23064710D01*
X4817682Y-23064710D02*
X4798634Y-23074234D01*
X4798634Y-23074234D02*
X4751015Y-23074234D01*
X4751015Y-23074234D02*
X4731967Y-23064710D01*
X4731967Y-23064710D02*
X4722444Y-23055186D01*
X4960539Y-22874234D02*
X4979586Y-22874234D01*
X4979586Y-22874234D02*
X4998634Y-22883758D01*
X4998634Y-22883758D02*
X5008158Y-22893281D01*
X5008158Y-22893281D02*
X5017682Y-22912329D01*
X5017682Y-22912329D02*
X5027205Y-22950424D01*
X5027205Y-22950424D02*
X5027205Y-22998043D01*
X5027205Y-22998043D02*
X5017682Y-23036138D01*
X5017682Y-23036138D02*
X5008158Y-23055186D01*
X5008158Y-23055186D02*
X4998634Y-23064710D01*
X4998634Y-23064710D02*
X4979586Y-23074234D01*
X4979586Y-23074234D02*
X4960539Y-23074234D01*
X4960539Y-23074234D02*
X4941491Y-23064710D01*
X4941491Y-23064710D02*
X4931967Y-23055186D01*
X4931967Y-23055186D02*
X4922444Y-23036138D01*
X4922444Y-23036138D02*
X4912920Y-22998043D01*
X4912920Y-22998043D02*
X4912920Y-22950424D01*
X4912920Y-22950424D02*
X4922444Y-22912329D01*
X4922444Y-22912329D02*
X4931967Y-22893281D01*
X4931967Y-22893281D02*
X4941491Y-22883758D01*
X4941491Y-22883758D02*
X4960539Y-22874234D01*
X5112920Y-23074234D02*
X5112920Y-22940900D01*
X5112920Y-22959948D02*
X5122444Y-22950424D01*
X5122444Y-22950424D02*
X5141491Y-22940900D01*
X5141491Y-22940900D02*
X5170063Y-22940900D01*
X5170063Y-22940900D02*
X5189110Y-22950424D01*
X5189110Y-22950424D02*
X5198634Y-22969472D01*
X5198634Y-22969472D02*
X5198634Y-23074234D01*
X5198634Y-22969472D02*
X5208158Y-22950424D01*
X5208158Y-22950424D02*
X5227205Y-22940900D01*
X5227205Y-22940900D02*
X5255777Y-22940900D01*
X5255777Y-22940900D02*
X5274825Y-22950424D01*
X5274825Y-22950424D02*
X5284348Y-22969472D01*
X5284348Y-22969472D02*
X5284348Y-23074234D01*
X5379586Y-23074234D02*
X5379586Y-22940900D01*
X5379586Y-22959948D02*
X5389110Y-22950424D01*
X5389110Y-22950424D02*
X5408158Y-22940900D01*
X5408158Y-22940900D02*
X5436729Y-22940900D01*
X5436729Y-22940900D02*
X5455777Y-22950424D01*
X5455777Y-22950424D02*
X5465301Y-22969472D01*
X5465301Y-22969472D02*
X5465301Y-23074234D01*
X5465301Y-22969472D02*
X5474825Y-22950424D01*
X5474825Y-22950424D02*
X5493872Y-22940900D01*
X5493872Y-22940900D02*
X5522444Y-22940900D01*
X5522444Y-22940900D02*
X5541491Y-22950424D01*
X5541491Y-22950424D02*
X5551015Y-22969472D01*
X5551015Y-22969472D02*
X5551015Y-23074234D01*
X5941491Y-22864710D02*
X5770063Y-23121853D01*
X6198634Y-22874234D02*
X6217682Y-22874234D01*
X6217682Y-22874234D02*
X6236729Y-22883758D01*
X6236729Y-22883758D02*
X6246253Y-22893281D01*
X6246253Y-22893281D02*
X6255777Y-22912329D01*
X6255777Y-22912329D02*
X6265301Y-22950424D01*
X6265301Y-22950424D02*
X6265301Y-22998043D01*
X6265301Y-22998043D02*
X6255777Y-23036138D01*
X6255777Y-23036138D02*
X6246253Y-23055186D01*
X6246253Y-23055186D02*
X6236729Y-23064710D01*
X6236729Y-23064710D02*
X6217682Y-23074234D01*
X6217682Y-23074234D02*
X6198634Y-23074234D01*
X6198634Y-23074234D02*
X6179586Y-23064710D01*
X6179586Y-23064710D02*
X6170063Y-23055186D01*
X6170063Y-23055186D02*
X6160539Y-23036138D01*
X6160539Y-23036138D02*
X6151015Y-22998043D01*
X6151015Y-22998043D02*
X6151015Y-22950424D01*
X6151015Y-22950424D02*
X6160539Y-22912329D01*
X6160539Y-22912329D02*
X6170063Y-22893281D01*
X6170063Y-22893281D02*
X6179586Y-22883758D01*
X6179586Y-22883758D02*
X6198634Y-22874234D01*
X6351015Y-23055186D02*
X6360539Y-23064710D01*
X6360539Y-23064710D02*
X6351015Y-23074234D01*
X6351015Y-23074234D02*
X6341491Y-23064710D01*
X6341491Y-23064710D02*
X6351015Y-23055186D01*
X6351015Y-23055186D02*
X6351015Y-23074234D01*
X6551015Y-23074234D02*
X6436729Y-23074234D01*
X6493872Y-23074234D02*
X6493872Y-22874234D01*
X6493872Y-22874234D02*
X6474825Y-22902805D01*
X6474825Y-22902805D02*
X6455777Y-22921853D01*
X6455777Y-22921853D02*
X6436729Y-22931377D01*
X6627206Y-22893281D02*
X6636729Y-22883758D01*
X6636729Y-22883758D02*
X6655777Y-22874234D01*
X6655777Y-22874234D02*
X6703396Y-22874234D01*
X6703396Y-22874234D02*
X6722444Y-22883758D01*
X6722444Y-22883758D02*
X6731967Y-22893281D01*
X6731967Y-22893281D02*
X6741491Y-22912329D01*
X6741491Y-22912329D02*
X6741491Y-22931377D01*
X6741491Y-22931377D02*
X6731967Y-22959948D01*
X6731967Y-22959948D02*
X6617682Y-23074234D01*
X6617682Y-23074234D02*
X6741491Y-23074234D01*
X6865301Y-22874234D02*
X6884348Y-22874234D01*
X6884348Y-22874234D02*
X6903396Y-22883758D01*
X6903396Y-22883758D02*
X6912920Y-22893281D01*
X6912920Y-22893281D02*
X6922444Y-22912329D01*
X6922444Y-22912329D02*
X6931967Y-22950424D01*
X6931967Y-22950424D02*
X6931967Y-22998043D01*
X6931967Y-22998043D02*
X6922444Y-23036138D01*
X6922444Y-23036138D02*
X6912920Y-23055186D01*
X6912920Y-23055186D02*
X6903396Y-23064710D01*
X6903396Y-23064710D02*
X6884348Y-23074234D01*
X6884348Y-23074234D02*
X6865301Y-23074234D01*
X6865301Y-23074234D02*
X6846253Y-23064710D01*
X6846253Y-23064710D02*
X6836729Y-23055186D01*
X6836729Y-23055186D02*
X6827206Y-23036138D01*
X6827206Y-23036138D02*
X6817682Y-22998043D01*
X6817682Y-22998043D02*
X6817682Y-22950424D01*
X6817682Y-22950424D02*
X6827206Y-22912329D01*
X6827206Y-22912329D02*
X6836729Y-22893281D01*
X6836729Y-22893281D02*
X6846253Y-22883758D01*
X6846253Y-22883758D02*
X6865301Y-22874234D01*
X7122444Y-23074234D02*
X7008158Y-23074234D01*
X7065301Y-23074234D02*
X7065301Y-22874234D01*
X7065301Y-22874234D02*
X7046253Y-22902805D01*
X7046253Y-22902805D02*
X7027206Y-22921853D01*
X7027206Y-22921853D02*
X7008158Y-22931377D01*
X7198634Y-22874234D02*
X7198634Y-22912329D01*
X7274825Y-22874234D02*
X7274825Y-22912329D01*
X7570063Y-23150424D02*
X7560539Y-23140900D01*
X7560539Y-23140900D02*
X7541491Y-23112329D01*
X7541491Y-23112329D02*
X7531968Y-23093281D01*
X7531968Y-23093281D02*
X7522444Y-23064710D01*
X7522444Y-23064710D02*
X7512920Y-23017091D01*
X7512920Y-23017091D02*
X7512920Y-22978996D01*
X7512920Y-22978996D02*
X7522444Y-22931377D01*
X7522444Y-22931377D02*
X7531968Y-22902805D01*
X7531968Y-22902805D02*
X7541491Y-22883758D01*
X7541491Y-22883758D02*
X7560539Y-22855186D01*
X7560539Y-22855186D02*
X7570063Y-22845662D01*
X7751015Y-23074234D02*
X7636729Y-23074234D01*
X7693872Y-23074234D02*
X7693872Y-22874234D01*
X7693872Y-22874234D02*
X7674825Y-22902805D01*
X7674825Y-22902805D02*
X7655777Y-22921853D01*
X7655777Y-22921853D02*
X7636729Y-22931377D01*
X7922444Y-22874234D02*
X7884348Y-22874234D01*
X7884348Y-22874234D02*
X7865301Y-22883758D01*
X7865301Y-22883758D02*
X7855777Y-22893281D01*
X7855777Y-22893281D02*
X7836729Y-22921853D01*
X7836729Y-22921853D02*
X7827206Y-22959948D01*
X7827206Y-22959948D02*
X7827206Y-23036138D01*
X7827206Y-23036138D02*
X7836729Y-23055186D01*
X7836729Y-23055186D02*
X7846253Y-23064710D01*
X7846253Y-23064710D02*
X7865301Y-23074234D01*
X7865301Y-23074234D02*
X7903396Y-23074234D01*
X7903396Y-23074234D02*
X7922444Y-23064710D01*
X7922444Y-23064710D02*
X7931968Y-23055186D01*
X7931968Y-23055186D02*
X7941491Y-23036138D01*
X7941491Y-23036138D02*
X7941491Y-22988519D01*
X7941491Y-22988519D02*
X7931968Y-22969472D01*
X7931968Y-22969472D02*
X7922444Y-22959948D01*
X7922444Y-22959948D02*
X7903396Y-22950424D01*
X7903396Y-22950424D02*
X7865301Y-22950424D01*
X7865301Y-22950424D02*
X7846253Y-22959948D01*
X7846253Y-22959948D02*
X7836729Y-22969472D01*
X7836729Y-22969472D02*
X7827206Y-22988519D01*
X8112920Y-22940900D02*
X8112920Y-23074234D01*
X8065301Y-22864710D02*
X8017682Y-23007567D01*
X8017682Y-23007567D02*
X8141491Y-23007567D01*
X8370063Y-23074234D02*
X8370063Y-22874234D01*
X8455777Y-23074234D02*
X8455777Y-22969472D01*
X8455777Y-22969472D02*
X8446253Y-22950424D01*
X8446253Y-22950424D02*
X8427206Y-22940900D01*
X8427206Y-22940900D02*
X8398634Y-22940900D01*
X8398634Y-22940900D02*
X8379587Y-22950424D01*
X8379587Y-22950424D02*
X8370063Y-22959948D01*
X8579587Y-23074234D02*
X8560539Y-23064710D01*
X8560539Y-23064710D02*
X8551015Y-23055186D01*
X8551015Y-23055186D02*
X8541492Y-23036138D01*
X8541492Y-23036138D02*
X8541492Y-22978996D01*
X8541492Y-22978996D02*
X8551015Y-22959948D01*
X8551015Y-22959948D02*
X8560539Y-22950424D01*
X8560539Y-22950424D02*
X8579587Y-22940900D01*
X8579587Y-22940900D02*
X8608158Y-22940900D01*
X8608158Y-22940900D02*
X8627206Y-22950424D01*
X8627206Y-22950424D02*
X8636730Y-22959948D01*
X8636730Y-22959948D02*
X8646253Y-22978996D01*
X8646253Y-22978996D02*
X8646253Y-23036138D01*
X8646253Y-23036138D02*
X8636730Y-23055186D01*
X8636730Y-23055186D02*
X8627206Y-23064710D01*
X8627206Y-23064710D02*
X8608158Y-23074234D01*
X8608158Y-23074234D02*
X8579587Y-23074234D01*
X8760539Y-23074234D02*
X8741492Y-23064710D01*
X8741492Y-23064710D02*
X8731968Y-23045662D01*
X8731968Y-23045662D02*
X8731968Y-22874234D01*
X8912920Y-23064710D02*
X8893873Y-23074234D01*
X8893873Y-23074234D02*
X8855777Y-23074234D01*
X8855777Y-23074234D02*
X8836730Y-23064710D01*
X8836730Y-23064710D02*
X8827206Y-23045662D01*
X8827206Y-23045662D02*
X8827206Y-22969472D01*
X8827206Y-22969472D02*
X8836730Y-22950424D01*
X8836730Y-22950424D02*
X8855777Y-22940900D01*
X8855777Y-22940900D02*
X8893873Y-22940900D01*
X8893873Y-22940900D02*
X8912920Y-22950424D01*
X8912920Y-22950424D02*
X8922444Y-22969472D01*
X8922444Y-22969472D02*
X8922444Y-22988519D01*
X8922444Y-22988519D02*
X8827206Y-23007567D01*
X8998634Y-23064710D02*
X9017682Y-23074234D01*
X9017682Y-23074234D02*
X9055777Y-23074234D01*
X9055777Y-23074234D02*
X9074825Y-23064710D01*
X9074825Y-23064710D02*
X9084349Y-23045662D01*
X9084349Y-23045662D02*
X9084349Y-23036138D01*
X9084349Y-23036138D02*
X9074825Y-23017091D01*
X9074825Y-23017091D02*
X9055777Y-23007567D01*
X9055777Y-23007567D02*
X9027206Y-23007567D01*
X9027206Y-23007567D02*
X9008158Y-22998043D01*
X9008158Y-22998043D02*
X8998634Y-22978996D01*
X8998634Y-22978996D02*
X8998634Y-22969472D01*
X8998634Y-22969472D02*
X9008158Y-22950424D01*
X9008158Y-22950424D02*
X9027206Y-22940900D01*
X9027206Y-22940900D02*
X9055777Y-22940900D01*
X9055777Y-22940900D02*
X9074825Y-22950424D01*
X9151015Y-23150424D02*
X9160539Y-23140900D01*
X9160539Y-23140900D02*
X9179587Y-23112329D01*
X9179587Y-23112329D02*
X9189111Y-23093281D01*
X9189111Y-23093281D02*
X9198634Y-23064710D01*
X9198634Y-23064710D02*
X9208158Y-23017091D01*
X9208158Y-23017091D02*
X9208158Y-22978996D01*
X9208158Y-22978996D02*
X9198634Y-22931377D01*
X9198634Y-22931377D02*
X9189111Y-22902805D01*
X9189111Y-22902805D02*
X9179587Y-22883758D01*
X9179587Y-22883758D02*
X9160539Y-22855186D01*
X9160539Y-22855186D02*
X9151015Y-22845662D01*
X9512920Y-23150424D02*
X9503396Y-23140900D01*
X9503396Y-23140900D02*
X9484349Y-23112329D01*
X9484349Y-23112329D02*
X9474825Y-23093281D01*
X9474825Y-23093281D02*
X9465301Y-23064710D01*
X9465301Y-23064710D02*
X9455777Y-23017091D01*
X9455777Y-23017091D02*
X9455777Y-22978996D01*
X9455777Y-22978996D02*
X9465301Y-22931377D01*
X9465301Y-22931377D02*
X9474825Y-22902805D01*
X9474825Y-22902805D02*
X9484349Y-22883758D01*
X9484349Y-22883758D02*
X9503396Y-22855186D01*
X9503396Y-22855186D02*
X9512920Y-22845662D01*
X9589111Y-22940900D02*
X9589111Y-23074234D01*
X9589111Y-22959948D02*
X9598634Y-22950424D01*
X9598634Y-22950424D02*
X9617682Y-22940900D01*
X9617682Y-22940900D02*
X9646254Y-22940900D01*
X9646254Y-22940900D02*
X9665301Y-22950424D01*
X9665301Y-22950424D02*
X9674825Y-22969472D01*
X9674825Y-22969472D02*
X9674825Y-23074234D01*
X9798634Y-23074234D02*
X9779587Y-23064710D01*
X9779587Y-23064710D02*
X9770063Y-23055186D01*
X9770063Y-23055186D02*
X9760539Y-23036138D01*
X9760539Y-23036138D02*
X9760539Y-22978996D01*
X9760539Y-22978996D02*
X9770063Y-22959948D01*
X9770063Y-22959948D02*
X9779587Y-22950424D01*
X9779587Y-22950424D02*
X9798634Y-22940900D01*
X9798634Y-22940900D02*
X9827206Y-22940900D01*
X9827206Y-22940900D02*
X9846254Y-22950424D01*
X9846254Y-22950424D02*
X9855777Y-22959948D01*
X9855777Y-22959948D02*
X9865301Y-22978996D01*
X9865301Y-22978996D02*
X9865301Y-23036138D01*
X9865301Y-23036138D02*
X9855777Y-23055186D01*
X9855777Y-23055186D02*
X9846254Y-23064710D01*
X9846254Y-23064710D02*
X9827206Y-23074234D01*
X9827206Y-23074234D02*
X9798634Y-23074234D01*
X9922444Y-22940900D02*
X9998634Y-22940900D01*
X9951015Y-22874234D02*
X9951015Y-23045662D01*
X9951015Y-23045662D02*
X9960539Y-23064710D01*
X9960539Y-23064710D02*
X9979587Y-23074234D01*
X9979587Y-23074234D02*
X9998634Y-23074234D01*
X10217682Y-22940900D02*
X10217682Y-23140900D01*
X10217682Y-22950424D02*
X10236730Y-22940900D01*
X10236730Y-22940900D02*
X10274825Y-22940900D01*
X10274825Y-22940900D02*
X10293873Y-22950424D01*
X10293873Y-22950424D02*
X10303396Y-22959948D01*
X10303396Y-22959948D02*
X10312920Y-22978996D01*
X10312920Y-22978996D02*
X10312920Y-23036138D01*
X10312920Y-23036138D02*
X10303396Y-23055186D01*
X10303396Y-23055186D02*
X10293873Y-23064710D01*
X10293873Y-23064710D02*
X10274825Y-23074234D01*
X10274825Y-23074234D02*
X10236730Y-23074234D01*
X10236730Y-23074234D02*
X10217682Y-23064710D01*
X10427206Y-23074234D02*
X10408158Y-23064710D01*
X10408158Y-23064710D02*
X10398635Y-23045662D01*
X10398635Y-23045662D02*
X10398635Y-22874234D01*
X10589111Y-23074234D02*
X10589111Y-22969472D01*
X10589111Y-22969472D02*
X10579587Y-22950424D01*
X10579587Y-22950424D02*
X10560539Y-22940900D01*
X10560539Y-22940900D02*
X10522444Y-22940900D01*
X10522444Y-22940900D02*
X10503396Y-22950424D01*
X10589111Y-23064710D02*
X10570063Y-23074234D01*
X10570063Y-23074234D02*
X10522444Y-23074234D01*
X10522444Y-23074234D02*
X10503396Y-23064710D01*
X10503396Y-23064710D02*
X10493873Y-23045662D01*
X10493873Y-23045662D02*
X10493873Y-23026615D01*
X10493873Y-23026615D02*
X10503396Y-23007567D01*
X10503396Y-23007567D02*
X10522444Y-22998043D01*
X10522444Y-22998043D02*
X10570063Y-22998043D01*
X10570063Y-22998043D02*
X10589111Y-22988519D01*
X10655777Y-22940900D02*
X10731968Y-22940900D01*
X10684349Y-22874234D02*
X10684349Y-23045662D01*
X10684349Y-23045662D02*
X10693873Y-23064710D01*
X10693873Y-23064710D02*
X10712920Y-23074234D01*
X10712920Y-23074234D02*
X10731968Y-23074234D01*
X10874825Y-23064710D02*
X10855777Y-23074234D01*
X10855777Y-23074234D02*
X10817682Y-23074234D01*
X10817682Y-23074234D02*
X10798635Y-23064710D01*
X10798635Y-23064710D02*
X10789111Y-23045662D01*
X10789111Y-23045662D02*
X10789111Y-22969472D01*
X10789111Y-22969472D02*
X10798635Y-22950424D01*
X10798635Y-22950424D02*
X10817682Y-22940900D01*
X10817682Y-22940900D02*
X10855777Y-22940900D01*
X10855777Y-22940900D02*
X10874825Y-22950424D01*
X10874825Y-22950424D02*
X10884349Y-22969472D01*
X10884349Y-22969472D02*
X10884349Y-22988519D01*
X10884349Y-22988519D02*
X10789111Y-23007567D01*
X11055777Y-23074234D02*
X11055777Y-22874234D01*
X11055777Y-23064710D02*
X11036730Y-23074234D01*
X11036730Y-23074234D02*
X10998635Y-23074234D01*
X10998635Y-23074234D02*
X10979587Y-23064710D01*
X10979587Y-23064710D02*
X10970063Y-23055186D01*
X10970063Y-23055186D02*
X10960539Y-23036138D01*
X10960539Y-23036138D02*
X10960539Y-22978996D01*
X10960539Y-22978996D02*
X10970063Y-22959948D01*
X10970063Y-22959948D02*
X10979587Y-22950424D01*
X10979587Y-22950424D02*
X10998635Y-22940900D01*
X10998635Y-22940900D02*
X11036730Y-22940900D01*
X11036730Y-22940900D02*
X11055777Y-22950424D01*
X11131968Y-23150424D02*
X11141492Y-23140900D01*
X11141492Y-23140900D02*
X11160539Y-23112329D01*
X11160539Y-23112329D02*
X11170063Y-23093281D01*
X11170063Y-23093281D02*
X11179587Y-23064710D01*
X11179587Y-23064710D02*
X11189111Y-23017091D01*
X11189111Y-23017091D02*
X11189111Y-22978996D01*
X11189111Y-22978996D02*
X11179587Y-22931377D01*
X11179587Y-22931377D02*
X11170063Y-22902805D01*
X11170063Y-22902805D02*
X11160539Y-22883758D01*
X11160539Y-22883758D02*
X11141492Y-22855186D01*
X11141492Y-22855186D02*
X11131968Y-22845662D01*
X3895000Y-23402750D02*
X3995000Y-23302750D01*
X3895000Y-23202750D01*
X3795000Y-23302750D01*
X3895000Y-23402750D01*
X4236729Y-23194234D02*
X4360539Y-23194234D01*
X4360539Y-23194234D02*
X4293872Y-23270424D01*
X4293872Y-23270424D02*
X4322444Y-23270424D01*
X4322444Y-23270424D02*
X4341491Y-23279948D01*
X4341491Y-23279948D02*
X4351015Y-23289472D01*
X4351015Y-23289472D02*
X4360539Y-23308519D01*
X4360539Y-23308519D02*
X4360539Y-23356138D01*
X4360539Y-23356138D02*
X4351015Y-23375186D01*
X4351015Y-23375186D02*
X4341491Y-23384710D01*
X4341491Y-23384710D02*
X4322444Y-23394234D01*
X4322444Y-23394234D02*
X4265301Y-23394234D01*
X4265301Y-23394234D02*
X4246253Y-23384710D01*
X4246253Y-23384710D02*
X4236729Y-23375186D01*
X4446253Y-23375186D02*
X4455777Y-23384710D01*
X4455777Y-23384710D02*
X4446253Y-23394234D01*
X4446253Y-23394234D02*
X4436729Y-23384710D01*
X4436729Y-23384710D02*
X4446253Y-23375186D01*
X4446253Y-23375186D02*
X4446253Y-23394234D01*
X4551015Y-23394234D02*
X4589110Y-23394234D01*
X4589110Y-23394234D02*
X4608158Y-23384710D01*
X4608158Y-23384710D02*
X4617682Y-23375186D01*
X4617682Y-23375186D02*
X4636729Y-23346615D01*
X4636729Y-23346615D02*
X4646253Y-23308519D01*
X4646253Y-23308519D02*
X4646253Y-23232329D01*
X4646253Y-23232329D02*
X4636729Y-23213281D01*
X4636729Y-23213281D02*
X4627205Y-23203758D01*
X4627205Y-23203758D02*
X4608158Y-23194234D01*
X4608158Y-23194234D02*
X4570063Y-23194234D01*
X4570063Y-23194234D02*
X4551015Y-23203758D01*
X4551015Y-23203758D02*
X4541491Y-23213281D01*
X4541491Y-23213281D02*
X4531967Y-23232329D01*
X4531967Y-23232329D02*
X4531967Y-23279948D01*
X4531967Y-23279948D02*
X4541491Y-23298996D01*
X4541491Y-23298996D02*
X4551015Y-23308519D01*
X4551015Y-23308519D02*
X4570063Y-23318043D01*
X4570063Y-23318043D02*
X4608158Y-23318043D01*
X4608158Y-23318043D02*
X4627205Y-23308519D01*
X4627205Y-23308519D02*
X4636729Y-23298996D01*
X4636729Y-23298996D02*
X4646253Y-23279948D01*
X4760539Y-23279948D02*
X4741491Y-23270424D01*
X4741491Y-23270424D02*
X4731967Y-23260900D01*
X4731967Y-23260900D02*
X4722444Y-23241853D01*
X4722444Y-23241853D02*
X4722444Y-23232329D01*
X4722444Y-23232329D02*
X4731967Y-23213281D01*
X4731967Y-23213281D02*
X4741491Y-23203758D01*
X4741491Y-23203758D02*
X4760539Y-23194234D01*
X4760539Y-23194234D02*
X4798634Y-23194234D01*
X4798634Y-23194234D02*
X4817682Y-23203758D01*
X4817682Y-23203758D02*
X4827205Y-23213281D01*
X4827205Y-23213281D02*
X4836729Y-23232329D01*
X4836729Y-23232329D02*
X4836729Y-23241853D01*
X4836729Y-23241853D02*
X4827205Y-23260900D01*
X4827205Y-23260900D02*
X4817682Y-23270424D01*
X4817682Y-23270424D02*
X4798634Y-23279948D01*
X4798634Y-23279948D02*
X4760539Y-23279948D01*
X4760539Y-23279948D02*
X4741491Y-23289472D01*
X4741491Y-23289472D02*
X4731967Y-23298996D01*
X4731967Y-23298996D02*
X4722444Y-23318043D01*
X4722444Y-23318043D02*
X4722444Y-23356138D01*
X4722444Y-23356138D02*
X4731967Y-23375186D01*
X4731967Y-23375186D02*
X4741491Y-23384710D01*
X4741491Y-23384710D02*
X4760539Y-23394234D01*
X4760539Y-23394234D02*
X4798634Y-23394234D01*
X4798634Y-23394234D02*
X4817682Y-23384710D01*
X4817682Y-23384710D02*
X4827205Y-23375186D01*
X4827205Y-23375186D02*
X4836729Y-23356138D01*
X4836729Y-23356138D02*
X4836729Y-23318043D01*
X4836729Y-23318043D02*
X4827205Y-23298996D01*
X4827205Y-23298996D02*
X4817682Y-23289472D01*
X4817682Y-23289472D02*
X4798634Y-23279948D01*
X4951015Y-23279948D02*
X4931967Y-23270424D01*
X4931967Y-23270424D02*
X4922444Y-23260900D01*
X4922444Y-23260900D02*
X4912920Y-23241853D01*
X4912920Y-23241853D02*
X4912920Y-23232329D01*
X4912920Y-23232329D02*
X4922444Y-23213281D01*
X4922444Y-23213281D02*
X4931967Y-23203758D01*
X4931967Y-23203758D02*
X4951015Y-23194234D01*
X4951015Y-23194234D02*
X4989110Y-23194234D01*
X4989110Y-23194234D02*
X5008158Y-23203758D01*
X5008158Y-23203758D02*
X5017682Y-23213281D01*
X5017682Y-23213281D02*
X5027205Y-23232329D01*
X5027205Y-23232329D02*
X5027205Y-23241853D01*
X5027205Y-23241853D02*
X5017682Y-23260900D01*
X5017682Y-23260900D02*
X5008158Y-23270424D01*
X5008158Y-23270424D02*
X4989110Y-23279948D01*
X4989110Y-23279948D02*
X4951015Y-23279948D01*
X4951015Y-23279948D02*
X4931967Y-23289472D01*
X4931967Y-23289472D02*
X4922444Y-23298996D01*
X4922444Y-23298996D02*
X4912920Y-23318043D01*
X4912920Y-23318043D02*
X4912920Y-23356138D01*
X4912920Y-23356138D02*
X4922444Y-23375186D01*
X4922444Y-23375186D02*
X4931967Y-23384710D01*
X4931967Y-23384710D02*
X4951015Y-23394234D01*
X4951015Y-23394234D02*
X4989110Y-23394234D01*
X4989110Y-23394234D02*
X5008158Y-23384710D01*
X5008158Y-23384710D02*
X5017682Y-23375186D01*
X5017682Y-23375186D02*
X5027205Y-23356138D01*
X5027205Y-23356138D02*
X5027205Y-23318043D01*
X5027205Y-23318043D02*
X5017682Y-23298996D01*
X5017682Y-23298996D02*
X5008158Y-23289472D01*
X5008158Y-23289472D02*
X4989110Y-23279948D01*
X5112920Y-23394234D02*
X5112920Y-23260900D01*
X5112920Y-23279948D02*
X5122444Y-23270424D01*
X5122444Y-23270424D02*
X5141491Y-23260900D01*
X5141491Y-23260900D02*
X5170063Y-23260900D01*
X5170063Y-23260900D02*
X5189110Y-23270424D01*
X5189110Y-23270424D02*
X5198634Y-23289472D01*
X5198634Y-23289472D02*
X5198634Y-23394234D01*
X5198634Y-23289472D02*
X5208158Y-23270424D01*
X5208158Y-23270424D02*
X5227205Y-23260900D01*
X5227205Y-23260900D02*
X5255777Y-23260900D01*
X5255777Y-23260900D02*
X5274825Y-23270424D01*
X5274825Y-23270424D02*
X5284348Y-23289472D01*
X5284348Y-23289472D02*
X5284348Y-23394234D01*
X5379586Y-23394234D02*
X5379586Y-23260900D01*
X5379586Y-23279948D02*
X5389110Y-23270424D01*
X5389110Y-23270424D02*
X5408158Y-23260900D01*
X5408158Y-23260900D02*
X5436729Y-23260900D01*
X5436729Y-23260900D02*
X5455777Y-23270424D01*
X5455777Y-23270424D02*
X5465301Y-23289472D01*
X5465301Y-23289472D02*
X5465301Y-23394234D01*
X5465301Y-23289472D02*
X5474825Y-23270424D01*
X5474825Y-23270424D02*
X5493872Y-23260900D01*
X5493872Y-23260900D02*
X5522444Y-23260900D01*
X5522444Y-23260900D02*
X5541491Y-23270424D01*
X5541491Y-23270424D02*
X5551015Y-23289472D01*
X5551015Y-23289472D02*
X5551015Y-23394234D01*
X5941491Y-23184710D02*
X5770063Y-23441853D01*
X6198634Y-23194234D02*
X6217682Y-23194234D01*
X6217682Y-23194234D02*
X6236729Y-23203758D01*
X6236729Y-23203758D02*
X6246253Y-23213281D01*
X6246253Y-23213281D02*
X6255777Y-23232329D01*
X6255777Y-23232329D02*
X6265301Y-23270424D01*
X6265301Y-23270424D02*
X6265301Y-23318043D01*
X6265301Y-23318043D02*
X6255777Y-23356138D01*
X6255777Y-23356138D02*
X6246253Y-23375186D01*
X6246253Y-23375186D02*
X6236729Y-23384710D01*
X6236729Y-23384710D02*
X6217682Y-23394234D01*
X6217682Y-23394234D02*
X6198634Y-23394234D01*
X6198634Y-23394234D02*
X6179586Y-23384710D01*
X6179586Y-23384710D02*
X6170063Y-23375186D01*
X6170063Y-23375186D02*
X6160539Y-23356138D01*
X6160539Y-23356138D02*
X6151015Y-23318043D01*
X6151015Y-23318043D02*
X6151015Y-23270424D01*
X6151015Y-23270424D02*
X6160539Y-23232329D01*
X6160539Y-23232329D02*
X6170063Y-23213281D01*
X6170063Y-23213281D02*
X6179586Y-23203758D01*
X6179586Y-23203758D02*
X6198634Y-23194234D01*
X6351015Y-23375186D02*
X6360539Y-23384710D01*
X6360539Y-23384710D02*
X6351015Y-23394234D01*
X6351015Y-23394234D02*
X6341491Y-23384710D01*
X6341491Y-23384710D02*
X6351015Y-23375186D01*
X6351015Y-23375186D02*
X6351015Y-23394234D01*
X6551015Y-23394234D02*
X6436729Y-23394234D01*
X6493872Y-23394234D02*
X6493872Y-23194234D01*
X6493872Y-23194234D02*
X6474825Y-23222805D01*
X6474825Y-23222805D02*
X6455777Y-23241853D01*
X6455777Y-23241853D02*
X6436729Y-23251377D01*
X6731967Y-23194234D02*
X6636729Y-23194234D01*
X6636729Y-23194234D02*
X6627206Y-23289472D01*
X6627206Y-23289472D02*
X6636729Y-23279948D01*
X6636729Y-23279948D02*
X6655777Y-23270424D01*
X6655777Y-23270424D02*
X6703396Y-23270424D01*
X6703396Y-23270424D02*
X6722444Y-23279948D01*
X6722444Y-23279948D02*
X6731967Y-23289472D01*
X6731967Y-23289472D02*
X6741491Y-23308519D01*
X6741491Y-23308519D02*
X6741491Y-23356138D01*
X6741491Y-23356138D02*
X6731967Y-23375186D01*
X6731967Y-23375186D02*
X6722444Y-23384710D01*
X6722444Y-23384710D02*
X6703396Y-23394234D01*
X6703396Y-23394234D02*
X6655777Y-23394234D01*
X6655777Y-23394234D02*
X6636729Y-23384710D01*
X6636729Y-23384710D02*
X6627206Y-23375186D01*
X6808158Y-23194234D02*
X6941491Y-23194234D01*
X6941491Y-23194234D02*
X6855777Y-23394234D01*
X7055777Y-23194234D02*
X7074825Y-23194234D01*
X7074825Y-23194234D02*
X7093872Y-23203758D01*
X7093872Y-23203758D02*
X7103396Y-23213281D01*
X7103396Y-23213281D02*
X7112920Y-23232329D01*
X7112920Y-23232329D02*
X7122444Y-23270424D01*
X7122444Y-23270424D02*
X7122444Y-23318043D01*
X7122444Y-23318043D02*
X7112920Y-23356138D01*
X7112920Y-23356138D02*
X7103396Y-23375186D01*
X7103396Y-23375186D02*
X7093872Y-23384710D01*
X7093872Y-23384710D02*
X7074825Y-23394234D01*
X7074825Y-23394234D02*
X7055777Y-23394234D01*
X7055777Y-23394234D02*
X7036729Y-23384710D01*
X7036729Y-23384710D02*
X7027206Y-23375186D01*
X7027206Y-23375186D02*
X7017682Y-23356138D01*
X7017682Y-23356138D02*
X7008158Y-23318043D01*
X7008158Y-23318043D02*
X7008158Y-23270424D01*
X7008158Y-23270424D02*
X7017682Y-23232329D01*
X7017682Y-23232329D02*
X7027206Y-23213281D01*
X7027206Y-23213281D02*
X7036729Y-23203758D01*
X7036729Y-23203758D02*
X7055777Y-23194234D01*
X7198634Y-23194234D02*
X7198634Y-23232329D01*
X7274825Y-23194234D02*
X7274825Y-23232329D01*
X7570063Y-23470424D02*
X7560539Y-23460900D01*
X7560539Y-23460900D02*
X7541491Y-23432329D01*
X7541491Y-23432329D02*
X7531968Y-23413281D01*
X7531968Y-23413281D02*
X7522444Y-23384710D01*
X7522444Y-23384710D02*
X7512920Y-23337091D01*
X7512920Y-23337091D02*
X7512920Y-23298996D01*
X7512920Y-23298996D02*
X7522444Y-23251377D01*
X7522444Y-23251377D02*
X7531968Y-23222805D01*
X7531968Y-23222805D02*
X7541491Y-23203758D01*
X7541491Y-23203758D02*
X7560539Y-23175186D01*
X7560539Y-23175186D02*
X7570063Y-23165662D01*
X7674825Y-23279948D02*
X7655777Y-23270424D01*
X7655777Y-23270424D02*
X7646253Y-23260900D01*
X7646253Y-23260900D02*
X7636729Y-23241853D01*
X7636729Y-23241853D02*
X7636729Y-23232329D01*
X7636729Y-23232329D02*
X7646253Y-23213281D01*
X7646253Y-23213281D02*
X7655777Y-23203758D01*
X7655777Y-23203758D02*
X7674825Y-23194234D01*
X7674825Y-23194234D02*
X7712920Y-23194234D01*
X7712920Y-23194234D02*
X7731968Y-23203758D01*
X7731968Y-23203758D02*
X7741491Y-23213281D01*
X7741491Y-23213281D02*
X7751015Y-23232329D01*
X7751015Y-23232329D02*
X7751015Y-23241853D01*
X7751015Y-23241853D02*
X7741491Y-23260900D01*
X7741491Y-23260900D02*
X7731968Y-23270424D01*
X7731968Y-23270424D02*
X7712920Y-23279948D01*
X7712920Y-23279948D02*
X7674825Y-23279948D01*
X7674825Y-23279948D02*
X7655777Y-23289472D01*
X7655777Y-23289472D02*
X7646253Y-23298996D01*
X7646253Y-23298996D02*
X7636729Y-23318043D01*
X7636729Y-23318043D02*
X7636729Y-23356138D01*
X7636729Y-23356138D02*
X7646253Y-23375186D01*
X7646253Y-23375186D02*
X7655777Y-23384710D01*
X7655777Y-23384710D02*
X7674825Y-23394234D01*
X7674825Y-23394234D02*
X7712920Y-23394234D01*
X7712920Y-23394234D02*
X7731968Y-23384710D01*
X7731968Y-23384710D02*
X7741491Y-23375186D01*
X7741491Y-23375186D02*
X7751015Y-23356138D01*
X7751015Y-23356138D02*
X7751015Y-23318043D01*
X7751015Y-23318043D02*
X7741491Y-23298996D01*
X7741491Y-23298996D02*
X7731968Y-23289472D01*
X7731968Y-23289472D02*
X7712920Y-23279948D01*
X7989110Y-23394234D02*
X7989110Y-23194234D01*
X8074825Y-23394234D02*
X8074825Y-23289472D01*
X8074825Y-23289472D02*
X8065301Y-23270424D01*
X8065301Y-23270424D02*
X8046253Y-23260900D01*
X8046253Y-23260900D02*
X8017682Y-23260900D01*
X8017682Y-23260900D02*
X7998634Y-23270424D01*
X7998634Y-23270424D02*
X7989110Y-23279948D01*
X8198634Y-23394234D02*
X8179587Y-23384710D01*
X8179587Y-23384710D02*
X8170063Y-23375186D01*
X8170063Y-23375186D02*
X8160539Y-23356138D01*
X8160539Y-23356138D02*
X8160539Y-23298996D01*
X8160539Y-23298996D02*
X8170063Y-23279948D01*
X8170063Y-23279948D02*
X8179587Y-23270424D01*
X8179587Y-23270424D02*
X8198634Y-23260900D01*
X8198634Y-23260900D02*
X8227206Y-23260900D01*
X8227206Y-23260900D02*
X8246253Y-23270424D01*
X8246253Y-23270424D02*
X8255777Y-23279948D01*
X8255777Y-23279948D02*
X8265301Y-23298996D01*
X8265301Y-23298996D02*
X8265301Y-23356138D01*
X8265301Y-23356138D02*
X8255777Y-23375186D01*
X8255777Y-23375186D02*
X8246253Y-23384710D01*
X8246253Y-23384710D02*
X8227206Y-23394234D01*
X8227206Y-23394234D02*
X8198634Y-23394234D01*
X8379587Y-23394234D02*
X8360539Y-23384710D01*
X8360539Y-23384710D02*
X8351015Y-23365662D01*
X8351015Y-23365662D02*
X8351015Y-23194234D01*
X8531968Y-23384710D02*
X8512920Y-23394234D01*
X8512920Y-23394234D02*
X8474825Y-23394234D01*
X8474825Y-23394234D02*
X8455777Y-23384710D01*
X8455777Y-23384710D02*
X8446253Y-23365662D01*
X8446253Y-23365662D02*
X8446253Y-23289472D01*
X8446253Y-23289472D02*
X8455777Y-23270424D01*
X8455777Y-23270424D02*
X8474825Y-23260900D01*
X8474825Y-23260900D02*
X8512920Y-23260900D01*
X8512920Y-23260900D02*
X8531968Y-23270424D01*
X8531968Y-23270424D02*
X8541492Y-23289472D01*
X8541492Y-23289472D02*
X8541492Y-23308519D01*
X8541492Y-23308519D02*
X8446253Y-23327567D01*
X8617682Y-23384710D02*
X8636730Y-23394234D01*
X8636730Y-23394234D02*
X8674825Y-23394234D01*
X8674825Y-23394234D02*
X8693873Y-23384710D01*
X8693873Y-23384710D02*
X8703396Y-23365662D01*
X8703396Y-23365662D02*
X8703396Y-23356138D01*
X8703396Y-23356138D02*
X8693873Y-23337091D01*
X8693873Y-23337091D02*
X8674825Y-23327567D01*
X8674825Y-23327567D02*
X8646253Y-23327567D01*
X8646253Y-23327567D02*
X8627206Y-23318043D01*
X8627206Y-23318043D02*
X8617682Y-23298996D01*
X8617682Y-23298996D02*
X8617682Y-23289472D01*
X8617682Y-23289472D02*
X8627206Y-23270424D01*
X8627206Y-23270424D02*
X8646253Y-23260900D01*
X8646253Y-23260900D02*
X8674825Y-23260900D01*
X8674825Y-23260900D02*
X8693873Y-23270424D01*
X8770063Y-23470424D02*
X8779587Y-23460900D01*
X8779587Y-23460900D02*
X8798634Y-23432329D01*
X8798634Y-23432329D02*
X8808158Y-23413281D01*
X8808158Y-23413281D02*
X8817682Y-23384710D01*
X8817682Y-23384710D02*
X8827206Y-23337091D01*
X8827206Y-23337091D02*
X8827206Y-23298996D01*
X8827206Y-23298996D02*
X8817682Y-23251377D01*
X8817682Y-23251377D02*
X8808158Y-23222805D01*
X8808158Y-23222805D02*
X8798634Y-23203758D01*
X8798634Y-23203758D02*
X8779587Y-23175186D01*
X8779587Y-23175186D02*
X8770063Y-23165662D01*
X9131968Y-23470424D02*
X9122444Y-23460900D01*
X9122444Y-23460900D02*
X9103396Y-23432329D01*
X9103396Y-23432329D02*
X9093873Y-23413281D01*
X9093873Y-23413281D02*
X9084349Y-23384710D01*
X9084349Y-23384710D02*
X9074825Y-23337091D01*
X9074825Y-23337091D02*
X9074825Y-23298996D01*
X9074825Y-23298996D02*
X9084349Y-23251377D01*
X9084349Y-23251377D02*
X9093873Y-23222805D01*
X9093873Y-23222805D02*
X9103396Y-23203758D01*
X9103396Y-23203758D02*
X9122444Y-23175186D01*
X9122444Y-23175186D02*
X9131968Y-23165662D01*
X9208158Y-23260900D02*
X9208158Y-23394234D01*
X9208158Y-23279948D02*
X9217682Y-23270424D01*
X9217682Y-23270424D02*
X9236730Y-23260900D01*
X9236730Y-23260900D02*
X9265301Y-23260900D01*
X9265301Y-23260900D02*
X9284349Y-23270424D01*
X9284349Y-23270424D02*
X9293873Y-23289472D01*
X9293873Y-23289472D02*
X9293873Y-23394234D01*
X9417682Y-23394234D02*
X9398634Y-23384710D01*
X9398634Y-23384710D02*
X9389111Y-23375186D01*
X9389111Y-23375186D02*
X9379587Y-23356138D01*
X9379587Y-23356138D02*
X9379587Y-23298996D01*
X9379587Y-23298996D02*
X9389111Y-23279948D01*
X9389111Y-23279948D02*
X9398634Y-23270424D01*
X9398634Y-23270424D02*
X9417682Y-23260900D01*
X9417682Y-23260900D02*
X9446254Y-23260900D01*
X9446254Y-23260900D02*
X9465301Y-23270424D01*
X9465301Y-23270424D02*
X9474825Y-23279948D01*
X9474825Y-23279948D02*
X9484349Y-23298996D01*
X9484349Y-23298996D02*
X9484349Y-23356138D01*
X9484349Y-23356138D02*
X9474825Y-23375186D01*
X9474825Y-23375186D02*
X9465301Y-23384710D01*
X9465301Y-23384710D02*
X9446254Y-23394234D01*
X9446254Y-23394234D02*
X9417682Y-23394234D01*
X9541492Y-23260900D02*
X9617682Y-23260900D01*
X9570063Y-23194234D02*
X9570063Y-23365662D01*
X9570063Y-23365662D02*
X9579587Y-23384710D01*
X9579587Y-23384710D02*
X9598634Y-23394234D01*
X9598634Y-23394234D02*
X9617682Y-23394234D01*
X9836730Y-23260900D02*
X9836730Y-23460900D01*
X9836730Y-23270424D02*
X9855777Y-23260900D01*
X9855777Y-23260900D02*
X9893873Y-23260900D01*
X9893873Y-23260900D02*
X9912920Y-23270424D01*
X9912920Y-23270424D02*
X9922444Y-23279948D01*
X9922444Y-23279948D02*
X9931968Y-23298996D01*
X9931968Y-23298996D02*
X9931968Y-23356138D01*
X9931968Y-23356138D02*
X9922444Y-23375186D01*
X9922444Y-23375186D02*
X9912920Y-23384710D01*
X9912920Y-23384710D02*
X9893873Y-23394234D01*
X9893873Y-23394234D02*
X9855777Y-23394234D01*
X9855777Y-23394234D02*
X9836730Y-23384710D01*
X10046254Y-23394234D02*
X10027206Y-23384710D01*
X10027206Y-23384710D02*
X10017682Y-23365662D01*
X10017682Y-23365662D02*
X10017682Y-23194234D01*
X10208158Y-23394234D02*
X10208158Y-23289472D01*
X10208158Y-23289472D02*
X10198635Y-23270424D01*
X10198635Y-23270424D02*
X10179587Y-23260900D01*
X10179587Y-23260900D02*
X10141492Y-23260900D01*
X10141492Y-23260900D02*
X10122444Y-23270424D01*
X10208158Y-23384710D02*
X10189111Y-23394234D01*
X10189111Y-23394234D02*
X10141492Y-23394234D01*
X10141492Y-23394234D02*
X10122444Y-23384710D01*
X10122444Y-23384710D02*
X10112920Y-23365662D01*
X10112920Y-23365662D02*
X10112920Y-23346615D01*
X10112920Y-23346615D02*
X10122444Y-23327567D01*
X10122444Y-23327567D02*
X10141492Y-23318043D01*
X10141492Y-23318043D02*
X10189111Y-23318043D01*
X10189111Y-23318043D02*
X10208158Y-23308519D01*
X10274825Y-23260900D02*
X10351015Y-23260900D01*
X10303396Y-23194234D02*
X10303396Y-23365662D01*
X10303396Y-23365662D02*
X10312920Y-23384710D01*
X10312920Y-23384710D02*
X10331968Y-23394234D01*
X10331968Y-23394234D02*
X10351015Y-23394234D01*
X10493873Y-23384710D02*
X10474825Y-23394234D01*
X10474825Y-23394234D02*
X10436730Y-23394234D01*
X10436730Y-23394234D02*
X10417682Y-23384710D01*
X10417682Y-23384710D02*
X10408158Y-23365662D01*
X10408158Y-23365662D02*
X10408158Y-23289472D01*
X10408158Y-23289472D02*
X10417682Y-23270424D01*
X10417682Y-23270424D02*
X10436730Y-23260900D01*
X10436730Y-23260900D02*
X10474825Y-23260900D01*
X10474825Y-23260900D02*
X10493873Y-23270424D01*
X10493873Y-23270424D02*
X10503396Y-23289472D01*
X10503396Y-23289472D02*
X10503396Y-23308519D01*
X10503396Y-23308519D02*
X10408158Y-23327567D01*
X10674825Y-23394234D02*
X10674825Y-23194234D01*
X10674825Y-23384710D02*
X10655777Y-23394234D01*
X10655777Y-23394234D02*
X10617682Y-23394234D01*
X10617682Y-23394234D02*
X10598635Y-23384710D01*
X10598635Y-23384710D02*
X10589111Y-23375186D01*
X10589111Y-23375186D02*
X10579587Y-23356138D01*
X10579587Y-23356138D02*
X10579587Y-23298996D01*
X10579587Y-23298996D02*
X10589111Y-23279948D01*
X10589111Y-23279948D02*
X10598635Y-23270424D01*
X10598635Y-23270424D02*
X10617682Y-23260900D01*
X10617682Y-23260900D02*
X10655777Y-23260900D01*
X10655777Y-23260900D02*
X10674825Y-23270424D01*
X10751016Y-23470424D02*
X10760539Y-23460900D01*
X10760539Y-23460900D02*
X10779587Y-23432329D01*
X10779587Y-23432329D02*
X10789111Y-23413281D01*
X10789111Y-23413281D02*
X10798635Y-23384710D01*
X10798635Y-23384710D02*
X10808158Y-23337091D01*
X10808158Y-23337091D02*
X10808158Y-23298996D01*
X10808158Y-23298996D02*
X10798635Y-23251377D01*
X10798635Y-23251377D02*
X10789111Y-23222805D01*
X10789111Y-23222805D02*
X10779587Y-23203758D01*
X10779587Y-23203758D02*
X10760539Y-23175186D01*
X10760539Y-23175186D02*
X10751016Y-23165662D01*
X3795000Y-23522750D02*
X3995000Y-23722750D01*
X3995000Y-23522750D02*
X3795000Y-23722750D01*
X3995000Y-23622750D02*
G75*
G02*
X3795000Y-23622750I-100000J0D01*
G01*
X3795000Y-23622750D02*
G75*
G02*
X3995000Y-23622750I100000J0D01*
G01*
X4341491Y-23580900D02*
X4341491Y-23714234D01*
X4293872Y-23504710D02*
X4246253Y-23647567D01*
X4246253Y-23647567D02*
X4370063Y-23647567D01*
X4446253Y-23695186D02*
X4455777Y-23704710D01*
X4455777Y-23704710D02*
X4446253Y-23714234D01*
X4446253Y-23714234D02*
X4436729Y-23704710D01*
X4436729Y-23704710D02*
X4446253Y-23695186D01*
X4446253Y-23695186D02*
X4446253Y-23714234D01*
X4579586Y-23514234D02*
X4598634Y-23514234D01*
X4598634Y-23514234D02*
X4617682Y-23523758D01*
X4617682Y-23523758D02*
X4627205Y-23533281D01*
X4627205Y-23533281D02*
X4636729Y-23552329D01*
X4636729Y-23552329D02*
X4646253Y-23590424D01*
X4646253Y-23590424D02*
X4646253Y-23638043D01*
X4646253Y-23638043D02*
X4636729Y-23676138D01*
X4636729Y-23676138D02*
X4627205Y-23695186D01*
X4627205Y-23695186D02*
X4617682Y-23704710D01*
X4617682Y-23704710D02*
X4598634Y-23714234D01*
X4598634Y-23714234D02*
X4579586Y-23714234D01*
X4579586Y-23714234D02*
X4560539Y-23704710D01*
X4560539Y-23704710D02*
X4551015Y-23695186D01*
X4551015Y-23695186D02*
X4541491Y-23676138D01*
X4541491Y-23676138D02*
X4531967Y-23638043D01*
X4531967Y-23638043D02*
X4531967Y-23590424D01*
X4531967Y-23590424D02*
X4541491Y-23552329D01*
X4541491Y-23552329D02*
X4551015Y-23533281D01*
X4551015Y-23533281D02*
X4560539Y-23523758D01*
X4560539Y-23523758D02*
X4579586Y-23514234D01*
X4770063Y-23514234D02*
X4789110Y-23514234D01*
X4789110Y-23514234D02*
X4808158Y-23523758D01*
X4808158Y-23523758D02*
X4817682Y-23533281D01*
X4817682Y-23533281D02*
X4827205Y-23552329D01*
X4827205Y-23552329D02*
X4836729Y-23590424D01*
X4836729Y-23590424D02*
X4836729Y-23638043D01*
X4836729Y-23638043D02*
X4827205Y-23676138D01*
X4827205Y-23676138D02*
X4817682Y-23695186D01*
X4817682Y-23695186D02*
X4808158Y-23704710D01*
X4808158Y-23704710D02*
X4789110Y-23714234D01*
X4789110Y-23714234D02*
X4770063Y-23714234D01*
X4770063Y-23714234D02*
X4751015Y-23704710D01*
X4751015Y-23704710D02*
X4741491Y-23695186D01*
X4741491Y-23695186D02*
X4731967Y-23676138D01*
X4731967Y-23676138D02*
X4722444Y-23638043D01*
X4722444Y-23638043D02*
X4722444Y-23590424D01*
X4722444Y-23590424D02*
X4731967Y-23552329D01*
X4731967Y-23552329D02*
X4741491Y-23533281D01*
X4741491Y-23533281D02*
X4751015Y-23523758D01*
X4751015Y-23523758D02*
X4770063Y-23514234D01*
X4960539Y-23514234D02*
X4979586Y-23514234D01*
X4979586Y-23514234D02*
X4998634Y-23523758D01*
X4998634Y-23523758D02*
X5008158Y-23533281D01*
X5008158Y-23533281D02*
X5017682Y-23552329D01*
X5017682Y-23552329D02*
X5027205Y-23590424D01*
X5027205Y-23590424D02*
X5027205Y-23638043D01*
X5027205Y-23638043D02*
X5017682Y-23676138D01*
X5017682Y-23676138D02*
X5008158Y-23695186D01*
X5008158Y-23695186D02*
X4998634Y-23704710D01*
X4998634Y-23704710D02*
X4979586Y-23714234D01*
X4979586Y-23714234D02*
X4960539Y-23714234D01*
X4960539Y-23714234D02*
X4941491Y-23704710D01*
X4941491Y-23704710D02*
X4931967Y-23695186D01*
X4931967Y-23695186D02*
X4922444Y-23676138D01*
X4922444Y-23676138D02*
X4912920Y-23638043D01*
X4912920Y-23638043D02*
X4912920Y-23590424D01*
X4912920Y-23590424D02*
X4922444Y-23552329D01*
X4922444Y-23552329D02*
X4931967Y-23533281D01*
X4931967Y-23533281D02*
X4941491Y-23523758D01*
X4941491Y-23523758D02*
X4960539Y-23514234D01*
X5112920Y-23714234D02*
X5112920Y-23580900D01*
X5112920Y-23599948D02*
X5122444Y-23590424D01*
X5122444Y-23590424D02*
X5141491Y-23580900D01*
X5141491Y-23580900D02*
X5170063Y-23580900D01*
X5170063Y-23580900D02*
X5189110Y-23590424D01*
X5189110Y-23590424D02*
X5198634Y-23609472D01*
X5198634Y-23609472D02*
X5198634Y-23714234D01*
X5198634Y-23609472D02*
X5208158Y-23590424D01*
X5208158Y-23590424D02*
X5227205Y-23580900D01*
X5227205Y-23580900D02*
X5255777Y-23580900D01*
X5255777Y-23580900D02*
X5274825Y-23590424D01*
X5274825Y-23590424D02*
X5284348Y-23609472D01*
X5284348Y-23609472D02*
X5284348Y-23714234D01*
X5379586Y-23714234D02*
X5379586Y-23580900D01*
X5379586Y-23599948D02*
X5389110Y-23590424D01*
X5389110Y-23590424D02*
X5408158Y-23580900D01*
X5408158Y-23580900D02*
X5436729Y-23580900D01*
X5436729Y-23580900D02*
X5455777Y-23590424D01*
X5455777Y-23590424D02*
X5465301Y-23609472D01*
X5465301Y-23609472D02*
X5465301Y-23714234D01*
X5465301Y-23609472D02*
X5474825Y-23590424D01*
X5474825Y-23590424D02*
X5493872Y-23580900D01*
X5493872Y-23580900D02*
X5522444Y-23580900D01*
X5522444Y-23580900D02*
X5541491Y-23590424D01*
X5541491Y-23590424D02*
X5551015Y-23609472D01*
X5551015Y-23609472D02*
X5551015Y-23714234D01*
X5941491Y-23504710D02*
X5770063Y-23761853D01*
X6198634Y-23514234D02*
X6217682Y-23514234D01*
X6217682Y-23514234D02*
X6236729Y-23523758D01*
X6236729Y-23523758D02*
X6246253Y-23533281D01*
X6246253Y-23533281D02*
X6255777Y-23552329D01*
X6255777Y-23552329D02*
X6265301Y-23590424D01*
X6265301Y-23590424D02*
X6265301Y-23638043D01*
X6265301Y-23638043D02*
X6255777Y-23676138D01*
X6255777Y-23676138D02*
X6246253Y-23695186D01*
X6246253Y-23695186D02*
X6236729Y-23704710D01*
X6236729Y-23704710D02*
X6217682Y-23714234D01*
X6217682Y-23714234D02*
X6198634Y-23714234D01*
X6198634Y-23714234D02*
X6179586Y-23704710D01*
X6179586Y-23704710D02*
X6170063Y-23695186D01*
X6170063Y-23695186D02*
X6160539Y-23676138D01*
X6160539Y-23676138D02*
X6151015Y-23638043D01*
X6151015Y-23638043D02*
X6151015Y-23590424D01*
X6151015Y-23590424D02*
X6160539Y-23552329D01*
X6160539Y-23552329D02*
X6170063Y-23533281D01*
X6170063Y-23533281D02*
X6179586Y-23523758D01*
X6179586Y-23523758D02*
X6198634Y-23514234D01*
X6351015Y-23695186D02*
X6360539Y-23704710D01*
X6360539Y-23704710D02*
X6351015Y-23714234D01*
X6351015Y-23714234D02*
X6341491Y-23704710D01*
X6341491Y-23704710D02*
X6351015Y-23695186D01*
X6351015Y-23695186D02*
X6351015Y-23714234D01*
X6551015Y-23714234D02*
X6436729Y-23714234D01*
X6493872Y-23714234D02*
X6493872Y-23514234D01*
X6493872Y-23514234D02*
X6474825Y-23542805D01*
X6474825Y-23542805D02*
X6455777Y-23561853D01*
X6455777Y-23561853D02*
X6436729Y-23571377D01*
X6731967Y-23514234D02*
X6636729Y-23514234D01*
X6636729Y-23514234D02*
X6627206Y-23609472D01*
X6627206Y-23609472D02*
X6636729Y-23599948D01*
X6636729Y-23599948D02*
X6655777Y-23590424D01*
X6655777Y-23590424D02*
X6703396Y-23590424D01*
X6703396Y-23590424D02*
X6722444Y-23599948D01*
X6722444Y-23599948D02*
X6731967Y-23609472D01*
X6731967Y-23609472D02*
X6741491Y-23628519D01*
X6741491Y-23628519D02*
X6741491Y-23676138D01*
X6741491Y-23676138D02*
X6731967Y-23695186D01*
X6731967Y-23695186D02*
X6722444Y-23704710D01*
X6722444Y-23704710D02*
X6703396Y-23714234D01*
X6703396Y-23714234D02*
X6655777Y-23714234D01*
X6655777Y-23714234D02*
X6636729Y-23704710D01*
X6636729Y-23704710D02*
X6627206Y-23695186D01*
X6808158Y-23514234D02*
X6941491Y-23514234D01*
X6941491Y-23514234D02*
X6855777Y-23714234D01*
X7112920Y-23514234D02*
X7017682Y-23514234D01*
X7017682Y-23514234D02*
X7008158Y-23609472D01*
X7008158Y-23609472D02*
X7017682Y-23599948D01*
X7017682Y-23599948D02*
X7036729Y-23590424D01*
X7036729Y-23590424D02*
X7084348Y-23590424D01*
X7084348Y-23590424D02*
X7103396Y-23599948D01*
X7103396Y-23599948D02*
X7112920Y-23609472D01*
X7112920Y-23609472D02*
X7122444Y-23628519D01*
X7122444Y-23628519D02*
X7122444Y-23676138D01*
X7122444Y-23676138D02*
X7112920Y-23695186D01*
X7112920Y-23695186D02*
X7103396Y-23704710D01*
X7103396Y-23704710D02*
X7084348Y-23714234D01*
X7084348Y-23714234D02*
X7036729Y-23714234D01*
X7036729Y-23714234D02*
X7017682Y-23704710D01*
X7017682Y-23704710D02*
X7008158Y-23695186D01*
X7198634Y-23514234D02*
X7198634Y-23552329D01*
X7274825Y-23514234D02*
X7274825Y-23552329D01*
X7570063Y-23790424D02*
X7560539Y-23780900D01*
X7560539Y-23780900D02*
X7541491Y-23752329D01*
X7541491Y-23752329D02*
X7531968Y-23733281D01*
X7531968Y-23733281D02*
X7522444Y-23704710D01*
X7522444Y-23704710D02*
X7512920Y-23657091D01*
X7512920Y-23657091D02*
X7512920Y-23618996D01*
X7512920Y-23618996D02*
X7522444Y-23571377D01*
X7522444Y-23571377D02*
X7531968Y-23542805D01*
X7531968Y-23542805D02*
X7541491Y-23523758D01*
X7541491Y-23523758D02*
X7560539Y-23495186D01*
X7560539Y-23495186D02*
X7570063Y-23485662D01*
X7674825Y-23599948D02*
X7655777Y-23590424D01*
X7655777Y-23590424D02*
X7646253Y-23580900D01*
X7646253Y-23580900D02*
X7636729Y-23561853D01*
X7636729Y-23561853D02*
X7636729Y-23552329D01*
X7636729Y-23552329D02*
X7646253Y-23533281D01*
X7646253Y-23533281D02*
X7655777Y-23523758D01*
X7655777Y-23523758D02*
X7674825Y-23514234D01*
X7674825Y-23514234D02*
X7712920Y-23514234D01*
X7712920Y-23514234D02*
X7731968Y-23523758D01*
X7731968Y-23523758D02*
X7741491Y-23533281D01*
X7741491Y-23533281D02*
X7751015Y-23552329D01*
X7751015Y-23552329D02*
X7751015Y-23561853D01*
X7751015Y-23561853D02*
X7741491Y-23580900D01*
X7741491Y-23580900D02*
X7731968Y-23590424D01*
X7731968Y-23590424D02*
X7712920Y-23599948D01*
X7712920Y-23599948D02*
X7674825Y-23599948D01*
X7674825Y-23599948D02*
X7655777Y-23609472D01*
X7655777Y-23609472D02*
X7646253Y-23618996D01*
X7646253Y-23618996D02*
X7636729Y-23638043D01*
X7636729Y-23638043D02*
X7636729Y-23676138D01*
X7636729Y-23676138D02*
X7646253Y-23695186D01*
X7646253Y-23695186D02*
X7655777Y-23704710D01*
X7655777Y-23704710D02*
X7674825Y-23714234D01*
X7674825Y-23714234D02*
X7712920Y-23714234D01*
X7712920Y-23714234D02*
X7731968Y-23704710D01*
X7731968Y-23704710D02*
X7741491Y-23695186D01*
X7741491Y-23695186D02*
X7751015Y-23676138D01*
X7751015Y-23676138D02*
X7751015Y-23638043D01*
X7751015Y-23638043D02*
X7741491Y-23618996D01*
X7741491Y-23618996D02*
X7731968Y-23609472D01*
X7731968Y-23609472D02*
X7712920Y-23599948D01*
X7827206Y-23533281D02*
X7836729Y-23523758D01*
X7836729Y-23523758D02*
X7855777Y-23514234D01*
X7855777Y-23514234D02*
X7903396Y-23514234D01*
X7903396Y-23514234D02*
X7922444Y-23523758D01*
X7922444Y-23523758D02*
X7931968Y-23533281D01*
X7931968Y-23533281D02*
X7941491Y-23552329D01*
X7941491Y-23552329D02*
X7941491Y-23571377D01*
X7941491Y-23571377D02*
X7931968Y-23599948D01*
X7931968Y-23599948D02*
X7817682Y-23714234D01*
X7817682Y-23714234D02*
X7941491Y-23714234D01*
X8179587Y-23714234D02*
X8179587Y-23514234D01*
X8265301Y-23714234D02*
X8265301Y-23609472D01*
X8265301Y-23609472D02*
X8255777Y-23590424D01*
X8255777Y-23590424D02*
X8236730Y-23580900D01*
X8236730Y-23580900D02*
X8208158Y-23580900D01*
X8208158Y-23580900D02*
X8189110Y-23590424D01*
X8189110Y-23590424D02*
X8179587Y-23599948D01*
X8389111Y-23714234D02*
X8370063Y-23704710D01*
X8370063Y-23704710D02*
X8360539Y-23695186D01*
X8360539Y-23695186D02*
X8351015Y-23676138D01*
X8351015Y-23676138D02*
X8351015Y-23618996D01*
X8351015Y-23618996D02*
X8360539Y-23599948D01*
X8360539Y-23599948D02*
X8370063Y-23590424D01*
X8370063Y-23590424D02*
X8389111Y-23580900D01*
X8389111Y-23580900D02*
X8417682Y-23580900D01*
X8417682Y-23580900D02*
X8436730Y-23590424D01*
X8436730Y-23590424D02*
X8446253Y-23599948D01*
X8446253Y-23599948D02*
X8455777Y-23618996D01*
X8455777Y-23618996D02*
X8455777Y-23676138D01*
X8455777Y-23676138D02*
X8446253Y-23695186D01*
X8446253Y-23695186D02*
X8436730Y-23704710D01*
X8436730Y-23704710D02*
X8417682Y-23714234D01*
X8417682Y-23714234D02*
X8389111Y-23714234D01*
X8570063Y-23714234D02*
X8551015Y-23704710D01*
X8551015Y-23704710D02*
X8541492Y-23685662D01*
X8541492Y-23685662D02*
X8541492Y-23514234D01*
X8722444Y-23704710D02*
X8703396Y-23714234D01*
X8703396Y-23714234D02*
X8665301Y-23714234D01*
X8665301Y-23714234D02*
X8646253Y-23704710D01*
X8646253Y-23704710D02*
X8636730Y-23685662D01*
X8636730Y-23685662D02*
X8636730Y-23609472D01*
X8636730Y-23609472D02*
X8646253Y-23590424D01*
X8646253Y-23590424D02*
X8665301Y-23580900D01*
X8665301Y-23580900D02*
X8703396Y-23580900D01*
X8703396Y-23580900D02*
X8722444Y-23590424D01*
X8722444Y-23590424D02*
X8731968Y-23609472D01*
X8731968Y-23609472D02*
X8731968Y-23628519D01*
X8731968Y-23628519D02*
X8636730Y-23647567D01*
X8808158Y-23704710D02*
X8827206Y-23714234D01*
X8827206Y-23714234D02*
X8865301Y-23714234D01*
X8865301Y-23714234D02*
X8884349Y-23704710D01*
X8884349Y-23704710D02*
X8893873Y-23685662D01*
X8893873Y-23685662D02*
X8893873Y-23676138D01*
X8893873Y-23676138D02*
X8884349Y-23657091D01*
X8884349Y-23657091D02*
X8865301Y-23647567D01*
X8865301Y-23647567D02*
X8836730Y-23647567D01*
X8836730Y-23647567D02*
X8817682Y-23638043D01*
X8817682Y-23638043D02*
X8808158Y-23618996D01*
X8808158Y-23618996D02*
X8808158Y-23609472D01*
X8808158Y-23609472D02*
X8817682Y-23590424D01*
X8817682Y-23590424D02*
X8836730Y-23580900D01*
X8836730Y-23580900D02*
X8865301Y-23580900D01*
X8865301Y-23580900D02*
X8884349Y-23590424D01*
X8960539Y-23790424D02*
X8970063Y-23780900D01*
X8970063Y-23780900D02*
X8989111Y-23752329D01*
X8989111Y-23752329D02*
X8998634Y-23733281D01*
X8998634Y-23733281D02*
X9008158Y-23704710D01*
X9008158Y-23704710D02*
X9017682Y-23657091D01*
X9017682Y-23657091D02*
X9017682Y-23618996D01*
X9017682Y-23618996D02*
X9008158Y-23571377D01*
X9008158Y-23571377D02*
X8998634Y-23542805D01*
X8998634Y-23542805D02*
X8989111Y-23523758D01*
X8989111Y-23523758D02*
X8970063Y-23495186D01*
X8970063Y-23495186D02*
X8960539Y-23485662D01*
X9322444Y-23790424D02*
X9312920Y-23780900D01*
X9312920Y-23780900D02*
X9293873Y-23752329D01*
X9293873Y-23752329D02*
X9284349Y-23733281D01*
X9284349Y-23733281D02*
X9274825Y-23704710D01*
X9274825Y-23704710D02*
X9265301Y-23657091D01*
X9265301Y-23657091D02*
X9265301Y-23618996D01*
X9265301Y-23618996D02*
X9274825Y-23571377D01*
X9274825Y-23571377D02*
X9284349Y-23542805D01*
X9284349Y-23542805D02*
X9293873Y-23523758D01*
X9293873Y-23523758D02*
X9312920Y-23495186D01*
X9312920Y-23495186D02*
X9322444Y-23485662D01*
X9398634Y-23580900D02*
X9398634Y-23714234D01*
X9398634Y-23599948D02*
X9408158Y-23590424D01*
X9408158Y-23590424D02*
X9427206Y-23580900D01*
X9427206Y-23580900D02*
X9455777Y-23580900D01*
X9455777Y-23580900D02*
X9474825Y-23590424D01*
X9474825Y-23590424D02*
X9484349Y-23609472D01*
X9484349Y-23609472D02*
X9484349Y-23714234D01*
X9608158Y-23714234D02*
X9589111Y-23704710D01*
X9589111Y-23704710D02*
X9579587Y-23695186D01*
X9579587Y-23695186D02*
X9570063Y-23676138D01*
X9570063Y-23676138D02*
X9570063Y-23618996D01*
X9570063Y-23618996D02*
X9579587Y-23599948D01*
X9579587Y-23599948D02*
X9589111Y-23590424D01*
X9589111Y-23590424D02*
X9608158Y-23580900D01*
X9608158Y-23580900D02*
X9636730Y-23580900D01*
X9636730Y-23580900D02*
X9655777Y-23590424D01*
X9655777Y-23590424D02*
X9665301Y-23599948D01*
X9665301Y-23599948D02*
X9674825Y-23618996D01*
X9674825Y-23618996D02*
X9674825Y-23676138D01*
X9674825Y-23676138D02*
X9665301Y-23695186D01*
X9665301Y-23695186D02*
X9655777Y-23704710D01*
X9655777Y-23704710D02*
X9636730Y-23714234D01*
X9636730Y-23714234D02*
X9608158Y-23714234D01*
X9731968Y-23580900D02*
X9808158Y-23580900D01*
X9760539Y-23514234D02*
X9760539Y-23685662D01*
X9760539Y-23685662D02*
X9770063Y-23704710D01*
X9770063Y-23704710D02*
X9789111Y-23714234D01*
X9789111Y-23714234D02*
X9808158Y-23714234D01*
X10027206Y-23580900D02*
X10027206Y-23780900D01*
X10027206Y-23590424D02*
X10046254Y-23580900D01*
X10046254Y-23580900D02*
X10084349Y-23580900D01*
X10084349Y-23580900D02*
X10103396Y-23590424D01*
X10103396Y-23590424D02*
X10112920Y-23599948D01*
X10112920Y-23599948D02*
X10122444Y-23618996D01*
X10122444Y-23618996D02*
X10122444Y-23676138D01*
X10122444Y-23676138D02*
X10112920Y-23695186D01*
X10112920Y-23695186D02*
X10103396Y-23704710D01*
X10103396Y-23704710D02*
X10084349Y-23714234D01*
X10084349Y-23714234D02*
X10046254Y-23714234D01*
X10046254Y-23714234D02*
X10027206Y-23704710D01*
X10236730Y-23714234D02*
X10217682Y-23704710D01*
X10217682Y-23704710D02*
X10208158Y-23685662D01*
X10208158Y-23685662D02*
X10208158Y-23514234D01*
X10398635Y-23714234D02*
X10398635Y-23609472D01*
X10398635Y-23609472D02*
X10389111Y-23590424D01*
X10389111Y-23590424D02*
X10370063Y-23580900D01*
X10370063Y-23580900D02*
X10331968Y-23580900D01*
X10331968Y-23580900D02*
X10312920Y-23590424D01*
X10398635Y-23704710D02*
X10379587Y-23714234D01*
X10379587Y-23714234D02*
X10331968Y-23714234D01*
X10331968Y-23714234D02*
X10312920Y-23704710D01*
X10312920Y-23704710D02*
X10303396Y-23685662D01*
X10303396Y-23685662D02*
X10303396Y-23666615D01*
X10303396Y-23666615D02*
X10312920Y-23647567D01*
X10312920Y-23647567D02*
X10331968Y-23638043D01*
X10331968Y-23638043D02*
X10379587Y-23638043D01*
X10379587Y-23638043D02*
X10398635Y-23628519D01*
X10465301Y-23580900D02*
X10541492Y-23580900D01*
X10493873Y-23514234D02*
X10493873Y-23685662D01*
X10493873Y-23685662D02*
X10503396Y-23704710D01*
X10503396Y-23704710D02*
X10522444Y-23714234D01*
X10522444Y-23714234D02*
X10541492Y-23714234D01*
X10684349Y-23704710D02*
X10665301Y-23714234D01*
X10665301Y-23714234D02*
X10627206Y-23714234D01*
X10627206Y-23714234D02*
X10608158Y-23704710D01*
X10608158Y-23704710D02*
X10598635Y-23685662D01*
X10598635Y-23685662D02*
X10598635Y-23609472D01*
X10598635Y-23609472D02*
X10608158Y-23590424D01*
X10608158Y-23590424D02*
X10627206Y-23580900D01*
X10627206Y-23580900D02*
X10665301Y-23580900D01*
X10665301Y-23580900D02*
X10684349Y-23590424D01*
X10684349Y-23590424D02*
X10693873Y-23609472D01*
X10693873Y-23609472D02*
X10693873Y-23628519D01*
X10693873Y-23628519D02*
X10598635Y-23647567D01*
X10865301Y-23714234D02*
X10865301Y-23514234D01*
X10865301Y-23704710D02*
X10846254Y-23714234D01*
X10846254Y-23714234D02*
X10808158Y-23714234D01*
X10808158Y-23714234D02*
X10789111Y-23704710D01*
X10789111Y-23704710D02*
X10779587Y-23695186D01*
X10779587Y-23695186D02*
X10770063Y-23676138D01*
X10770063Y-23676138D02*
X10770063Y-23618996D01*
X10770063Y-23618996D02*
X10779587Y-23599948D01*
X10779587Y-23599948D02*
X10789111Y-23590424D01*
X10789111Y-23590424D02*
X10808158Y-23580900D01*
X10808158Y-23580900D02*
X10846254Y-23580900D01*
X10846254Y-23580900D02*
X10865301Y-23590424D01*
X10941492Y-23790424D02*
X10951016Y-23780900D01*
X10951016Y-23780900D02*
X10970063Y-23752329D01*
X10970063Y-23752329D02*
X10979587Y-23733281D01*
X10979587Y-23733281D02*
X10989111Y-23704710D01*
X10989111Y-23704710D02*
X10998635Y-23657091D01*
X10998635Y-23657091D02*
X10998635Y-23618996D01*
X10998635Y-23618996D02*
X10989111Y-23571377D01*
X10989111Y-23571377D02*
X10979587Y-23542805D01*
X10979587Y-23542805D02*
X10970063Y-23523758D01*
X10970063Y-23523758D02*
X10951016Y-23495186D01*
X10951016Y-23495186D02*
X10941492Y-23485662D01*
M02*
