M48
; DRILL file KiCad 10.0.6 date 2026-10-02T04:25:35
; FORMAT={-:-/ absolute / metric / decimal}
; #@! TF.CreationDate,2026-10-02T04:25:35-04:00
; #@! TF.GenerationSoftware,Kicad,Pcbnew,10.0.6
; #@! TF.FileFunction,Plated,1,2,PTH
FMAT,2
METRIC
; #@! TA.AperFunction,Plated,PTH,ComponentDrill
T1C0.200
; #@! TA.AperFunction,Plated,PTH,ViaDrill
T2C0.300
; #@! TA.AperFunction,Plated,PTH,ComponentDrill
T3C0.600
%
G90
G05
T1
X335.15Y-104.25
X335.15Y-106.95
X337.85Y-104.25
X337.85Y-106.95
T2
X45.44Y-91.675
X45.44Y-101.0
X45.44Y-120.25
X47.821Y-196.45
X50.203Y-139.3
X52.584Y-158.35
X57.346Y-177.4
X64.49Y-101.65
X64.49Y-120.25
X71.634Y-196.45
X74.015Y-139.3
X78.778Y-158.35
X83.54Y-91.675
X83.54Y-102.3
X83.54Y-120.25
X88.302Y-177.4
X93.065Y-139.3
X95.446Y-196.45
X97.828Y-158.35
X102.59Y-91.675
X102.59Y-102.95
X102.59Y-120.25
X107.352Y-177.4
X112.115Y-139.3
X116.877Y-158.35
X121.64Y-91.675
X121.64Y-103.6
X121.64Y-120.25
X126.402Y-177.4
X131.165Y-139.3
X135.927Y-158.35
X140.69Y-91.675
X140.69Y-104.25
X140.69Y-120.25
X145.452Y-177.4
X150.215Y-139.3
X154.977Y-158.35
X159.74Y-120.25
X164.502Y-91.675
X164.502Y-104.9
X164.502Y-177.4
X166.884Y-196.45
X169.265Y-139.3
X174.028Y-158.35
X178.79Y-120.25
X183.552Y-91.675
X183.552Y-105.55
X183.552Y-177.4
X188.315Y-139.3
X193.077Y-158.35
X197.84Y-120.25
X202.602Y-91.675
X202.602Y-106.2
X202.602Y-177.4
X207.365Y-139.3
X212.127Y-158.35
X216.89Y-120.25
X221.653Y-91.675
X221.653Y-106.85
X221.653Y-177.4
X226.415Y-139.3
X231.177Y-158.35
X235.94Y-120.25
X235.94Y-196.45
X240.702Y-177.4
X245.465Y-91.675
X245.465Y-107.5
X245.465Y-139.3
X250.227Y-158.35
X254.99Y-120.25
X254.99Y-196.45
X259.752Y-177.4
X264.515Y-91.675
X264.515Y-108.15
X264.515Y-139.3
X269.277Y-158.35
X274.04Y-120.25
X274.04Y-196.45
X283.565Y-91.675
X283.565Y-108.8
X283.565Y-139.3
X285.946Y-177.4
X300.234Y-158.35
X302.615Y-91.675
X302.615Y-120.25
X307.377Y-139.3
X312.14Y-201.212
X320.7Y-95.525
X322.45Y-105.55
X323.05Y-106.9
X324.2Y-107.15
X324.25Y-105.7
X324.35Y-97.95
X324.95Y-120.95
X327.8Y-96.35
X328.8Y-111.15
X330.0Y-96.35
X330.65Y-106.5
X330.95Y-120.95
X331.1Y-99.95
X331.19Y-182.162
X331.19Y-201.212
X331.875Y-106.6
X331.95Y-99.5
X331.95Y-107.8
X332.55Y-92.65
X333.05Y-99.5
X333.8Y-99.3
X333.85Y-112.65
X333.95Y-100.9
X333.95Y-106.2
X333.95Y-107.85
X334.0Y-107.05
X334.05Y-101.7
X334.1Y-88.65
X334.55Y-103.1
X334.85Y-107.75
X335.2Y-113.15
X335.3Y-110.25
X335.5Y-112.1
X336.0Y-112.6
X336.0Y-116.8
X336.1Y-101.55
X336.25Y-89.2
X336.3Y-92.75
X336.3Y-110.225
X336.5Y-90.45
X336.65Y-107.75
X336.9Y-99.3
X336.95Y-116.8
X337.25Y-89.2
X338.1Y-107.75
X338.2Y-97.15
X338.7Y-103.05
X338.8Y-117.7
X339.0Y-88.75
X339.25Y-92.85
X340.35Y-100.5
X340.35Y-102.8
X340.45Y-120.0
X340.6Y-113.05
X342.6Y-97.8
X342.6Y-110.75
X342.75Y-102.3
X342.8Y-115.0
X343.4Y-108.55
X343.45Y-89.0
X343.575Y-100.0
X343.85Y-98.45
X345.3Y-103.1
X346.0Y-205.062
X349.45Y-89.0
X349.45Y-109.4
X350.24Y-201.212
X350.25Y-107.9
X351.05Y-107.25
X351.05Y-124.1
X351.85Y-106.6
X351.85Y-143.15
X352.4Y-95.525
X352.65Y-105.95
X352.65Y-162.2
X353.45Y-105.3
X353.45Y-181.25
X354.25Y-104.65
X355.0Y-104.0
X355.002Y-91.675
X355.002Y-120.25
X355.002Y-139.3
X355.002Y-158.35
X355.002Y-177.4
T3
X332.18Y-82.3G85X332.18Y-82.9
G05
X332.18Y-86.23G85X332.18Y-87.33
G05
X340.82Y-82.3G85X340.82Y-82.9
G05
X340.82Y-86.23G85X340.82Y-87.33
G05
M30
