M48
; DRILL file KiCad 10.0.6 date 2026-10-02T04:25:35
; FORMAT={-:-/ absolute / metric / decimal}
; #@! TF.CreationDate,2026-10-02T04:25:35-04:00
; #@! TF.GenerationSoftware,Kicad,Pcbnew,10.0.6
; #@! TF.FileFunction,NonPlated,1,2,NPTH
FMAT,2
METRIC
; #@! TA.AperFunction,NonPlated,NPTH,ComponentDrill
T1C0.650
; #@! TA.AperFunction,NonPlated,NPTH,ComponentDrill
T2C1.750
; #@! TA.AperFunction,NonPlated,NPTH,ComponentDrill
T3C3.048
; #@! TA.AperFunction,NonPlated,NPTH,ComponentDrill
T4C3.050
; #@! TA.AperFunction,NonPlated,NPTH,ComponentDrill
T5C3.988
; #@! TA.AperFunction,NonPlated,NPTH,ComponentDrill
T6C4.000
%
G90
G05
T1
X333.61Y-86.25
X339.39Y-86.25
T2
X47.445Y-92.525
X47.445Y-121.1
X49.826Y-197.3
X52.207Y-140.15
X54.589Y-159.2
X57.605Y-92.525
X57.605Y-121.1
X59.351Y-178.25
X59.986Y-197.3
X62.367Y-140.15
X64.749Y-159.2
X66.495Y-121.1
X69.511Y-178.25
X73.639Y-197.3
X76.02Y-140.15
X76.655Y-121.1
X80.782Y-159.2
X83.799Y-197.3
X85.545Y-92.525
X85.545Y-121.1
X86.18Y-140.15
X90.307Y-178.25
X90.942Y-159.2
X95.07Y-140.15
X95.705Y-92.525
X95.705Y-121.1
X97.451Y-197.3
X99.832Y-159.2
X100.468Y-178.25
X104.595Y-92.525
X104.595Y-121.1
X105.23Y-140.15
X107.611Y-197.3
X109.358Y-178.25
X109.992Y-159.2
X114.12Y-140.15
X114.755Y-92.525
X114.755Y-121.1
X118.882Y-159.2
X119.517Y-178.25
X123.645Y-92.525
X123.645Y-121.1
X124.28Y-140.15
X128.407Y-178.25
X129.042Y-159.2
X133.17Y-140.15
X133.805Y-92.525
X133.805Y-121.1
X137.933Y-159.2
X138.567Y-178.25
X142.695Y-92.525
X142.695Y-121.1
X143.33Y-140.15
X147.457Y-178.25
X148.093Y-159.2
X152.22Y-140.15
X152.855Y-92.525
X152.855Y-121.1
X156.982Y-159.2
X157.618Y-178.25
X161.745Y-121.1
X162.38Y-140.15
X166.507Y-92.525
X166.507Y-178.25
X167.142Y-159.2
X168.889Y-197.3
X171.27Y-140.15
X171.905Y-121.1
X176.032Y-159.2
X176.667Y-92.525
X176.667Y-178.25
X179.049Y-197.3
X180.795Y-121.1
X181.43Y-140.15
X185.558Y-92.525
X185.558Y-178.25
X186.192Y-159.2
X190.32Y-140.15
X190.955Y-121.1
X195.082Y-159.2
X195.718Y-92.525
X195.718Y-178.25
X199.845Y-121.1
X200.48Y-140.15
X204.607Y-92.525
X204.607Y-178.25
X205.242Y-159.2
X209.37Y-140.15
X210.005Y-121.1
X214.132Y-159.2
X214.767Y-92.525
X214.767Y-178.25
X218.895Y-121.1
X219.53Y-140.15
X223.657Y-92.525
X223.657Y-178.25
X224.292Y-159.2
X228.42Y-140.15
X229.055Y-121.1
X233.182Y-159.2
X233.817Y-92.525
X233.817Y-178.25
X237.945Y-121.1
X237.945Y-197.3
X238.58Y-140.15
X242.707Y-178.25
X243.343Y-159.2
X247.47Y-92.525
X247.47Y-140.15
X248.105Y-121.1
X248.105Y-197.3
X252.232Y-159.2
X252.867Y-178.25
X256.995Y-121.1
X256.995Y-197.3
X257.63Y-92.525
X257.63Y-140.15
X261.757Y-178.25
X262.392Y-159.2
X266.52Y-92.525
X266.52Y-140.15
X267.155Y-121.1
X267.155Y-197.3
X271.282Y-159.2
X271.917Y-178.25
X276.045Y-121.1
X276.045Y-197.3
X276.68Y-92.525
X276.68Y-140.15
X281.442Y-159.2
X285.57Y-92.525
X285.57Y-140.15
X286.205Y-121.1
X286.205Y-197.3
X287.951Y-178.25
X295.73Y-92.525
X295.73Y-140.15
X298.111Y-178.25
X302.239Y-159.2
X304.62Y-92.525
X304.62Y-121.1
X309.382Y-140.15
X312.399Y-159.2
X314.145Y-202.062
X314.78Y-92.525
X314.78Y-121.1
X319.542Y-140.15
X324.305Y-202.062
X333.195Y-183.012
X333.195Y-202.062
X343.355Y-183.012
X343.355Y-202.062
X352.245Y-202.062
X357.007Y-92.525
X357.007Y-121.1
X357.007Y-140.15
X357.007Y-159.2
X357.007Y-178.25
X362.405Y-202.062
X367.167Y-92.525
X367.167Y-121.1
X367.167Y-140.15
X367.167Y-159.2
X367.167Y-178.25
T3
X52.493Y-171.265
X76.369Y-171.265
X123.969Y-190.315
X223.969Y-190.315
X295.381Y-152.215
X297.762Y-114.115
X319.257Y-152.215
X321.638Y-114.115
T4
X48.715Y-89.985
X48.715Y-118.56
X51.096Y-194.76
X53.477Y-137.61
X55.065Y-87.445
X55.065Y-116.02
X55.859Y-156.66
X57.446Y-192.22
X59.828Y-135.07
X60.621Y-175.71
X62.209Y-154.12
X66.971Y-173.17
X67.765Y-118.56
X74.115Y-116.02
X74.909Y-194.76
X77.29Y-137.61
X81.259Y-192.22
X82.052Y-156.66
X83.64Y-135.07
X86.815Y-89.985
X86.815Y-118.56
X88.402Y-154.12
X91.578Y-175.71
X93.165Y-87.445
X93.165Y-116.02
X96.34Y-137.61
X97.927Y-173.17
X98.721Y-194.76
X101.102Y-156.66
X102.69Y-135.07
X105.071Y-192.22
X105.865Y-89.985
X105.865Y-118.56
X107.453Y-154.12
X110.627Y-175.71
X112.215Y-87.445
X112.215Y-116.02
X115.39Y-137.61
X116.977Y-173.17
X120.152Y-156.66
X121.74Y-135.07
X124.915Y-89.985
X124.915Y-118.56
X126.502Y-154.12
X129.677Y-175.71
X131.265Y-87.445
X131.265Y-116.02
X134.44Y-137.61
X136.028Y-173.17
X139.202Y-156.66
X140.79Y-135.07
X143.965Y-89.985
X143.965Y-118.56
X145.552Y-154.12
X148.727Y-175.71
X150.315Y-87.445
X150.315Y-116.02
X153.49Y-137.61
X155.077Y-173.17
X158.252Y-156.66
X159.84Y-135.07
X163.015Y-118.56
X164.602Y-154.12
X167.778Y-89.985
X167.778Y-175.71
X169.365Y-116.02
X170.159Y-194.76
X172.54Y-137.61
X174.127Y-87.445
X174.127Y-173.17
X176.509Y-192.22
X177.302Y-156.66
X178.89Y-135.07
X182.065Y-118.56
X183.653Y-154.12
X186.827Y-89.985
X186.827Y-175.71
X188.415Y-116.02
X191.59Y-137.61
X193.177Y-87.445
X193.177Y-173.17
X196.352Y-156.66
X197.94Y-135.07
X201.115Y-118.56
X202.702Y-154.12
X205.877Y-89.985
X205.877Y-175.71
X207.465Y-116.02
X210.64Y-137.61
X212.227Y-87.445
X212.227Y-173.17
X215.403Y-156.66
X216.99Y-135.07
X220.165Y-118.56
X221.752Y-154.12
X224.927Y-89.985
X224.927Y-175.71
X226.515Y-116.02
X229.69Y-137.61
X231.278Y-87.445
X231.278Y-173.17
X234.452Y-156.66
X236.04Y-135.07
X239.215Y-118.56
X239.215Y-194.76
X240.802Y-154.12
X243.977Y-175.71
X245.565Y-116.02
X245.565Y-192.22
X248.74Y-89.985
X248.74Y-137.61
X250.327Y-173.17
X253.502Y-156.66
X255.09Y-87.445
X255.09Y-135.07
X258.265Y-118.56
X258.265Y-194.76
X259.852Y-154.12
X263.027Y-175.71
X264.615Y-116.02
X264.615Y-192.22
X267.79Y-89.985
X267.79Y-137.61
X269.377Y-173.17
X272.553Y-156.66
X274.14Y-87.445
X274.14Y-135.07
X277.315Y-118.56
X277.315Y-194.76
X278.902Y-154.12
X283.665Y-116.02
X283.665Y-192.22
X286.84Y-89.985
X286.84Y-137.61
X289.221Y-175.71
X293.19Y-87.445
X293.19Y-135.07
X295.571Y-173.17
X303.509Y-156.66
X305.89Y-89.985
X305.89Y-118.56
X309.859Y-154.12
X310.652Y-137.61
X312.24Y-87.445
X312.24Y-116.02
X315.415Y-199.522
X317.002Y-135.07
X321.765Y-196.982
X334.465Y-180.472
X334.465Y-199.522
X340.815Y-177.933
X340.815Y-196.982
X353.515Y-199.522
X358.277Y-89.985
X358.277Y-118.56
X358.277Y-137.61
X358.277Y-156.66
X358.277Y-175.71
X359.865Y-196.982
X364.627Y-87.445
X364.627Y-116.02
X364.627Y-135.07
X364.627Y-154.12
X364.627Y-173.17
T5
X52.493Y-186.475
X76.369Y-186.475
X123.969Y-205.525
X223.969Y-205.525
X295.381Y-167.425
X297.762Y-129.325
X319.257Y-167.425
X321.638Y-129.325
T6
X52.525Y-92.525
X52.525Y-121.1
X54.906Y-197.3
X57.287Y-140.15
X59.669Y-159.2
X64.431Y-178.25
X71.575Y-121.1
X78.719Y-197.3
X81.1Y-140.15
X85.862Y-159.2
X90.625Y-92.525
X90.625Y-121.1
X95.387Y-178.25
X100.15Y-140.15
X102.531Y-197.3
X104.912Y-159.2
X109.675Y-92.525
X109.675Y-121.1
X114.438Y-178.25
X119.2Y-140.15
X123.962Y-159.2
X128.725Y-92.525
X128.725Y-121.1
X133.487Y-178.25
X138.25Y-140.15
X143.012Y-159.2
X147.775Y-92.525
X147.775Y-121.1
X152.537Y-178.25
X157.3Y-140.15
X162.062Y-159.2
X166.825Y-121.1
X171.588Y-92.525
X171.588Y-178.25
X173.969Y-197.3
X176.35Y-140.15
X181.112Y-159.2
X185.875Y-121.1
X190.637Y-92.525
X190.637Y-178.25
X195.4Y-140.15
X200.162Y-159.2
X204.925Y-121.1
X209.688Y-92.525
X209.688Y-178.25
X214.45Y-140.15
X219.212Y-159.2
X223.975Y-121.1
X228.737Y-92.525
X228.737Y-178.25
X233.5Y-140.15
X238.262Y-159.2
X243.025Y-121.1
X243.025Y-197.3
X247.787Y-178.25
X252.55Y-92.525
X252.55Y-140.15
X257.312Y-159.2
X262.075Y-121.1
X262.075Y-197.3
X266.837Y-178.25
X271.6Y-92.525
X271.6Y-140.15
X276.363Y-159.2
X281.125Y-121.1
X281.125Y-197.3
X290.65Y-92.525
X290.65Y-140.15
X293.031Y-178.25
X307.319Y-159.2
X309.7Y-92.525
X309.7Y-121.1
X314.462Y-140.15
X319.225Y-202.062
X338.275Y-183.012
X338.275Y-202.062
X357.325Y-202.062
X362.087Y-92.525
X362.087Y-121.1
X362.087Y-140.15
X362.087Y-159.2
X362.087Y-178.25
M30
