%TF.GenerationSoftware,KiCad,Pcbnew,10.0.6*%
%TF.CreationDate,2026-10-03T19:16:58-04:00*%
%TF.ProjectId,Vamora75,56616d6f-7261-4373-952e-6b696361645f,1.2*%
%TF.SameCoordinates,Original*%
%TF.FileFunction,Paste,Bot*%
%TF.FilePolarity,Positive*%
%FSLAX46Y46*%
G04 Gerber Fmt 4.6, Leading zero omitted, Abs format (unit mm)*
G04 Created by KiCad (PCBNEW 10.0.6) date 2026-10-03 19:16:58*
%MOMM*%
%LPD*%
G01*
G04 APERTURE LIST*
G04 Aperture macros list*
%AMRoundRect*
0 Rectangle with rounded corners*
0 $1 Rounding radius*
0 $2 $3 $4 $5 $6 $7 $8 $9 X,Y pos of 4 corners*
0 Add a 4 corners polygon primitive as box body*
4,1,4,$2,$3,$4,$5,$6,$7,$8,$9,$2,$3,0*
0 Add four circle primitives for the rounded corners*
1,1,$1+$1,$2,$3*
1,1,$1+$1,$4,$5*
1,1,$1+$1,$6,$7*
1,1,$1+$1,$8,$9*
0 Add four rect primitives between the rounded corners*
20,1,$1+$1,$2,$3,$4,$5,0*
20,1,$1+$1,$4,$5,$6,$7,0*
20,1,$1+$1,$6,$7,$8,$9,0*
20,1,$1+$1,$8,$9,$2,$3,0*%
G04 Aperture macros list end*
%ADD10RoundRect,0.250000X-1.025000X-1.000000X1.025000X-1.000000X1.025000X1.000000X-1.025000X1.000000X0*%
%ADD11RoundRect,0.140000X-0.170000X0.140000X-0.170000X-0.140000X0.170000X-0.140000X0.170000X0.140000X0*%
%ADD12RoundRect,0.225000X0.375000X-0.225000X0.375000X0.225000X-0.375000X0.225000X-0.375000X-0.225000X0*%
%ADD13RoundRect,0.250000X0.370000X0.370000X-0.370000X0.370000X-0.370000X-0.370000X0.370000X-0.370000X0*%
%ADD14RoundRect,0.050000X0.387500X0.050000X-0.387500X0.050000X-0.387500X-0.050000X0.387500X-0.050000X0*%
%ADD15RoundRect,0.050000X0.050000X0.387500X-0.050000X0.387500X-0.050000X-0.387500X0.050000X-0.387500X0*%
%ADD16RoundRect,0.140000X0.170000X-0.140000X0.170000X0.140000X-0.170000X0.140000X-0.170000X-0.140000X0*%
%ADD17R,1.000000X0.750000*%
%ADD18RoundRect,0.140000X0.140000X0.170000X-0.140000X0.170000X-0.140000X-0.170000X0.140000X-0.170000X0*%
%ADD19R,0.600000X1.450000*%
%ADD20R,0.300000X1.450000*%
%ADD21RoundRect,0.040000X0.040000X0.605000X-0.040000X0.605000X-0.040000X-0.605000X0.040000X-0.605000X0*%
%ADD22RoundRect,0.062500X0.387500X0.062500X-0.387500X0.062500X-0.387500X-0.062500X0.387500X-0.062500X0*%
%ADD23RoundRect,0.135000X-0.185000X0.135000X-0.185000X-0.135000X0.185000X-0.135000X0.185000X0.135000X0*%
%ADD24RoundRect,0.135000X0.135000X0.185000X-0.135000X0.185000X-0.135000X-0.185000X0.135000X-0.185000X0*%
%ADD25RoundRect,0.140000X-0.140000X-0.170000X0.140000X-0.170000X0.140000X0.170000X-0.140000X0.170000X0*%
%ADD26RoundRect,0.135000X0.185000X-0.135000X0.185000X0.135000X-0.185000X0.135000X-0.185000X-0.135000X0*%
%ADD27RoundRect,0.243750X-0.456250X0.243750X-0.456250X-0.243750X0.456250X-0.243750X0.456250X0.243750X0*%
%ADD28RoundRect,0.135000X-0.135000X-0.185000X0.135000X-0.185000X0.135000X0.185000X-0.135000X0.185000X0*%
%ADD29RoundRect,0.250000X0.450000X0.350000X-0.450000X0.350000X-0.450000X-0.350000X0.450000X-0.350000X0*%
%ADD30RoundRect,0.150000X-0.150000X0.512500X-0.150000X-0.512500X0.150000X-0.512500X0.150000X0.512500X0*%
%ADD31RoundRect,0.150000X0.587500X0.150000X-0.587500X0.150000X-0.587500X-0.150000X0.587500X-0.150000X0*%
%ADD32RoundRect,0.225000X-0.250000X0.225000X-0.250000X-0.225000X0.250000X-0.225000X0.250000X0.225000X0*%
%ADD33RoundRect,0.225000X0.250000X-0.225000X0.250000X0.225000X-0.250000X0.225000X-0.250000X-0.225000X0*%
G04 APERTURE END LIST*
D10*
%TO.C,SW10*%
X245465000Y-89985000D03*
X258392000Y-87445000D03*
%TD*%
%TO.C,SW28*%
X302615000Y-118560000D03*
X315542000Y-116020000D03*
%TD*%
%TO.C,SW71*%
X331190000Y-180472500D03*
X344117000Y-177932500D03*
%TD*%
%TO.C,SW17*%
X83540000Y-118560000D03*
X96467000Y-116020000D03*
%TD*%
%TO.C,SW46*%
X78777500Y-156660000D03*
X91704500Y-154120000D03*
%TD*%
%TO.C,SW62*%
X126402500Y-175710000D03*
X139329500Y-173170000D03*
%TD*%
%TO.C,SW54*%
X231177500Y-156660000D03*
X244104500Y-154120000D03*
%TD*%
%TO.C,SW15*%
X45440000Y-118560000D03*
X58367000Y-116020000D03*
%TD*%
%TO.C,SW19*%
X121640000Y-118560000D03*
X134567000Y-116020000D03*
%TD*%
%TO.C,SW18*%
X102590000Y-118560000D03*
X115517000Y-116020000D03*
%TD*%
%TO.C,SW82*%
X350240000Y-199522500D03*
X363167000Y-196982500D03*
%TD*%
%TO.C,SW24*%
X216890000Y-118560000D03*
X229817000Y-116020000D03*
%TD*%
%TO.C,SW5*%
X140690000Y-89985000D03*
X153617000Y-87445000D03*
%TD*%
%TO.C,SW79*%
X274040000Y-194760000D03*
X286967000Y-192220000D03*
%TD*%
%TO.C,SW81*%
X331190000Y-199522500D03*
X344117000Y-196982500D03*
%TD*%
%TO.C,SW6*%
X164502500Y-89985000D03*
X177429500Y-87445000D03*
%TD*%
%TO.C,SW14*%
X355002500Y-89985000D03*
X367929500Y-87445000D03*
%TD*%
%TO.C,SW43*%
X307377500Y-137610000D03*
X320304500Y-135070000D03*
%TD*%
%TO.C,SW22*%
X178790000Y-118560000D03*
X191717000Y-116020000D03*
%TD*%
%TO.C,SW63*%
X145452500Y-175710000D03*
X158379500Y-173170000D03*
%TD*%
%TO.C,SW25*%
X235940000Y-118560000D03*
X248867000Y-116020000D03*
%TD*%
%TO.C,SW38*%
X207365000Y-137610000D03*
X220292000Y-135070000D03*
%TD*%
%TO.C,SW33*%
X112115000Y-137610000D03*
X125042000Y-135070000D03*
%TD*%
%TO.C,SW52*%
X193077500Y-156660000D03*
X206004500Y-154120000D03*
%TD*%
%TO.C,SW60*%
X88302500Y-175710000D03*
X101229500Y-173170000D03*
%TD*%
%TO.C,SW48*%
X116877500Y-156660000D03*
X129804500Y-154120000D03*
%TD*%
%TO.C,SW4*%
X121640000Y-89985000D03*
X134567000Y-87445000D03*
%TD*%
%TO.C,SW80*%
X312140000Y-199522500D03*
X325067000Y-196982500D03*
%TD*%
%TO.C,SW56*%
X269277500Y-156660000D03*
X282204500Y-154120000D03*
%TD*%
%TO.C,SW20*%
X140690000Y-118560000D03*
X153617000Y-116020000D03*
%TD*%
%TO.C,SW34*%
X131165000Y-137610000D03*
X144092000Y-135070000D03*
%TD*%
%TO.C,SW41*%
X264515000Y-137610000D03*
X277442000Y-135070000D03*
%TD*%
%TO.C,SW57*%
X300233750Y-156660000D03*
X313160750Y-154120000D03*
%TD*%
%TO.C,SW31*%
X74015000Y-137610000D03*
X86942000Y-135070000D03*
%TD*%
%TO.C,SW68*%
X240702500Y-175710000D03*
X253629500Y-173170000D03*
%TD*%
%TO.C,SW55*%
X250227500Y-156660000D03*
X263154500Y-154120000D03*
%TD*%
%TO.C,SW11*%
X264515000Y-89985000D03*
X277442000Y-87445000D03*
%TD*%
%TO.C,SW44*%
X355002500Y-137610000D03*
X367929500Y-135070000D03*
%TD*%
%TO.C,SW2*%
X83540000Y-89985000D03*
X96467000Y-87445000D03*
%TD*%
%TO.C,SW37*%
X188315000Y-137610000D03*
X201242000Y-135070000D03*
%TD*%
%TO.C,SW69*%
X259752499Y-175710000D03*
X272679499Y-173170000D03*
%TD*%
%TO.C,SW29*%
X355002500Y-118560000D03*
X367929500Y-116020000D03*
%TD*%
%TO.C,SW53*%
X212127500Y-156660000D03*
X225054500Y-154120000D03*
%TD*%
%TO.C,SW49*%
X135927500Y-156660000D03*
X148854500Y-154120000D03*
%TD*%
%TO.C,SW66*%
X202602500Y-175710000D03*
X215529500Y-173170000D03*
%TD*%
%TO.C,SW65*%
X183552500Y-175710000D03*
X196479500Y-173170000D03*
%TD*%
%TO.C,SW9*%
X221652500Y-89985000D03*
X234579500Y-87445000D03*
%TD*%
%TO.C,SW8*%
X202602500Y-89985000D03*
X215529500Y-87445000D03*
%TD*%
%TO.C,SW47*%
X97827500Y-156660000D03*
X110754500Y-154120000D03*
%TD*%
%TO.C,SW12*%
X283565000Y-89985000D03*
X296492000Y-87445000D03*
%TD*%
%TO.C,SW76*%
X166883750Y-194760000D03*
X179810750Y-192220000D03*
%TD*%
%TO.C,SW39*%
X226415000Y-137610000D03*
X239342000Y-135070000D03*
%TD*%
%TO.C,SW77*%
X235940000Y-194760000D03*
X248867000Y-192220000D03*
%TD*%
%TO.C,SW75*%
X95446250Y-194760000D03*
X108373250Y-192220000D03*
%TD*%
%TO.C,SW45*%
X52583750Y-156660000D03*
X65510750Y-154120000D03*
%TD*%
%TO.C,SW61*%
X107352500Y-175710000D03*
X120279500Y-173170000D03*
%TD*%
%TO.C,SW50*%
X154977500Y-156660000D03*
X167904500Y-154120000D03*
%TD*%
%TO.C,SW40*%
X245465000Y-137610000D03*
X258392000Y-135070000D03*
%TD*%
%TO.C,SW32*%
X93065000Y-137610000D03*
X105992000Y-135070000D03*
%TD*%
%TO.C,SW36*%
X169265000Y-137610000D03*
X182192000Y-135070000D03*
%TD*%
%TO.C,SW7*%
X183552500Y-89985000D03*
X196479500Y-87445000D03*
%TD*%
%TO.C,SW16*%
X64490000Y-118560000D03*
X77417000Y-116020000D03*
%TD*%
%TO.C,SW67*%
X221652500Y-175710000D03*
X234579500Y-173170000D03*
%TD*%
%TO.C,SW21*%
X159740000Y-118560000D03*
X172667000Y-116020000D03*
%TD*%
%TO.C,SW1*%
X45440000Y-89985000D03*
X58367000Y-87445000D03*
%TD*%
%TO.C,SW3*%
X102590000Y-89985000D03*
X115517000Y-87445000D03*
%TD*%
%TO.C,SW35*%
X150215000Y-137610000D03*
X163142000Y-135070000D03*
%TD*%
%TO.C,SW59*%
X57346250Y-175710000D03*
X70273250Y-173170000D03*
%TD*%
%TO.C,SW58*%
X355002500Y-156660000D03*
X367929500Y-154120000D03*
%TD*%
%TO.C,SW70*%
X285946250Y-175710000D03*
X298873250Y-173170000D03*
%TD*%
%TO.C,SW26*%
X254990000Y-118560000D03*
X267917000Y-116020000D03*
%TD*%
%TO.C,SW51*%
X174027500Y-156660000D03*
X186954500Y-154120000D03*
%TD*%
%TO.C,SW30*%
X50202500Y-137610000D03*
X63129500Y-135070000D03*
%TD*%
%TO.C,SW42*%
X283565000Y-137610000D03*
X296492000Y-135070000D03*
%TD*%
%TO.C,SW27*%
X274040000Y-118560000D03*
X286967000Y-116020000D03*
%TD*%
%TO.C,SW78*%
X254990000Y-194760000D03*
X267917000Y-192220000D03*
%TD*%
%TO.C,SW74*%
X71633750Y-194760000D03*
X84560750Y-192220000D03*
%TD*%
%TO.C,SW72*%
X355002500Y-175710000D03*
X367929500Y-173170000D03*
%TD*%
%TO.C,SW64*%
X164502500Y-175710000D03*
X177429500Y-173170000D03*
%TD*%
%TO.C,SW23*%
X197840000Y-118560000D03*
X210767000Y-116020000D03*
%TD*%
%TO.C,SW13*%
X302615000Y-89985000D03*
X315542000Y-87445000D03*
%TD*%
%TO.C,SW73*%
X47821250Y-194760000D03*
X60748250Y-192220000D03*
%TD*%
D11*
%TO.C,C11*%
X335350000Y-111120000D03*
X335350000Y-112080000D03*
%TD*%
D12*
%TO.C,D48*%
X132862500Y-159950000D03*
X132862500Y-156650000D03*
%TD*%
%TO.C,D9*%
X237637500Y-93275000D03*
X237637500Y-89975000D03*
%TD*%
D13*
%TO.C,U1*%
X337300000Y-106400000D03*
X337300000Y-104800000D03*
X335700000Y-106400000D03*
X335700000Y-104800000D03*
D14*
X339937500Y-103000000D03*
X339937500Y-103400000D03*
X339937500Y-103800000D03*
X339937500Y-104200000D03*
X339937500Y-104600000D03*
X339937500Y-105000000D03*
X339937500Y-105400000D03*
X339937500Y-105800000D03*
X339937500Y-106200000D03*
X339937500Y-106600000D03*
X339937500Y-107000000D03*
X339937500Y-107400000D03*
X339937500Y-107800000D03*
X339937500Y-108200000D03*
D15*
X339100000Y-109037500D03*
X338700000Y-109037500D03*
X338300000Y-109037500D03*
X337900000Y-109037500D03*
X337500000Y-109037500D03*
X337100000Y-109037500D03*
X336700000Y-109037500D03*
X336300000Y-109037500D03*
X335900000Y-109037500D03*
X335500000Y-109037500D03*
X335100000Y-109037500D03*
X334700000Y-109037500D03*
X334300000Y-109037500D03*
X333900000Y-109037500D03*
D14*
X333062500Y-108200000D03*
X333062500Y-107800000D03*
X333062500Y-107400000D03*
X333062500Y-107000000D03*
X333062500Y-106600000D03*
X333062500Y-106200000D03*
X333062500Y-105800000D03*
X333062500Y-105400000D03*
X333062500Y-105000000D03*
X333062500Y-104600000D03*
X333062500Y-104200000D03*
X333062500Y-103800000D03*
X333062500Y-103400000D03*
X333062500Y-103000000D03*
D15*
X333900000Y-102162500D03*
X334300000Y-102162500D03*
X334700000Y-102162500D03*
X335100000Y-102162500D03*
X335500000Y-102162500D03*
X335900000Y-102162500D03*
X336300000Y-102162500D03*
X336700000Y-102162500D03*
X337100000Y-102162500D03*
X337500000Y-102162500D03*
X337900000Y-102162500D03*
X338300000Y-102162500D03*
X338700000Y-102162500D03*
X339100000Y-102162500D03*
%TD*%
D12*
%TO.C,D70*%
X301931250Y-179000000D03*
X301931250Y-175700000D03*
%TD*%
D16*
%TO.C,C14*%
X334350000Y-100880000D03*
X334350000Y-99920000D03*
%TD*%
D12*
%TO.C,D3*%
X118575000Y-93275000D03*
X118575000Y-89975000D03*
%TD*%
D17*
%TO.C,SW90*%
X344300000Y-93475000D03*
X350300000Y-93475000D03*
X344300000Y-89725000D03*
X350300000Y-89725000D03*
%TD*%
D12*
%TO.C,D30*%
X66187500Y-140900000D03*
X66187500Y-137600000D03*
%TD*%
%TO.C,D14*%
X370987500Y-93275000D03*
X370987500Y-89975000D03*
%TD*%
%TO.C,D1*%
X61425000Y-93275000D03*
X61425000Y-89975000D03*
%TD*%
D18*
%TO.C,C17*%
X335780000Y-113900000D03*
X334820000Y-113900000D03*
%TD*%
D12*
%TO.C,D68*%
X256687500Y-179000000D03*
X256687500Y-175700000D03*
%TD*%
D19*
%TO.C,J1*%
X333250000Y-87695000D03*
X334050000Y-87695000D03*
D20*
X335250000Y-87695000D03*
X336250000Y-87695000D03*
X336750000Y-87695000D03*
X337750000Y-87695000D03*
D19*
X338950000Y-87695000D03*
X339750000Y-87695000D03*
X339750000Y-87695000D03*
X338950000Y-87695000D03*
D20*
X338250000Y-87695000D03*
X337250000Y-87695000D03*
X335750000Y-87695000D03*
X334750000Y-87695000D03*
D19*
X334050000Y-87695000D03*
X333250000Y-87695000D03*
%TD*%
D21*
%TO.C,U4*%
X341600000Y-98700000D03*
D22*
X343025000Y-97950000D03*
X343025000Y-98450000D03*
X343025000Y-98950000D03*
X343025000Y-99450000D03*
X340175000Y-99450000D03*
X340175000Y-98950000D03*
X340175000Y-98450000D03*
X340175000Y-97950000D03*
%TD*%
D12*
%TO.C,D72*%
X370987500Y-179000000D03*
X370987500Y-175700000D03*
%TD*%
%TO.C,D47*%
X113812500Y-159950000D03*
X113812500Y-156650000D03*
%TD*%
%TO.C,D32*%
X109050000Y-140900000D03*
X109050000Y-137600000D03*
%TD*%
%TO.C,D24*%
X232875000Y-121850000D03*
X232875000Y-118550000D03*
%TD*%
%TO.C,D58*%
X370987500Y-159950000D03*
X370987500Y-156650000D03*
%TD*%
%TO.C,D39*%
X242400000Y-140900000D03*
X242400000Y-137600000D03*
%TD*%
D17*
%TO.C,SW91*%
X331800000Y-117925000D03*
X325800000Y-117925000D03*
X331800000Y-121675000D03*
X325800000Y-121675000D03*
%TD*%
D18*
%TO.C,C6*%
X330380000Y-110600000D03*
X329420000Y-110600000D03*
%TD*%
D23*
%TO.C,R1*%
X333200000Y-91090000D03*
X333200000Y-92110000D03*
%TD*%
D12*
%TO.C,D57*%
X316218750Y-159950000D03*
X316218750Y-156650000D03*
%TD*%
%TO.C,D29*%
X370987500Y-121850000D03*
X370987500Y-118550000D03*
%TD*%
%TO.C,D64*%
X180487500Y-179000000D03*
X180487500Y-175700000D03*
%TD*%
%TO.C,D43*%
X323362500Y-140900000D03*
X323362500Y-137600000D03*
%TD*%
%TO.C,D2*%
X99525000Y-93275000D03*
X99525000Y-89975000D03*
%TD*%
%TO.C,D62*%
X142387500Y-179000000D03*
X142387500Y-175700000D03*
%TD*%
%TO.C,D22*%
X194775000Y-121850000D03*
X194775000Y-118550000D03*
%TD*%
D18*
%TO.C,C12*%
X344080000Y-111400000D03*
X343120000Y-111400000D03*
%TD*%
D24*
%TO.C,R5*%
X346910000Y-97600000D03*
X345890000Y-97600000D03*
%TD*%
D25*
%TO.C,C3*%
X341220000Y-102300000D03*
X342180000Y-102300000D03*
%TD*%
D12*
%TO.C,D19*%
X137625000Y-121850000D03*
X137625000Y-118550000D03*
%TD*%
%TO.C,D80*%
X328125000Y-202812500D03*
X328125000Y-199512500D03*
%TD*%
%TO.C,D79*%
X290025000Y-198050000D03*
X290025000Y-194750000D03*
%TD*%
%TO.C,D8*%
X218587500Y-93275000D03*
X218587500Y-89975000D03*
%TD*%
%TO.C,D10*%
X261450000Y-93275000D03*
X261450000Y-89975000D03*
%TD*%
D23*
%TO.C,R7*%
X333600000Y-112890000D03*
X333600000Y-113910000D03*
%TD*%
D12*
%TO.C,D51*%
X190012500Y-159950000D03*
X190012500Y-156650000D03*
%TD*%
%TO.C,D4*%
X137625000Y-93275000D03*
X137625000Y-89975000D03*
%TD*%
%TO.C,D75*%
X111431250Y-198050000D03*
X111431250Y-194750000D03*
%TD*%
D11*
%TO.C,C5*%
X336300000Y-110970000D03*
X336300000Y-111930000D03*
%TD*%
D12*
%TO.C,D67*%
X237637500Y-179000000D03*
X237637500Y-175700000D03*
%TD*%
D26*
%TO.C,R4*%
X335400000Y-97810000D03*
X335400000Y-96790000D03*
%TD*%
D12*
%TO.C,D69*%
X275737500Y-179000000D03*
X275737500Y-175700000D03*
%TD*%
D16*
%TO.C,C13*%
X331400000Y-101080000D03*
X331400000Y-100120000D03*
%TD*%
D12*
%TO.C,D38*%
X223350000Y-140900000D03*
X223350000Y-137600000D03*
%TD*%
%TO.C,D71*%
X347175000Y-183762500D03*
X347175000Y-180462500D03*
%TD*%
%TO.C,D35*%
X166200000Y-140900000D03*
X166200000Y-137600000D03*
%TD*%
%TO.C,D81*%
X347175000Y-202812500D03*
X347175000Y-199512500D03*
%TD*%
%TO.C,D25*%
X251925000Y-121850000D03*
X251925000Y-118550000D03*
%TD*%
%TO.C,D34*%
X147150000Y-140900000D03*
X147150000Y-137600000D03*
%TD*%
D23*
%TO.C,R8*%
X337400000Y-111290000D03*
X337400000Y-112310000D03*
%TD*%
D12*
%TO.C,D50*%
X170962500Y-159950000D03*
X170962500Y-156650000D03*
%TD*%
%TO.C,D31*%
X90000000Y-140900000D03*
X90000000Y-137600000D03*
%TD*%
D27*
%TO.C,F1*%
X330600000Y-90662500D03*
X330600000Y-92537500D03*
%TD*%
D16*
%TO.C,C9*%
X336350000Y-100880000D03*
X336350000Y-99920000D03*
%TD*%
D28*
%TO.C,R6*%
X345890000Y-98900000D03*
X346910000Y-98900000D03*
%TD*%
D12*
%TO.C,D20*%
X156675000Y-121850000D03*
X156675000Y-118550000D03*
%TD*%
D29*
%TO.C,Y1*%
X339700000Y-115650000D03*
X337500000Y-115650000D03*
X337500000Y-113950000D03*
X339700000Y-113950000D03*
%TD*%
D12*
%TO.C,D36*%
X185250000Y-140900000D03*
X185250000Y-137600000D03*
%TD*%
%TO.C,D28*%
X318599999Y-121850000D03*
X318599999Y-118550000D03*
%TD*%
D30*
%TO.C,U2*%
X335550000Y-91562500D03*
X336500000Y-91562500D03*
X337450000Y-91562500D03*
X337450000Y-93837500D03*
X336500000Y-93837500D03*
X335550000Y-93837500D03*
%TD*%
D23*
%TO.C,R2*%
X339900000Y-91290000D03*
X339900000Y-92310000D03*
%TD*%
D12*
%TO.C,D66*%
X218587500Y-179000000D03*
X218587500Y-175700000D03*
%TD*%
D26*
%TO.C,R3*%
X336600000Y-97810000D03*
X336600000Y-96790000D03*
%TD*%
D12*
%TO.C,D18*%
X118575000Y-121850000D03*
X118575000Y-118550000D03*
%TD*%
%TO.C,D37*%
X204300000Y-140900000D03*
X204300000Y-137600000D03*
%TD*%
%TO.C,D40*%
X261450000Y-140900000D03*
X261450000Y-137600000D03*
%TD*%
%TO.C,D23*%
X213825000Y-121850000D03*
X213825000Y-118550000D03*
%TD*%
%TO.C,D17*%
X99525000Y-121850000D03*
X99525000Y-118550000D03*
%TD*%
%TO.C,D76*%
X182868750Y-198050000D03*
X182868750Y-194750000D03*
%TD*%
D31*
%TO.C,U3*%
X328837500Y-96950000D03*
X328837500Y-98850000D03*
X326962500Y-97900000D03*
%TD*%
D12*
%TO.C,D6*%
X180487500Y-93275000D03*
X180487500Y-89975000D03*
%TD*%
%TO.C,D55*%
X266212499Y-159950000D03*
X266212499Y-156650000D03*
%TD*%
%TO.C,D59*%
X73331250Y-179000000D03*
X73331250Y-175700000D03*
%TD*%
D18*
%TO.C,C15*%
X339780000Y-96600000D03*
X338820000Y-96600000D03*
%TD*%
D12*
%TO.C,D61*%
X123337500Y-179000000D03*
X123337500Y-175700000D03*
%TD*%
D16*
%TO.C,C10*%
X332500000Y-101080000D03*
X332500000Y-100120000D03*
%TD*%
D12*
%TO.C,D12*%
X299550000Y-93275000D03*
X299550000Y-89975000D03*
%TD*%
%TO.C,D33*%
X128100000Y-140900000D03*
X128100000Y-137600000D03*
%TD*%
%TO.C,D46*%
X94762500Y-159950000D03*
X94762500Y-156650000D03*
%TD*%
%TO.C,D78*%
X270975000Y-198050000D03*
X270975000Y-194750000D03*
%TD*%
%TO.C,D56*%
X285262500Y-159950000D03*
X285262500Y-156650000D03*
%TD*%
%TO.C,D27*%
X290025000Y-121850000D03*
X290025000Y-118550000D03*
%TD*%
D25*
%TO.C,C16*%
X341320000Y-115650000D03*
X342280000Y-115650000D03*
%TD*%
D12*
%TO.C,D7*%
X199537500Y-93275000D03*
X199537500Y-89975000D03*
%TD*%
%TO.C,D15*%
X61425000Y-121850000D03*
X61425000Y-118550000D03*
%TD*%
%TO.C,D73*%
X63806250Y-198050000D03*
X63806250Y-194750000D03*
%TD*%
%TO.C,D5*%
X156675000Y-93275000D03*
X156675000Y-89975000D03*
%TD*%
%TO.C,D45*%
X68568750Y-159950000D03*
X68568750Y-156650000D03*
%TD*%
%TO.C,D53*%
X228112500Y-159950000D03*
X228112500Y-156650000D03*
%TD*%
%TO.C,D21*%
X175725000Y-121850000D03*
X175725000Y-118550000D03*
%TD*%
%TO.C,D60*%
X104287500Y-179000000D03*
X104287500Y-175700000D03*
%TD*%
D16*
%TO.C,C7*%
X330300000Y-101080000D03*
X330300000Y-100120000D03*
%TD*%
D12*
%TO.C,D44*%
X370987500Y-140900000D03*
X370987500Y-137600000D03*
%TD*%
%TO.C,D77*%
X251925000Y-198050000D03*
X251925000Y-194750000D03*
%TD*%
D32*
%TO.C,C1*%
X325100000Y-97125000D03*
X325100000Y-98675000D03*
%TD*%
D33*
%TO.C,C2*%
X330700000Y-98675000D03*
X330700000Y-97125000D03*
%TD*%
D12*
%TO.C,D11*%
X280500000Y-93275000D03*
X280500000Y-89975000D03*
%TD*%
%TO.C,D74*%
X87618750Y-198050000D03*
X87618750Y-194750000D03*
%TD*%
%TO.C,D63*%
X161437500Y-179000000D03*
X161437500Y-175700000D03*
%TD*%
%TO.C,D16*%
X80475000Y-121850000D03*
X80475000Y-118550000D03*
%TD*%
%TO.C,D54*%
X247162500Y-159950000D03*
X247162500Y-156650000D03*
%TD*%
%TO.C,D41*%
X280500000Y-140900000D03*
X280500000Y-137600000D03*
%TD*%
%TO.C,D26*%
X270975000Y-121850000D03*
X270975000Y-118550000D03*
%TD*%
%TO.C,D49*%
X151912500Y-159950000D03*
X151912500Y-156650000D03*
%TD*%
D18*
%TO.C,C4*%
X344280000Y-102300000D03*
X343320000Y-102300000D03*
%TD*%
D12*
%TO.C,D82*%
X366224999Y-202812500D03*
X366224999Y-199512500D03*
%TD*%
%TO.C,D13*%
X318599999Y-93275000D03*
X318599999Y-89975000D03*
%TD*%
%TO.C,D42*%
X299550000Y-140900000D03*
X299550000Y-137600000D03*
%TD*%
%TO.C,D65*%
X199537500Y-179000000D03*
X199537500Y-175700000D03*
%TD*%
%TO.C,D52*%
X209062500Y-159950000D03*
X209062500Y-156650000D03*
%TD*%
M02*
