%TF.GenerationSoftware,KiCad,Pcbnew,10.0.6*%
%TF.CreationDate,2026-10-02T04:25:34-04:00*%
%TF.ProjectId,Vamora75,56616d6f-7261-4373-952e-6b696361645f,1.1*%
%TF.SameCoordinates,Original*%
%TF.FileFunction,Soldermask,Top*%
%TF.FilePolarity,Negative*%
%FSLAX46Y46*%
G04 Gerber Fmt 4.6, Leading zero omitted, Abs format (unit mm)*
G04 Created by KiCad (PCBNEW 10.0.6) date 2026-10-02 04:25:34*
%MOMM*%
%LPD*%
G01*
G04 APERTURE LIST*
%ADD10C,1.750000*%
%ADD11C,3.050000*%
%ADD12C,4.000000*%
%ADD13C,3.048000*%
%ADD14C,3.987800*%
%ADD15C,0.650000*%
%ADD16O,1.000000X1.600000*%
%ADD17O,1.000000X2.100000*%
G04 APERTURE END LIST*
D10*
%TO.C,SW48*%
X118882500Y-159200000D03*
D11*
X120152500Y-156660000D03*
D12*
X123962500Y-159200000D03*
D11*
X126502500Y-154120000D03*
D10*
X129042500Y-159200000D03*
%TD*%
%TO.C,SW56*%
X271282500Y-159200000D03*
D11*
X272552500Y-156660000D03*
D12*
X276362500Y-159200000D03*
D11*
X278902500Y-154120000D03*
D10*
X281442500Y-159200000D03*
%TD*%
%TO.C,SW38*%
X209370000Y-140150000D03*
D11*
X210640000Y-137610000D03*
D12*
X214450000Y-140150000D03*
D11*
X216990000Y-135070000D03*
D10*
X219530000Y-140150000D03*
%TD*%
%TO.C,SW25*%
X237945000Y-121100000D03*
D11*
X239215000Y-118560000D03*
D12*
X243025000Y-121100000D03*
D11*
X245565000Y-116020000D03*
D10*
X248105000Y-121100000D03*
%TD*%
%TO.C,SW2*%
X85545000Y-92525000D03*
D11*
X86815000Y-89985000D03*
D12*
X90625000Y-92525000D03*
D11*
X93165000Y-87445000D03*
D10*
X95705000Y-92525000D03*
%TD*%
%TO.C,SW11*%
X266520000Y-92525000D03*
D11*
X267790000Y-89985000D03*
D12*
X271600000Y-92525000D03*
D11*
X274140000Y-87445000D03*
D10*
X276680000Y-92525000D03*
%TD*%
%TO.C,SW34*%
X133170000Y-140150000D03*
D11*
X134440000Y-137610000D03*
D12*
X138250000Y-140150000D03*
D11*
X140790000Y-135070000D03*
D10*
X143330000Y-140150000D03*
%TD*%
%TO.C,SW8*%
X204607500Y-92525000D03*
D11*
X205877500Y-89985000D03*
D12*
X209687500Y-92525000D03*
D11*
X212227500Y-87445000D03*
D10*
X214767500Y-92525000D03*
%TD*%
%TO.C,SW30*%
X52207500Y-140150000D03*
D11*
X53477500Y-137610000D03*
D12*
X57287500Y-140150000D03*
D11*
X59827500Y-135070000D03*
D10*
X62367500Y-140150000D03*
%TD*%
%TO.C,SW26*%
X256995000Y-121100000D03*
D11*
X258265000Y-118560000D03*
D12*
X262075000Y-121100000D03*
D11*
X264615000Y-116020000D03*
D10*
X267155000Y-121100000D03*
%TD*%
D13*
%TO.C,ST2*%
X295380750Y-152215000D03*
D14*
X295380750Y-167425000D03*
D13*
X319256750Y-152215000D03*
D14*
X319256750Y-167425000D03*
%TD*%
D10*
%TO.C,SW4*%
X123645000Y-92525000D03*
D11*
X124915000Y-89985000D03*
D12*
X128725000Y-92525000D03*
D11*
X131265000Y-87445000D03*
D10*
X133805000Y-92525000D03*
%TD*%
%TO.C,SW76*%
X168888750Y-197300000D03*
D11*
X170158750Y-194760000D03*
D12*
X173968750Y-197300000D03*
D11*
X176508750Y-192220000D03*
D10*
X179048750Y-197300000D03*
%TD*%
%TO.C,SW60*%
X90307500Y-178250000D03*
D11*
X91577500Y-175710000D03*
D12*
X95387500Y-178250000D03*
D11*
X97927500Y-173170000D03*
D10*
X100467500Y-178250000D03*
%TD*%
%TO.C,SW58*%
X357007500Y-159200000D03*
D11*
X358277500Y-156660000D03*
D12*
X362087500Y-159200000D03*
D11*
X364627500Y-154120000D03*
D10*
X367167500Y-159200000D03*
%TD*%
%TO.C,SW22*%
X180795000Y-121100000D03*
D11*
X182065000Y-118560000D03*
D12*
X185875000Y-121100000D03*
D11*
X188415000Y-116020000D03*
D10*
X190955000Y-121100000D03*
%TD*%
%TO.C,SW44*%
X357007500Y-140150000D03*
D11*
X358277500Y-137610000D03*
D12*
X362087500Y-140150000D03*
D11*
X364627500Y-135070000D03*
D10*
X367167500Y-140150000D03*
%TD*%
%TO.C,SW80*%
X314145000Y-202062500D03*
D11*
X315415000Y-199522500D03*
D12*
X319225000Y-202062500D03*
D11*
X321765000Y-196982500D03*
D10*
X324305000Y-202062500D03*
%TD*%
%TO.C,SW9*%
X223657500Y-92525000D03*
D11*
X224927500Y-89985000D03*
D12*
X228737500Y-92525000D03*
D11*
X231277500Y-87445000D03*
D10*
X233817500Y-92525000D03*
%TD*%
%TO.C,SW15*%
X47445000Y-121100000D03*
D11*
X48715000Y-118560000D03*
D12*
X52525000Y-121100000D03*
D11*
X55065000Y-116020000D03*
D10*
X57605000Y-121100000D03*
%TD*%
%TO.C,SW39*%
X228420000Y-140150000D03*
D11*
X229690000Y-137610000D03*
D12*
X233500000Y-140150000D03*
D11*
X236040000Y-135070000D03*
D10*
X238580000Y-140150000D03*
%TD*%
%TO.C,SW41*%
X266520000Y-140150000D03*
D11*
X267790000Y-137610000D03*
D12*
X271600000Y-140150000D03*
D11*
X274140000Y-135070000D03*
D10*
X276680000Y-140150000D03*
%TD*%
%TO.C,SW57*%
X302238750Y-159200000D03*
D11*
X303508750Y-156660000D03*
D12*
X307318750Y-159200000D03*
D11*
X309858750Y-154120000D03*
D10*
X312398750Y-159200000D03*
%TD*%
%TO.C,SW16*%
X66495000Y-121100000D03*
D11*
X67765000Y-118560000D03*
D12*
X71575000Y-121100000D03*
D11*
X74115000Y-116020000D03*
D10*
X76655000Y-121100000D03*
%TD*%
%TO.C,SW62*%
X128407500Y-178250000D03*
D11*
X129677500Y-175710000D03*
D12*
X133487500Y-178250000D03*
D11*
X136027500Y-173170000D03*
D10*
X138567500Y-178250000D03*
%TD*%
%TO.C,SW70*%
X287951250Y-178250000D03*
D11*
X289221250Y-175710000D03*
D12*
X293031250Y-178250000D03*
D11*
X295571250Y-173170000D03*
D10*
X298111250Y-178250000D03*
%TD*%
%TO.C,SW54*%
X233182500Y-159200000D03*
D11*
X234452500Y-156660000D03*
D12*
X238262500Y-159200000D03*
D11*
X240802500Y-154120000D03*
D10*
X243342500Y-159200000D03*
%TD*%
%TO.C,SW42*%
X285570000Y-140150000D03*
D11*
X286840000Y-137610000D03*
D12*
X290650000Y-140150000D03*
D11*
X293190000Y-135070000D03*
D10*
X295730000Y-140150000D03*
%TD*%
%TO.C,SW72*%
X357007500Y-178250000D03*
D11*
X358277500Y-175710000D03*
D12*
X362087500Y-178250000D03*
D11*
X364627500Y-173170000D03*
D10*
X367167500Y-178250000D03*
%TD*%
%TO.C,SW10*%
X247470000Y-92525000D03*
D11*
X248740000Y-89985000D03*
D12*
X252550000Y-92525000D03*
D11*
X255090000Y-87445000D03*
D10*
X257630000Y-92525000D03*
%TD*%
D13*
%TO.C,ST4*%
X123968750Y-190315000D03*
D14*
X123968750Y-205525000D03*
D13*
X223968750Y-190315000D03*
D14*
X223968750Y-205525000D03*
%TD*%
D10*
%TO.C,SW51*%
X176032500Y-159200000D03*
D11*
X177302500Y-156660000D03*
D12*
X181112500Y-159200000D03*
D11*
X183652500Y-154120000D03*
D10*
X186192500Y-159200000D03*
%TD*%
%TO.C,SW82*%
X352245000Y-202062500D03*
D11*
X353515000Y-199522500D03*
D12*
X357325000Y-202062500D03*
D11*
X359865000Y-196982500D03*
D10*
X362405000Y-202062500D03*
%TD*%
%TO.C,SW46*%
X80782500Y-159200000D03*
D11*
X82052500Y-156660000D03*
D12*
X85862500Y-159200000D03*
D11*
X88402500Y-154120000D03*
D10*
X90942500Y-159200000D03*
%TD*%
%TO.C,SW69*%
X261757499Y-178250000D03*
D11*
X263027499Y-175710000D03*
D12*
X266837499Y-178250000D03*
D11*
X269377499Y-173170000D03*
D10*
X271917499Y-178250000D03*
%TD*%
%TO.C,SW37*%
X190320000Y-140150000D03*
D11*
X191590000Y-137610000D03*
D12*
X195400000Y-140150000D03*
D11*
X197940000Y-135070000D03*
D10*
X200480000Y-140150000D03*
%TD*%
%TO.C,SW75*%
X97451250Y-197300000D03*
D11*
X98721250Y-194760000D03*
D12*
X102531250Y-197300000D03*
D11*
X105071250Y-192220000D03*
D10*
X107611250Y-197300000D03*
%TD*%
%TO.C,SW40*%
X247470000Y-140150000D03*
D11*
X248740000Y-137610000D03*
D12*
X252550000Y-140150000D03*
D11*
X255090000Y-135070000D03*
D10*
X257630000Y-140150000D03*
%TD*%
%TO.C,SW79*%
X276045000Y-197300000D03*
D11*
X277315000Y-194760000D03*
D12*
X281125000Y-197300000D03*
D11*
X283665000Y-192220000D03*
D10*
X286205000Y-197300000D03*
%TD*%
%TO.C,SW18*%
X104595000Y-121100000D03*
D11*
X105865000Y-118560000D03*
D12*
X109675000Y-121100000D03*
D11*
X112215000Y-116020000D03*
D10*
X114755000Y-121100000D03*
%TD*%
%TO.C,SW59*%
X59351250Y-178250000D03*
D11*
X60621250Y-175710000D03*
D12*
X64431250Y-178250000D03*
D11*
X66971250Y-173170000D03*
D10*
X69511250Y-178250000D03*
%TD*%
%TO.C,SW81*%
X333195000Y-202062500D03*
D11*
X334465000Y-199522500D03*
D12*
X338275000Y-202062500D03*
D11*
X340815000Y-196982500D03*
D10*
X343355000Y-202062500D03*
%TD*%
%TO.C,SW14*%
X357007500Y-92525000D03*
D11*
X358277500Y-89985000D03*
D12*
X362087500Y-92525000D03*
D11*
X364627500Y-87445000D03*
D10*
X367167500Y-92525000D03*
%TD*%
%TO.C,SW64*%
X166507500Y-178250000D03*
D11*
X167777500Y-175710000D03*
D12*
X171587500Y-178250000D03*
D11*
X174127500Y-173170000D03*
D10*
X176667500Y-178250000D03*
%TD*%
%TO.C,SW45*%
X54588750Y-159200000D03*
D11*
X55858750Y-156660000D03*
D12*
X59668750Y-159200000D03*
D11*
X62208750Y-154120000D03*
D10*
X64748750Y-159200000D03*
%TD*%
%TO.C,SW31*%
X76020000Y-140150000D03*
D11*
X77290000Y-137610000D03*
D12*
X81100000Y-140150000D03*
D11*
X83640000Y-135070000D03*
D10*
X86180000Y-140150000D03*
%TD*%
%TO.C,SW68*%
X242707500Y-178250000D03*
D11*
X243977500Y-175710000D03*
D12*
X247787500Y-178250000D03*
D11*
X250327500Y-173170000D03*
D10*
X252867500Y-178250000D03*
%TD*%
D13*
%TO.C,ST1*%
X297762000Y-114115000D03*
D14*
X297762000Y-129325000D03*
D13*
X321638000Y-114115000D03*
D14*
X321638000Y-129325000D03*
%TD*%
D10*
%TO.C,SW24*%
X218895000Y-121100000D03*
D11*
X220165000Y-118560000D03*
D12*
X223975000Y-121100000D03*
D11*
X226515000Y-116020000D03*
D10*
X229055000Y-121100000D03*
%TD*%
%TO.C,SW17*%
X85545000Y-121100000D03*
D11*
X86815000Y-118560000D03*
D12*
X90625000Y-121100000D03*
D11*
X93165000Y-116020000D03*
D10*
X95705000Y-121100000D03*
%TD*%
%TO.C,SW1*%
X47445000Y-92525000D03*
D11*
X48715000Y-89985000D03*
D12*
X52525000Y-92525000D03*
D11*
X55065000Y-87445000D03*
D10*
X57605000Y-92525000D03*
%TD*%
%TO.C,SW55*%
X252232500Y-159200000D03*
D11*
X253502500Y-156660000D03*
D12*
X257312500Y-159200000D03*
D11*
X259852500Y-154120000D03*
D10*
X262392500Y-159200000D03*
%TD*%
%TO.C,SW23*%
X199845000Y-121100000D03*
D11*
X201115000Y-118560000D03*
D12*
X204925000Y-121100000D03*
D11*
X207465000Y-116020000D03*
D10*
X210005000Y-121100000D03*
%TD*%
%TO.C,SW13*%
X304620000Y-92525000D03*
D11*
X305890000Y-89985000D03*
D12*
X309700000Y-92525000D03*
D11*
X312240000Y-87445000D03*
D10*
X314780000Y-92525000D03*
%TD*%
%TO.C,SW5*%
X142695000Y-92525000D03*
D11*
X143965000Y-89985000D03*
D12*
X147775000Y-92525000D03*
D11*
X150315000Y-87445000D03*
D10*
X152855000Y-92525000D03*
%TD*%
%TO.C,SW35*%
X152220000Y-140150000D03*
D11*
X153490000Y-137610000D03*
D12*
X157300000Y-140150000D03*
D11*
X159840000Y-135070000D03*
D10*
X162380000Y-140150000D03*
%TD*%
%TO.C,SW27*%
X276045000Y-121100000D03*
D11*
X277315000Y-118560000D03*
D12*
X281125000Y-121100000D03*
D11*
X283665000Y-116020000D03*
D10*
X286205000Y-121100000D03*
%TD*%
%TO.C,SW74*%
X73638750Y-197300000D03*
D11*
X74908750Y-194760000D03*
D12*
X78718750Y-197300000D03*
D11*
X81258750Y-192220000D03*
D10*
X83798750Y-197300000D03*
%TD*%
%TO.C,SW19*%
X123645000Y-121100000D03*
D11*
X124915000Y-118560000D03*
D12*
X128725000Y-121100000D03*
D11*
X131265000Y-116020000D03*
D10*
X133805000Y-121100000D03*
%TD*%
%TO.C,SW67*%
X223657500Y-178250000D03*
D11*
X224927500Y-175710000D03*
D12*
X228737500Y-178250000D03*
D11*
X231277500Y-173170000D03*
D10*
X233817500Y-178250000D03*
%TD*%
%TO.C,SW53*%
X214132500Y-159200000D03*
D11*
X215402500Y-156660000D03*
D12*
X219212500Y-159200000D03*
D11*
X221752500Y-154120000D03*
D10*
X224292500Y-159200000D03*
%TD*%
%TO.C,SW36*%
X171270000Y-140150000D03*
D11*
X172540000Y-137610000D03*
D12*
X176350000Y-140150000D03*
D11*
X178890000Y-135070000D03*
D10*
X181430000Y-140150000D03*
%TD*%
%TO.C,SW32*%
X95070000Y-140150000D03*
D11*
X96340000Y-137610000D03*
D12*
X100150000Y-140150000D03*
D11*
X102690000Y-135070000D03*
D10*
X105230000Y-140150000D03*
%TD*%
%TO.C,SW49*%
X137932500Y-159200000D03*
D11*
X139202500Y-156660000D03*
D12*
X143012500Y-159200000D03*
D11*
X145552500Y-154120000D03*
D10*
X148092500Y-159200000D03*
%TD*%
%TO.C,SW65*%
X185557500Y-178250000D03*
D11*
X186827500Y-175710000D03*
D12*
X190637500Y-178250000D03*
D11*
X193177500Y-173170000D03*
D10*
X195717500Y-178250000D03*
%TD*%
%TO.C,SW33*%
X114120000Y-140150000D03*
D11*
X115390000Y-137610000D03*
D12*
X119200000Y-140150000D03*
D11*
X121740000Y-135070000D03*
D10*
X124280000Y-140150000D03*
%TD*%
%TO.C,SW28*%
X304620000Y-121100000D03*
D11*
X305890000Y-118560000D03*
D12*
X309700000Y-121100000D03*
D11*
X312240000Y-116020000D03*
D10*
X314780000Y-121100000D03*
%TD*%
%TO.C,SW6*%
X166507500Y-92525000D03*
D11*
X167777500Y-89985000D03*
D12*
X171587500Y-92525000D03*
D11*
X174127500Y-87445000D03*
D10*
X176667500Y-92525000D03*
%TD*%
%TO.C,SW29*%
X357007500Y-121100000D03*
D11*
X358277500Y-118560000D03*
D12*
X362087500Y-121100000D03*
D11*
X364627500Y-116020000D03*
D10*
X367167500Y-121100000D03*
%TD*%
%TO.C,SW50*%
X156982500Y-159200000D03*
D11*
X158252500Y-156660000D03*
D12*
X162062500Y-159200000D03*
D11*
X164602500Y-154120000D03*
D10*
X167142500Y-159200000D03*
%TD*%
%TO.C,SW73*%
X49826250Y-197300000D03*
D11*
X51096250Y-194760000D03*
D12*
X54906250Y-197300000D03*
D11*
X57446250Y-192220000D03*
D10*
X59986250Y-197300000D03*
%TD*%
%TO.C,SW71*%
X333195000Y-183012500D03*
D11*
X334465000Y-180472500D03*
D12*
X338275000Y-183012500D03*
D11*
X340815000Y-177932500D03*
D10*
X343355000Y-183012500D03*
%TD*%
%TO.C,SW61*%
X109357500Y-178250000D03*
D11*
X110627500Y-175710000D03*
D12*
X114437500Y-178250000D03*
D11*
X116977500Y-173170000D03*
D10*
X119517500Y-178250000D03*
%TD*%
%TO.C,SW21*%
X161745000Y-121100000D03*
D11*
X163015000Y-118560000D03*
D12*
X166825000Y-121100000D03*
D11*
X169365000Y-116020000D03*
D10*
X171905000Y-121100000D03*
%TD*%
%TO.C,SW7*%
X185557500Y-92525000D03*
D11*
X186827500Y-89985000D03*
D12*
X190637500Y-92525000D03*
D11*
X193177500Y-87445000D03*
D10*
X195717500Y-92525000D03*
%TD*%
D13*
%TO.C,ST3*%
X52493250Y-171265000D03*
D14*
X52493250Y-186475000D03*
D13*
X76369250Y-171265000D03*
D14*
X76369250Y-186475000D03*
%TD*%
D10*
%TO.C,SW3*%
X104595000Y-92525000D03*
D11*
X105865000Y-89985000D03*
D12*
X109675000Y-92525000D03*
D11*
X112215000Y-87445000D03*
D10*
X114755000Y-92525000D03*
%TD*%
%TO.C,SW20*%
X142695000Y-121100000D03*
D11*
X143965000Y-118560000D03*
D12*
X147775000Y-121100000D03*
D11*
X150315000Y-116020000D03*
D10*
X152855000Y-121100000D03*
%TD*%
%TO.C,SW12*%
X285570000Y-92525000D03*
D11*
X286840000Y-89985000D03*
D12*
X290650000Y-92525000D03*
D11*
X293190000Y-87445000D03*
D10*
X295730000Y-92525000D03*
%TD*%
%TO.C,SW63*%
X147457500Y-178250000D03*
D11*
X148727500Y-175710000D03*
D12*
X152537500Y-178250000D03*
D11*
X155077500Y-173170000D03*
D10*
X157617500Y-178250000D03*
%TD*%
%TO.C,SW77*%
X237945000Y-197300000D03*
D11*
X239215000Y-194760000D03*
D12*
X243025000Y-197300000D03*
D11*
X245565000Y-192220000D03*
D10*
X248105000Y-197300000D03*
%TD*%
%TO.C,SW43*%
X309382500Y-140150000D03*
D11*
X310652500Y-137610000D03*
D12*
X314462500Y-140150000D03*
D11*
X317002500Y-135070000D03*
D10*
X319542500Y-140150000D03*
%TD*%
%TO.C,SW52*%
X195082500Y-159200000D03*
D11*
X196352500Y-156660000D03*
D12*
X200162500Y-159200000D03*
D11*
X202702500Y-154120000D03*
D10*
X205242500Y-159200000D03*
%TD*%
%TO.C,SW78*%
X256995000Y-197300000D03*
D11*
X258265000Y-194760000D03*
D12*
X262075000Y-197300000D03*
D11*
X264615000Y-192220000D03*
D10*
X267155000Y-197300000D03*
%TD*%
%TO.C,SW66*%
X204607500Y-178250000D03*
D11*
X205877500Y-175710000D03*
D12*
X209687500Y-178250000D03*
D11*
X212227500Y-173170000D03*
D10*
X214767500Y-178250000D03*
%TD*%
%TO.C,SW47*%
X99832500Y-159200000D03*
D11*
X101102500Y-156660000D03*
D12*
X104912500Y-159200000D03*
D11*
X107452500Y-154120000D03*
D10*
X109992500Y-159200000D03*
%TD*%
D15*
%TO.C,J1*%
X333610000Y-86250000D03*
X339390000Y-86250000D03*
D16*
X332180000Y-82600000D03*
D17*
X332180000Y-86780000D03*
D16*
X340820000Y-82600000D03*
D17*
X340820000Y-86780000D03*
%TD*%
M02*
