  0
SECTION
  2
HEADER
  9
$ACADVER
  1
AC1024
  9
$ACADMAINTVER
 70
6
  9
$DWGCODEPAGE
  3
ANSI_1252
  9
$LASTSAVEDBY
  1
ezdxf
  9
$INSBASE
 10
0.0
 20
0.0
 30
0.0
  9
$EXTMIN
 10
1e+20
 20
1e+20
 30
1e+20
  9
$EXTMAX
 10
-1e+20
 20
-1e+20
 30
-1e+20
  9
$LIMMIN
 10
0.0
 20
0.0
  9
$LIMMAX
 10
420.0
 20
297.0
  9
$ORTHOMODE
 70
0
  9
$REGENMODE
 70
1
  9
$FILLMODE
 70
1
  9
$QTEXTMODE
 70
0
  9
$MIRRTEXT
 70
1
  9
$LTSCALE
 40
1.0
  9
$ATTMODE
 70
1
  9
$TEXTSIZE
 40
2.5
  9
$TRACEWID
 40
1.0
  9
$TEXTSTYLE
  7
Standard
  9
$CLAYER
  8
0
  9
$CELTYPE
  6
ByLayer
  9
$CECOLOR
 62
256
  9
$CELTSCALE
 40
1.0
  9
$DISPSILH
 70
0
  9
$DIMSCALE
 40
1.0
  9
$DIMASZ
 40
2.5
  9
$DIMEXO
 40
0.625
  9
$DIMDLI
 40
3.75
  9
$DIMRND
 40
0.0
  9
$DIMDLE
 40
0.0
  9
$DIMEXE
 40
1.25
  9
$DIMTP
 40
0.0
  9
$DIMTM
 40
0.0
  9
$DIMTXT
 40
2.5
  9
$DIMCEN
 40
2.5
  9
$DIMTSZ
 40
0.0
  9
$DIMTOL
 70
0
  9
$DIMLIM
 70
0
  9
$DIMTIH
 70
0
  9
$DIMTOH
 70
0
  9
$DIMSE1
 70
0
  9
$DIMSE2
 70
0
  9
$DIMTAD
 70
1
  9
$DIMZIN
 70
8
  9
$DIMBLK
  1

  9
$DIMASO
 70
1
  9
$DIMSHO
 70
1
  9
$DIMPOST
  1

  9
$DIMAPOST
  1

  9
$DIMALT
 70
0
  9
$DIMALTD
 70
3
  9
$DIMALTF
 40
0.03937007874
  9
$DIMLFAC
 40
1.0
  9
$DIMTOFL
 70
1
  9
$DIMTVP
 40
0.0
  9
$DIMTIX
 70
0
  9
$DIMSOXD
 70
0
  9
$DIMSAH
 70
0
  9
$DIMBLK1
  1

  9
$DIMBLK2
  1

  9
$DIMSTYLE
  2
ISO-25
  9
$DIMCLRD
 70
0
  9
$DIMCLRE
 70
0
  9
$DIMCLRT
 70
0
  9
$DIMTFAC
 40
1.0
  9
$DIMGAP
 40
0.625
  9
$DIMJUST
 70
0
  9
$DIMSD1
 70
0
  9
$DIMSD2
 70
0
  9
$DIMTOLJ
 70
0
  9
$DIMTZIN
 70
8
  9
$DIMALTZ
 70
0
  9
$DIMALTTZ
 70
0
  9
$DIMUPT
 70
0
  9
$DIMDEC
 70
2
  9
$DIMTDEC
 70
2
  9
$DIMALTU
 70
2
  9
$DIMALTTD
 70
3
  9
$DIMTXSTY
  7
Standard
  9
$DIMAUNIT
 70
0
  9
$DIMADEC
 70
0
  9
$DIMALTRND
 40
0.0
  9
$DIMAZIN
 70
0
  9
$DIMDSEP
 70
44
  9
$DIMATFIT
 70
3
  9
$DIMFRAC
 70
0
  9
$DIMLDRBLK
  1

  9
$DIMLUNIT
 70
2
  9
$DIMLWD
 70
-2
  9
$DIMLWE
 70
-2
  9
$DIMTMOVE
 70
0
  9
$DIMFXL
 40
1.0
  9
$DIMFXLON
 70
0
  9
$DIMJOGANG
 40
0.785398163397
  9
$DIMTFILL
 70
0
  9
$DIMTFILLCLR
 70
0
  9
$DIMARCSYM
 70
0
  9
$DIMLTYPE
  6

  9
$DIMLTEX1
  6

  9
$DIMLTEX2
  6

  9
$DIMTXTDIRECTION
 70
0
  9
$LUNITS
 70
2
  9
$LUPREC
 70
4
  9
$SKETCHINC
 40
1.0
  9
$FILLETRAD
 40
10.0
  9
$AUNITS
 70
0
  9
$AUPREC
 70
2
  9
$MENU
  1
.
  9
$ELEVATION
 40
0.0
  9
$PELEVATION
 40
0.0
  9
$THICKNESS
 40
0.0
  9
$LIMCHECK
 70
0
  9
$CHAMFERA
 40
0.0
  9
$CHAMFERB
 40
0.0
  9
$CHAMFERC
 40
0.0
  9
$CHAMFERD
 40
0.0
  9
$SKPOLY
 70
0
  9
$TDCREATE
 40
2461317.803553241
  9
$TDUCREATE
 40
2458532.153996898
  9
$TDUPDATE
 40
2461317.803553241
  9
$TDUUPDATE
 40
2458532.1544311
  9
$TDINDWG
 40
0.0
  9
$TDUSRTIMER
 40
0.0
  9
$USRTIMER
 70
1
  9
$ANGBASE
 50
0.0
  9
$ANGDIR
 70
0
  9
$PDMODE
 70
0
  9
$PDSIZE
 40
0.0
  9
$PLINEWID
 40
0.0
  9
$SPLFRAME
 70
0
  9
$SPLINETYPE
 70
6
  9
$SPLINESEGS
 70
8
  9
$HANDSEED
  5
3D
  9
$SURFTAB1
 70
6
  9
$SURFTAB2
 70
6
  9
$SURFTYPE
 70
6
  9
$SURFU
 70
6
  9
$SURFV
 70
6
  9
$UCSBASE
  2

  9
$UCSNAME
  2

  9
$UCSORG
 10
0.0
 20
0.0
 30
0.0
  9
$UCSXDIR
 10
1.0
 20
0.0
 30
0.0
  9
$UCSYDIR
 10
0.0
 20
1.0
 30
0.0
  9
$UCSORTHOREF
  2

  9
$UCSORTHOVIEW
 70
0
  9
$UCSORGTOP
 10
0.0
 20
0.0
 30
0.0
  9
$UCSORGBOTTOM
 10
0.0
 20
0.0
 30
0.0
  9
$UCSORGLEFT
 10
0.0
 20
0.0
 30
0.0
  9
$UCSORGRIGHT
 10
0.0
 20
0.0
 30
0.0
  9
$UCSORGFRONT
 10
0.0
 20
0.0
 30
0.0
  9
$UCSORGBACK
 10
0.0
 20
0.0
 30
0.0
  9
$PUCSBASE
  2

  9
$PUCSNAME
  2

  9
$PUCSORG
 10
0.0
 20
0.0
 30
0.0
  9
$PUCSXDIR
 10
1.0
 20
0.0
 30
0.0
  9
$PUCSYDIR
 10
0.0
 20
1.0
 30
0.0
  9
$PUCSORTHOREF
  2

  9
$PUCSORTHOVIEW
 70
0
  9
$PUCSORGTOP
 10
0.0
 20
0.0
 30
0.0
  9
$PUCSORGBOTTOM
 10
0.0
 20
0.0
 30
0.0
  9
$PUCSORGLEFT
 10
0.0
 20
0.0
 30
0.0
  9
$PUCSORGRIGHT
 10
0.0
 20
0.0
 30
0.0
  9
$PUCSORGFRONT
 10
0.0
 20
0.0
 30
0.0
  9
$PUCSORGBACK
 10
0.0
 20
0.0
 30
0.0
  9
$USERI1
 70
0
  9
$USERI2
 70
0
  9
$USERI3
 70
0
  9
$USERI4
 70
0
  9
$USERI5
 70
0
  9
$USERR1
 40
0.0
  9
$USERR2
 40
0.0
  9
$USERR3
 40
0.0
  9
$USERR4
 40
0.0
  9
$USERR5
 40
0.0
  9
$WORLDVIEW
 70
1
  9
$SHADEDGE
 70
3
  9
$SHADEDIF
 70
70
  9
$TILEMODE
 70
1
  9
$MAXACTVP
 70
64
  9
$PINSBASE
 10
0.0
 20
0.0
 30
0.0
  9
$PLIMCHECK
 70
0
  9
$PEXTMIN
 10
1e+20
 20
1e+20
 30
1e+20
  9
$PEXTMAX
 10
-1e+20
 20
-1e+20
 30
-1e+20
  9
$PLIMMIN
 10
0.0
 20
0.0
  9
$PLIMMAX
 10
420.0
 20
297.0
  9
$UNITMODE
 70
0
  9
$VISRETAIN
 70
1
  9
$PLINEGEN
 70
0
  9
$PSLTSCALE
 70
1
  9
$TREEDEPTH
 70
3020
  9
$CMLSTYLE
  2
Standard
  9
$CMLJUST
 70
0
  9
$CMLSCALE
 40
20.0
  9
$PROXYGRAPHICS
 70
1
  9
$MEASUREMENT
 70
1
  9
$CELWEIGHT
370
-1
  9
$ENDCAPS
280
0
  9
$JOINSTYLE
280
0
  9
$LWDISPLAY
290
0
  9
$INSUNITS
 70
4
  9
$HYPERLINKBASE
  1

  9
$STYLESHEET
  1

  9
$XEDIT
290
1
  9
$CEPSNTYPE
380
0
  9
$PSTYLEMODE
290
1
  9
$FINGERPRINTGUID
  2
{456981EF-8378-479C-BF5F-5F665C27580A}
  9
$VERSIONGUID
  2
{FD0952B1-90F6-4BE7-8E6D-BD35C7F274DD}
  9
$EXTNAMES
290
1
  9
$PSVPSCALE
 40
0.0
  9
$OLESTARTUP
290
0
  9
$SORTENTS
280
127
  9
$INDEXCTL
280
0
  9
$HIDETEXT
280
1
  9
$XCLIPFRAME
280
1
  9
$HALOGAP
280
0
  9
$OBSCOLOR
 70
257
  9
$OBSLTYPE
280
0
  9
$INTERSECTIONDISPLAY
280
0
  9
$INTERSECTIONCOLOR
 70
257
  9
$DIMASSOC
280
2
  9
$PROJECTNAME
  1

  9
$CAMERADISPLAY
290
0
  9
$LENSLENGTH
 40
50.0
  9
$CAMERAHEIGHT
 40
0.0
  9
$STEPSPERSEC
 40
24.0
  9
$STEPSIZE
 40
100.0
  9
$3DDWFPREC
 40
2.0
  9
$PSOLWIDTH
 40
0.005
  9
$PSOLHEIGHT
 40
0.08
  9
$LOFTANG1
 40
1.570796326795
  9
$LOFTANG2
 40
1.570796326795
  9
$LOFTMAG1
 40
0.0
  9
$LOFTMAG2
 40
0.0
  9
$LOFTPARAM
 70
7
  9
$LOFTNORMALS
280
1
  9
$LATITUDE
 40
37.795
  9
$LONGITUDE
 40
-122.394
  9
$NORTHDIRECTION
 40
0.0
  9
$TIMEZONE
 70
-8000
  9
$LIGHTGLYPHDISPLAY
280
1
  9
$TILEMODELIGHTSYNCH
280
1
  9
$CMATERIAL
347
20
  9
$SOLIDHIST
280
0
  9
$SHOWHIST
280
1
  9
$DWFFRAME
280
2
  9
$DGNFRAME
280
2
  9
$REALWORLDSCALE
290
1
  9
$INTERFERECOLOR
 62
256
  9
$CSHADOW
280
0
  9
$SHADOWPLANELOCATION
 40
0.0
  0
ENDSEC
  0
SECTION
  2
CLASSES
  0
CLASS
  1
ACDBDICTIONARYWDFLT
  2
AcDbDictionaryWithDefault
  3
ObjectDBX Classes
 90
0
 91
0
280
0
281
0
  0
CLASS
  1
SUN
  2
AcDbSun
  3
SCENEOE
 90
1153
 91
0
280
0
281
0
  0
CLASS
  1
VISUALSTYLE
  2
AcDbVisualStyle
  3
ObjectDBX Classes
 90
4095
 91
0
280
0
281
0
  0
CLASS
  1
MATERIAL
  2
AcDbMaterial
  3
ObjectDBX Classes
 90
1153
 91
0
280
0
281
0
  0
CLASS
  1
SCALE
  2
AcDbScale
  3
ObjectDBX Classes
 90
1153
 91
0
280
0
281
0
  0
CLASS
  1
TABLESTYLE
  2
AcDbTableStyle
  3
ObjectDBX Classes
 90
4095
 91
0
280
0
281
0
  0
CLASS
  1
MLEADERSTYLE
  2
AcDbMLeaderStyle
  3
ACDB_MLEADERSTYLE_CLASS
 90
4095
 91
0
280
0
281
0
  0
CLASS
  1
DICTIONARYVAR
  2
AcDbDictionaryVar
  3
ObjectDBX Classes
 90
0
 91
0
280
0
281
0
  0
CLASS
  1
CELLSTYLEMAP
  2
AcDbCellStyleMap
  3
ObjectDBX Classes
 90
1152
 91
0
280
0
281
0
  0
CLASS
  1
MENTALRAYRENDERSETTINGS
  2
AcDbMentalRayRenderSettings
  3
SCENEOE
 90
1024
 91
0
280
0
281
0
  0
CLASS
  1
ACDBDETAILVIEWSTYLE
  2
AcDbDetailViewStyle
  3
ObjectDBX Classes
 90
1025
 91
0
280
0
281
0
  0
CLASS
  1
ACDBSECTIONVIEWSTYLE
  2
AcDbSectionViewStyle
  3
ObjectDBX Classes
 90
1025
 91
0
280
0
281
0
  0
CLASS
  1
RASTERVARIABLES
  2
AcDbRasterVariables
  3
ISM
 90
0
 91
0
280
0
281
0
  0
CLASS
  1
LAYOUT
  2
AcDbLayout
  3
ObjectDBX Classes
 90
0
 91
0
280
0
281
0
  0
CLASS
  1
ACDBPLACEHOLDER
  2
AcDbPlaceHolder
  3
ObjectDBX Classes
 90
0
 91
0
280
0
281
0
  0
ENDSEC
  0
SECTION
  2
TABLES
  0
TABLE
  2
VPORT
  5
8
330
0
100
AcDbSymbolTable
 70
1
  0
VPORT
  5
23
330
8
100
AcDbSymbolTableRecord
100
AcDbViewportTableRecord
  2
*Active
 70
0
 10
0.0
 20
0.0
 11
1.0
 21
1.0
 12
0.0
 22
0.0
 13
0.0
 23
0.0
 14
0.5
 24
0.5
 15
0.5
 25
0.5
 16
0.0
 26
0.0
 36
1.0
 17
0.0
 27
0.0
 37
0.0
 40
1000.0
 41
1.34
 42
50.0
 43
0.0
 44
0.0
 50
0.0
 51
0.0
 71
0
 72
1000
 73
1
 74
3
 75
0
 76
0
 77
0
 78
0
281
0
 65
0
146
0.0
  0
ENDTAB
  0
TABLE
  2
LTYPE
  5
2
330
0
100
AcDbSymbolTable
 70
3
  0
LTYPE
  5
24
330
2
100
AcDbSymbolTableRecord
100
AcDbLinetypeTableRecord
  2
ByBlock
 70
0
  3

 72
65
 73
0
 40
0.0
  0
LTYPE
  5
25
330
2
100
AcDbSymbolTableRecord
100
AcDbLinetypeTableRecord
  2
ByLayer
 70
0
  3

 72
65
 73
0
 40
0.0
  0
LTYPE
  5
26
330
2
100
AcDbSymbolTableRecord
100
AcDbLinetypeTableRecord
  2
Continuous
 70
0
  3

 72
65
 73
0
 40
0.0
  0
ENDTAB
  0
TABLE
  2
LAYER
  5
1
330
0
100
AcDbSymbolTable
 70
2
  0
LAYER
  5
27
330
1
100
AcDbSymbolTableRecord
100
AcDbLayerTableRecord
  2
0
 70
0
 62
7
  6
Continuous
370
-3
390
13
347
21
  0
LAYER
  5
28
330
1
100
AcDbSymbolTableRecord
100
AcDbLayerTableRecord
  2
Defpoints
 70
0
 62
7
  6
Continuous
290
0
370
-3
390
13
347
21
  0
ENDTAB
  0
TABLE
  2
STYLE
  5
5
330
0
100
AcDbSymbolTable
 70
1
  0
STYLE
  5
29
330
5
100
AcDbSymbolTableRecord
100
AcDbTextStyleTableRecord
  2
Standard
 70
0
 40
0.0
 41
1.0
 50
0.0
 71
0
 42
2.5
  3
txt
  4

  0
ENDTAB
  0
TABLE
  2
VIEW
  5
7
330
0
100
AcDbSymbolTable
 70
0
  0
ENDTAB
  0
TABLE
  2
UCS
  5
6
330
0
100
AcDbSymbolTable
 70
0
  0
ENDTAB
  0
TABLE
  2
APPID
  5
3
330
0
100
AcDbSymbolTable
 70
3
  0
APPID
  5
2A
330
3
100
AcDbSymbolTableRecord
100
AcDbRegAppTableRecord
  2
ACAD
 70
0
  0
APPID
  5
3A
330
3
100
AcDbSymbolTableRecord
100
AcDbRegAppTableRecord
  2
HATCHBACKGROUNDCOLOR
 70
0
  0
APPID
  5
3B
330
3
100
AcDbSymbolTableRecord
100
AcDbRegAppTableRecord
  2
EZDXF
 70
0
  0
ENDTAB
  0
TABLE
  2
DIMSTYLE
  5
4
330
0
100
AcDbSymbolTable
 70
1
100
AcDbDimStyleTable
  0
DIMSTYLE
105
2B
330
4
100
AcDbSymbolTableRecord
100
AcDbDimStyleTableRecord
  2
Standard
 70
0
 40
1.0
 41
2.5
 42
0.625
 43
3.75
 44
1.25
 45
0.0
 46
0.0
 47
0.0
 48
0.0
 49
2.5
140
2.5
141
2.5
142
0.0
143
0.03937007874
144
1.0
145
0.0
146
1.0
147
0.625
148
0.0
 69
0
 70
0
 71
0
 72
0
 73
0
 74
0
 75
0
 76
0
 77
1
 78
8
 79
3
170
0
171
3
172
1
173
0
174
0
175
0
176
0
177
0
178
0
179
2
271
2
272
2
273
2
274
3
275
0
276
0
277
2
278
44
279
0
280
0
281
0
282
0
283
0
284
8
285
0
286
0
288
0
289
3
290
0
371
-2
372
-2
  0
ENDTAB
  0
TABLE
  2
BLOCK_RECORD
  5
9
330
0
100
AcDbSymbolTable
 70
2
  0
BLOCK_RECORD
  5
17
330
9
100
AcDbSymbolTableRecord
100
AcDbBlockTableRecord
  2
*Model_Space
340
1A
 70
0
280
1
281
0
  0
BLOCK_RECORD
  5
1B
330
9
100
AcDbSymbolTableRecord
100
AcDbBlockTableRecord
  2
*Paper_Space
340
1E
 70
0
280
1
281
0
  0
ENDTAB
  0
ENDSEC
  0
SECTION
  2
BLOCKS
  0
BLOCK
  5
18
330
17
100
AcDbEntity
  8
0
100
AcDbBlockBegin
  2
*Model_Space
 70
0
 10
0.0
 20
0.0
 30
0.0
  3
*Model_Space
  1

  0
ENDBLK
  5
19
330
17
100
AcDbEntity
  8
0
100
AcDbBlockEnd
  0
BLOCK
  5
1C
330
1B
100
AcDbEntity
  8
0
100
AcDbBlockBegin
  2
*Paper_Space
 70
0
 10
0.0
 20
0.0
 30
0.0
  3
*Paper_Space
  1

  0
ENDBLK
  5
1D
330
1B
100
AcDbEntity
  8
0
100
AcDbBlockEnd
  0
ENDSEC
  0
SECTION
  2
ENTITIES
  0
LWPOLYLINE
  5
2F
330
17
100
AcDbEntity
  8
NAME
100
AcDbPolyline
 90
24
 70
1
 10
-42.79199329487749
 20
-2.3429191229812445
 10
-42.827209274480396
 20
-2.5415372479416263
 10
-42.856086377754785
 20
-2.7309992182052527
 10
-42.88003324388475
 20
-2.9098963945880088
 10
-42.89764123368621
 20
-3.0796374162740086
 10
-42.99554165698228
 20
-3.0796374162740086
 10
-43.00681077045521
 20
-2.940886456638564
 10
-43.024418760256665
 20
-2.7859361463857844
 10
-43.049774265570754
 20
-2.6140821659236098
 10
-43.08146864721337
 20
-2.426028834844099
 10
-43.12091054436863
 20
-2.221776153147252
 10
-43.16739563744446
 20
-1.9999154816489533
 10
-43.220219606848815
 20
-1.7625597791253758
 10
-43.280791091765806
 20
-1.5075960868003468
 10
-45.431783125911224
 20
7.166099689395061
 10
-50.000000000000014
 20
7.166099689395061
 10
-45.45150407448885
 20
-6.920292151766787
 10
-40.68748635380791
 20
-6.920292151766787
 10
-36.08053190215593
 20
7.166099689395061
 10
-40.500841661912524
 20
7.166099689395061
 10
-42.59267085032506
 20
-1.4491375606595251
 10
-42.651833696057935
 20
-1.6871975827751604
 10
-42.70395334587023
 20
-1.9153971306019821
 10
-42.75114275853812
 20
-2.1337362041399905
  0
LWPOLYLINE
  5
30
330
17
100
AcDbEntity
  8
NAME
100
AcDbPolyline
 90
53
 70
1
 10
34.881779956473046
 20
-3.9114388544946155
 10
35.00433156549115
 20
-3.4437706453680423
 10
35.13251773124573
 20
-2.985962910530282
 10
35.267042773328825
 20
-2.5351983716131032
 10
35.40790669174044
 20
-2.0879554306562147
 10
35.55440516688853
 20
-1.6456427268437328
 10
35.70724251836513
 20
-1.2068516209915412
 10
35.86641874617026
 20
-0.7722864326916987
 10
36.03122953071186
 20
-0.3419471619442039
 10
36.203083511174036
 20
0.08416619125094231
 10
36.37986772878061
 20
0.5060536268937398
 10
36.57144265782041
 20
0.9385058564174078
 10
36.78414717462195
 20
1.3977222304392847
 10
37.01798127918524
 20
1.8815897901831937
 10
37.27294497151027
 20
2.3922214944253106
 10
37.54903825159704
 20
2.9282087039815194
 10
37.84696543903761
 20
3.489551418851818
 10
38.16602221423993
 20
4.077658278220326
 10
38.50691289679605
 20
4.690416323310866
 10
38.50691289679605
 20
7.166099689395061
 10
28.202717264986155
 20
7.166099689395061
 10
28.202717264986155
 20
3.9050999781660924
 10
34.331706355075674
 20
3.9050999781660924
 10
33.961234249653124
 20
3.307132644508773
 10
33.614709010360535
 20
2.7380424141258337
 10
33.292834956789996
 20
2.1957163282411027
 10
32.99490776934942
 20
1.682267345630754
 10
32.721631767630875
 20
1.1962868271106692
 10
32.473006951634375
 20
0.7384790922729103
 10
32.248329001767836
 20
0.3088441411174731
 10
32.048302237623346
 20
-0.09332234594769744
 10
31.863770504504124
 20
-0.4828110803558218
 10
31.685577647713426
 20
-0.8765257323162962
 10
31.514427986843305
 20
-1.2737619822370603
 10
31.349617202301715
 20
-1.6745198301181143
 10
31.19114529408865
 20
-2.0795035955515173
 10
31.039716581796156
 20
-2.4873046393531535
 10
30.894626745832188
 20
-2.8993316007071375
 10
30.756580105788803
 20
-3.3148801600214117
 10
30.624872342073942
 20
-3.736767595664209
 10
30.501616413463776
 20
-4.166402546819645
 10
30.385403680774186
 20
-4.6051936526718364
 10
30.277642783189293
 20
-5.0517322740366675
 10
30.17692508152499
 20
-5.506018410914137
 10
30.083954895373324
 20
-5.969460702488362
 10
29.99873222473429
 20
-6.440650509575226
 10
29.9212570696079
 20
-6.920292151766787
 10
34.273247828934856
 20
-6.920292151766787
 10
34.359879138758004
 20
-6.394869736091449
 10
34.45214500531761
 20
-5.878603475112867
 10
34.550749748205746
 20
-5.372197688423099
 10
34.65498904783034
 20
-4.875652376022144
 10
34.76556722378346
 20
-4.388967537910003
  0
LWPOLYLINE
  5
31
330
17
100
AcDbEntity
  8
NAME
100
AcDbPolyline
 90
110
 70
1
 10
49.10480979849416
 20
0.5828244624280718
 10
48.83082947718357
 20
0.8744127735401218
 10
48.5244504546383
 20
1.1357153421936745
 10
48.19060296800275
 20
1.3625062508363797
 10
47.82858269768491
 20
1.5540811798761809
 10
47.43838964368472
 20
1.710440129313077
 10
47.02072812559426
 20
1.8322874187391271
 10
46.5748938238215
 20
1.9196230481543308
 10
46.100886738366405
 20
1.9717426979666297
 10
45.59941118882105
 20
1.9893506877680822
 10
45.47263366225059
 20
1.9886463681760231
 10
45.344447496496
 20
1.9858290898077913
 10
45.21344405237321
 20
1.9808988526633848
 10
45.08103196906628
 20
1.9745599763348616
 10
44.94580260739112
 20
1.9661081412301655
 10
44.80916460653186
 20
1.9562476669413513
 10
44.66970932730435
 20
1.9442742338763643
 10
44.52814108930068
 20
1.9301878420352028
 10
44.66618772934407
 20
3.9050999781660924
 10
49.38090307858095
 20
3.9050999781660924
 10
49.38090307858095
 20
7.166099689395061
 10
41.42420464710066
 20
7.166099689395061
 10
40.89385199428093
 20
-1.2913699720385123
 10
41.17205823314388
 20
-1.2343200850818066
 10
41.45589902874328
 20
-1.184313394045682
 10
41.74537438107916
 20
-1.1420542185221962
 10
42.04048429015149
 20
-1.10754255851135
 10
42.34193307555237
 20
-1.0807784140131425
 10
42.64901641768969
 20
-1.0610574654355154
 10
42.96243863615553
 20
-1.049788351962586
 10
43.280791091765806
 20
-1.0462667540022963
 10
43.884392982159596
 20
-1.0702136201322718
 10
44.40699811946669
 20
-1.142758538114255
 10
44.84931082327916
 20
-1.2646058275403051
 10
45.21133109359703
 20
-1.4343468492263052
 10
45.49235461082821
 20
-1.6519816031722552
 10
45.693790014156825
 20
-1.9189187285622726
 10
45.814228664398755
 20
-2.234453905804298
 10
45.85437488114607
 20
-2.597882815306274
 10
45.84592304604138
 20
-2.7725540741366803
 10
45.81986322113522
 20
-2.9366605390862164
 10
45.77619540642761
 20
-3.0902022101548803
 10
45.71562392151063
 20
-3.233883406934731
 10
45.637444446792166
 20
-3.367704129425769
 10
45.54236130186433
 20
-3.4916643776279925
 10
45.429670167135036
 20
-3.6050598319493457
 10
45.29937104260429
 20
-3.707890492389827
 10
45.15287256745621
 20
-3.8001563589494376
 10
44.989470422098734
 20
-3.8797444728520016
 10
44.80916460653186
 20
-3.9473591536895785
 10
44.613363759939716
 20
-4.003000401462168
 10
44.40065924313816
 20
-4.045963896577711
 10
44.171755375719286
 20
-4.0762496390362095
 10
43.92594783809102
 20
-4.09456194842972
 10
43.6639409498454
 20
-4.100900824758242
 10
43.25684422563582
 20
-4.088927391693256
 10
42.85397341897859
 20
-4.051598453314176
 10
42.45744148864989
 20
-3.990322648805122
 10
42.06513547587354
 20
-3.904395658574035
 10
41.67846401983365
 20
-3.7938174826209146
 10
41.297427120530216
 20
-3.659292440537819
 10
40.921320458371184
 20
-3.4994118931406315
 10
40.550144033356574
 20
-3.3148801600214117
 10
40.550144033356574
 20
-6.576584190842437
 10
40.72551961177904
 20
-6.6392686345356084
 10
40.91286862326648
 20
-6.6984314802684874
 10
41.11148674822687
 20
-6.755481367225193
 10
41.32278262584431
 20
-6.809713975813666
 10
41.54534761693467
 20
-6.861129306033907
 10
41.77918172149795
 20
-6.909727357885915
 10
42.02569357871828
 20
-6.955508131369691
 10
42.28417886900359
 20
-6.999175946077293
 10
42.54689007684127
 20
-7.037913523640488
 10
42.806784006310714
 20
-7.071720864059277
 10
43.0638606574119
 20
-7.100597967333658
 10
43.31882434973693
 20
-7.123840513871575
 10
43.57097076369373
 20
-7.142152823265085
 10
43.821004218874364
 20
-7.155534895514189
 10
44.06822039568675
 20
-7.163282411026828
 10
44.3126192941309
 20
-7.166099689395061
 10
44.74225424528634
 20
-7.156239215106248
 10
45.15780280460062
 20
-7.125953472647749
 10
45.55856065248167
 20
-7.075946781611625
 10
45.945232108521566
 20
-7.006219141997874
 10
46.31781717272029
 20
-6.916770553806495
 10
46.675611525485806
 20
-6.806896697445434
 10
47.018615166818094
 20
-6.677301892506744
 10
47.347532416309235
 20
-6.527281819398371
 10
47.66025031518302
 20
-6.359653756488545
 10
47.953247265479185
 20
-6.176530662553441
 10
48.22793190638185
 20
-5.977208218001
 10
48.483599918298935
 20
-5.762390742423283
 10
48.72025130123045
 20
-5.531373916228229
 10
48.93788605517639
 20
-5.284862059007896
 10
49.13720849972884
 20
-5.022855170762286
 10
49.31751431529572
 20
-4.744648931899339
 10
49.47739486269288
 20
-4.453764940379347
 10
49.616145822328335
 20
-4.1537247941626
 10
49.73306287460999
 20
-3.8438241736570387
 10
49.82955465872193
 20
-3.525471718046781
 10
49.904212535480106
 20
-3.1972587881477104
 10
49.95703650488446
 20
-2.859185383959826
 10
49.98943520611912
 20
-2.5126601446672443
 10
50.00000000000001
 20
-2.1562744310858495
 10
49.981687690606485
 20
-1.6900148611433925
 10
49.926750762425954
 20
-1.2484064769229681
 10
49.83589353505047
 20
-0.8321535980166359
 10
49.7077073692959
 20
-0.4405519048323372
 10
49.54360090434636
 20
-0.07430571696212822
 10
49.342165501017746
 20
0.2665849655939885
  0
LWPOLYLINE
  5
32
330
17
100
AcDbEntity
  8
NAME
100
AcDbPolyline
 90
140
 70
1
 10
-6.793514625196334
 20
1.450546199843641
 10
-6.938604461160303
 20
1.7801677689268283
 10
-7.110458441622478
 20
2.0809122347356337
 10
-7.308372246990801
 20
2.352779597270058
 10
-7.530937238081159
 20
2.5943612173459836
 10
-7.776744775709431
 20
2.804248455779295
 10
-8.04579485987562
 20
2.981032673385876
 10
-8.337383170987673
 20
3.1261225093498424
 10
-8.652214028637642
 20
3.2388136440791375
 10
-8.989583113233467
 20
3.3198103971658184
 10
-9.350899063959266
 20
3.368408449017827
 10
-9.734753241630928
 20
3.3839034800431054
 10
-10.001690367020943
 20
3.3768602841225235
 10
-10.262288616082442
 20
3.355730696360781
 10
-10.517252308407468
 20
3.3198103971658184
 10
-10.765877124403975
 20
3.269803706129694
 10
-11.008867383664017
 20
3.2057106232524077
 10
-11.244814447003478
 20
3.127531148533959
 10
-11.475126953606473
 20
3.034560962382291
 10
-11.699100583880949
 20
2.9275043843894606
 10
-11.914622379050725
 20
2.807065734147527
 10
-12.11887506074757
 20
2.674653650840605
 10
-12.312562948563544
 20
2.530268134468696
 10
-12.49498172290659
 20
2.3739091850318004
 10
-12.666131383776708
 20
2.2048724829378576
 10
-12.826716250765955
 20
2.023862347778928
 10
-12.97532768469021
 20
1.8308787795550117
 10
-13.114078644325657
 20
1.6259217782661066
 10
-13.240151851304052
 20
1.8463738105802887
 10
-13.37467689338715
 20
2.0520351314612526
 10
-13.516245131390827
 20
2.2422014213169374
 10
-13.664856565315082
 20
2.416872680147344
 10
-13.821919834344037
 20
2.5760489079524733
 10
-13.986026299293576
 20
2.7197301047323235
 10
-14.15788027975575
 20
2.848620590078954
 10
-14.336777456138503
 20
2.962016044400308
 10
-14.524830787218017
 20
3.06062078728844
 10
-14.724153231770456
 20
3.146547777519527
 10
-14.933336150611709
 20
3.219092695501512
 10
-15.153083863333832
 20
3.2782555412343912
 10
-15.384100689528887
 20
3.3247406343102246
 10
-15.624977990012756
 20
3.3578436551369553
 10
-15.87712440396955
 20
3.3775646037145823
 10
-16.13913129221516
 20
3.3839034800431054
 10
-16.326480303702617
 20
3.3796775624907567
 10
-16.511012036821835
 20
3.3669998098337106
 10
-16.69131785238871
 20
3.345870222071968
 10
-16.868806389587345
 20
3.316993118797586
 10
-17.042773328825692
 20
3.2789598608264487
 10
-17.213218670103753
 20
3.2324747677506145
 10
-17.38014241342152
 20
3.1775378395700837
 10
-17.544248878371057
 20
3.114149076284855
 10
-17.704129425768244
 20
3.0437171170790465
 10
-17.859784055613083
 20
2.96835492072883
 10
-18.011917087497633
 20
2.8880624872342078
 10
-18.15911988223777
 20
2.8021354970031207
 10
-18.302801079017623
 20
2.711278269627627
 10
-18.441552038653068
 20
2.614786485515668
 10
-18.576781400328223
 20
2.5133644642593027
 10
-18.707784844451027
 20
2.407012205858531
 10
-18.83244941224531
 20
2.2978426690895257
 10
-18.948662144934893
 20
2.1893774519125797
 10
-19.055718722927725
 20
2.0809122347356337
 10
-19.153619146223797
 20
1.9731513371507463
 10
-19.243067734415174
 20
1.8660947591579156
 10
-19.324064487501857
 20
1.759038181165086
 10
-19.39590508589178
 20
1.653390242356372
 10
-19.459293849177012
 20
1.5470379839556
 10
-19.49873574633226
 20
1.5470379839556
 10
-19.49873574633226
 20
3.138800262006889
 10
-23.683802762341447
 20
3.138800262006889
 10
-23.683802762341447
 20
-6.920292151766787
 10
-19.49873574633226
 20
-6.920292151766787
 10
-19.49873574633226
 20
-1.409695663504272
 10
-19.493805509187858
 20
-1.2068516209915412
 10
-19.47831047816258
 20
-1.0159810115437988
 10
-19.452954972848488
 20
-0.8377881547531013
 10
-19.41773899324558
 20
-0.6715687310273911
 10
-19.371958219761808
 20
-0.5173227403666693
 10
-19.316316971989217
 20
-0.3750501827709346
 10
-19.25081524992782
 20
-0.2454553778322449
 10
-19.17474873398554
 20
-0.1278340059585436
 10
-19.08882174375445
 20
-0.022890386741888452
 10
-18.993034279234553
 20
0.0679668406336064
 10
-18.887386340425838
 20
0.14473767616793845
 10
-18.771877927328315
 20
0.20742211986110773
 10
-18.64650903994197
 20
0.2567244913051744
 10
-18.511279678266817
 20
0.2912361513160218
 10
-18.36689416189491
 20
0.3123657390777641
 10
-18.21194385164213
 20
0.3194089349983449
 10
-17.965431994421795
 20
0.2954620688683693
 10
-17.752023158028194
 20
0.22291715088638592
 10
-17.571717342461323
 20
0.10247850064445257
 10
-17.423810228129124
 20
-0.06585388185743205
 10
-17.30900613462365
 20
-0.2827843162113244
 10
-17.226600742352858
 20
-0.5483128024172245
 10
-17.17729837090879
 20
-0.8617350208830757
 10
-17.161099020291452
 20
-1.223050971608877
 10
-17.161099020291452
 20
-6.920292151766787
 10
-12.976032004282267
 20
-6.920292151766787
 10
-12.976032004282267
 20
-1.3308118691937654
 10
-12.971101767137862
 20
-1.1420542185221962
 10
-12.956311055704642
 20
-0.9638613617314988
 10
-12.93095555039055
 20
-0.7962332988216732
 10
-12.89503525119559
 20
-0.6398743493847769
 10
-12.849254477711812
 20
-0.4933758742366936
 10
-12.793613229939222
 20
-0.3574421929694821
 10
-12.728111507877822
 20
-0.23207330558314104
 10
-12.652044991935549
 20
-0.11797353166973076
 10
-12.566822321296518
 20
-0.015142871229248725
 10
-12.473852135144853
 20
0.07360139737007051
 10
-12.373134433480544
 20
0.14896359372028717
 10
-12.263964896711538
 20
0.21023939822934104
 10
-12.147047844429894
 20
0.25813313048929104
 10
-12.022383276635612
 20
0.2919404709080795
 10
-11.88926687373663
 20
0.3123657390777641
 10
-11.748402955325016
 20
0.3194089349983449
 10
-11.606130397729277
 20
0.31377437826188076
 10
-11.474422634014417
 20
0.29687070805248594
 10
-11.352575344588365
 20
0.2686979243701628
 10
-11.241292849043191
 20
0.2299603468069667
 10
-11.13987082778682
 20
0.17924933617878464
 10
-11.049013600411328
 20
0.11797353166973076
 10
-10.968721166916708
 20
0.044724294095688476
 10
-10.898289207710897
 20
-0.03908973735922436
 10
-10.837717722793903
 20
-0.1348772018791244
 10
-10.784893753389545
 20
-0.2412294602798962
 10
-10.739817299497826
 20
-0.35955515174565644
 10
-10.703192680710806
 20
-0.4898542762764026
 10
-10.675019897028482
 20
-0.6314225142800796
 10
-10.654594628858796
 20
-0.7842598657566859
 10
-10.642621195793811
 20
-0.9483663307062219
 10
-10.638395278241463
 20
-1.1244462287207448
 10
-10.638395278241463
 20
-6.920292151766787
 10
-6.463188736521087
 20
-6.920292151766787
 10
-6.463188736521087
 20
-0.623674998767441
 10
-6.476570808770195
 20
-0.15178087208851923
 10
-6.516012705925447
 20
0.2919404709080795
 10
-6.582218747578908
 20
0.7067847106302962
 10
-6.674484614138518
 20
1.0927518470781308
  0
LWPOLYLINE
  5
33
330
17
100
AcDbEntity
  8
NAME
100
AcDbPolyline
 90
55
 70
1
 10
15.313668730323068
 20
3.307836964100831
 10
15.23196765764433
 20
3.313471520837295
 10
15.147449306597355
 20
3.3155844796134697
 10
14.915023841218186
 20
3.307836964100831
 10
14.690345891351653
 20
3.2845944175629143
 10
14.473415456997765
 20
3.245856839999718
 10
14.263528218564453
 20
3.1916242314112453
 10
14.060684176051724
 20
3.1218965917974937
 10
13.865587649051632
 20
3.0366739211584655
 10
13.677534317972125
 20
2.935956219494158
 10
13.497228502405251
 20
2.819039167212514
 10
13.325374521943077
 20
2.688035723089709
 10
13.164085335361765
 20
2.5429458871257427
 10
13.011952303477221
 20
2.3830653397285553
 10
12.871088385065601
 20
2.209098400490207
 10
12.73938062135074
 20
2.0210450694106963
 10
12.61894197110881
 20
1.8182010268979656
 10
12.507659475563631
 20
1.6012705925440731
 10
12.406941773899325
 20
1.3702537663490193
 10
12.367499876744063
 20
1.3702537663490193
 10
12.367499876744063
 20
3.138800262006889
 10
8.183137180326945
 20
3.138800262006889
 10
8.183137180326945
 20
-6.920292151766787
 10
12.367499876744063
 20
-6.920292151766787
 10
12.367499876744063
 20
-2.5591452377430786
 10
12.399898577978739
 20
-1.9970982032807207
 10
12.49709468168276
 20
-1.510413365168579
 10
12.659088187856113
 20
-1.098386403814595
 10
12.885879096498822
 20
-0.7610173192187693
 10
13.177467407610873
 20
-0.4990104309731577
 10
13.533148801600206
 20
-0.3116614194857064
 10
13.954331917650945
 20
-0.19967460434846923
 10
14.440312436171038
 20
-0.16164134637733207
 10
14.508631436600668
 20
-0.16304998556144873
 10
14.581176354582647
 20
-0.16727590311379745
 10
14.658651509709037
 20
-0.1743190990343782
 10
14.739648262795724
 20
-0.18417957332319104
 10
14.82557525302681
 20
-0.19615300638817823
 10
14.915023841218186
 20
-0.21164803741345645
 10
15.00940266655397
 20
-0.2299603468069667
 10
15.108007409442104
 20
-0.2503856149766513
 10
15.205907832738175
 20
-0.2729238419225103
 10
15.298878018889848
 20
-0.2954620688683693
 10
15.386917967897109
 20
-0.3194089349983449
 10
15.469323360167909
 20
-0.34335580112832054
 10
15.546094195702237
 20
-0.36871130644241157
 10
15.618639113684226
 20
-0.3940668117565026
 10
15.684845155337683
 20
-0.4201266366626526
 10
15.746825279438792
 20
-0.446890781160859
 10
15.746825279438792
 20
3.1972587881477104
 10
15.681323557377397
 20
3.2254315718300335
 10
15.613708876539816
 20
3.2493784379600092
 10
15.54257259774195
 20
3.2690993865376363
 10
15.469323360167909
 20
3.2860030567470297
 10
15.39255252463357
 20
3.298680809404076
  0
LWPOLYLINE
  5
34
330
17
100
AcDbEntity
  8
NAME
100
AcDbPolyline
 90
94
 70
1
 10
-26.21864897415852
 20
1.6491643248040233
 10
-26.45318739831387
 20
1.9921679661363143
 10
-26.723646121664178
 20
2.288686514392771
 10
-27.034251061761793
 20
2.5457631654939745
 10
-27.389228136159073
 20
2.768328156584332
 10
-27.787873025263952
 20
2.9563814876638426
 10
-28.23018572907643
 20
3.1106274783245658
 10
-28.716870567188575
 20
3.230361808974441
 10
-29.247927539600376
 20
3.3155844796134697
 10
-29.82265232671978
 20
3.3669998098337106
 10
-30.441749248138844
 20
3.3839034800431054
 10
-30.665722878413316
 20
3.380381882082814
 10
-30.90096562216072
 20
3.3698170882019425
 10
-31.147477479381052
 20
3.352209098400491
 10
-31.404554130482257
 20
3.327557912678458
 10
-31.672899895056393
 20
3.295863531035844
 10
-31.951810453511396
 20
3.2571259534726478
 10
-32.24269444503139
 20
3.211345179988872
 10
-32.54414323043225
 20
3.1585212105845155
 10
-32.844183376649
 20
3.1000626844436936
 10
-33.132250089800756
 20
3.0373782407505234
 10
-33.40693473070341
 20
2.971172199097063
 10
-33.66894161894902
 20
2.900740239891254
 10
-33.91756643494553
 20
2.826082363133095
 10
-34.15351349828499
 20
2.74719856882259
 10
-34.376782808967405
 20
2.6647931765517927
 10
-34.587374366992776
 20
2.578866186320705
 10
-34.587374366992776
 20
-0.1426247173917641
 10
-34.12111479705032
 20
0.0834618716588846
 10
-33.660489783844326
 20
0.27855839865897564
 10
-33.206203646966856
 20
0.444073502792627
 10
-32.75755206682585
 20
0.5800071840598385
 10
-32.314535043421316
 20
0.6849508032764949
 10
-31.877856896345296
 20
0.7603129996267103
 10
-31.44681330600574
 20
0.8053894535184283
 10
-31.021404272402652
 20
0.8201801649516488
 10
-30.839689817651664
 20
0.8152499278072424
 10
-30.667131517597433
 20
0.8004592163740218
 10
-30.504433691832013
 20
0.7758080306519886
 10
-30.35089202076335
 20
0.7420006902332
 10
-30.207210823983498
 20
0.6976285559335411
 10
-30.0726857819004
 20
0.643395947345068
 10
-29.94802121410612
 20
0.5800071840598385
 10
-29.832512801008598
 20
0.5060536268937398
 10
-29.728977820976052
 20
0.4243525542150013
 10
-29.639529232784678
 20
0.33772124439185514
 10
-29.563462716842402
 20
0.2454553778322449
 10
-29.501482592741294
 20
0.1475549545361705
 10
-29.452884540889283
 20
0.04401997450363077
 10
-29.418372880878433
 20
-0.06514956226537309
 10
-29.39794761270875
 20
-0.17924933617878464
 10
-29.39090441678817
 20
-0.299687986420718
 10
-31.88560441185793
 20
-0.623674998767441
 10
-32.739944077024404
 20
-0.780738267796395
 10
-33.48018396827745
 20
-1.0152766919517398
 10
-34.106324085617096
 20
-1.3279945908255328
 10
-34.619068748635385
 20
-1.7188919644177745
 10
-35.01771363774027
 20
-2.1879688127284638
 10
-35.302258752931735
 20
-2.734520816165544
 10
-35.473408413801856
 20
-3.359252294321071
 10
-35.53045830075856
 20
-4.061458927602989
 10
-35.51778054810151
 20
-4.406575527711455
 10
-35.47974729013038
 20
-4.7333798184264095
 10
-35.417062846437204
 20
-5.042576119339912
 10
-35.329022897429944
 20
-5.334164430451962
 10
-35.215627443108595
 20
-5.6074404321705025
 10
-35.07687648347315
 20
-5.86310844408759
 10
-34.91347433811568
 20
-6.101168466203225
 10
-34.72471668744411
 20
-6.32091617892535
 10
-34.51342080982668
 20
-6.518829984293673
 10
-34.28310830322368
 20
-6.690683964755848
 10
-34.03377916763512
 20
-6.835773800719815
 10
-33.76472908346893
 20
-6.954803811777633
 10
-33.475958050725104
 20
-7.047069678337243
 10
-33.16817038899572
 20
-7.113275719990703
 10
-32.84136609828076
 20
-7.1527176171459566
 10
-32.494840858988184
 20
-7.166099689395061
 10
-31.995478268218996
 20
-7.137926905712736
 10
-31.529923017868597
 20
-7.054817193849883
 10
-31.096766468752868
 20
-6.916066234214438
 10
-30.697417260055932
 20
-6.721674026806404
 10
-30.330466752593665
 20
-6.471640571625781
 10
-29.997323585550188
 20
-6.165965868672569
 10
-29.69728343933344
 20
-5.804649917946769
 10
-29.430346313943424
 20
-5.387692719448378
 10
-29.39090441678817
 20
-5.387692719448378
 10
-29.39090441678817
 20
-6.920292151766787
 10
-25.56926631028096
 20
-6.920292151766787
 10
-25.56926631028096
 20
-1.3702537663490186
 10
-25.587578619674474
 20
-0.7518611645220141
 10
-25.641811228262945
 20
-0.17995365577084232
 10
-25.731964136046383
 20
0.34617307949655257
 10
-25.85803734302478
 20
0.8265190412801718
 10
-26.02003084919814
 20
1.2610842295800142
  0
LWPOLYLINE
  5
35
330
17
100
AcDbEntity
  8
NAME
100
AcDbPolyline
 90
42
 70
1
 10
-30.80517815764082
 20
-2.5098428662990124
 10
-29.39090441678817
 20
-2.313337700114804
 10
-29.39090441678817
 20
-2.6964875581944066
 10
-29.397243293116695
 20
-2.883836569681859
 10
-29.41625992210226
 20
-3.0620294264725567
 10
-29.447954303744872
 20
-3.232474767750615
 10
-29.492326438044536
 20
-3.3937639543319182
 10
-29.5500806445933
 20
-3.546601305808524
 10
-29.61980828420705
 20
-3.690986822180433
 10
-29.702917996069903
 20
-3.8269205034476443
 10
-29.798705460589808
 20
-3.9536980300181015
 10
-29.90435339939852
 20
-4.0685021235235705
 10
-30.01774885371987
 20
-4.16851550559582
 10
-30.13959614314592
 20
-4.253033856642791
 10
-30.268486628492557
 20
-4.322057176664484
 10
-30.405828948943878
 20
-4.375585465660899
 10
-30.550918784907847
 20
-4.414323043224094
 10
-30.703756136384452
 20
-4.436861270169953
 10
-30.8643410033737
 20
-4.4446087856825915
 10
-30.981258055655346
 20
-4.440382868130243
 10
-31.0911319120164
 20
-4.428409435065255
 10
-31.193962572456883
 20
-4.4072798473035135
 10
-31.290454356568844
 20
-4.378402744029131
 10
-31.379198625168165
 20
-4.341073805650052
 10
-31.46160401743896
 20
-4.295997351758334
 10
-31.536966213789178
 20
-4.2417647431698615
 10
-31.605989533810874
 20
-4.179784619068749
 10
-31.66656101872787
 20
-4.110761299047056
 10
-31.719384988132223
 20
-4.037512061473015
 10
-31.76446144202394
 20
-3.960036906346624
 10
-31.80108606081096
 20
-3.8776315140758273
 10
-31.829258844493285
 20
-3.790295884660624
 10
-31.84968411266297
 20
-3.698734337693072
 10
-31.86236186532002
 20
-3.6029468731731713
 10
-31.86588346328031
 20
-3.501524851916806
 10
-31.84968411266297
 20
-3.307836964100831
 10
-31.799677421626843
 20
-3.133870024862482
 10
-31.71727202935605
 20
-2.9803283537938174
 10
-31.601059296666463
 20
-2.845803311710722
 10
-31.451743543150148
 20
-2.7324078573893695
 10
-31.2693247688071
 20
-2.6380290320535846
 10
-31.053802973637325
 20
-2.564075474887485
  0
LWPOLYLINE
  5
36
330
17
100
AcDbEntity
  8
NAME
100
AcDbPolyline
 90
80
 70
1
 10
5.9187496918601745
 20
0.8990639592621552
 10
5.733513639148893
 20
1.1829047548615668
 10
5.529260957452052
 20
1.4512505194356988
 10
5.305991646769631
 20
1.704101252984554
 10
5.063705707101652
 20
1.9400483163240154
 10
4.802403138448093
 20
2.160500348638199
 10
4.522788260401036
 20
2.364753030335045
 10
4.223452433776349
 20
2.5535106810066144
 10
3.9050999781660924
 20
2.7260689810608465
 10
3.5698438523464313
 20
2.8803149717215684
 10
3.219092695501508
 20
3.0141356942126065
 10
2.8542551468154156
 20
3.1268268289419017
 10
2.474626886696103
 20
3.2197970150935693
 10
2.079503595551508
 20
3.2916376134834953
 10
1.6695895929737028
 20
3.343052943703735
 10
1.244884878962677
 20
3.374043005754291
 10
0.8053894535184207
 20
3.3839034800431054
 10
0.37998041991533354
 20
3.374043005754291
 10
-0.033455180622769
 20
3.345165902479909
 10
-0.4342130285038154
 20
3.295863531035844
 10
-0.8222931237278256
 20
3.2268402110141503
 10
-1.1983997858868511
 20
3.138800262006889
 10
-1.5611243757967692
 20
3.0303350448299424
 10
-1.9118755326416925
 20
2.9028531986674273
 10
-2.249244617237518
 20
2.755650403927286
 10
-2.571118670808072
 20
2.589430980201577
 10
-2.8746804149851077
 20
2.407012205858531
 10
-3.158521210584523
 20
2.2069854417140324
 10
-3.423345377198359
 20
1.9893506877680822
 10
-3.669152914826636
 20
1.7548122636127372
 10
-3.8959438234693438
 20
1.5033701692479988
 10
-4.103718103126482
 20
1.2343200850818066
 10
-4.292475753798051
 20
0.9483663307062219
 10
-4.460808136299929
 20
0.6469175453053577
 10
-4.6066022918559595
 20
0.332086687655391
 10
-4.729858220466124
 20
0.004578077348378191
 10
-4.830575922130431
 20
-0.3363126052077385
 10
-4.908755396848882
 20
-0.690585360012959
 10
-4.965100964213528
 20
-1.0575358674752258
 10
-4.998203985040257
 20
-1.4378684471865957
 10
-5.00947309851319
 20
-1.8315830991470694
 10
-4.985526232383211
 20
-2.4387065875011444
 10
-4.914389953585344
 20
-3.0120227354364317
 10
-4.794655622935467
 20
-3.552235862544989
 10
-4.627731879617703
 20
-4.057937329642699
 10
-4.41291440403998
 20
-4.5305357759136795
 10
-4.150203196202318
 20
-4.969326881765871
 10
-3.840302575696749
 20
-5.375014966791332
 10
-3.482508222931241
 20
-5.746191391805946
 10
-3.0810460554581334
 20
-6.079334558849424
 10
-2.6422549496059387
 20
-6.367401272001183
 10
-2.166134905374667
 20
-6.6110958508532836
 10
-1.651277283580205
 20
-6.811122614997783
 10
-1.0990907234066565
 20
-6.966072925250562
 10
-0.5081665856699179
 20
-7.077355420795741
 10
0.12008649044589761
 20
-7.143561462449202
 10
0.7856685049408001
 20
-7.166099689395061
 10
1.4568850761721541
 20
-7.142857142857144
 10
2.0893640698403284
 20
-7.075242462019567
 10
2.684514125129416
 20
-6.961142688106156
 10
3.2402222832632517
 20
-6.802670779893085
 10
3.7586015030180007
 20
-6.59771377860418
 10
4.2382431452095695
 20
-6.348384643015616
 10
4.67985152942999
 20
-6.052570414351217
 10
5.083426655679272
 20
-5.712384051387158
 10
5.444038286813016
 20
-5.33134715208373
 10
5.75605186609476
 20
-4.917207231953572
 10
6.020171713116544
 20
-4.468555651812567
 10
6.23639782787837
 20
-3.985392411660716
 10
6.404730210380257
 20
-3.4691261506821336
 10
6.525168860622196
 20
-2.9176439101006477
 10
6.5970094590121136
 20
-2.3330586486924307
 10
6.620956325142093
 20
-1.7139617272733674
 10
6.60968721166916
 20
-1.3575760136919732
 10
6.577288510434493
 20
-1.0089378156232167
 10
6.522351582253959
 20
-0.6694557722512167
 10
6.4455807467196315
 20
-0.3391298835759718
 10
6.346271684239436
 20
-0.016551510413365382
 10
6.225833033997498
 20
0.29757502764454363
 10
6.082856156809713
 20
0.6025454110056975
  0
LWPOLYLINE
  5
37
330
17
100
AcDbEntity
  8
NAME
100
AcDbPolyline
 90
32
 70
1
 10
0.8251104020960515
 20
-4.100900824758242
 10
0.45252533789732313
 20
-4.065684845155338
 10
0.12924264514265651
 20
-3.959332586754566
 10
-0.14473767616793845
 20
-3.7818440495559265
 10
-0.3680069868503589
 20
-3.5339235531514785
 10
-0.5419739260887076
 20
-3.214866777949162
 10
-0.6666384938829847
 20
-2.824673723948979
 10
-0.7412963706411486
 20
-2.3640487107429866
 10
-0.7659475563631795
 20
-1.8315830991470694
 10
-0.7412963706411486
 20
-1.3279945908255328
 10
-0.6680471330671076
 20
-0.8906121241574577
 10
-0.5447912044569434
 20
-0.520844338326959
 10
-0.37293722399476903
 20
-0.2186912333340372
 10
-0.15178087208852298
 20
0.016551510413365382
 10
0.11797353166972327
 20
0.18488389291524873
 10
0.4370303068720412
 20
0.2856015945795564
 10
0.8053894535184207
 20
0.3194089349983449
 10
1.1737486001648103
 20
0.2870102337636731
 10
1.4935096949591797
 20
0.19122276924377182
 10
1.763264098717426
 20
0.03063790225452693
 10
1.984420450623672
 20
-0.19404004761200389
 10
2.1562744310858464
 20
-0.4828110803558218
 10
2.278826040103949
 20
-0.835675195976927
 10
2.3527795972700516
 20
-1.2526323944753168
 10
2.377430782992082
 20
-1.7336826758509944
 10
2.3527795972700516
 20
-2.2886865143927713
 10
2.280234679288072
 20
-2.7697367957684484
 10
2.159091709454072
 20
-3.1761292003859674
 10
1.9893506877680722
 20
-3.5092723674294453
 10
1.771011614230072
 20
-3.7684619773068233
 10
1.5040744888400515
 20
-3.952993710426043
 10
1.1892436311900823
 20
-4.064276205971222
  0
LWPOLYLINE
  5
38
330
17
100
AcDbEntity
  8
NAME
100
AcDbPolyline
 90
94
 70
1
 10
25.70660863073228
 20
1.6491643248040233
 10
25.472070206576934
 20
1.9921679661363143
 10
25.20161148322663
 20
2.288686514392771
 10
24.891006543129006
 20
2.5457631654939745
 10
24.536029468731726
 20
2.768328156584332
 10
24.137384579626854
 20
2.9563814876638426
 10
23.69507187581437
 20
3.1106274783245658
 10
23.207682718110167
 20
3.230361808974441
 10
22.677330065290423
 20
3.3155844796134697
 10
22.102605278171016
 20
3.3669998098337106
 10
21.483508356751962
 20
3.3839034800431054
 10
21.25953472647748
 20
3.380381882082814
 10
21.024291982730084
 20
3.3698170882019425
 10
20.777780125509747
 20
3.352209098400491
 10
20.520703474408545
 20
3.327557912678458
 10
20.252357709834413
 20
3.295863531035844
 10
19.972742831787347
 20
3.2571259534726478
 10
19.682563159859416
 20
3.211345179988872
 10
19.381114374458555
 20
3.1585212105845155
 10
19.080369908649747
 20
3.1000626844436936
 10
18.793007515090043
 20
3.0373782407505234
 10
18.518322874187387
 20
2.971172199097063
 10
18.256315985941775
 20
2.900740239891254
 10
18.00769116994527
 20
2.826082363133095
 10
17.771744106605805
 20
2.74719856882259
 10
17.548474795923397
 20
2.6647931765517927
 10
17.337883237898023
 20
2.578866186320705
 10
17.337883237898023
 20
-0.1426247173917641
 10
17.804142807840485
 20
0.0834618716588846
 10
18.264767821046473
 20
0.27855839865897564
 10
18.71905395792394
 20
0.444073502792627
 10
19.167705538064943
 20
0.5800071840598385
 10
19.610018241877427
 20
0.6849508032764949
 10
20.04740070854551
 20
0.7603129996267103
 10
20.47844429888506
 20
0.8053894535184283
 10
20.903853332488147
 20
0.8201801649516488
 10
21.08556778723913
 20
0.8152499278072424
 10
21.258126087293366
 20
0.8004592163740218
 10
21.42082391305879
 20
0.7758080306519886
 10
21.57436558412745
 20
0.7420006902332
 10
21.718046780907304
 20
0.6976285559335411
 10
21.852571822990402
 20
0.643395947345068
 10
21.97723639078468
 20
0.5800071840598385
 10
22.09274480388221
 20
0.5060536268937398
 10
22.19627978391475
 20
0.4243525542150013
 10
22.285728372106124
 20
0.33772124439185514
 10
22.3617948880484
 20
0.2454553778322449
 10
22.42377501214951
 20
0.1475549545361705
 10
22.47237306400152
 20
0.04401997450363077
 10
22.506884724012362
 20
-0.06514956226537309
 10
22.527309992182055
 20
-0.17924933617878464
 10
22.534353188102628
 20
-0.299687986420718
 10
20.039653193032862
 20
-0.623674998767441
 10
19.185313527866402
 20
-0.780738267796395
 10
18.445073636613344
 20
-1.0152766919517398
 10
17.818229199681642
 20
-1.3279945908255328
 10
17.306188856255407
 20
-1.7188919644177745
 10
16.907543967150534
 20
-2.1879688127284638
 10
16.622998851959057
 20
-2.734520816165544
 10
16.451849191088947
 20
-3.359252294321071
 10
16.39479930413224
 20
-4.061458927602989
 10
16.407477056789283
 20
-4.406575527711455
 10
16.445510314760423
 20
-4.7333798184264095
 10
16.50819475845359
 20
-5.042576119339912
 10
16.59623470746085
 20
-5.334164430451962
 10
16.709630161782208
 20
-5.6074404321705025
 10
16.848381121417653
 20
-5.86310844408759
 10
17.01178326677513
 20
-6.101168466203225
 10
17.2005409174467
 20
-6.32091617892535
 10
17.411836795064126
 20
-6.518829984293673
 10
17.642149301667118
 20
-6.690683964755848
 10
17.891478437255685
 20
-6.835773800719815
 10
18.160528521421877
 20
-6.954803811777633
 10
18.449299554165695
 20
-7.047069678337243
 10
18.75708721589508
 20
-7.113275719990703
 10
19.083891506610033
 20
-7.1527176171459566
 10
19.430416745902615
 20
-7.166099689395061
 10
19.929779336671807
 20
-7.137926905712736
 10
20.395334587022205
 20
-7.054817193849883
 10
20.82849113613793
 20
-6.916066234214438
 10
21.227840344834874
 20
-6.721674026806404
 10
21.59479085229714
 20
-6.471640571625781
 10
21.92793401934062
 20
-6.165965868672569
 10
22.227974165557356
 20
-5.804649917946769
 10
22.494911290947375
 20
-5.387692719448378
 10
22.534353188102628
 20
-5.387692719448378
 10
22.534353188102628
 20
-6.920292151766787
 10
26.355991294609836
 20
-6.920292151766787
 10
26.355991294609836
 20
-1.3702537663490186
 10
26.337678985216332
 20
-0.7518611645220141
 10
26.283446376627857
 20
-0.17995365577084232
 10
26.193293468844423
 20
0.34617307949655257
 10
26.067220261866023
 20
0.8265190412801718
 10
25.904522436100606
 20
1.2610842295800142
  0
LWPOLYLINE
  5
39
330
17
100
AcDbEntity
  8
NAME
100
AcDbPolyline
 90
42
 70
1
 10
21.12007944724998
 20
-2.5098428662990124
 10
22.534353188102628
 20
-2.313337700114804
 10
22.534353188102628
 20
-2.6964875581944066
 10
22.528014311774104
 20
-2.883836569681859
 10
22.508997682788536
 20
-3.0620294264725567
 10
22.47730330114593
 20
-3.232474767750615
 10
22.432226847254206
 20
-3.3937639543319182
 10
22.375176960297498
 20
-3.546601305808524
 10
22.305449320683756
 20
-3.690986822180433
 10
22.222339608820896
 20
-3.8269205034476443
 10
22.126552144300998
 20
-3.9536980300181015
 10
22.02090420549228
 20
-4.0685021235235705
 10
21.907508751170926
 20
-4.16851550559582
 10
21.785661461744883
 20
-4.253033856642791
 10
21.65677097639825
 20
-4.322057176664484
 10
21.519428655946925
 20
-4.375585465660899
 10
21.374338819982956
 20
-4.414323043224094
 10
21.22150146850635
 20
-4.436861270169953
 10
21.0609166015171
 20
-4.4446087856825915
 10
20.943999549235457
 20
-4.440382868130243
 10
20.83412569287439
 20
-4.428409435065255
 10
20.73129503243391
 20
-4.4072798473035135
 10
20.634803248321962
 20
-4.378402744029131
 10
20.545354660130577
 20
-4.341073805650052
 10
20.462949267859788
 20
-4.295997351758334
 10
20.38758707150956
 20
-4.2417647431698615
 10
20.31926807107993
 20
-4.179784619068749
 10
20.257992266570874
 20
-4.110761299047056
 10
20.205168297166516
 20
-4.037512061473015
 10
20.160796162866863
 20
-3.960036906346624
 10
20.124171544079836
 20
-3.8776315140758273
 10
20.095294440805457
 20
-3.790295884660624
 10
20.07557349222783
 20
-3.698734337693072
 10
20.06289573957078
 20
-3.6029468731731713
 10
20.058669822018434
 20
-3.501524851916806
 10
20.07557349222783
 20
-3.307836964100831
 10
20.12558018326395
 20
-3.133870024862482
 10
20.20798557553475
 20
-2.9803283537938174
 10
20.32419830822434
 20
-2.845803311710722
 10
20.473514061740648
 20
-2.7324078573893695
 10
20.655932836083693
 20
-2.6380290320535846
 10
20.871454631253478
 20
-2.564075474887485
  0
ENDSEC
  0
SECTION
  2
OBJECTS
  0
DICTIONARY
  5
A
330
0
100
AcDbDictionary
281
1
  3
ACAD_COLOR
350
B
  3
ACAD_GROUP
350
C
  3
ACAD_LAYOUT
350
D
  3
ACAD_MATERIAL
350
E
  3
ACAD_MLEADERSTYLE
350
F
  3
ACAD_MLINESTYLE
350
10
  3
ACAD_PLOTSETTINGS
350
11
  3
ACAD_PLOTSTYLENAME
350
12
  3
ACAD_SCALELIST
350
14
  3
ACAD_TABLESTYLE
350
15
  3
ACAD_VISUALSTYLE
350
16
  3
EZDXF_META
350
2D
  0
DICTIONARY
  5
B
330
A
100
AcDbDictionary
281
1
  0
DICTIONARY
  5
C
330
A
100
AcDbDictionary
281
1
  0
DICTIONARY
  5
D
330
A
100
AcDbDictionary
281
1
  3
Model
350
1A
  3
Layout1
350
1E
  0
DICTIONARY
  5
E
330
A
100
AcDbDictionary
281
1
  3
ByBlock
350
1F
  3
ByLayer
350
20
  3
Global
350
21
  0
DICTIONARY
  5
F
330
A
100
AcDbDictionary
281
1
  3
Standard
350
2C
  0
DICTIONARY
  5
10
330
A
100
AcDbDictionary
281
1
  3
Standard
350
22
  0
DICTIONARY
  5
11
330
A
100
AcDbDictionary
281
1
  0
ACDBDICTIONARYWDFLT
  5
12
330
A
100
AcDbDictionary
281
1
  3
Normal
350
13
100
AcDbDictionaryWithDefault
340
13
  0
ACDBPLACEHOLDER
  5
13
330
12
  0
DICTIONARY
  5
14
330
A
100
AcDbDictionary
281
1
  0
DICTIONARY
  5
15
330
A
100
AcDbDictionary
281
1
  0
DICTIONARY
  5
16
330
A
100
AcDbDictionary
281
1
  0
LAYOUT
  5
1A
330
D
100
AcDbPlotSettings
  1

  4
A3
  6

 40
7.5
 41
20.0
 42
7.5
 43
20.0
 44
420.0
 45
297.0
 46
0.0
 47
0.0
 48
0.0
 49
0.0
140
0.0
141
0.0
142
1.0
143
1.0
 70
1024
 72
1
 73
0
 74
5
  7

 75
16
 76
0
 77
2
 78
300
147
1.0
148
0.0
149
0.0
100
AcDbLayout
  1
Model
 70
1
 71
0
 10
0.0
 20
0.0
 11
420.0
 21
297.0
 12
0.0
 22
0.0
 32
0.0
 14
1e+20
 24
1e+20
 34
1e+20
 15
-1e+20
 25
-1e+20
 35
-1e+20
146
0.0
 13
0.0
 23
0.0
 33
0.0
 16
1.0
 26
0.0
 36
0.0
 17
0.0
 27
1.0
 37
0.0
 76
1
330
17
  0
LAYOUT
  5
1E
330
D
100
AcDbPlotSettings
  1

  4
A3
  6

 40
7.5
 41
20.0
 42
7.5
 43
20.0
 44
420.0
 45
297.0
 46
0.0
 47
0.0
 48
0.0
 49
0.0
140
0.0
141
0.0
142
1.0
143
1.0
 70
0
 72
1
 73
0
 74
5
  7

 75
16
 76
0
 77
2
 78
300
147
1.0
148
0.0
149
0.0
100
AcDbLayout
  1
Layout1
 70
1
 71
1
 10
0.0
 20
0.0
 11
420.0
 21
297.0
 12
0.0
 22
0.0
 32
0.0
 14
1e+20
 24
1e+20
 34
1e+20
 15
-1e+20
 25
-1e+20
 35
-1e+20
146
0.0
 13
0.0
 23
0.0
 33
0.0
 16
1.0
 26
0.0
 36
0.0
 17
0.0
 27
1.0
 37
0.0
 76
1
330
1B
  0
MATERIAL
  5
1F
102
{ACAD_REACTORS
330
E
102
}
330
E
100
AcDbMaterial
  1
ByBlock
  2

 70
0
 40
1.0
 71
1
 41
1.0
 91
-1023410177
 42
1.0
 72
1
  3

 73
1
 74
1
 75
1
 44
0.5
 73
0
 45
1.0
 46
1.0
 77
1
  4

 78
1
 79
1
170
1
 48
1.0
171
1
  6

172
1
173
1
174
1
140
1.0
141
1.0
175
1
  7

176
1
177
1
178
1
143
1.0
179
1
  8

270
1
271
1
272
1
145
1.0
146
1.0
273
1
  9

274
1
275
1
276
1
 42
1.0
 72
1
  3

 73
1
 74
1
 75
1
 94
63
  0
MATERIAL
  5
20
102
{ACAD_REACTORS
330
E
102
}
330
E
100
AcDbMaterial
  1
ByLayer
  2

 70
0
 40
1.0
 71
1
 41
1.0
 91
-1023410177
 42
1.0
 72
1
  3

 73
1
 74
1
 75
1
 44
0.5
 73
0
 45
1.0
 46
1.0
 77
1
  4

 78
1
 79
1
170
1
 48
1.0
171
1
  6

172
1
173
1
174
1
140
1.0
141
1.0
175
1
  7

176
1
177
1
178
1
143
1.0
179
1
  8

270
1
271
1
272
1
145
1.0
146
1.0
273
1
  9

274
1
275
1
276
1
 42
1.0
 72
1
  3

 73
1
 74
1
 75
1
 94
63
  0
MATERIAL
  5
21
102
{ACAD_REACTORS
330
E
102
}
330
E
100
AcDbMaterial
  1
Global
  2

 70
0
 40
1.0
 71
1
 41
1.0
 91
-1023410177
 42
1.0
 72
1
  3

 73
1
 74
1
 75
1
 44
0.5
 73
0
 45
1.0
 46
1.0
 77
1
  4

 78
1
 79
1
170
1
 48
1.0
171
1
  6

172
1
173
1
174
1
140
1.0
141
1.0
175
1
  7

176
1
177
1
178
1
143
1.0
179
1
  8

270
1
271
1
272
1
145
1.0
146
1.0
273
1
  9

274
1
275
1
276
1
 42
1.0
 72
1
  3

 73
1
 74
1
 75
1
 94
63
  0
MLINESTYLE
  5
22
102
{ACAD_REACTORS
330
10
102
}
330
10
100
AcDbMlineStyle
  2
Standard
 70
0
  3

 62
256
 51
90.0
 52
90.0
 71
2
 49
0.5
 62
256
  6
BYLAYER
 49
-0.5
 62
256
  6
BYLAYER
  0
MLEADERSTYLE
  5
2C
102
{ACAD_REACTORS
330
F
102
}
330
F
100
AcDbMLeaderStyle
179
2
170
2
171
1
172
0
 90
2
 40
0.0
 41
0.0
173
1
 91
-1056964608
 92
-2
290
1
 42
2.0
291
1
 43
8.0
  3
Standard
 44
4.0
300

342
29
174
1
175
1
176
0
178
1
 93
-1056964608
 45
4.0
292
0
297
0
 46
4.0
 94
-1056964608
 47
1.0
 49
1.0
140
1.0
294
1
141
0.0
177
0
142
1.0
295
0
296
0
143
3.75
271
0
272
9
273
9
  0
DICTIONARY
  5
2D
330
A
100
AcDbDictionary
280
1
281
1
  3
CREATED_BY_EZDXF
350
2E
  3
WRITTEN_BY_EZDXF
350
3C
  0
DICTIONARYVAR
  5
2E
330
2D
100
DictionaryVariables
280
0
  1
1.4.4 @ 2026-10-03T23:17:07.907900+00:00
  0
DICTIONARYVAR
  5
3C
330
2D
100
DictionaryVariables
280
0
  1
1.4.4 @ 2026-10-03T23:17:07.914854+00:00
  0
ENDSEC
  0
EOF
